<svg width="22" height="15" viewBox="0 0 22 15" fill="none" xmlns="http://www.w3.org/2000/svg">
<path fill-rule="evenodd" clip-rule="evenodd" d="M18.5076 2.12318L11 7.81465L3.4923 2.12318H18.5076ZM20.5818 0.723183H1.41809C1.41318 0.723132 1.40828 0.723132 1.40338 0.723183H1.38457C0.997971 0.723183 0.68457 1.03658 0.68457 1.42318V14.1155C0.68457 14.5021 0.997971 14.8155 1.38457 14.8155H20.6153C21.0019 14.8155 21.3153 14.5021 21.3153 14.1155V1.42318C21.3153 1.03658 21.0019 0.723183 20.6153 0.723183H20.5965C20.5916 0.723132 20.5867 0.723132 20.5818 0.723183ZM19.9153 2.81282L11.4228 9.25088C11.1728 9.44044 10.8271 9.44044 10.5771 9.25088L2.08457 2.81282V13.4155H19.9153V2.81282Z" fill="white"/>
</svg>
