<svg width="26" height="27" viewBox="0 0 26 27" fill="none" xmlns="http://www.w3.org/2000/svg">
<path d="M12.9992 26.16C13.5635 26.1605 14.0212 25.7035 14.0217 25.1393L14.0305 14.5905L24.5793 14.5817C25.1436 14.5812 25.6006 14.1234 25.6001 13.5592C25.5996 12.995 25.1419 12.5379 24.5776 12.5384L14.0126 12.5472L14.0214 1.98251C14.0219 1.41828 13.5648 0.960502 13.0006 0.960032C12.4364 0.959561 11.9786 1.41658 11.9781 1.9808L11.9781 12.5384L1.42054 12.5384C0.856313 12.5389 0.399299 12.9967 0.399768 13.5609C0.400237 14.1251 0.858016 14.5821 1.42224 14.5816L11.9873 14.5728L11.9785 25.1376C11.978 25.7018 12.435 26.1596 12.9992 26.16Z" fill="#2E67FF"/>
</svg>
