<svg width="324" height="112" viewBox="0 0 324 112" fill="none" xmlns="http://www.w3.org/2000/svg">
<path d="M0 11.7109C0 5.24313 5.24312 0 11.7108 0H312.289C318.757 0 324 5.24312 324 11.7108V99.5422C324 106.01 318.757 111.253 312.289 111.253H2.34217C1.04862 111.253 0 110.204 0 108.911V11.7109Z" fill="white"/>
<path d="M0.585542 11.7109C0.585542 5.56652 5.56651 0.585542 11.7108 0.585542H312.289C318.433 0.585542 323.414 5.56651 323.414 11.7108V99.5422C323.414 105.686 318.434 110.667 312.289 110.667H2.34217C1.37201 110.667 0.585542 109.881 0.585542 108.911V11.7109Z" stroke="black" stroke-opacity="0.05" stroke-width="1.17108"/>
<path d="M66.2044 27.892L62.722 37.9949H60.6166L65.0036 26.3389H66.3485L66.2044 27.892ZM69.1184 37.9949L65.628 27.892L65.4759 26.3389H66.8288L71.2318 37.9949H69.1184ZM68.9502 33.6719V35.265H62.6099V33.6719H68.9502ZM74.4226 31.0942V37.9949H72.4932V29.333H74.3105L74.4226 31.0942ZM74.1103 33.3437L73.4539 33.3357C73.4539 32.738 73.5286 32.1856 73.678 31.6786C73.8275 31.1716 74.0463 30.7313 74.3345 30.3577C74.6227 29.9787 74.9803 29.6879 75.4072 29.4851C75.8395 29.2769 76.3385 29.1729 76.9042 29.1729C77.2992 29.1729 77.6594 29.2316 77.985 29.349C78.3159 29.4611 78.6014 29.6398 78.8416 29.8853C79.0871 30.1308 79.2739 30.4457 79.4019 30.83C79.5354 31.2142 79.6021 31.6786 79.6021 32.2229V37.9949H77.6728V32.3911C77.6728 31.9694 77.6087 31.6385 77.4806 31.3984C77.3579 31.1582 77.1791 30.9874 76.9443 30.886C76.7148 30.7793 76.4399 30.7259 76.1197 30.7259C75.7568 30.7259 75.4473 30.7953 75.1911 30.9341C74.9402 31.0728 74.7348 31.2623 74.5747 31.5024C74.4145 31.7426 74.2971 32.0201 74.2224 32.335C74.1477 32.6499 74.1103 32.9861 74.1103 33.3437ZM79.482 32.8314L78.5774 33.0315C78.5774 32.5085 78.6494 32.0148 78.7935 31.5505C78.943 31.0808 79.1591 30.6699 79.442 30.3176C79.7302 29.9601 80.0851 29.6799 80.5067 29.4771C80.9283 29.2743 81.4113 29.1729 81.9557 29.1729C82.3987 29.1729 82.7936 29.2342 83.1405 29.357C83.4927 29.4744 83.7916 29.6612 84.0371 29.9174C84.2826 30.1735 84.4694 30.5071 84.5975 30.918C84.7256 31.3237 84.7896 31.8147 84.7896 32.3911V37.9949H82.8523V32.383C82.8523 31.9454 82.7883 31.6065 82.6602 31.3664C82.5374 31.1262 82.3613 30.9607 82.1318 30.87C81.9023 30.7739 81.6275 30.7259 81.3072 30.7259C81.0084 30.7259 80.7442 30.782 80.5147 30.894C80.2906 31.0008 80.1011 31.1529 79.9463 31.3503C79.7915 31.5425 79.6741 31.764 79.5941 32.0148C79.5194 32.2656 79.482 32.5378 79.482 32.8314ZM86.6995 33.76V33.5759C86.6995 32.9514 86.7902 32.3724 86.9717 31.8387C87.1531 31.2996 87.4147 30.8327 87.7562 30.4377C88.1031 30.0374 88.5247 29.7279 89.0211 29.5091C89.5228 29.2849 90.0885 29.1729 90.7182 29.1729C91.3533 29.1729 91.9191 29.2849 92.4154 29.5091C92.9171 29.7279 93.3414 30.0374 93.6883 30.4377C94.0352 30.8327 94.2993 31.2996 94.4808 31.8387C94.6623 32.3724 94.753 32.9514 94.753 33.5759V33.76C94.753 34.3844 94.6623 34.9635 94.4808 35.4972C94.2993 36.0309 94.0352 36.4979 93.6883 36.8981C93.3414 37.2931 92.9197 37.6026 92.4234 37.8268C91.9271 38.0456 91.364 38.155 90.7342 38.155C90.0991 38.155 89.5308 38.0456 89.0291 37.8268C88.5327 37.6026 88.1111 37.2931 87.7642 36.8981C87.4173 36.4979 87.1531 36.0309 86.9717 35.4972C86.7902 34.9635 86.6995 34.3844 86.6995 33.76ZM88.6288 33.5759V33.76C88.6288 34.1496 88.6688 34.5178 88.7489 34.8647C88.8289 35.2116 88.9544 35.5158 89.1252 35.7774C89.2959 36.0389 89.5148 36.2443 89.7816 36.3938C90.0484 36.5432 90.366 36.6179 90.7342 36.6179C91.0918 36.6179 91.4014 36.5432 91.6629 36.3938C91.9297 36.2443 92.1485 36.0389 92.3193 35.7774C92.4901 35.5158 92.6155 35.2116 92.6956 34.8647C92.781 34.5178 92.8237 34.1496 92.8237 33.76V33.5759C92.8237 33.1916 92.781 32.8287 92.6956 32.4871C92.6155 32.1402 92.4874 31.8333 92.3113 31.5665C92.1405 31.2996 91.9217 31.0915 91.6549 30.9421C91.3934 30.7873 91.0812 30.7099 90.7182 30.7099C90.3553 30.7099 90.0404 30.7873 89.7736 30.9421C89.5121 31.0915 89.2959 31.2996 89.1252 31.5665C88.9544 31.8333 88.8289 32.1402 88.7489 32.4871C88.6688 32.8287 88.6288 33.1916 88.6288 33.5759ZM97.9598 29.333L99.6089 32.2069L101.29 29.333H103.411L100.786 33.5839L103.516 37.9949H101.394L99.6329 35.0008L97.8717 37.9949H95.7422L98.4641 33.5839L95.8463 29.333H97.9598ZM107.091 29.333V37.9949H105.153V29.333H107.091ZM105.025 27.0594C105.025 26.7659 105.121 26.523 105.313 26.3309C105.511 26.1334 105.783 26.0347 106.13 26.0347C106.471 26.0347 106.741 26.1334 106.938 26.3309C107.136 26.523 107.235 26.7659 107.235 27.0594C107.235 27.3476 107.136 27.5878 106.938 27.7799C106.741 27.972 106.471 28.0681 106.13 28.0681C105.783 28.0681 105.511 27.972 105.313 27.7799C105.121 27.5878 105.025 27.3476 105.025 27.0594ZM113.035 36.6179C113.35 36.6179 113.633 36.5566 113.884 36.4338C114.14 36.3057 114.345 36.1296 114.5 35.9054C114.66 35.6813 114.748 35.4225 114.764 35.1289H116.582C116.571 35.6893 116.405 36.199 116.085 36.658C115.765 37.1169 115.341 37.4825 114.812 37.7547C114.284 38.0216 113.7 38.155 113.059 38.155C112.397 38.155 111.821 38.0429 111.33 37.8188C110.839 37.5893 110.431 37.2744 110.105 36.8741C109.78 36.4738 109.534 36.0122 109.369 35.4892C109.209 34.9661 109.129 34.4058 109.129 33.808V33.5278C109.129 32.9301 109.209 32.3697 109.369 31.8467C109.534 31.3183 109.78 30.854 110.105 30.4537C110.431 30.0535 110.839 29.7412 111.33 29.5171C111.821 29.2876 112.395 29.1729 113.051 29.1729C113.745 29.1729 114.353 29.3116 114.876 29.5891C115.399 29.8613 115.81 30.2429 116.109 30.7339C116.413 31.2196 116.571 31.7853 116.582 32.4311H114.764C114.748 32.1109 114.668 31.8227 114.524 31.5665C114.385 31.305 114.188 31.0968 113.932 30.9421C113.681 30.7873 113.379 30.7099 113.027 30.7099C112.638 30.7099 112.315 30.79 112.059 30.9501C111.802 31.1048 111.602 31.3183 111.458 31.5905C111.314 31.8574 111.21 32.1589 111.146 32.4951C111.087 32.826 111.058 33.1702 111.058 33.5278V33.808C111.058 34.1656 111.087 34.5125 111.146 34.8487C111.205 35.185 111.306 35.4865 111.45 35.7533C111.6 36.0149 111.802 36.2257 112.059 36.3858C112.315 36.5405 112.64 36.6179 113.035 36.6179ZM120.421 29.333V37.9949H118.483V29.333H120.421ZM118.355 27.0594C118.355 26.7659 118.451 26.523 118.644 26.3309C118.841 26.1334 119.113 26.0347 119.46 26.0347C119.802 26.0347 120.071 26.1334 120.269 26.3309C120.466 26.523 120.565 26.7659 120.565 27.0594C120.565 27.3476 120.466 27.5878 120.269 27.7799C120.071 27.972 119.802 28.0681 119.46 28.0681C119.113 28.0681 118.841 27.972 118.644 27.7799C118.451 27.5878 118.355 27.3476 118.355 27.0594ZM124.892 25.6985V37.9949H122.955V25.6985H124.892ZM129.364 25.6985V37.9949H127.427V25.6985H129.364ZM133.836 29.333V37.9949H131.898V29.333H133.836ZM131.77 27.0594C131.77 26.7659 131.866 26.523 132.058 26.3309C132.256 26.1334 132.528 26.0347 132.875 26.0347C133.217 26.0347 133.486 26.1334 133.684 26.3309C133.881 26.523 133.98 26.7659 133.98 27.0594C133.98 27.3476 133.881 27.5878 133.684 27.7799C133.486 27.972 133.217 28.0681 132.875 28.0681C132.528 28.0681 132.256 27.972 132.058 27.7799C131.866 27.5878 131.77 27.3476 131.77 27.0594ZM138.155 31.1822V37.9949H136.226V29.333H138.043L138.155 31.1822ZM137.811 33.3437L137.187 33.3357C137.192 32.7219 137.277 32.1589 137.443 31.6465C137.613 31.1342 137.848 30.6939 138.147 30.3256C138.451 29.9574 138.814 29.6745 139.236 29.4771C139.658 29.2743 140.127 29.1729 140.645 29.1729C141.061 29.1729 141.437 29.2316 141.774 29.349C142.115 29.4611 142.406 29.6452 142.646 29.9014C142.892 30.1575 143.079 30.4911 143.207 30.902C143.335 31.3076 143.399 31.8067 143.399 32.3991V37.9949H141.461V32.3911C141.461 31.9748 141.4 31.6465 141.277 31.4064C141.16 31.1609 140.986 30.9874 140.757 30.886C140.533 30.7793 140.253 30.7259 139.916 30.7259C139.585 30.7259 139.289 30.7953 139.028 30.9341C138.766 31.0728 138.545 31.2623 138.363 31.5024C138.187 31.7426 138.051 32.0201 137.955 32.335C137.859 32.6499 137.811 32.9861 137.811 33.3437Z" fill="#3A3A3A"/>
<rect x="21.5996" y="18.5248" width="28.8" height="24.6999" rx="2.34217" fill="#2E67FF" fill-opacity="0.1"/>
<path d="M29.0515 66.7872V68.1047H22.3544V66.9725L25.6069 63.4249C25.9637 63.0224 26.2451 62.6747 26.4509 62.3819C26.6568 62.0891 26.8009 61.8261 26.8832 61.5928C26.9701 61.3549 27.0136 61.1239 27.0136 60.8998C27.0136 60.5841 26.9541 60.3074 26.8352 60.0695C26.7208 59.827 26.5516 59.6372 26.3274 59.4999C26.1033 59.3581 25.8311 59.2872 25.5108 59.2872C25.1403 59.2872 24.8292 59.3673 24.5776 59.5274C24.326 59.6875 24.1362 59.9094 24.0081 60.193C23.88 60.472 23.816 60.7923 23.816 61.1536H22.1623C22.1623 60.5727 22.2949 60.042 22.5603 59.5617C22.8256 59.0768 23.2099 58.6925 23.7131 58.4089C24.2163 58.1207 24.8224 57.9766 25.5314 57.9766C26.1993 57.9766 26.7666 58.0887 27.2332 58.3129C27.6998 58.537 28.0543 58.8549 28.2967 59.2666C28.5438 59.6784 28.6673 60.1655 28.6673 60.7282C28.6673 61.0393 28.617 61.3481 28.5163 61.6546C28.4157 61.9611 28.2716 62.2676 28.084 62.574C27.9011 62.876 27.6838 63.1802 27.4322 63.4867C27.1806 63.7886 26.9038 64.0951 26.6019 64.4062L24.4404 66.7872H29.0515ZM32.0776 63.4592L30.7601 63.1367L31.3022 58.1139H36.6888V59.5137H32.6746L32.4001 61.9633C32.5557 61.8719 32.7707 61.7826 33.0451 61.6957C33.3196 61.6042 33.633 61.5585 33.9852 61.5585C34.4564 61.5585 34.8772 61.6363 35.2478 61.7918C35.6229 61.9428 35.9408 62.1646 36.2016 62.4574C36.4623 62.7456 36.6613 63.0978 36.7985 63.5141C36.9358 63.9258 37.0044 64.3901 37.0044 64.9071C37.0044 65.3691 36.9358 65.8014 36.7985 66.204C36.6659 66.6065 36.4646 66.961 36.1947 67.2675C35.9248 67.574 35.584 67.8142 35.1723 67.988C34.7652 68.1573 34.2825 68.2419 33.7245 68.2419C33.3082 68.2419 32.9079 68.1824 32.5236 68.0635C32.1439 67.94 31.8031 67.7593 31.5012 67.5214C31.1993 67.279 30.9568 66.9816 30.7739 66.6294C30.5909 66.2726 30.4857 65.8631 30.4582 65.4011H32.0776C32.1188 65.7259 32.208 66.0027 32.3452 66.2314C32.487 66.4556 32.6746 66.6271 32.9079 66.746C33.1412 66.865 33.4111 66.9244 33.7176 66.9244C33.9966 66.9244 34.2368 66.8764 34.4381 66.7803C34.6394 66.6797 34.8063 66.5379 34.939 66.3549C35.0762 66.1674 35.1769 65.9478 35.2409 65.6962C35.3095 65.4446 35.3438 65.1655 35.3438 64.859C35.3438 64.5663 35.305 64.2987 35.2272 64.0562C35.154 63.8137 35.0419 63.6033 34.891 63.4249C34.7446 63.2465 34.5593 63.1093 34.3352 63.0132C34.111 62.9126 33.8525 62.8622 33.5598 62.8622C33.1664 62.8622 32.8644 62.9194 32.654 63.0338C32.4482 63.1482 32.256 63.29 32.0776 63.4592ZM44.8406 62.2721V63.9052C44.8406 64.6875 44.7628 65.3554 44.6073 65.9089C44.4563 66.4578 44.2368 66.9039 43.9486 67.2469C43.6604 67.59 43.315 67.8416 42.9124 68.0017C42.5144 68.1619 42.0684 68.2419 41.5744 68.2419C41.181 68.2419 40.815 68.1916 40.4765 68.091C40.1425 67.9903 39.8406 67.8325 39.5707 67.6175C39.3008 67.4025 39.0698 67.1257 38.8777 66.7872C38.6901 66.4441 38.5437 66.0347 38.4385 65.5589C38.3379 65.0832 38.2876 64.532 38.2876 63.9052V62.2721C38.2876 61.4853 38.3653 60.822 38.5209 60.2822C38.6764 59.7378 38.8983 59.2964 39.1865 58.9579C39.4747 58.6148 39.8177 58.3655 40.2157 58.2099C40.6183 58.0544 41.0666 57.9766 41.5607 57.9766C41.9586 57.9766 42.3246 58.0269 42.6585 58.1276C42.9971 58.2236 43.299 58.3769 43.5643 58.5873C43.8342 58.7978 44.0629 59.0722 44.2505 59.4107C44.4426 59.7447 44.589 60.1495 44.6896 60.6253C44.7903 61.0965 44.8406 61.6454 44.8406 62.2721ZM43.1869 64.1385V62.0251C43.1869 61.6271 43.164 61.2772 43.1183 60.9752C43.0725 60.6687 43.0039 60.4103 42.9124 60.1999C42.8255 59.9849 42.7157 59.811 42.5831 59.6784C42.4504 59.5411 42.2994 59.4428 42.1302 59.3833C41.9609 59.3193 41.7711 59.2872 41.5607 59.2872C41.3045 59.2872 41.0758 59.3376 40.8745 59.4382C40.6732 59.5343 40.5039 59.6898 40.3667 59.9048C40.2295 60.1198 40.1242 60.4034 40.0511 60.7557C39.9824 61.1033 39.9481 61.5265 39.9481 62.0251V64.1385C39.9481 64.5411 39.971 64.8956 40.0167 65.2021C40.0625 65.5086 40.1311 65.7717 40.2226 65.9912C40.3141 66.2062 40.4239 66.3846 40.552 66.5265C40.6846 66.6637 40.8356 66.7643 41.0048 66.8284C41.1787 66.8924 41.3685 66.9244 41.5744 66.9244C41.8351 66.9244 42.0661 66.8741 42.2674 66.7735C42.4687 66.6728 42.638 66.5127 42.7752 66.2932C42.9124 66.069 43.0154 65.7785 43.084 65.4217C43.1526 65.0649 43.1869 64.6372 43.1869 64.1385ZM48.0657 62.1898V68.1047H46.412V60.6802H47.9696L48.0657 62.1898ZM47.7981 64.118L47.2354 64.1111C47.2354 63.5987 47.2994 63.1253 47.4275 62.6907C47.5556 62.2561 47.7432 61.8787 47.9902 61.5585C48.2372 61.2337 48.5437 60.9844 48.9097 60.8106C49.2802 60.6321 49.7079 60.5429 50.1928 60.5429C50.5313 60.5429 50.8401 60.5933 51.1192 60.6939C51.4028 60.79 51.6475 60.9432 51.8534 61.1536C52.0638 61.3641 52.2239 61.634 52.3337 61.9633C52.4481 62.2927 52.5053 62.6907 52.5053 63.1573V68.1047H50.8516V63.3014C50.8516 62.94 50.7967 62.6564 50.6869 62.4505C50.5817 62.2447 50.4284 62.0983 50.2271 62.0114C50.0304 61.9199 49.7948 61.8741 49.5204 61.8741C49.2093 61.8741 48.944 61.9336 48.7244 62.0525C48.5094 62.1715 48.3333 62.3339 48.196 62.5397C48.0588 62.7456 47.9582 62.9835 47.8941 63.2534C47.8301 63.5233 47.7981 63.8115 47.7981 64.118ZM52.4023 63.6788L51.6269 63.8503C51.6269 63.402 51.6887 62.9789 51.8122 62.5809C51.9403 62.1783 52.1256 61.8261 52.368 61.5242C52.6151 61.2177 52.9193 60.9775 53.2806 60.8037C53.642 60.6299 54.056 60.5429 54.5226 60.5429C54.9023 60.5429 55.2408 60.5956 55.5382 60.7008C55.8401 60.8014 56.0963 60.9615 56.3067 61.1811C56.5171 61.4007 56.6772 61.6866 56.787 62.0388C56.8968 62.3865 56.9517 62.8073 56.9517 63.3014V68.1047H55.2912V63.2945C55.2912 62.9194 55.2363 62.6289 55.1265 62.4231C55.0213 62.2172 54.8703 62.0754 54.6736 61.9977C54.4769 61.9153 54.2413 61.8741 53.9668 61.8741C53.7107 61.8741 53.4842 61.9222 53.2875 62.0182C53.0954 62.1097 52.933 62.2401 52.8003 62.4094C52.6677 62.574 52.567 62.7639 52.4984 62.9789C52.4344 63.1939 52.4023 63.4272 52.4023 63.6788ZM63.4087 60.6802H64.9114V67.8988C64.9114 68.5667 64.7696 69.1339 64.486 69.6006C64.2024 70.0672 63.8067 70.4217 63.2989 70.6641C62.7911 70.9112 62.2033 71.0347 61.5354 71.0347C61.2518 71.0347 60.9362 70.9935 60.5885 70.9112C60.2454 70.8288 59.9115 70.6962 59.5867 70.5132C59.2664 70.3348 58.9988 70.0992 58.7838 69.8064L59.5592 68.832C59.8245 69.1477 60.1173 69.3787 60.4375 69.5251C60.7577 69.6715 61.094 69.7447 61.4462 69.7447C61.8259 69.7447 62.1484 69.6737 62.4137 69.5319C62.6836 69.3947 62.8918 69.1911 63.0382 68.9212C63.1845 68.6513 63.2577 68.322 63.2577 67.9331V62.3613L63.4087 60.6802ZM58.3653 64.4748V64.3307C58.3653 63.768 58.4339 63.2557 58.5711 62.7936C58.7084 62.327 58.9051 61.9267 59.1612 61.5928C59.4174 61.2543 59.7285 60.9958 60.0944 60.8174C60.4604 60.6344 60.8744 60.5429 61.3364 60.5429C61.8168 60.5429 62.2262 60.6299 62.5647 60.8037C62.9078 60.9775 63.1937 61.2268 63.4224 61.5516C63.6512 61.8719 63.8296 62.2561 63.9576 62.7044C64.0903 63.1482 64.1887 63.6422 64.2527 64.1866V64.6463C64.1932 65.177 64.0926 65.6619 63.9508 66.101C63.809 66.5402 63.6214 66.9199 63.3881 67.2401C63.1548 67.5603 62.8666 67.8073 62.5235 67.9812C62.185 68.155 61.7847 68.2419 61.3227 68.2419C60.8698 68.2419 60.4604 68.1481 60.0944 67.9606C59.733 67.773 59.422 67.51 59.1612 67.1715C58.9051 66.833 58.7084 66.435 58.5711 65.9775C58.4339 65.5155 58.3653 65.0146 58.3653 64.4748ZM60.019 64.3307V64.4748C60.019 64.8133 60.051 65.1289 60.115 65.4217C60.1836 65.7145 60.2866 65.9729 60.4238 66.1971C60.5656 66.4167 60.744 66.5905 60.959 66.7186C61.1786 66.8421 61.4371 66.9039 61.7344 66.9039C62.1233 66.9039 62.4412 66.8215 62.6882 66.6568C62.9398 66.4921 63.1319 66.2703 63.2646 65.9912C63.4018 65.7076 63.4979 65.392 63.5528 65.0443V63.8023C63.5253 63.5324 63.4682 63.2808 63.3813 63.0475C63.2989 62.8142 63.1868 62.6106 63.045 62.4368C62.9032 62.2584 62.7248 62.1212 62.5098 62.0251C62.2948 61.9245 62.0409 61.8741 61.7481 61.8741C61.4508 61.8741 61.1923 61.9382 60.9728 62.0663C60.7532 62.1944 60.5725 62.3705 60.4307 62.5946C60.2934 62.8188 60.1905 63.0795 60.1219 63.3769C60.0533 63.6742 60.019 63.9922 60.019 64.3307ZM76.1923 64.8522H77.9077C77.8528 65.5063 77.6699 66.0896 77.3588 66.6019C77.0477 67.1097 76.6108 67.51 76.0482 67.8028C75.4855 68.0955 74.8016 68.2419 73.9965 68.2419C73.3789 68.2419 72.8231 68.1321 72.3291 67.9125C71.835 67.6884 71.4119 67.3727 71.0596 66.9656C70.7074 66.5539 70.4375 66.0576 70.2499 65.4766C70.067 64.8956 69.9755 64.246 69.9755 63.5278V62.6976C69.9755 61.9794 70.0692 61.3298 70.2568 60.7488C70.4489 60.1678 70.7234 59.6715 71.0802 59.2598C71.437 58.8435 71.8647 58.5256 72.3634 58.306C72.8666 58.0864 73.4315 57.9766 74.0582 57.9766C74.8542 57.9766 75.5267 58.123 76.0756 58.4158C76.6246 58.7086 77.05 59.1134 77.3519 59.6303C77.6584 60.1472 77.846 60.7397 77.9146 61.4075H76.1991C76.1534 60.9775 76.0527 60.6093 75.8972 60.3028C75.7463 59.9963 75.5221 59.763 75.2248 59.6029C74.9274 59.4382 74.5386 59.3559 74.0582 59.3559C73.6648 59.3559 73.3217 59.429 73.029 59.5754C72.7362 59.7218 72.4915 59.9368 72.2948 60.2204C72.0981 60.5041 71.9494 60.854 71.8487 61.2703C71.7527 61.682 71.7046 62.1532 71.7046 62.6838V63.5278C71.7046 64.031 71.7481 64.4885 71.835 64.9002C71.9265 65.3073 72.0637 65.6573 72.2467 65.9501C72.4343 66.2428 72.6722 66.4693 72.9604 66.6294C73.2486 66.7895 73.5939 66.8695 73.9965 66.8695C74.486 66.8695 74.8817 66.7918 75.1836 66.6362C75.4901 66.4807 75.7211 66.2543 75.8766 65.9569C76.0367 65.655 76.142 65.2868 76.1923 64.8522ZM83.4933 66.6157V63.075C83.4933 62.8096 83.4452 62.5809 83.3492 62.3888C83.2531 62.1966 83.1067 62.048 82.91 61.9428C82.7179 61.8375 82.4754 61.7849 82.1826 61.7849C81.9127 61.7849 81.6794 61.8307 81.4827 61.9222C81.286 62.0137 81.1328 62.1372 81.023 62.2927C80.9132 62.4482 80.8583 62.6244 80.8583 62.8211H79.2115C79.2115 62.5283 79.2824 62.2447 79.4242 61.9702C79.566 61.6957 79.7719 61.451 80.0418 61.236C80.3117 61.021 80.6342 60.8517 81.0093 60.7282C81.3844 60.6047 81.8052 60.5429 82.2719 60.5429C82.8299 60.5429 83.324 60.6367 83.754 60.8243C84.1886 61.0118 84.5294 61.2955 84.7764 61.6751C85.028 62.0503 85.1538 62.5214 85.1538 63.0887V66.3892C85.1538 66.7277 85.1767 67.0319 85.2224 67.3018C85.2728 67.5672 85.3437 67.7982 85.4352 67.9949V68.1047H83.7403C83.6625 67.9263 83.6008 67.6998 83.555 67.4254C83.5138 67.1463 83.4933 66.8764 83.4933 66.6157ZM83.7334 63.5896L83.7471 64.612H82.56C82.2536 64.612 81.9837 64.6417 81.7504 64.7012C81.517 64.7561 81.3226 64.8384 81.1671 64.9482C81.0116 65.058 80.8949 65.1907 80.8171 65.3462C80.7394 65.5018 80.7005 65.6779 80.7005 65.8746C80.7005 66.0713 80.7462 66.252 80.8377 66.4167C80.9292 66.5768 81.0619 66.7026 81.2357 66.7941C81.4141 66.8856 81.6291 66.9313 81.8807 66.9313C82.2192 66.9313 82.5143 66.8627 82.7659 66.7254C83.0221 66.5836 83.2234 66.4121 83.3697 66.2108C83.5161 66.005 83.5939 65.8105 83.603 65.6276L84.1383 66.3618C84.0834 66.5493 83.9896 66.7506 83.8569 66.9656C83.7243 67.1806 83.5504 67.3865 83.3354 67.5832C83.125 67.7753 82.8711 67.9331 82.5738 68.0566C82.281 68.1802 81.9425 68.2419 81.5582 68.2419C81.0733 68.2419 80.641 68.1458 80.2613 67.9537C79.8816 67.757 79.5843 67.494 79.3693 67.1646C79.1543 66.8307 79.0468 66.4533 79.0468 66.0324C79.0468 65.639 79.12 65.2913 79.2664 64.9894C79.4173 64.6829 79.6369 64.4267 79.9251 64.2209C80.2179 64.015 80.5747 63.8595 80.9956 63.7543C81.4164 63.6445 81.8967 63.5896 82.4365 63.5896H83.7334ZM88.5436 62.1074V70.9592H86.8899V60.6802H88.4132L88.5436 62.1074ZM93.3811 64.3238V64.4679C93.3811 65.0077 93.3171 65.5086 93.189 65.9706C93.0655 66.4281 92.8802 66.8284 92.6332 67.1715C92.3908 67.51 92.0911 67.773 91.7343 67.9606C91.3775 68.1481 90.9658 68.2419 90.4992 68.2419C90.0371 68.2419 89.6323 68.1573 89.2846 67.988C88.9415 67.8142 88.6511 67.5695 88.4132 67.2538C88.1753 66.9382 87.9832 66.5676 87.8368 66.1422C87.695 65.7122 87.5943 65.241 87.5349 64.7287V64.1729C87.5943 63.6285 87.695 63.1344 87.8368 62.6907C87.9832 62.247 88.1753 61.865 88.4132 61.5448C88.6511 61.2246 88.9415 60.9775 89.2846 60.8037C89.6277 60.6299 90.028 60.5429 90.4855 60.5429C90.9521 60.5429 91.3661 60.6344 91.7274 60.8174C92.0888 60.9958 92.393 61.252 92.6401 61.5859C92.8871 61.9153 93.0724 62.3133 93.1959 62.7799C93.3194 63.2419 93.3811 63.7566 93.3811 64.3238ZM91.7274 64.4679V64.3238C91.7274 63.9807 91.6954 63.6628 91.6314 63.37C91.5673 63.0727 91.4667 62.8119 91.3295 62.5878C91.1922 62.3636 91.0161 62.1898 90.8011 62.0663C90.5907 61.9382 90.3368 61.8741 90.0394 61.8741C89.7467 61.8741 89.4951 61.9245 89.2846 62.0251C89.0742 62.1212 88.8981 62.2561 88.7563 62.4299C88.6145 62.6038 88.5047 62.8073 88.4269 63.0406C88.3491 63.2694 88.2942 63.5187 88.2622 63.7886V65.1198C88.3171 65.4491 88.4109 65.7511 88.5436 66.0255C88.6762 66.3 88.8638 66.5196 89.1062 66.6843C89.3532 66.8444 89.6689 66.9244 90.0532 66.9244C90.3505 66.9244 90.6044 66.8604 90.8148 66.7323C91.0252 66.6042 91.1968 66.4281 91.3295 66.204C91.4667 65.9752 91.5673 65.7122 91.6314 65.4148C91.6954 65.1175 91.7274 64.8019 91.7274 64.4679ZM98.9529 66.0942C98.9529 65.9295 98.9118 65.7808 98.8294 65.6481C98.7471 65.5109 98.5893 65.3874 98.356 65.2776C98.1272 65.1678 97.7887 65.0672 97.3404 64.9757C96.947 64.8888 96.5856 64.7858 96.2562 64.6669C95.9315 64.5434 95.6524 64.3947 95.4191 64.2209C95.1858 64.0471 95.0051 63.8412 94.877 63.6033C94.7489 63.3654 94.6849 63.091 94.6849 62.7799C94.6849 62.478 94.7512 62.1921 94.8839 61.9222C95.0165 61.6523 95.2064 61.4144 95.4534 61.2085C95.7004 61.0027 96.0001 60.8403 96.3523 60.7214C96.7091 60.6024 97.1071 60.5429 97.5463 60.5429C98.1684 60.5429 98.7013 60.6482 99.1451 60.8586C99.5934 61.0644 99.9365 61.3458 100.174 61.7026C100.412 62.0548 100.531 62.4528 100.531 62.8966H98.8775C98.8775 62.6998 98.8271 62.5169 98.7265 62.3476C98.6304 62.1738 98.4841 62.0342 98.2873 61.929C98.0906 61.8192 97.8436 61.7644 97.5463 61.7644C97.2626 61.7644 97.0271 61.8101 96.8395 61.9016C96.6565 61.9885 96.5193 62.1029 96.4278 62.2447C96.3409 62.3865 96.2974 62.542 96.2974 62.7113C96.2974 62.8348 96.3203 62.9469 96.366 63.0475C96.4164 63.1436 96.4987 63.2328 96.6131 63.3151C96.7274 63.3929 96.883 63.4661 97.0797 63.5347C97.2809 63.6033 97.5325 63.6697 97.8345 63.7337C98.4017 63.8526 98.8889 64.0059 99.296 64.1934C99.7077 64.3764 100.023 64.6143 100.243 64.9071C100.463 65.1953 100.572 65.5612 100.572 66.005C100.572 66.3343 100.501 66.6362 100.36 66.9107C100.222 67.1806 100.021 67.4162 99.7558 67.6175C99.4905 67.8142 99.1725 67.9674 98.802 68.0772C98.436 68.187 98.0243 68.2419 97.5669 68.2419C96.8944 68.2419 96.3249 68.123 95.8583 67.8851C95.3917 67.6426 95.0371 67.3339 94.7947 66.9588C94.5568 66.5791 94.4379 66.1857 94.4379 65.7785H96.0367C96.055 66.085 96.1396 66.3298 96.2906 66.5127C96.4461 66.6911 96.6382 66.8215 96.8669 66.9039C97.1003 66.9816 97.3404 67.0205 97.5874 67.0205C97.8848 67.0205 98.1341 66.9816 98.3354 66.9039C98.5367 66.8215 98.6899 66.7117 98.7951 66.5745C98.9003 66.4327 98.9529 66.2726 98.9529 66.0942ZM106.487 66.3549V60.6802H108.148V68.1047H106.583L106.487 66.3549ZM106.721 64.811L107.276 64.7973C107.276 65.2959 107.221 65.7556 107.112 66.1765C107.002 66.5928 106.833 66.9565 106.604 67.2675C106.375 67.574 106.082 67.8142 105.726 67.988C105.369 68.1573 104.941 68.2419 104.442 68.2419C104.081 68.2419 103.749 68.1893 103.447 68.0841C103.146 67.9789 102.885 67.8165 102.665 67.5969C102.45 67.3773 102.283 67.0914 102.164 66.7392C102.045 66.3869 101.986 65.9661 101.986 65.4766V60.6802H103.64V65.4903C103.64 65.7602 103.672 65.9867 103.736 66.1696C103.8 66.348 103.887 66.4921 103.996 66.6019C104.106 66.7117 104.234 66.7895 104.381 66.8352C104.527 66.881 104.683 66.9039 104.847 66.9039C105.318 66.9039 105.689 66.8124 105.959 66.6294C106.233 66.4418 106.428 66.1902 106.542 65.8746C106.661 65.5589 106.721 65.2044 106.721 64.811ZM111.613 57.5649V68.1047H109.952V57.5649H111.613ZM116.698 68.2419C116.149 68.2419 115.652 68.1527 115.209 67.9743C114.769 67.7913 114.394 67.5374 114.083 67.2126C113.777 66.8878 113.541 66.5059 113.376 66.0667C113.212 65.6276 113.129 65.1541 113.129 64.6463V64.3718C113.129 63.7909 113.214 63.2648 113.383 62.7936C113.553 62.3224 113.788 61.9199 114.09 61.5859C114.392 61.2474 114.749 60.989 115.161 60.8106C115.572 60.6321 116.018 60.5429 116.499 60.5429C117.029 60.5429 117.494 60.6321 117.892 60.8106C118.29 60.989 118.619 61.2406 118.88 61.5654C119.145 61.8856 119.342 62.2676 119.47 62.7113C119.602 63.155 119.669 63.6445 119.669 64.1797V64.8865H113.932V63.6994H118.036V63.569C118.027 63.2717 117.967 62.9926 117.857 62.7319C117.752 62.4711 117.59 62.2607 117.37 62.1006C117.15 61.9405 116.858 61.8604 116.492 61.8604C116.217 61.8604 115.973 61.9199 115.758 62.0388C115.547 62.1532 115.371 62.3202 115.229 62.5397C115.087 62.7593 114.978 63.0246 114.9 63.3357C114.827 63.6422 114.79 63.9876 114.79 64.3718V64.6463C114.79 64.9711 114.833 65.273 114.92 65.5521C115.012 65.8266 115.145 66.0667 115.318 66.2726C115.492 66.4784 115.703 66.6408 115.95 66.7598C116.197 66.8741 116.478 66.9313 116.794 66.9313C117.192 66.9313 117.546 66.8512 117.857 66.6911C118.168 66.531 118.438 66.3046 118.667 66.0118L119.538 66.8558C119.378 67.0891 119.17 67.3133 118.914 67.5283C118.658 67.7387 118.344 67.9103 117.974 68.0429C117.608 68.1756 117.183 68.2419 116.698 68.2419ZM125.124 66.0942C125.124 65.9295 125.083 65.7808 125 65.6481C124.918 65.5109 124.76 65.3874 124.527 65.2776C124.298 65.1678 123.96 65.0672 123.511 64.9757C123.118 64.8888 122.757 64.7858 122.427 64.6669C122.102 64.5434 121.823 64.3947 121.59 64.2209C121.357 64.0471 121.176 63.8412 121.048 63.6033C120.92 63.3654 120.856 63.091 120.856 62.7799C120.856 62.478 120.922 62.1921 121.055 61.9222C121.188 61.6523 121.377 61.4144 121.624 61.2085C121.871 61.0027 122.171 60.8403 122.523 60.7214C122.88 60.6024 123.278 60.5429 123.717 60.5429C124.339 60.5429 124.872 60.6482 125.316 60.8586C125.764 61.0644 126.107 61.3458 126.345 61.7026C126.583 62.0548 126.702 62.4528 126.702 62.8966H125.048C125.048 62.6998 124.998 62.5169 124.897 62.3476C124.801 62.1738 124.655 62.0342 124.458 61.929C124.262 61.8192 124.015 61.7644 123.717 61.7644C123.434 61.7644 123.198 61.8101 123.01 61.9016C122.828 61.9885 122.69 62.1029 122.599 62.2447C122.512 62.3865 122.468 62.542 122.468 62.7113C122.468 62.8348 122.491 62.9469 122.537 63.0475C122.587 63.1436 122.67 63.2328 122.784 63.3151C122.898 63.3929 123.054 63.4661 123.251 63.5347C123.452 63.6033 123.704 63.6697 124.005 63.7337C124.573 63.8526 125.06 64.0059 125.467 64.1934C125.879 64.3764 126.194 64.6143 126.414 64.9071C126.634 65.1953 126.743 65.5612 126.743 66.005C126.743 66.3343 126.672 66.6362 126.531 66.9107C126.393 67.1806 126.192 67.4162 125.927 67.6175C125.661 67.8142 125.344 67.9674 124.973 68.0772C124.607 68.187 124.195 68.2419 123.738 68.2419C123.065 68.2419 122.496 68.123 122.029 67.8851C121.563 67.6426 121.208 67.3339 120.966 66.9588C120.728 66.5791 120.609 66.1857 120.609 65.7785H122.208C122.226 66.085 122.311 66.3298 122.462 66.5127C122.617 66.6911 122.809 66.8215 123.038 66.9039C123.271 66.9816 123.511 67.0205 123.758 67.0205C124.056 67.0205 124.305 66.9816 124.506 66.9039C124.708 66.8215 124.861 66.7117 124.966 66.5745C125.071 66.4327 125.124 66.2726 125.124 66.0942Z" fill="#3A3A3A"/>
<path d="M26.4509 82.0575V92.0483H25.1472V82.0575H26.4509ZM29.6623 82.0575V83.1416H21.9427V82.0575H29.6623ZM34.5479 90.7788V86.9568C34.5479 86.664 34.4884 86.4101 34.3695 86.1951C34.2551 85.9756 34.0813 85.8063 33.848 85.6874C33.6147 85.5684 33.3265 85.509 32.9834 85.509C32.6632 85.509 32.3818 85.5639 32.1394 85.6736C31.9015 85.7834 31.7139 85.9275 31.5767 86.1059C31.444 86.2843 31.3777 86.4765 31.3777 86.6823H30.1083C30.1083 86.417 30.1769 86.154 30.3141 85.8932C30.4514 85.6325 30.6481 85.3969 30.9042 85.1865C31.165 84.9715 31.4761 84.8022 31.8374 84.6787C32.2034 84.5506 32.6105 84.4865 33.0589 84.4865C33.5987 84.4865 34.0744 84.578 34.4861 84.761C34.9024 84.944 35.2272 85.2208 35.4605 85.5913C35.6984 85.9573 35.8173 86.417 35.8173 86.9705V90.4289C35.8173 90.6759 35.8379 90.939 35.8791 91.218C35.9248 91.497 35.9911 91.7372 36.0781 91.9385V92.0483H34.7537C34.6897 91.9019 34.6394 91.7075 34.6028 91.465C34.5662 91.218 34.5479 90.9893 34.5479 90.7788ZM34.7674 87.5469L34.7812 88.439H33.498C33.1366 88.439 32.8141 88.4687 32.5305 88.5282C32.2469 88.5831 32.009 88.6677 31.8169 88.7821C31.6247 88.8964 31.4783 89.0405 31.3777 89.2143C31.2771 89.3836 31.2267 89.5826 31.2267 89.8113C31.2267 90.0446 31.2794 90.2573 31.3846 90.4495C31.4898 90.6416 31.6476 90.7949 31.858 90.9092C32.073 91.019 32.3361 91.0739 32.6471 91.0739C33.036 91.0739 33.3791 90.9916 33.6764 90.8269C33.9738 90.6622 34.2094 90.4609 34.3832 90.223C34.5616 89.9852 34.6577 89.7541 34.6714 89.53L35.2135 90.1407C35.1814 90.3328 35.0945 90.5455 34.9527 90.7788C34.8109 91.0121 34.6211 91.2363 34.3832 91.4513C34.1499 91.6617 33.8708 91.8378 33.546 91.9797C33.2258 92.1169 32.8644 92.1855 32.4619 92.1855C31.9587 92.1855 31.5172 92.0872 31.1375 91.8905C30.7624 91.6938 30.4697 91.4307 30.2592 91.1013C30.0534 90.7674 29.9504 90.3946 29.9504 89.9829C29.9504 89.5849 30.0282 89.2349 30.1838 88.933C30.3393 88.6265 30.5634 88.3726 30.8562 88.1713C31.149 87.9655 31.5012 87.81 31.9129 87.7047C32.3246 87.5995 32.7844 87.5469 33.2922 87.5469H34.7674ZM39.0904 81.5085V92.0483H37.8141V81.5085H39.0904ZM43.6261 84.6238L40.3873 88.089L38.5758 89.9691L38.4728 88.6174L39.7697 87.0666L42.0753 84.6238H43.6261ZM42.4664 92.0483L39.8177 88.5076L40.4765 87.3754L43.9623 92.0483H42.4664ZM47.8804 92.1855C47.3635 92.1855 46.8946 92.0986 46.4737 91.9248C46.0574 91.7464 45.6983 91.497 45.3964 91.1768C45.0991 90.8566 44.8703 90.4769 44.7102 90.0378C44.5501 89.5986 44.4701 89.1183 44.4701 88.5968V88.3086C44.4701 87.7047 44.5593 87.1672 44.7377 86.6961C44.9161 86.2203 45.1585 85.8177 45.465 85.4884C45.7715 85.159 46.1192 84.9097 46.508 84.7404C46.8969 84.5712 47.2994 84.4865 47.7157 84.4865C48.2464 84.4865 48.7038 84.578 49.0881 84.761C49.4769 84.944 49.7948 85.2002 50.0419 85.5295C50.2889 85.8543 50.4719 86.2386 50.5908 86.6823C50.7098 87.1215 50.7692 87.6018 50.7692 88.1233V88.6928H45.2249V87.6567H49.4998V87.5606C49.4815 87.2313 49.4129 86.9111 49.2939 86.6C49.1796 86.2889 48.9966 86.0327 48.745 85.8315C48.4934 85.6302 48.1503 85.5295 47.7157 85.5295C47.4275 85.5295 47.1622 85.5913 46.9197 85.7148C46.6773 85.8338 46.4691 86.0122 46.2953 86.25C46.1215 86.4879 45.9865 86.7784 45.8905 87.1215C45.7944 87.4646 45.7464 87.8603 45.7464 88.3086V88.5968C45.7464 88.949 45.7944 89.2807 45.8905 89.5917C45.9911 89.8982 46.1352 90.1681 46.3228 90.4014C46.5149 90.6347 46.7459 90.8177 47.0158 90.9504C47.2903 91.083 47.6013 91.1494 47.949 91.1494C48.3973 91.1494 48.777 91.0579 49.0881 90.8749C49.3991 90.6919 49.6713 90.4472 49.9046 90.1407L50.6732 90.7514C50.513 90.9938 50.3095 91.2249 50.0625 91.4444C49.8154 91.664 49.5112 91.8424 49.1498 91.9797C48.793 92.1169 48.3699 92.1855 47.8804 92.1855ZM55.4009 88.4184V88.2606C55.4009 87.7253 55.4787 87.229 55.6343 86.7715C55.7898 86.3095 56.0139 85.9092 56.3067 85.5707C56.5995 85.2276 56.954 84.9623 57.3703 84.7747C57.7866 84.5826 58.2532 84.4865 58.7701 84.4865C59.2916 84.4865 59.7605 84.5826 60.1768 84.7747C60.5976 84.9623 60.9545 85.2276 61.2472 85.5707C61.5446 85.9092 61.771 86.3095 61.9265 86.7715C62.0821 87.229 62.1598 87.7253 62.1598 88.2606V88.4184C62.1598 88.9536 62.0821 89.4499 61.9265 89.9074C61.771 90.3648 61.5446 90.7651 61.2472 91.1082C60.9545 91.4467 60.5999 91.712 60.1836 91.9042C59.7719 92.0917 59.3053 92.1855 58.7838 92.1855C58.2623 92.1855 57.7934 92.0917 57.3772 91.9042C56.9609 91.712 56.6041 91.4467 56.3067 91.1082C56.0139 90.7651 55.7898 90.3648 55.6343 89.9074C55.4787 89.4499 55.4009 88.9536 55.4009 88.4184ZM56.6704 88.2606V88.4184C56.6704 88.7889 56.7138 89.1389 56.8008 89.4682C56.8877 89.793 57.0181 90.0812 57.1919 90.3328C57.3703 90.5844 57.5922 90.7834 57.8575 90.9298C58.1228 91.0716 58.4316 91.1425 58.7838 91.1425C59.1315 91.1425 59.4357 91.0716 59.6964 90.9298C59.9618 90.7834 60.1814 90.5844 60.3552 90.3328C60.529 90.0812 60.6594 89.793 60.7463 89.4682C60.8378 89.1389 60.8835 88.7889 60.8835 88.4184V88.2606C60.8835 87.8946 60.8378 87.5492 60.7463 87.2244C60.6594 86.895 60.5267 86.6046 60.3483 86.353C60.1745 86.0968 59.9549 85.8955 59.6896 85.7491C59.4288 85.6027 59.1223 85.5295 58.7701 85.5295C58.4224 85.5295 58.1159 85.6027 57.8506 85.7491C57.5899 85.8955 57.3703 86.0968 57.1919 86.353C57.0181 86.6046 56.8877 86.895 56.8008 87.2244C56.7138 87.5492 56.6704 87.8946 56.6704 88.2606ZM65.0212 86.2089V92.0483H63.7518V84.6238H64.9526L65.0212 86.2089ZM64.7193 88.0547L64.1909 88.0341C64.1955 87.5263 64.271 87.0574 64.4174 86.6274C64.5638 86.1929 64.7696 85.8155 65.0349 85.4952C65.3003 85.175 65.6159 84.928 65.9819 84.7542C66.3524 84.5758 66.7618 84.4865 67.2101 84.4865C67.5761 84.4865 67.9055 84.5369 68.1982 84.6375C68.491 84.7336 68.7403 84.8891 68.9462 85.1041C69.1566 85.3191 69.3167 85.5982 69.4265 85.9413C69.5363 86.2798 69.5912 86.6938 69.5912 87.1832V92.0483H68.3149V87.1695C68.3149 86.7807 68.2577 86.4696 68.1434 86.2363C68.029 85.9984 67.862 85.8269 67.6424 85.7217C67.4229 85.6119 67.153 85.557 66.8327 85.557C66.5171 85.557 66.2289 85.6233 65.9682 85.756C65.712 85.8886 65.4901 86.0716 65.3026 86.3049C65.1196 86.5382 64.9755 86.8058 64.8703 87.1078C64.7696 87.4051 64.7193 87.7208 64.7193 88.0547ZM74.4905 91.1425C74.7925 91.1425 75.0715 91.0808 75.3277 90.9572C75.5839 90.8337 75.7943 90.6645 75.959 90.4495C76.1237 90.2299 76.2174 89.9806 76.2403 89.7015H77.448C77.4251 90.1407 77.2764 90.5501 77.002 90.9298C76.7321 91.3049 76.3775 91.6091 75.9384 91.8424C75.4992 92.0712 75.0166 92.1855 74.4905 92.1855C73.9324 92.1855 73.4453 92.0872 73.029 91.8905C72.6173 91.6938 72.2742 91.4239 71.9997 91.0808C71.7298 90.7377 71.5262 90.3443 71.389 89.9005C71.2563 89.4522 71.19 88.9788 71.19 88.4801V88.1919C71.19 87.6933 71.2563 87.2221 71.389 86.7784C71.5262 86.3301 71.7298 85.9344 71.9997 85.5913C72.2742 85.2482 72.6173 84.9783 73.029 84.7816C73.4453 84.5849 73.9324 84.4865 74.4905 84.4865C75.0715 84.4865 75.5793 84.6055 76.0139 84.8434C76.4485 85.0767 76.7893 85.3969 77.0363 85.804C77.2879 86.2066 77.4251 86.664 77.448 87.1764H76.2403C76.2174 86.8699 76.1305 86.5931 75.9796 86.3461C75.8332 86.0991 75.6319 85.9024 75.3757 85.756C75.1241 85.605 74.8291 85.5295 74.4905 85.5295C74.1017 85.5295 73.7746 85.6073 73.5093 85.7628C73.2486 85.9138 73.0404 86.1197 72.8849 86.3804C72.7339 86.6366 72.6241 86.9225 72.5555 87.2381C72.4915 87.5492 72.4594 87.8671 72.4594 88.1919V88.4801C72.4594 88.8049 72.4915 89.1251 72.5555 89.4408C72.6196 89.7564 72.7271 90.0423 72.878 90.2985C73.0335 90.5547 73.2417 90.7605 73.5024 90.9161C73.7678 91.067 74.0971 91.1425 74.4905 91.1425ZM81.9562 92.1855C81.4393 92.1855 80.9704 92.0986 80.5495 91.9248C80.1332 91.7464 79.7741 91.497 79.4722 91.1768C79.1749 90.8566 78.9462 90.4769 78.786 90.0378C78.6259 89.5986 78.5459 89.1183 78.5459 88.5968V88.3086C78.5459 87.7047 78.6351 87.1672 78.8135 86.6961C78.9919 86.2203 79.2343 85.8177 79.5408 85.4884C79.8473 85.159 80.195 84.9097 80.5838 84.7404C80.9727 84.5712 81.3752 84.4865 81.7915 84.4865C82.3222 84.4865 82.7796 84.578 83.1639 84.761C83.5527 84.944 83.8707 85.2002 84.1177 85.5295C84.3647 85.8543 84.5477 86.2386 84.6666 86.6823C84.7856 87.1215 84.845 87.6018 84.845 88.1233V88.6928H79.3007V87.6567H83.5756V87.5606C83.5573 87.2313 83.4887 86.9111 83.3697 86.6C83.2554 86.2889 83.0724 86.0327 82.8208 85.8315C82.5692 85.6302 82.2261 85.5295 81.7915 85.5295C81.5033 85.5295 81.238 85.5913 80.9956 85.7148C80.7531 85.8338 80.545 86.0122 80.3711 86.25C80.1973 86.4879 80.0623 86.7784 79.9663 87.1215C79.8702 87.4646 79.8222 87.8603 79.8222 88.3086V88.5968C79.8222 88.949 79.8702 89.2807 79.9663 89.5917C80.0669 89.8982 80.211 90.1681 80.3986 90.4014C80.5907 90.6347 80.8217 90.8177 81.0916 90.9504C81.3661 91.083 81.6772 91.1494 82.0248 91.1494C82.4731 91.1494 82.8528 91.0579 83.1639 90.8749C83.475 90.6919 83.7471 90.4472 83.9804 90.1407L84.749 90.7514C84.5889 90.9938 84.3853 91.2249 84.1383 91.4444C83.8912 91.664 83.587 91.8424 83.2256 91.9797C82.8688 92.1169 82.4457 92.1855 81.9562 92.1855ZM92.7842 91.1425C93.0861 91.1425 93.3651 91.0808 93.6213 90.9572C93.8775 90.8337 94.0879 90.6645 94.2526 90.4495C94.4173 90.2299 94.5111 89.9806 94.5339 89.7015H95.7416C95.7187 90.1407 95.5701 90.5501 95.2956 90.9298C95.0257 91.3049 94.6712 91.6091 94.232 91.8424C93.7928 92.0712 93.3102 92.1855 92.7842 92.1855C92.2261 92.1855 91.7389 92.0872 91.3226 91.8905C90.9109 91.6938 90.5678 91.4239 90.2933 91.0808C90.0234 90.7377 89.8199 90.3443 89.6826 89.9005C89.55 89.4522 89.4836 88.9788 89.4836 88.4801V88.1919C89.4836 87.6933 89.55 87.2221 89.6826 86.7784C89.8199 86.3301 90.0234 85.9344 90.2933 85.5913C90.5678 85.2482 90.9109 84.9783 91.3226 84.7816C91.7389 84.5849 92.2261 84.4865 92.7842 84.4865C93.3651 84.4865 93.8729 84.6055 94.3075 84.8434C94.7421 85.0767 95.0829 85.3969 95.3299 85.804C95.5815 86.2066 95.7187 86.664 95.7416 87.1764H94.5339C94.5111 86.8699 94.4241 86.5931 94.2732 86.3461C94.1268 86.0991 93.9255 85.9024 93.6693 85.756C93.4177 85.605 93.1227 85.5295 92.7842 85.5295C92.3953 85.5295 92.0682 85.6073 91.8029 85.7628C91.5422 85.9138 91.334 86.1197 91.1785 86.3804C91.0275 86.6366 90.9177 86.9225 90.8491 87.2381C90.7851 87.5492 90.7531 87.8671 90.7531 88.1919V88.4801C90.7531 88.8049 90.7851 89.1251 90.8491 89.4408C90.9132 89.7564 91.0207 90.0423 91.1716 90.2985C91.3272 90.5547 91.5353 90.7605 91.7961 90.9161C92.0614 91.067 92.3907 91.1425 92.7842 91.1425ZM101.547 90.7788V86.9568C101.547 86.664 101.487 86.4101 101.368 86.1951C101.254 85.9756 101.08 85.8063 100.847 85.6874C100.614 85.5684 100.325 85.509 99.9822 85.509C99.662 85.509 99.3807 85.5639 99.1382 85.6736C98.9003 85.7834 98.7128 85.9275 98.5755 86.1059C98.4429 86.2843 98.3766 86.4765 98.3766 86.6823H97.1071C97.1071 86.417 97.1757 86.154 97.313 85.8932C97.4502 85.6325 97.6469 85.3969 97.9031 85.1865C98.1638 84.9715 98.4749 84.8022 98.8363 84.6787C99.2023 84.5506 99.6094 84.4865 100.058 84.4865C100.597 84.4865 101.073 84.578 101.485 84.761C101.901 84.944 102.226 85.2208 102.459 85.5913C102.697 85.9573 102.816 86.417 102.816 86.9705V90.4289C102.816 90.6759 102.837 90.939 102.878 91.218C102.924 91.497 102.99 91.7372 103.077 91.9385V92.0483H101.753C101.689 91.9019 101.638 91.7075 101.602 91.465C101.565 91.218 101.547 90.9893 101.547 90.7788ZM101.766 87.5469L101.78 88.439H100.497C100.135 88.439 99.813 88.4687 99.5293 88.5282C99.2457 88.5831 99.0078 88.6677 98.8157 88.7821C98.6236 88.8964 98.4772 89.0405 98.3766 89.2143C98.2759 89.3836 98.2256 89.5826 98.2256 89.8113C98.2256 90.0446 98.2782 90.2573 98.3834 90.4495C98.4886 90.6416 98.6465 90.7949 98.8569 90.9092C99.0719 91.019 99.3349 91.0739 99.646 91.0739C100.035 91.0739 100.378 90.9916 100.675 90.8269C100.973 90.6622 101.208 90.4609 101.382 90.223C101.56 89.9852 101.657 89.7541 101.67 89.53L102.212 90.1407C102.18 90.3328 102.093 90.5455 101.952 90.7788C101.81 91.0121 101.62 91.2363 101.382 91.4513C101.149 91.6617 100.87 91.8378 100.545 91.9797C100.225 92.1169 99.8633 92.1855 99.4607 92.1855C98.9575 92.1855 98.5161 92.0872 98.1364 91.8905C97.7613 91.6938 97.4685 91.4307 97.2581 91.1013C97.0522 90.7674 96.9493 90.3946 96.9493 89.9829C96.9493 89.5849 97.0271 89.2349 97.1826 88.933C97.3381 88.6265 97.5623 88.3726 97.8551 88.1713C98.1478 87.9655 98.5001 87.81 98.9118 87.7047C99.3235 87.5995 99.7832 87.5469 100.291 87.5469H101.766ZM106.082 86.051V94.9028H104.806V84.6238H105.973L106.082 86.051ZM111.085 88.2743V88.4184C111.085 88.9582 111.021 89.4591 110.893 89.9211C110.764 90.3786 110.577 90.7766 110.33 91.1151C110.087 91.4536 109.788 91.7166 109.431 91.9042C109.074 92.0917 108.665 92.1855 108.203 92.1855C107.732 92.1855 107.315 92.1077 106.954 91.9522C106.592 91.7967 106.286 91.5702 106.034 91.2729C105.783 90.9755 105.581 90.6187 105.431 90.2024C105.284 89.7862 105.183 89.3173 105.129 88.7958V88.0273C105.183 87.4783 105.286 86.9865 105.437 86.552C105.588 86.1174 105.787 85.7468 106.034 85.4403C106.286 85.1293 106.59 84.8937 106.947 84.7336C107.304 84.5689 107.715 84.4865 108.182 84.4865C108.649 84.4865 109.063 84.578 109.424 84.761C109.785 84.9394 110.09 85.1956 110.337 85.5295C110.584 85.8635 110.769 86.2638 110.893 86.7304C111.021 87.1924 111.085 87.707 111.085 88.2743ZM109.808 88.4184V88.2743C109.808 87.9037 109.769 87.5561 109.692 87.2313C109.614 86.9019 109.493 86.6137 109.328 86.3667C109.168 86.1151 108.962 85.9184 108.71 85.7766C108.459 85.6302 108.159 85.557 107.812 85.557C107.491 85.557 107.212 85.6119 106.974 85.7217C106.741 85.8315 106.542 85.9801 106.377 86.1677C106.213 86.3507 106.078 86.5611 105.973 86.799C105.872 87.0323 105.796 87.2747 105.746 87.5263V89.3035C105.838 89.6238 105.966 89.9257 106.13 90.2093C106.295 90.4884 106.515 90.7148 106.789 90.8886C107.064 91.0579 107.409 91.1425 107.825 91.1425C108.168 91.1425 108.463 91.0716 108.71 90.9298C108.962 90.7834 109.168 90.5844 109.328 90.3328C109.493 90.0812 109.614 89.793 109.692 89.4682C109.769 89.1389 109.808 88.7889 109.808 88.4184ZM117.027 90.0789C117.027 89.896 116.986 89.7267 116.903 89.5712C116.826 89.4111 116.663 89.267 116.416 89.1389C116.174 89.0062 115.808 88.8918 115.318 88.7958C114.907 88.7089 114.534 88.6059 114.2 88.487C113.871 88.3681 113.589 88.224 113.356 88.0547C113.127 87.8854 112.951 87.6864 112.828 87.4577C112.704 87.229 112.642 86.9614 112.642 86.6549C112.642 86.3621 112.706 86.0854 112.834 85.8246C112.967 85.5639 113.152 85.3328 113.39 85.1316C113.633 84.9303 113.923 84.7725 114.262 84.6581C114.6 84.5437 114.978 84.4865 115.394 84.4865C115.989 84.4865 116.496 84.5918 116.917 84.8022C117.338 85.0126 117.661 85.294 117.885 85.6462C118.109 85.9939 118.221 86.3804 118.221 86.8058H116.952C116.952 86.6 116.89 86.401 116.766 86.2089C116.647 86.0122 116.471 85.8498 116.238 85.7217C116.009 85.5936 115.728 85.5295 115.394 85.5295C115.042 85.5295 114.756 85.5844 114.536 85.6942C114.321 85.7994 114.163 85.9344 114.063 86.0991C113.967 86.2638 113.919 86.4376 113.919 86.6206C113.919 86.7578 113.941 86.8813 113.987 86.9911C114.038 87.0963 114.124 87.1947 114.248 87.2862C114.371 87.3731 114.545 87.4554 114.769 87.5332C114.994 87.611 115.28 87.6887 115.627 87.7665C116.236 87.9037 116.737 88.0684 117.13 88.2606C117.523 88.4527 117.816 88.6883 118.008 88.9673C118.2 89.2464 118.296 89.5849 118.296 89.9829C118.296 90.3077 118.228 90.605 118.091 90.8749C117.958 91.1448 117.763 91.3781 117.507 91.5748C117.256 91.7669 116.954 91.9179 116.602 92.0277C116.254 92.1329 115.863 92.1855 115.428 92.1855C114.774 92.1855 114.22 92.0689 113.768 91.8356C113.315 91.6023 112.972 91.3003 112.738 90.9298C112.505 90.5593 112.388 90.1681 112.388 89.7564H113.665C113.683 90.1041 113.784 90.3809 113.967 90.5867C114.15 90.788 114.374 90.9321 114.639 91.019C114.904 91.1013 115.167 91.1425 115.428 91.1425C115.776 91.1425 116.066 91.0968 116.3 91.0053C116.538 90.9138 116.718 90.788 116.842 90.6279C116.965 90.4678 117.027 90.2848 117.027 90.0789ZM124.506 90.3328V84.6238H125.783V92.0483H124.568L124.506 90.3328ZM124.747 88.7683L125.275 88.7546C125.275 89.2487 125.222 89.7061 125.117 90.127C125.016 90.5433 124.852 90.9046 124.623 91.2111C124.394 91.5176 124.095 91.7578 123.724 91.9316C123.354 92.1009 122.903 92.1855 122.372 92.1855C122.011 92.1855 121.679 92.1329 121.377 92.0277C121.08 91.9225 120.824 91.7601 120.609 91.5405C120.394 91.3209 120.227 91.035 120.108 90.6828C119.994 90.3305 119.936 89.9074 119.936 89.4133V84.6238H121.206V89.4271C121.206 89.761 121.242 90.0378 121.316 90.2573C121.393 90.4723 121.496 90.6439 121.624 90.772C121.757 90.8955 121.903 90.9824 122.064 91.0327C122.228 91.083 122.398 91.1082 122.571 91.1082C123.111 91.1082 123.539 91.0053 123.855 90.7994C124.17 90.589 124.397 90.3077 124.534 89.9554C124.676 89.5986 124.747 89.2029 124.747 88.7683ZM129.097 81.5085V92.0483H127.821V81.5085H129.097ZM134.216 92.1855C133.699 92.1855 133.23 92.0986 132.809 91.9248C132.393 91.7464 132.034 91.497 131.732 91.1768C131.435 90.8566 131.206 90.4769 131.046 90.0378C130.886 89.5986 130.806 89.1183 130.806 88.5968V88.3086C130.806 87.7047 130.895 87.1672 131.073 86.6961C131.252 86.2203 131.494 85.8177 131.8 85.4884C132.107 85.159 132.455 84.9097 132.843 84.7404C133.232 84.5712 133.635 84.4865 134.051 84.4865C134.582 84.4865 135.039 84.578 135.424 84.761C135.812 84.944 136.13 85.2002 136.377 85.5295C136.624 85.8543 136.807 86.2386 136.926 86.6823C137.045 87.1215 137.105 87.6018 137.105 88.1233V88.6928H131.56V87.6567H135.835V87.5606C135.817 87.2313 135.748 86.9111 135.629 86.6C135.515 86.2889 135.332 86.0327 135.08 85.8315C134.829 85.6302 134.486 85.5295 134.051 85.5295C133.763 85.5295 133.498 85.5913 133.255 85.7148C133.013 85.8338 132.805 86.0122 132.631 86.25C132.457 86.4879 132.322 86.7784 132.226 87.1215C132.13 87.4646 132.082 87.8603 132.082 88.3086V88.5968C132.082 88.949 132.13 89.2807 132.226 89.5917C132.327 89.8982 132.471 90.1681 132.658 90.4014C132.85 90.6347 133.081 90.8177 133.351 90.9504C133.626 91.083 133.937 91.1494 134.284 91.1494C134.733 91.1494 135.112 91.0579 135.424 90.8749C135.735 90.6919 136.007 90.4472 136.24 90.1407L137.009 90.7514C136.849 90.9938 136.645 91.2249 136.398 91.4444C136.151 91.664 135.847 91.8424 135.485 91.9797C135.128 92.1169 134.705 92.1855 134.216 92.1855ZM143.788 86.4284H144.694C145.138 86.4284 145.504 86.3553 145.792 86.2089C146.085 86.0579 146.302 85.8543 146.444 85.5982C146.59 85.3374 146.663 85.0446 146.663 84.7199C146.663 84.3356 146.599 84.0131 146.471 83.7523C146.343 83.4916 146.151 83.2949 145.895 83.1622C145.639 83.0296 145.314 82.9632 144.92 82.9632C144.563 82.9632 144.248 83.0341 143.973 83.1759C143.703 83.3132 143.491 83.5099 143.335 83.7661C143.184 84.0222 143.109 84.3242 143.109 84.6718H141.839C141.839 84.164 141.967 83.702 142.224 83.2857C142.48 82.8694 142.839 82.5378 143.301 82.2908C143.768 82.0437 144.307 81.9202 144.92 81.9202C145.524 81.9202 146.052 82.0277 146.505 82.2427C146.958 82.4532 147.311 82.7688 147.562 83.1897C147.814 83.6059 147.94 84.1252 147.94 84.7473C147.94 84.9989 147.88 85.2688 147.761 85.557C147.647 85.8406 147.466 86.1059 147.219 86.353C146.977 86.6 146.661 86.8036 146.272 86.9637C145.883 87.1192 145.417 87.197 144.872 87.197H143.788V86.4284ZM143.788 87.4714V86.7098H144.872C145.508 86.7098 146.034 86.7853 146.45 86.9362C146.867 87.0872 147.194 87.2885 147.432 87.5401C147.674 87.7917 147.843 88.0684 147.94 88.3703C148.04 88.6677 148.09 88.965 148.09 89.2624C148.09 89.729 148.01 90.143 147.85 90.5044C147.695 90.8658 147.473 91.1723 147.185 91.4239C146.901 91.6755 146.567 91.8653 146.183 91.9934C145.799 92.1215 145.38 92.1855 144.927 92.1855C144.493 92.1855 144.083 92.1238 143.699 92.0002C143.319 91.8767 142.983 91.6983 142.69 91.465C142.397 91.2271 142.169 90.9367 142.004 90.5936C141.839 90.2459 141.757 89.8502 141.757 89.4065H143.026C143.026 89.7541 143.102 90.0584 143.253 90.3191C143.408 90.5798 143.628 90.7834 143.912 90.9298C144.2 91.0716 144.538 91.1425 144.927 91.1425C145.316 91.1425 145.65 91.0762 145.929 90.9435C146.213 90.8063 146.43 90.6004 146.581 90.326C146.736 90.0515 146.814 89.7061 146.814 89.2898C146.814 88.8735 146.727 88.5327 146.553 88.2674C146.38 87.9975 146.133 87.7985 145.812 87.6704C145.497 87.5378 145.124 87.4714 144.694 87.4714H143.788ZM156.572 84.6238V85.5982H152.557V84.6238H156.572ZM153.916 82.8191H155.186V90.2093C155.186 90.4609 155.224 90.6508 155.302 90.7788C155.38 90.9069 155.481 90.9916 155.604 91.0327C155.728 91.0739 155.86 91.0945 156.002 91.0945C156.107 91.0945 156.217 91.0853 156.332 91.067C156.45 91.0442 156.54 91.0259 156.599 91.0121L156.606 92.0483C156.505 92.0803 156.373 92.11 156.208 92.1375C156.048 92.1695 155.853 92.1855 155.625 92.1855C155.314 92.1855 155.028 92.1238 154.767 92.0002C154.506 91.8767 154.298 91.6709 154.143 91.3827C153.992 91.0899 153.916 90.6965 153.916 90.2024V82.8191ZM159.44 84.6238V92.0483H158.164V84.6238H159.44ZM158.068 82.6544C158.068 82.4486 158.129 82.2748 158.253 82.1329C158.381 81.9911 158.568 81.9202 158.815 81.9202C159.058 81.9202 159.243 81.9911 159.371 82.1329C159.504 82.2748 159.57 82.4486 159.57 82.6544C159.57 82.8511 159.504 83.0204 159.371 83.1622C159.243 83.2995 159.058 83.3681 158.815 83.3681C158.568 83.3681 158.381 83.2995 158.253 83.1622C158.129 83.0204 158.068 82.8511 158.068 82.6544ZM162.74 86.0991V92.0483H161.464V84.6238H162.672L162.74 86.0991ZM162.48 88.0547L161.89 88.0341C161.894 87.5263 161.96 87.0574 162.089 86.6274C162.217 86.1929 162.407 85.8155 162.658 85.4952C162.91 85.175 163.223 84.928 163.598 84.7542C163.973 84.5758 164.408 84.4865 164.902 84.4865C165.25 84.4865 165.57 84.5369 165.863 84.6375C166.155 84.7336 166.409 84.8868 166.624 85.0973C166.839 85.3077 167.006 85.5776 167.125 85.9069C167.244 86.2363 167.304 86.6343 167.304 87.1009V92.0483H166.034V87.1627C166.034 86.7738 165.968 86.4628 165.835 86.2295C165.707 85.9962 165.524 85.8269 165.286 85.7217C165.048 85.6119 164.769 85.557 164.449 85.557C164.074 85.557 163.761 85.6233 163.509 85.756C163.257 85.8886 163.056 86.0716 162.905 86.3049C162.754 86.5382 162.644 86.8058 162.576 87.1078C162.512 87.4051 162.48 87.7208 162.48 88.0547ZM167.29 87.3548L166.439 87.6155C166.444 87.2084 166.51 86.8173 166.638 86.4422C166.771 86.0671 166.96 85.7331 167.208 85.4403C167.459 85.1476 167.768 84.9166 168.134 84.7473C168.5 84.5735 168.918 84.4865 169.39 84.4865C169.788 84.4865 170.14 84.5392 170.446 84.6444C170.757 84.7496 171.018 84.912 171.229 85.1316C171.444 85.3466 171.606 85.6233 171.716 85.9618C171.826 86.3004 171.88 86.7029 171.88 87.1695V92.0483H170.604V87.1558C170.604 86.7395 170.538 86.417 170.405 86.1883C170.277 85.955 170.094 85.7926 169.856 85.7011C169.623 85.605 169.344 85.557 169.019 85.557C168.74 85.557 168.493 85.605 168.278 85.7011C168.063 85.7972 167.882 85.9298 167.736 86.0991C167.589 86.2638 167.477 86.4536 167.4 86.6686C167.326 86.8836 167.29 87.1123 167.29 87.3548ZM176.883 92.1855C176.366 92.1855 175.897 92.0986 175.476 91.9248C175.06 91.7464 174.701 91.497 174.399 91.1768C174.101 90.8566 173.873 90.4769 173.713 90.0378C173.552 89.5986 173.472 89.1183 173.472 88.5968V88.3086C173.472 87.7047 173.562 87.1672 173.74 86.6961C173.918 86.2203 174.161 85.8177 174.467 85.4884C174.774 85.159 175.121 84.9097 175.51 84.7404C175.899 84.5712 176.302 84.4865 176.718 84.4865C177.249 84.4865 177.706 84.578 178.09 84.761C178.479 84.944 178.797 85.2002 179.044 85.5295C179.291 85.8543 179.474 86.2386 179.593 86.6823C179.712 87.1215 179.772 87.6018 179.772 88.1233V88.6928H174.227V87.6567H178.502V87.5606C178.484 87.2313 178.415 86.9111 178.296 86.6C178.182 86.2889 177.999 86.0327 177.747 85.8315C177.496 85.6302 177.153 85.5295 176.718 85.5295C176.43 85.5295 176.164 85.5913 175.922 85.7148C175.68 85.8338 175.471 86.0122 175.298 86.25C175.124 86.4879 174.989 86.7784 174.893 87.1215C174.797 87.4646 174.749 87.8603 174.749 88.3086V88.5968C174.749 88.949 174.797 89.2807 174.893 89.5917C174.993 89.8982 175.137 90.1681 175.325 90.4014C175.517 90.6347 175.748 90.8177 176.018 90.9504C176.293 91.083 176.604 91.1494 176.951 91.1494C177.4 91.1494 177.779 91.0579 178.09 90.8749C178.401 90.6919 178.674 90.4472 178.907 90.1407L179.675 90.7514C179.515 90.9938 179.312 91.2249 179.065 91.4444C178.818 91.664 178.514 91.8424 178.152 91.9797C177.795 92.1169 177.372 92.1855 176.883 92.1855ZM185.577 90.0789C185.577 89.896 185.535 89.7267 185.453 89.5712C185.375 89.4111 185.213 89.267 184.966 89.1389C184.723 89.0062 184.357 88.8918 183.868 88.7958C183.456 88.7089 183.083 88.6059 182.75 88.487C182.42 88.3681 182.139 88.224 181.906 88.0547C181.677 87.8854 181.501 87.6864 181.377 87.4577C181.254 87.229 181.192 86.9614 181.192 86.6549C181.192 86.3621 181.256 86.0854 181.384 85.8246C181.517 85.5639 181.702 85.3328 181.94 85.1316C182.182 84.9303 182.473 84.7725 182.811 84.6581C183.15 84.5437 183.527 84.4865 183.943 84.4865C184.538 84.4865 185.046 84.5918 185.467 84.8022C185.888 85.0126 186.21 85.294 186.434 85.6462C186.658 85.9939 186.771 86.3804 186.771 86.8058H185.501C185.501 86.6 185.439 86.401 185.316 86.2089C185.197 86.0122 185.021 85.8498 184.787 85.7217C184.559 85.5936 184.277 85.5295 183.943 85.5295C183.591 85.5295 183.305 85.5844 183.086 85.6942C182.871 85.7994 182.713 85.9344 182.612 86.0991C182.516 86.2638 182.468 86.4376 182.468 86.6206C182.468 86.7578 182.491 86.8813 182.537 86.9911C182.587 87.0963 182.674 87.1947 182.798 87.2862C182.921 87.3731 183.095 87.4554 183.319 87.5332C183.543 87.611 183.829 87.6887 184.177 87.7665C184.785 87.9037 185.286 88.0684 185.68 88.2606C186.073 88.4527 186.366 88.6883 186.558 88.9673C186.75 89.2464 186.846 89.5849 186.846 89.9829C186.846 90.3077 186.777 90.605 186.64 90.8749C186.508 91.1448 186.313 91.3781 186.057 91.5748C185.805 91.7669 185.503 91.9179 185.151 92.0277C184.803 92.1329 184.412 92.1855 183.978 92.1855C183.324 92.1855 182.77 92.0689 182.317 91.8356C181.864 91.6023 181.521 91.3003 181.288 90.9298C181.055 90.5593 180.938 90.1681 180.938 89.7564H182.214C182.233 90.1041 182.333 90.3809 182.516 90.5867C182.699 90.788 182.923 90.9321 183.189 91.019C183.454 91.1013 183.717 91.1425 183.978 91.1425C184.325 91.1425 184.616 91.0968 184.849 91.0053C185.087 90.9138 185.268 90.788 185.391 90.6279C185.515 90.4678 185.577 90.2848 185.577 90.0789ZM196.377 90.7788V86.9568C196.377 86.664 196.318 86.4101 196.199 86.1951C196.084 85.9756 195.911 85.8063 195.677 85.6874C195.444 85.5684 195.156 85.509 194.813 85.509C194.492 85.509 194.211 85.5639 193.969 85.6736C193.731 85.7834 193.543 85.9275 193.406 86.1059C193.273 86.2843 193.207 86.4765 193.207 86.6823H191.938C191.938 86.417 192.006 86.154 192.143 85.8932C192.281 85.6325 192.477 85.3969 192.733 85.1865C192.994 84.9715 193.305 84.8022 193.667 84.6787C194.033 84.5506 194.44 84.4865 194.888 84.4865C195.428 84.4865 195.904 84.578 196.315 84.761C196.732 84.944 197.056 85.2208 197.29 85.5913C197.528 85.9573 197.647 86.417 197.647 86.9705V90.4289C197.647 90.6759 197.667 90.939 197.708 91.218C197.754 91.497 197.82 91.7372 197.907 91.9385V92.0483H196.583C196.519 91.9019 196.469 91.7075 196.432 91.465C196.395 91.218 196.377 90.9893 196.377 90.7788ZM196.597 87.5469L196.61 88.439H195.327C194.966 88.439 194.643 88.4687 194.36 88.5282C194.076 88.5831 193.838 88.6677 193.646 88.7821C193.454 88.8964 193.308 89.0405 193.207 89.2143C193.106 89.3836 193.056 89.5826 193.056 89.8113C193.056 90.0446 193.109 90.2573 193.214 90.4495C193.319 90.6416 193.477 90.7949 193.687 90.9092C193.902 91.019 194.165 91.0739 194.476 91.0739C194.865 91.0739 195.208 90.9916 195.506 90.8269C195.803 90.6622 196.039 90.4609 196.212 90.223C196.391 89.9852 196.487 89.7541 196.501 89.53L197.043 90.1407C197.011 90.3328 196.924 90.5455 196.782 90.7788C196.64 91.0121 196.45 91.2363 196.212 91.4513C195.979 91.6617 195.7 91.8378 195.375 91.9797C195.055 92.1169 194.694 92.1855 194.291 92.1855C193.788 92.1855 193.346 92.0872 192.967 91.8905C192.592 91.6938 192.299 91.4307 192.088 91.1013C191.883 90.7674 191.78 90.3946 191.78 89.9829C191.78 89.5849 191.857 89.2349 192.013 88.933C192.169 88.6265 192.393 88.3726 192.685 88.1713C192.978 87.9655 193.33 87.81 193.742 87.7047C194.154 87.5995 194.614 87.5469 195.121 87.5469H196.597ZM207.809 90.6073V81.5085H209.085V92.0483H207.919L207.809 90.6073ZM202.813 88.4184V88.2743C202.813 87.707 202.882 87.1924 203.019 86.7304C203.161 86.2638 203.36 85.8635 203.616 85.5295C203.877 85.1956 204.186 84.9394 204.543 84.761C204.904 84.578 205.307 84.4865 205.75 84.4865C206.217 84.4865 206.624 84.5689 206.972 84.7336C207.324 84.8937 207.621 85.1293 207.864 85.4403C208.111 85.7468 208.305 86.1174 208.447 86.552C208.589 86.9865 208.687 87.4783 208.742 88.0273V88.6585C208.692 89.2029 208.593 89.6924 208.447 90.127C208.305 90.5616 208.111 90.9321 207.864 91.2386C207.621 91.5451 207.324 91.7807 206.972 91.9454C206.62 92.1055 206.208 92.1855 205.737 92.1855C205.302 92.1855 204.904 92.0917 204.543 91.9042C204.186 91.7166 203.877 91.4536 203.616 91.1151C203.36 90.7766 203.161 90.3786 203.019 89.9211C202.882 89.4591 202.813 88.9582 202.813 88.4184ZM204.09 88.2743V88.4184C204.09 88.7889 204.126 89.1366 204.2 89.4614C204.277 89.7862 204.396 90.0721 204.556 90.3191C204.717 90.5661 204.92 90.7605 205.167 90.9024C205.414 91.0396 205.709 91.1082 206.052 91.1082C206.473 91.1082 206.819 91.019 207.088 90.8406C207.363 90.6622 207.582 90.4266 207.747 90.1338C207.912 89.8411 208.04 89.5231 208.131 89.18V87.5263C208.077 87.2747 207.996 87.0323 207.891 86.799C207.791 86.5611 207.658 86.3507 207.493 86.1677C207.333 85.9801 207.134 85.8315 206.896 85.7217C206.663 85.6119 206.386 85.557 206.066 85.557C205.718 85.557 205.419 85.6302 205.167 85.7766C204.92 85.9184 204.717 86.1151 204.556 86.3667C204.396 86.6137 204.277 86.9019 204.2 87.2313C204.126 87.5561 204.09 87.9037 204.09 88.2743ZM215.439 90.7788V86.9568C215.439 86.664 215.38 86.4101 215.261 86.1951C215.146 85.9756 214.973 85.8063 214.739 85.6874C214.506 85.5684 214.218 85.509 213.875 85.509C213.555 85.509 213.273 85.5639 213.031 85.6736C212.793 85.7834 212.605 85.9275 212.468 86.1059C212.335 86.2843 212.269 86.4765 212.269 86.6823H211C211 86.417 211.068 86.154 211.206 85.8932C211.343 85.6325 211.539 85.3969 211.796 85.1865C212.056 84.9715 212.367 84.8022 212.729 84.6787C213.095 84.5506 213.502 84.4865 213.95 84.4865C214.49 84.4865 214.966 84.578 215.377 84.761C215.794 84.944 216.119 85.2208 216.352 85.5913C216.59 85.9573 216.709 86.417 216.709 86.9705V90.4289C216.709 90.6759 216.729 90.939 216.77 91.218C216.816 91.497 216.883 91.7372 216.969 91.9385V92.0483H215.645C215.581 91.9019 215.531 91.7075 215.494 91.465C215.458 91.218 215.439 90.9893 215.439 90.7788ZM215.659 87.5469L215.673 88.439H214.389C214.028 88.439 213.705 88.4687 213.422 88.5282C213.138 88.5831 212.9 88.6677 212.708 88.7821C212.516 88.8964 212.37 89.0405 212.269 89.2143C212.168 89.3836 212.118 89.5826 212.118 89.8113C212.118 90.0446 212.171 90.2573 212.276 90.4495C212.381 90.6416 212.539 90.7949 212.749 90.9092C212.964 91.019 213.227 91.0739 213.539 91.0739C213.927 91.0739 214.27 90.9916 214.568 90.8269C214.865 90.6622 215.101 90.4609 215.275 90.223C215.453 89.9852 215.549 89.7541 215.563 89.53L216.105 90.1407C216.073 90.3328 215.986 90.5455 215.844 90.7788C215.702 91.0121 215.512 91.2363 215.275 91.4513C215.041 91.6617 214.762 91.8378 214.437 91.9797C214.117 92.1169 213.756 92.1855 213.353 92.1855C212.85 92.1855 212.409 92.0872 212.029 91.8905C211.654 91.6938 211.361 91.4307 211.151 91.1013C210.945 90.7674 210.842 90.3946 210.842 89.9829C210.842 89.5849 210.92 89.2349 211.075 88.933C211.231 88.6265 211.455 88.3726 211.748 88.1713C212.04 87.9655 212.393 87.81 212.804 87.7047C213.216 87.5995 213.676 87.5469 214.184 87.5469H215.659ZM220.682 91.2798L222.747 84.6238H224.106L221.128 93.1942C221.059 93.3772 220.968 93.5739 220.853 93.7843C220.743 93.9993 220.602 94.2029 220.428 94.395C220.254 94.5872 220.044 94.7427 219.797 94.8616C219.554 94.9851 219.264 95.0469 218.925 95.0469C218.824 95.0469 218.696 95.0332 218.541 95.0057C218.385 94.9783 218.275 94.9554 218.211 94.9371L218.205 93.9078C218.241 93.9124 218.298 93.917 218.376 93.9216C218.458 93.9307 218.516 93.9353 218.548 93.9353C218.836 93.9353 219.081 93.8964 219.282 93.8186C219.483 93.7454 219.652 93.6196 219.79 93.4412C219.931 93.2674 220.053 93.0272 220.153 92.7207L220.682 91.2798ZM219.165 84.6238L221.093 90.3877L221.423 91.7258L220.51 92.1924L217.779 84.6238H219.165Z" fill="#8D9098"/>
<g clip-path="url(#clip0_6375_15529)">
<path d="M36.2085 31.6501H35.1941V30.7801C35.1941 30.6263 35.1228 30.4788 34.996 30.37C34.8692 30.2612 34.6971 30.2001 34.5178 30.2001C34.3384 30.2001 34.1664 30.2612 34.0396 30.37C33.9128 30.4788 33.8415 30.6263 33.8415 30.7801V31.6501H32.8271C32.6477 31.6501 32.4757 31.7112 32.3489 31.82C32.2221 31.9288 32.1508 32.0763 32.1508 32.2301C32.1508 32.3839 32.2221 32.5315 32.3489 32.6402C32.4757 32.749 32.6477 32.8101 32.8271 32.8101H33.8415V33.6801C33.8415 33.8339 33.9128 33.9815 34.0396 34.0902C34.1664 34.199 34.3384 34.2601 34.5178 34.2601C34.6971 34.2601 34.8692 34.199 34.996 34.0902C35.1228 33.9815 35.1941 33.8339 35.1941 33.6801V32.8101H36.2085C36.3878 32.8101 36.5599 32.749 36.6867 32.6402C36.8135 32.5315 36.8848 32.3839 36.8848 32.2301C36.8848 32.0763 36.8135 31.9288 36.6867 31.82C36.5599 31.7112 36.3878 31.6501 36.2085 31.6501Z" fill="#2E67FF"/>
<path d="M38.2373 22.9501H33.8415C33.4827 22.9501 33.1387 23.0724 32.8851 23.2899C32.6314 23.5074 32.4889 23.8025 32.4889 24.1101V26.1604C31.8356 26.231 31.2348 26.5035 30.799 26.9269C30.3633 27.3503 30.1225 27.8954 30.1219 28.4601V36.5801C30.1219 37.1954 30.4069 37.7855 30.9143 38.2206C31.4216 38.6557 32.1096 38.9001 32.8271 38.9001H39.2517C39.9691 38.9001 40.6572 38.6557 41.1645 38.2206C41.6718 37.7855 41.9568 37.1954 41.9568 36.5801V28.4601C41.9562 27.8954 41.7155 27.3503 41.2797 26.9269C40.8439 26.5035 40.2431 26.231 39.5898 26.1604V24.1101C39.5898 23.8025 39.4473 23.5074 39.1937 23.2899C38.94 23.0724 38.596 22.9501 38.2373 22.9501ZM33.8415 24.1101H38.2373V26.1401H33.8415V24.1101ZM31.4745 29.6201H37.8991V34.8401H31.4745V29.6201ZM40.6042 28.4601V36.5801C40.6042 36.8877 40.4617 37.1828 40.2081 37.4003C39.9544 37.6179 39.6104 37.7401 39.2517 37.7401H32.8271C32.4683 37.7401 32.1243 37.6179 31.8707 37.4003C31.617 37.1828 31.4745 36.8877 31.4745 36.5801V36.0001H37.8991C38.2578 36.0001 38.6019 35.8779 38.8555 35.6603C39.1092 35.4428 39.2517 35.1478 39.2517 34.8401V29.6201C39.2517 29.3125 39.1092 29.0174 38.8555 28.7999C38.6019 28.5823 38.2578 28.4601 37.8991 28.4601H31.4745C31.4745 28.1525 31.617 27.8574 31.8707 27.6399C32.1243 27.4223 32.4683 27.3001 32.8271 27.3001H39.2517C39.6104 27.3001 39.9544 27.4223 40.2081 27.6399C40.4617 27.8574 40.6042 28.1525 40.6042 28.4601Z" fill="#2E67FF"/>
</g>
<defs>
<clipPath id="clip0_6375_15529">
<rect width="20.16" height="17.2899" fill="white" transform="translate(25.9219 22.2297)"/>
</clipPath>
</defs>
</svg>
