<svg width="333" height="146" viewBox="0 0 333 146" fill="none" xmlns="http://www.w3.org/2000/svg">
<path d="M0 12C0 5.37258 5.37258 0 12 0H321C327.627 0 333 5.37258 333 12V134C333 140.627 327.627 146 321 146H2.4C1.07452 146 0 144.925 0 143.6V12Z" fill="white"/>
<path d="M0.6 12C0.6 5.70395 5.70395 0.6 12 0.6H321C327.296 0.6 332.4 5.70395 332.4 12V134C332.4 140.296 327.296 145.4 321 145.4H2.4C1.40589 145.4 0.6 144.594 0.6 143.6V12Z" stroke="black" stroke-opacity="0.05" stroke-width="1.2"/>
<path d="M24.7852 20.3625H26.543V27.2039C26.543 27.982 26.3742 28.6336 26.0367 29.1586C25.6992 29.6836 25.2398 30.0797 24.6586 30.3469C24.082 30.6094 23.4375 30.7406 22.725 30.7406C21.9891 30.7406 21.3328 30.6094 20.7563 30.3469C20.1797 30.0797 19.725 29.6836 19.3922 29.1586C19.0641 28.6336 18.9 27.982 18.9 27.2039V20.3625H20.6578V27.2039C20.6578 27.6961 20.7422 28.1015 20.9109 28.4203C21.0797 28.7344 21.3188 28.9664 21.6281 29.1164C21.9375 29.2664 22.3031 29.3414 22.725 29.3414C23.1469 29.3414 23.5102 29.2664 23.8148 29.1164C24.1242 28.9664 24.3633 28.7344 24.532 28.4203C24.7008 28.1015 24.7852 27.6961 24.7852 27.2039V20.3625ZM29.9953 24.4547V33.525H28.3008V22.9922H29.8617L29.9953 24.4547ZM34.9523 26.7258V26.8734C34.9523 27.4265 34.8867 27.9398 34.7555 28.4133C34.6289 28.882 34.4391 29.2922 34.1859 29.6437C33.9375 29.9906 33.6305 30.2601 33.2648 30.4523C32.8992 30.6445 32.4773 30.7406 31.9992 30.7406C31.5258 30.7406 31.1109 30.6539 30.7547 30.4804C30.4031 30.3023 30.1055 30.0515 29.8617 29.7281C29.618 29.4047 29.4211 29.025 29.2711 28.589C29.1258 28.1484 29.0227 27.6656 28.9617 27.1406V26.5711C29.0227 26.0133 29.1258 25.507 29.2711 25.0523C29.4211 24.5976 29.618 24.2062 29.8617 23.8781C30.1055 23.55 30.4031 23.2969 30.7547 23.1187C31.1063 22.9406 31.5164 22.8515 31.9852 22.8515C32.4633 22.8515 32.8875 22.9453 33.2578 23.1328C33.6281 23.3156 33.9398 23.5781 34.193 23.9203C34.4461 24.2578 34.6359 24.6656 34.7625 25.1437C34.8891 25.6172 34.9523 26.1445 34.9523 26.7258ZM33.2578 26.8734V26.7258C33.2578 26.3742 33.225 26.0484 33.1594 25.7484C33.0938 25.4437 32.9906 25.1765 32.85 24.9469C32.7094 24.7172 32.5289 24.539 32.3086 24.4125C32.093 24.2812 31.8328 24.2156 31.5281 24.2156C31.2281 24.2156 30.9703 24.2672 30.7547 24.3703C30.5391 24.4687 30.3586 24.607 30.2133 24.7851C30.068 24.9633 29.9555 25.1719 29.8758 25.4109C29.7961 25.6453 29.7398 25.9008 29.707 26.1773V27.5414C29.7633 27.8789 29.8594 28.1883 29.9953 28.4695C30.1313 28.7508 30.3234 28.9758 30.5719 29.1445C30.825 29.3086 31.1484 29.3906 31.5422 29.3906C31.8469 29.3906 32.107 29.325 32.3227 29.1937C32.5383 29.0625 32.7141 28.882 32.85 28.6523C32.9906 28.4179 33.0938 28.1484 33.1594 27.8437C33.225 27.539 33.2578 27.2156 33.2578 26.8734ZM39.5016 29.3906C39.7781 29.3906 40.0266 29.3367 40.2469 29.2289C40.4719 29.1164 40.6523 28.9617 40.7883 28.7648C40.9289 28.5679 41.0063 28.3406 41.0203 28.0828H42.6164C42.607 28.575 42.4617 29.0226 42.1805 29.4258C41.8992 29.8289 41.5266 30.15 41.0625 30.389C40.5984 30.6234 40.0852 30.7406 39.5227 30.7406C38.9414 30.7406 38.4352 30.6422 38.0039 30.4453C37.5727 30.2437 37.2141 29.9672 36.9281 29.6156C36.6422 29.264 36.4266 28.8586 36.2813 28.3992C36.1406 27.9398 36.0703 27.4476 36.0703 26.9226V26.6765C36.0703 26.1515 36.1406 25.6594 36.2813 25.2C36.4266 24.7359 36.6422 24.3281 36.9281 23.9765C37.2141 23.625 37.5727 23.3508 38.0039 23.1539C38.4352 22.9523 38.9391 22.8515 39.5156 22.8515C40.125 22.8515 40.6594 22.9734 41.1188 23.2172C41.5781 23.4562 41.9391 23.7914 42.2016 24.2226C42.4688 24.6492 42.607 25.1461 42.6164 25.7133H41.0203C41.0063 25.432 40.9359 25.1789 40.8094 24.9539C40.6875 24.7242 40.5141 24.5414 40.2891 24.4054C40.0688 24.2695 39.8039 24.2015 39.4945 24.2015C39.1523 24.2015 38.8688 24.2719 38.6438 24.4125C38.4188 24.5484 38.243 24.7359 38.1164 24.975C37.9898 25.2094 37.8984 25.4742 37.8422 25.7695C37.7906 26.0601 37.7648 26.3625 37.7648 26.6765V26.9226C37.7648 27.2367 37.7906 27.5414 37.8422 27.8367C37.8938 28.132 37.9828 28.3969 38.1094 28.6312C38.2406 28.8609 38.4188 29.0461 38.6438 29.1867C38.8688 29.3226 39.1547 29.3906 39.5016 29.3906ZM43.5938 26.8804V26.7187C43.5938 26.1703 43.6734 25.6617 43.8328 25.1929C43.9922 24.7195 44.2219 24.3094 44.5219 23.9625C44.8266 23.6109 45.1969 23.339 45.6328 23.1469C46.0734 22.95 46.5703 22.8515 47.1234 22.8515C47.6813 22.8515 48.1781 22.95 48.6141 23.1469C49.0547 23.339 49.4273 23.6109 49.732 23.9625C50.0367 24.3094 50.2688 24.7195 50.4281 25.1929C50.5875 25.6617 50.6672 26.1703 50.6672 26.7187V26.8804C50.6672 27.4289 50.5875 27.9375 50.4281 28.4062C50.2688 28.875 50.0367 29.2851 49.732 29.6367C49.4273 29.9836 49.057 30.2554 48.6211 30.4523C48.1852 30.6445 47.6906 30.7406 47.1375 30.7406C46.5797 30.7406 46.0805 30.6445 45.6398 30.4523C45.2039 30.2554 44.8336 29.9836 44.5289 29.6367C44.2242 29.2851 43.9922 28.875 43.8328 28.4062C43.6734 27.9375 43.5938 27.4289 43.5938 26.8804ZM45.2883 26.7187V26.8804C45.2883 27.2226 45.3234 27.5461 45.3938 27.8508C45.4641 28.1554 45.5742 28.4226 45.7242 28.6523C45.8742 28.882 46.0664 29.0625 46.3008 29.1937C46.5352 29.325 46.8141 29.3906 47.1375 29.3906C47.4516 29.3906 47.7234 29.325 47.9531 29.1937C48.1875 29.0625 48.3797 28.882 48.5297 28.6523C48.6797 28.4226 48.7898 28.1554 48.8602 27.8508C48.9352 27.5461 48.9727 27.2226 48.9727 26.8804V26.7187C48.9727 26.3812 48.9352 26.0625 48.8602 25.7625C48.7898 25.4578 48.6773 25.1883 48.5227 24.9539C48.3727 24.7195 48.1805 24.5367 47.9461 24.4054C47.7164 24.2695 47.4422 24.2015 47.1234 24.2015C46.8047 24.2015 46.5281 24.2695 46.2938 24.4054C46.0641 24.5367 45.8742 24.7195 45.7242 24.9539C45.5742 25.1883 45.4641 25.4578 45.3938 25.7625C45.3234 26.0625 45.2883 26.3812 45.2883 26.7187ZM53.782 24.539V30.6H52.0875V22.9922H53.6836L53.782 24.539ZM53.5078 26.5148L52.9313 26.5078C52.9313 25.9828 52.9969 25.4976 53.1281 25.0523C53.2594 24.607 53.4516 24.2203 53.7047 23.8922C53.9578 23.5594 54.2719 23.3039 54.6469 23.1258C55.0266 22.9429 55.4648 22.8515 55.9617 22.8515C56.3086 22.8515 56.625 22.9031 56.9109 23.0062C57.2016 23.1047 57.4523 23.2617 57.6633 23.4773C57.8789 23.6929 58.043 23.9695 58.1555 24.307C58.2727 24.6445 58.3313 25.0523 58.3313 25.5304V30.6H56.6367V25.6781C56.6367 25.3078 56.5805 25.0172 56.468 24.8062C56.3602 24.5953 56.2031 24.4453 55.9969 24.3562C55.7953 24.2625 55.5539 24.2156 55.2727 24.2156C54.9539 24.2156 54.682 24.2765 54.457 24.3984C54.2367 24.5203 54.0563 24.6867 53.9156 24.8976C53.775 25.1086 53.6719 25.3523 53.6063 25.6289C53.5406 25.9054 53.5078 26.2008 53.5078 26.5148ZM58.2258 26.0648L57.4313 26.2406C57.4313 25.7812 57.4945 25.3476 57.6211 24.9398C57.7523 24.5273 57.9422 24.1664 58.1906 23.857C58.4438 23.5429 58.7555 23.2969 59.1258 23.1187C59.4961 22.9406 59.9203 22.8515 60.3984 22.8515C60.7875 22.8515 61.1344 22.9054 61.4391 23.0133C61.7484 23.1164 62.0109 23.2804 62.2266 23.5054C62.4422 23.7304 62.6063 24.0234 62.7188 24.3844C62.8313 24.7406 62.8875 25.1719 62.8875 25.6781V30.6H61.1859V25.6711C61.1859 25.2867 61.1297 24.989 61.0172 24.7781C60.9094 24.5672 60.7547 24.4219 60.5531 24.3422C60.3516 24.2578 60.1102 24.2156 59.8289 24.2156C59.5664 24.2156 59.3344 24.2648 59.1328 24.3633C58.9359 24.457 58.7695 24.5906 58.6336 24.764C58.4977 24.9328 58.3945 25.1273 58.3242 25.3476C58.2586 25.5679 58.2258 25.807 58.2258 26.0648ZM66.4453 22.9922V30.6H64.7438V22.9922H66.4453ZM64.6313 20.9953C64.6313 20.7375 64.7156 20.5242 64.8844 20.3554C65.0578 20.182 65.2969 20.0953 65.6016 20.0953C65.9016 20.0953 66.1383 20.182 66.3117 20.3554C66.4852 20.5242 66.5719 20.7375 66.5719 20.9953C66.5719 21.2484 66.4852 21.4594 66.3117 21.6281C66.1383 21.7969 65.9016 21.8812 65.6016 21.8812C65.2969 21.8812 65.0578 21.7969 64.8844 21.6281C64.7156 21.4594 64.6313 21.2484 64.6313 20.9953ZM69.982 24.6164V30.6H68.2875V22.9922H69.8836L69.982 24.6164ZM69.6797 26.5148L69.1313 26.5078C69.1359 25.9687 69.2109 25.4742 69.3563 25.0242C69.5063 24.5742 69.7125 24.1875 69.975 23.864C70.2422 23.5406 70.5609 23.2922 70.9313 23.1187C71.3016 22.9406 71.7141 22.8515 72.1688 22.8515C72.5344 22.8515 72.8648 22.9031 73.1602 23.0062C73.4602 23.1047 73.7156 23.2664 73.9266 23.4914C74.1422 23.7164 74.3063 24.0094 74.4188 24.3703C74.5313 24.7265 74.5875 25.1648 74.5875 25.6851V30.6H72.8859V25.6781C72.8859 25.3125 72.832 25.0242 72.7242 24.8133C72.6211 24.5976 72.4688 24.4453 72.2672 24.3562C72.0703 24.2625 71.8242 24.2156 71.5289 24.2156C71.2383 24.2156 70.9781 24.2765 70.7484 24.3984C70.5188 24.5203 70.3242 24.6867 70.1648 24.8976C70.0102 25.1086 69.8906 25.3523 69.8063 25.6289C69.7219 25.9054 69.6797 26.2008 69.6797 26.5148ZM81.1898 22.9922H82.7297V30.389C82.7297 31.0734 82.5844 31.6547 82.2938 32.1328C82.0031 32.6109 81.5977 32.9742 81.0773 33.2226C80.557 33.4758 79.9547 33.6023 79.2703 33.6023C78.9797 33.6023 78.6563 33.5601 78.3 33.4758C77.9484 33.3914 77.6063 33.2554 77.2734 33.0679C76.9453 32.8851 76.6711 32.6437 76.4508 32.3437L77.2453 31.3453C77.5172 31.6687 77.8172 31.9054 78.1453 32.0554C78.4734 32.2054 78.818 32.2804 79.1789 32.2804C79.568 32.2804 79.8984 32.2078 80.1703 32.0625C80.4469 31.9219 80.6602 31.7133 80.8102 31.4367C80.9602 31.1601 81.0352 30.8226 81.0352 30.4242V24.7148L81.1898 22.9922ZM76.0219 26.8804V26.7328C76.0219 26.1562 76.0922 25.6312 76.2328 25.1578C76.3734 24.6797 76.575 24.2695 76.8375 23.9273C77.1 23.5804 77.4188 23.3156 77.7938 23.1328C78.1688 22.9453 78.593 22.8515 79.0664 22.8515C79.5586 22.8515 79.9781 22.9406 80.325 23.1187C80.6766 23.2969 80.9695 23.5523 81.2039 23.8851C81.4383 24.2133 81.6211 24.607 81.7523 25.0664C81.8883 25.5211 81.9891 26.0273 82.0547 26.5851V27.0562C81.9938 27.6 81.8906 28.0969 81.7453 28.5469C81.6 28.9969 81.4078 29.3859 81.1688 29.714C80.9297 30.0422 80.6344 30.2953 80.2828 30.4734C79.9359 30.6515 79.5258 30.7406 79.0523 30.7406C78.5883 30.7406 78.1688 30.6445 77.7938 30.4523C77.4234 30.2601 77.1047 29.9906 76.8375 29.6437C76.575 29.2969 76.3734 28.889 76.2328 28.4203C76.0922 27.9469 76.0219 27.4336 76.0219 26.8804ZM77.7164 26.7328V26.8804C77.7164 27.2273 77.7492 27.5508 77.8148 27.8508C77.8852 28.1508 77.9906 28.4156 78.1313 28.6453C78.2766 28.8703 78.4594 29.0484 78.6797 29.1797C78.9047 29.3062 79.1695 29.3695 79.4742 29.3695C79.8727 29.3695 80.1984 29.2851 80.4516 29.1164C80.7094 28.9476 80.9063 28.7203 81.0422 28.4344C81.1828 28.1437 81.2813 27.8203 81.3375 27.464V26.1914C81.3094 25.9148 81.2508 25.657 81.1617 25.4179C81.0773 25.1789 80.9625 24.9703 80.8172 24.7922C80.6719 24.6094 80.4891 24.4687 80.2688 24.3703C80.0484 24.2672 79.7883 24.2156 79.4883 24.2156C79.1836 24.2156 78.9188 24.2812 78.6938 24.4125C78.4688 24.5437 78.2836 24.7242 78.1383 24.9539C77.9977 25.1836 77.8922 25.4508 77.8219 25.7554C77.7516 26.0601 77.7164 26.3859 77.7164 26.7328Z" fill="#21C489"/>
<path d="M38.9996 69.5274V79.8H37.3051V71.5383L34.7949 72.3891V70.9899L38.7957 69.5274H38.9996ZM49.2301 73.8235V75.4969C49.2301 76.2985 49.1504 76.9829 48.991 77.55C48.8363 78.1125 48.6113 78.5696 48.316 78.9211C48.0207 79.2727 47.6668 79.5305 47.2543 79.6946C46.8465 79.8586 46.3895 79.9407 45.8832 79.9407C45.4801 79.9407 45.1051 79.8891 44.7582 79.786C44.416 79.6829 44.1066 79.5211 43.8301 79.3008C43.5535 79.0805 43.3168 78.7969 43.1199 78.45C42.9277 78.0985 42.7777 77.679 42.6699 77.1915C42.5668 76.704 42.5152 76.1391 42.5152 75.4969V73.8235C42.5152 73.0172 42.5949 72.3375 42.7543 71.7844C42.9137 71.2266 43.141 70.7743 43.4363 70.4274C43.7316 70.0758 44.0832 69.8204 44.491 69.661C44.9035 69.5016 45.3629 69.4219 45.8691 69.4219C46.277 69.4219 46.652 69.4735 46.9941 69.5766C47.341 69.675 47.6504 69.8321 47.9223 70.0477C48.1988 70.2633 48.4332 70.5446 48.6254 70.8915C48.8223 71.2336 48.9723 71.6485 49.0754 72.136C49.1785 72.6188 49.2301 73.1813 49.2301 73.8235ZM47.5355 75.736V73.5704C47.5355 73.1625 47.5121 72.804 47.4652 72.4946C47.4184 72.1805 47.348 71.9157 47.2543 71.7C47.1652 71.4797 47.0527 71.3016 46.9168 71.1657C46.7809 71.025 46.6262 70.9243 46.4527 70.8633C46.2793 70.7977 46.0848 70.7649 45.8691 70.7649C45.6066 70.7649 45.3723 70.8165 45.166 70.9196C44.9598 71.018 44.7863 71.1774 44.6457 71.3977C44.5051 71.618 44.3973 71.9086 44.3223 72.2696C44.252 72.6258 44.2168 73.0594 44.2168 73.5704V75.736C44.2168 76.1485 44.2402 76.5118 44.2871 76.8258C44.334 77.1399 44.4043 77.4094 44.498 77.6344C44.5918 77.8547 44.7043 78.0375 44.8355 78.1829C44.9715 78.3235 45.1262 78.4266 45.2996 78.4922C45.4777 78.5579 45.6723 78.5907 45.8832 78.5907C46.1504 78.5907 46.3871 78.5391 46.5934 78.436C46.7996 78.3329 46.973 78.1688 47.1137 77.9438C47.2543 77.7141 47.3598 77.4165 47.4301 77.0508C47.5004 76.6852 47.5355 76.2469 47.5355 75.736ZM50.8613 78.9563C50.8613 78.6938 50.9504 78.4735 51.1285 78.2954C51.3066 78.1125 51.548 78.0211 51.8527 78.0211C52.1621 78.0211 52.4035 78.1125 52.577 78.2954C52.7551 78.4735 52.8441 78.6938 52.8441 78.9563C52.8441 79.2188 52.7551 79.4391 52.577 79.6172C52.4035 79.7954 52.1621 79.8844 51.8527 79.8844C51.548 79.8844 51.3066 79.7954 51.1285 79.6172C50.9504 79.4391 50.8613 79.2188 50.8613 78.9563ZM50.8684 72.9657C50.8684 72.7032 50.9574 72.4829 51.1355 72.3047C51.3137 72.1219 51.5551 72.0305 51.8598 72.0305C52.1691 72.0305 52.4105 72.1219 52.584 72.3047C52.7621 72.4829 52.8512 72.7032 52.8512 72.9657C52.8512 73.2282 52.7621 73.4485 52.584 73.6266C52.4105 73.8047 52.1691 73.8938 51.8598 73.8938C51.5551 73.8938 51.3137 73.8047 51.1355 73.6266C50.9574 73.4485 50.8684 73.2282 50.8684 72.9657ZM56.5285 73.9149H57.541C57.9348 73.9149 58.2605 73.8469 58.5184 73.711C58.7809 73.575 58.9754 73.3875 59.102 73.1485C59.2285 72.9094 59.2918 72.6352 59.2918 72.3258C59.2918 72.0024 59.2332 71.7258 59.116 71.4961C59.0035 71.2618 58.8301 71.0813 58.5957 70.9547C58.366 70.8282 58.073 70.7649 57.7168 70.7649C57.4168 70.7649 57.1449 70.8258 56.9012 70.9477C56.6621 71.0649 56.4723 71.2336 56.3316 71.454C56.191 71.6696 56.1207 71.9274 56.1207 72.2274H54.4191C54.4191 71.6836 54.5621 71.2008 54.848 70.779C55.134 70.3571 55.523 70.0266 56.0152 69.7875C56.5121 69.5438 57.0699 69.4219 57.6887 69.4219C58.3496 69.4219 58.9262 69.5321 59.4184 69.7524C59.9152 69.968 60.302 70.2915 60.5785 70.7227C60.8551 71.154 60.9934 71.6883 60.9934 72.3258C60.9934 72.6165 60.9254 72.9118 60.7895 73.2118C60.6535 73.5118 60.452 73.786 60.1848 74.0344C59.9176 74.2782 59.5848 74.4774 59.1863 74.6321C58.7879 74.7821 58.3262 74.8571 57.8012 74.8571H56.5285V73.9149ZM56.5285 75.2368V74.3086H57.8012C58.4012 74.3086 58.9121 74.379 59.334 74.5196C59.7605 74.6602 60.1074 74.8547 60.3746 75.1032C60.6418 75.3469 60.8363 75.6258 60.9582 75.9399C61.0848 76.254 61.148 76.5868 61.148 76.9383C61.148 77.4165 61.0613 77.843 60.8879 78.218C60.7191 78.5883 60.4777 78.9024 60.1637 79.1602C59.8496 79.418 59.4816 79.6125 59.0598 79.7438C58.6426 79.875 58.1879 79.9407 57.6957 79.9407C57.2551 79.9407 56.8332 79.8797 56.4301 79.7579C56.027 79.636 55.666 79.4555 55.3473 79.2165C55.0285 78.9727 54.7754 78.6704 54.5879 78.3094C54.4051 77.9438 54.3137 77.5219 54.3137 77.0438H56.0082C56.0082 77.3485 56.0785 77.618 56.2191 77.8524C56.3645 78.0821 56.566 78.2625 56.8238 78.3938C57.0863 78.525 57.3863 78.5907 57.7238 78.5907C58.0801 78.5907 58.3871 78.5274 58.6449 78.4008C58.9027 78.2743 59.0996 78.0868 59.2355 77.8383C59.3762 77.5899 59.4465 77.2899 59.4465 76.9383C59.4465 76.5399 59.3691 76.2165 59.2145 75.968C59.0598 75.7196 58.8395 75.5368 58.5535 75.4196C58.2676 75.2977 57.9301 75.2368 57.541 75.2368H56.5285ZM69.3957 73.8235V75.4969C69.3957 76.2985 69.316 76.9829 69.1566 77.55C69.002 78.1125 68.777 78.5696 68.4816 78.9211C68.1863 79.2727 67.8324 79.5305 67.4199 79.6946C67.0121 79.8586 66.5551 79.9407 66.0488 79.9407C65.6457 79.9407 65.2707 79.8891 64.9238 79.786C64.5816 79.6829 64.2723 79.5211 63.9957 79.3008C63.7191 79.0805 63.4824 78.7969 63.2855 78.45C63.0934 78.0985 62.9434 77.679 62.8355 77.1915C62.7324 76.704 62.6809 76.1391 62.6809 75.4969V73.8235C62.6809 73.0172 62.7605 72.3375 62.9199 71.7844C63.0793 71.2266 63.3066 70.7743 63.602 70.4274C63.8973 70.0758 64.2488 69.8204 64.6566 69.661C65.0691 69.5016 65.5285 69.4219 66.0348 69.4219C66.4426 69.4219 66.8176 69.4735 67.1598 69.5766C67.5066 69.675 67.816 69.8321 68.0879 70.0477C68.3645 70.2633 68.5988 70.5446 68.791 70.8915C68.9879 71.2336 69.1379 71.6485 69.241 72.136C69.3441 72.6188 69.3957 73.1813 69.3957 73.8235ZM67.7012 75.736V73.5704C67.7012 73.1625 67.6777 72.804 67.6309 72.4946C67.584 72.1805 67.5137 71.9157 67.4199 71.7C67.3309 71.4797 67.2184 71.3016 67.0824 71.1657C66.9465 71.025 66.7918 70.9243 66.6184 70.8633C66.4449 70.7977 66.2504 70.7649 66.0348 70.7649C65.7723 70.7649 65.5379 70.8165 65.3316 70.9196C65.1254 71.018 64.952 71.1774 64.8113 71.3977C64.6707 71.618 64.5629 71.9086 64.4879 72.2696C64.4176 72.6258 64.3824 73.0594 64.3824 73.5704V75.736C64.3824 76.1485 64.4059 76.5118 64.4527 76.8258C64.4996 77.1399 64.5699 77.4094 64.6637 77.6344C64.7574 77.8547 64.8699 78.0375 65.0012 78.1829C65.1371 78.3235 65.2918 78.4266 65.4652 78.4922C65.6434 78.5579 65.8379 78.5907 66.0488 78.5907C66.316 78.5907 66.5527 78.5391 66.759 78.436C66.9652 78.3329 67.1387 78.1688 67.2793 77.9438C67.4199 77.7141 67.5254 77.4165 67.5957 77.0508C67.666 76.6852 67.7012 76.2469 67.7012 75.736ZM75.2949 78.2743V74.6461C75.2949 74.3743 75.2457 74.1399 75.1473 73.943C75.0488 73.7461 74.8988 73.5938 74.6973 73.486C74.5004 73.3782 74.252 73.3243 73.952 73.3243C73.6754 73.3243 73.4363 73.3711 73.2348 73.4649C73.0332 73.5586 72.8762 73.6852 72.7637 73.8446C72.6512 74.004 72.5949 74.1844 72.5949 74.386H70.9074C70.9074 74.086 70.9801 73.7954 71.1254 73.5141C71.2707 73.2329 71.4816 72.9821 71.7582 72.7618C72.0348 72.5415 72.3652 72.368 72.7496 72.2415C73.134 72.1149 73.5652 72.0516 74.0434 72.0516C74.6152 72.0516 75.1215 72.1477 75.5621 72.3399C76.0074 72.5321 76.3566 72.8227 76.6098 73.2118C76.8676 73.5961 76.9965 74.079 76.9965 74.6602V78.0422C76.9965 78.3891 77.0199 78.7008 77.0668 78.9774C77.1184 79.2493 77.191 79.486 77.2848 79.6875V79.8H75.5481C75.4684 79.6172 75.4051 79.3852 75.3582 79.104C75.316 78.818 75.2949 78.5415 75.2949 78.2743ZM75.541 75.1735L75.5551 76.2211H74.3387C74.0246 76.2211 73.7481 76.2516 73.509 76.3125C73.2699 76.3688 73.0707 76.4532 72.9113 76.5657C72.752 76.6782 72.6324 76.8141 72.5527 76.9735C72.4731 77.1329 72.4332 77.3133 72.4332 77.5149C72.4332 77.7165 72.4801 77.9016 72.5738 78.0704C72.6676 78.2344 72.8035 78.3633 72.9816 78.4571C73.1645 78.5508 73.3848 78.5977 73.6426 78.5977C73.9895 78.5977 74.2918 78.5274 74.5496 78.3868C74.8121 78.2415 75.0184 78.0657 75.1684 77.8594C75.3184 77.6485 75.3981 77.4493 75.4074 77.2618L75.9559 78.0141C75.8996 78.2063 75.8035 78.4125 75.6676 78.6329C75.5316 78.8532 75.3535 79.0641 75.1332 79.2657C74.9176 79.4625 74.6574 79.6243 74.3527 79.7508C74.0527 79.8774 73.7059 79.9407 73.3121 79.9407C72.8152 79.9407 72.3723 79.8422 71.9832 79.6454C71.5941 79.4438 71.2895 79.1743 71.0691 78.8368C70.8488 78.4946 70.7387 78.1079 70.7387 77.6766C70.7387 77.2735 70.8137 76.9172 70.9637 76.6079C71.1184 76.2938 71.3434 76.0313 71.6387 75.8204C71.9387 75.6094 72.3043 75.45 72.7356 75.3422C73.1668 75.2297 73.659 75.1735 74.2121 75.1735H75.541ZM80.4629 73.7391V79.8H78.7684V72.1922H80.3645L80.4629 73.7391ZM80.1887 75.7149L79.6121 75.7079C79.6121 75.1829 79.6777 74.6977 79.809 74.2524C79.9402 73.8071 80.1324 73.4204 80.3856 73.0922C80.6387 72.7594 80.9527 72.504 81.3277 72.3258C81.7074 72.143 82.1457 72.0516 82.6426 72.0516C82.9895 72.0516 83.3059 72.1032 83.5918 72.2063C83.8824 72.3047 84.1332 72.4618 84.3441 72.6774C84.5598 72.893 84.7238 73.1696 84.8363 73.5071C84.9535 73.8446 85.0121 74.2524 85.0121 74.7305V79.8H83.3176V74.8782C83.3176 74.5079 83.2613 74.2172 83.1488 74.0063C83.041 73.7954 82.884 73.6454 82.6777 73.5563C82.4762 73.4625 82.2348 73.4157 81.9535 73.4157C81.6348 73.4157 81.3629 73.4766 81.1379 73.5985C80.9176 73.7204 80.7371 73.8868 80.5965 74.0977C80.4559 74.3086 80.3527 74.5524 80.2871 74.829C80.2215 75.1055 80.1887 75.4008 80.1887 75.7149ZM84.9066 75.2649L84.1121 75.4407C84.1121 74.9813 84.1754 74.5477 84.302 74.1399C84.4332 73.7274 84.6231 73.3665 84.8715 73.0571C85.1246 72.743 85.4363 72.4969 85.8066 72.3188C86.177 72.1407 86.6012 72.0516 87.0793 72.0516C87.4684 72.0516 87.8152 72.1055 88.1199 72.2133C88.4293 72.3165 88.6918 72.4805 88.9074 72.7055C89.1231 72.9305 89.2871 73.2235 89.3996 73.5844C89.5121 73.9407 89.5684 74.3719 89.5684 74.8782V79.8H87.8668V74.8711C87.8668 74.4868 87.8106 74.1891 87.6981 73.9782C87.5902 73.7672 87.4356 73.6219 87.234 73.5422C87.0324 73.4579 86.791 73.4157 86.5098 73.4157C86.2473 73.4157 86.0152 73.4649 85.8137 73.5633C85.6168 73.6571 85.4504 73.7907 85.3145 73.9641C85.1785 74.1329 85.0754 74.3274 85.0051 74.5477C84.9395 74.768 84.9066 75.0071 84.9066 75.2649ZM98.3082 74.7516V76.1016H94.5887V74.7516H98.3082ZM105.311 69.5625V79.8H103.546V69.5625H105.311ZM109.488 74.0415V75.4407H104.861V74.0415H109.488ZM110.071 69.5625V70.9688H104.861V69.5625H110.071ZM112.828 73.6407V79.8H111.133V72.1922H112.75L112.828 73.6407ZM115.155 72.143L115.141 73.718C115.038 73.6993 114.925 73.6852 114.804 73.6758C114.686 73.6665 114.569 73.6618 114.452 73.6618C114.161 73.6618 113.906 73.704 113.686 73.7883C113.465 73.868 113.28 73.9852 113.13 74.1399C112.985 74.2899 112.872 74.4727 112.793 74.6883C112.713 74.904 112.666 75.1454 112.652 75.4125L112.265 75.4407C112.265 74.9625 112.312 74.5196 112.406 74.1118C112.5 73.704 112.64 73.3454 112.828 73.036C113.02 72.7266 113.259 72.4852 113.545 72.3118C113.836 72.1383 114.171 72.0516 114.55 72.0516C114.654 72.0516 114.764 72.061 114.881 72.0797C115.003 72.0985 115.094 72.1196 115.155 72.143ZM118.031 72.1922V79.8H116.329V72.1922H118.031ZM116.217 70.1954C116.217 69.9375 116.301 69.7243 116.47 69.5555C116.643 69.3821 116.882 69.2954 117.187 69.2954C117.487 69.2954 117.724 69.3821 117.897 69.5555C118.071 69.7243 118.157 69.9375 118.157 70.1954C118.157 70.4485 118.071 70.6594 117.897 70.8282C117.724 70.9969 117.487 71.0813 117.187 71.0813C116.882 71.0813 116.643 70.9969 116.47 70.8282C116.301 70.6594 116.217 70.4485 116.217 70.1954ZM124.528 78.225V69H126.229V79.8H124.689L124.528 78.225ZM119.578 76.0805V75.9329C119.578 75.3563 119.646 74.8313 119.782 74.3579C119.918 73.8797 120.114 73.4696 120.372 73.1274C120.63 72.7805 120.944 72.5157 121.314 72.3329C121.685 72.1454 122.102 72.0516 122.566 72.0516C123.025 72.0516 123.429 72.1407 123.775 72.3188C124.122 72.4969 124.418 72.7524 124.661 73.0852C124.905 73.4133 125.1 73.8071 125.245 74.2665C125.39 74.7211 125.493 75.2274 125.554 75.7852V76.2563C125.493 76.8 125.39 77.2969 125.245 77.7469C125.1 78.1969 124.905 78.586 124.661 78.9141C124.418 79.2422 124.12 79.4954 123.768 79.6735C123.421 79.8516 123.016 79.9407 122.552 79.9407C122.093 79.9407 121.678 79.8446 121.307 79.6524C120.942 79.4602 120.63 79.1907 120.372 78.8438C120.114 78.4969 119.918 78.0891 119.782 77.6204C119.646 77.1469 119.578 76.6336 119.578 76.0805ZM121.272 75.9329V76.0805C121.272 76.4274 121.303 76.7508 121.364 77.0508C121.429 77.3508 121.53 77.6157 121.666 77.8454C121.802 78.0704 121.978 78.2485 122.193 78.3797C122.414 78.5063 122.676 78.5696 122.981 78.5696C123.365 78.5696 123.682 78.4852 123.93 78.3165C124.179 78.1477 124.373 77.9204 124.514 77.6344C124.659 77.3438 124.757 77.0204 124.809 76.6641V75.3915C124.781 75.1149 124.722 74.8571 124.633 74.618C124.549 74.379 124.434 74.1704 124.289 73.9922C124.143 73.8094 123.963 73.6688 123.747 73.5704C123.536 73.4672 123.286 73.4157 122.995 73.4157C122.686 73.4157 122.423 73.4813 122.207 73.6125C121.992 73.7438 121.814 73.9243 121.673 74.154C121.537 74.3836 121.436 74.6508 121.371 74.9555C121.305 75.2602 121.272 75.586 121.272 75.9329ZM132.29 78.2743V74.6461C132.29 74.3743 132.241 74.1399 132.143 73.943C132.044 73.7461 131.894 73.5938 131.693 73.486C131.496 73.3782 131.247 73.3243 130.947 73.3243C130.671 73.3243 130.432 73.3711 130.23 73.4649C130.029 73.5586 129.871 73.6852 129.759 73.8446C129.646 74.004 129.59 74.1844 129.59 74.386H127.903C127.903 74.086 127.975 73.7954 128.121 73.5141C128.266 73.2329 128.477 72.9821 128.754 72.7618C129.03 72.5415 129.361 72.368 129.745 72.2415C130.129 72.1149 130.561 72.0516 131.039 72.0516C131.611 72.0516 132.117 72.1477 132.557 72.3399C133.003 72.5321 133.352 72.8227 133.605 73.2118C133.863 73.5961 133.992 74.079 133.992 74.6602V78.0422C133.992 78.3891 134.015 78.7008 134.062 78.9774C134.114 79.2493 134.186 79.486 134.28 79.6875V79.8H132.543C132.464 79.6172 132.4 79.3852 132.354 79.104C132.311 78.818 132.29 78.5415 132.29 78.2743ZM132.536 75.1735L132.55 76.2211H131.334C131.02 76.2211 130.743 76.2516 130.504 76.3125C130.265 76.3688 130.066 76.4532 129.907 76.5657C129.747 76.6782 129.628 76.8141 129.548 76.9735C129.468 77.1329 129.429 77.3133 129.429 77.5149C129.429 77.7165 129.475 77.9016 129.569 78.0704C129.663 78.2344 129.799 78.3633 129.977 78.4571C130.16 78.5508 130.38 78.5977 130.638 78.5977C130.985 78.5977 131.287 78.5274 131.545 78.3868C131.807 78.2415 132.014 78.0657 132.164 77.8594C132.314 77.6485 132.393 77.4493 132.403 77.2618L132.951 78.0141C132.895 78.2063 132.799 78.4125 132.663 78.6329C132.527 78.8532 132.349 79.0641 132.129 79.2657C131.913 79.4625 131.653 79.6243 131.348 79.7508C131.048 79.8774 130.701 79.9407 130.307 79.9407C129.811 79.9407 129.368 79.8422 128.979 79.6454C128.589 79.4438 128.285 79.1743 128.064 78.8368C127.844 78.4946 127.734 78.1079 127.734 77.6766C127.734 77.2735 127.809 76.9172 127.959 76.6079C128.114 76.2938 128.339 76.0313 128.634 75.8204C128.934 75.6094 129.3 75.45 129.731 75.3422C130.162 75.2297 130.654 75.1735 131.207 75.1735H132.536ZM137.859 78.9704L139.926 72.1922H141.74L138.689 80.9602C138.618 81.1477 138.527 81.3516 138.414 81.5719C138.302 81.7922 138.154 82.0008 137.971 82.1977C137.793 82.3993 137.571 82.561 137.304 82.6829C137.036 82.8094 136.713 82.8727 136.333 82.8727C136.183 82.8727 136.038 82.8586 135.897 82.8305C135.761 82.8071 135.632 82.7813 135.511 82.7532L135.504 81.4594C135.55 81.4641 135.607 81.4688 135.672 81.4735C135.743 81.4782 135.799 81.4805 135.841 81.4805C136.122 81.4805 136.357 81.4454 136.544 81.375C136.732 81.3094 136.884 81.2016 137.001 81.0516C137.123 80.9016 137.226 80.7 137.311 80.4469L137.859 78.9704ZM136.692 72.1922L138.499 77.8875L138.801 79.6735L137.627 79.9758L134.864 72.1922H136.692ZM143.386 78.1688L143.379 79.3782C143.379 79.8563 143.259 80.3485 143.02 80.8547C142.781 81.361 142.464 81.7782 142.071 82.1063L141.164 81.579C141.295 81.368 141.414 81.1547 141.522 80.9391C141.63 80.7235 141.717 80.4938 141.782 80.25C141.848 80.0063 141.881 79.7368 141.881 79.4415V78.1688H143.386ZM149.489 69.5625H151.064L154.024 77.4586L156.977 69.5625H158.552L154.643 79.8H153.391L149.489 69.5625ZM148.771 69.5625H150.269L150.529 76.3969V79.8H148.771V69.5625ZM157.771 69.5625H159.276V79.8H157.511V76.3969L157.771 69.5625ZM165.492 78.2743V74.6461C165.492 74.3743 165.443 74.1399 165.344 73.943C165.246 73.7461 165.096 73.5938 164.894 73.486C164.697 73.3782 164.449 73.3243 164.149 73.3243C163.872 73.3243 163.633 73.3711 163.432 73.4649C163.23 73.5586 163.073 73.6852 162.961 73.8446C162.848 74.004 162.792 74.1844 162.792 74.386H161.104C161.104 74.086 161.177 73.7954 161.322 73.5141C161.468 73.2329 161.679 72.9821 161.955 72.7618C162.232 72.5415 162.562 72.368 162.946 72.2415C163.331 72.1149 163.762 72.0516 164.24 72.0516C164.812 72.0516 165.318 72.1477 165.759 72.3399C166.204 72.5321 166.554 72.8227 166.807 73.2118C167.064 73.5961 167.193 74.079 167.193 74.6602V78.0422C167.193 78.3891 167.217 78.7008 167.264 78.9774C167.315 79.2493 167.388 79.486 167.482 79.6875V79.8H165.745C165.665 79.6172 165.602 79.3852 165.555 79.104C165.513 78.818 165.492 78.5415 165.492 78.2743ZM165.738 75.1735L165.752 76.2211H164.536C164.221 76.2211 163.945 76.2516 163.706 76.3125C163.467 76.3688 163.268 76.4532 163.108 76.5657C162.949 76.6782 162.829 76.8141 162.75 76.9735C162.67 77.1329 162.63 77.3133 162.63 77.5149C162.63 77.7165 162.677 77.9016 162.771 78.0704C162.864 78.2344 163 78.3633 163.179 78.4571C163.361 78.5508 163.582 78.5977 163.839 78.5977C164.186 78.5977 164.489 78.5274 164.746 78.3868C165.009 78.2415 165.215 78.0657 165.365 77.8594C165.515 77.6485 165.595 77.4493 165.604 77.2618L166.153 78.0141C166.096 78.2063 166 78.4125 165.864 78.6329C165.729 78.8532 165.55 79.0641 165.33 79.2657C165.114 79.4625 164.854 79.6243 164.55 79.7508C164.25 79.8774 163.903 79.9407 163.509 79.9407C163.012 79.9407 162.569 79.8422 162.18 79.6454C161.791 79.4438 161.486 79.1743 161.266 78.8368C161.046 78.4946 160.936 78.1079 160.936 77.6766C160.936 77.2735 161.011 76.9172 161.161 76.6079C161.315 76.2938 161.54 76.0313 161.836 75.8204C162.136 75.6094 162.501 75.45 162.932 75.3422C163.364 75.2297 163.856 75.1735 164.409 75.1735H165.738ZM171.061 78.9704L173.128 72.1922H174.942L171.89 80.9602C171.82 81.1477 171.729 81.3516 171.616 81.5719C171.504 81.7922 171.356 82.0008 171.173 82.1977C170.995 82.3993 170.772 82.561 170.505 82.6829C170.238 82.8094 169.914 82.8727 169.535 82.8727C169.385 82.8727 169.239 82.8586 169.099 82.8305C168.963 82.8071 168.834 82.7813 168.712 82.7532L168.705 81.4594C168.752 81.4641 168.808 81.4688 168.874 81.4735C168.944 81.4782 169 81.4805 169.043 81.4805C169.324 81.4805 169.558 81.4454 169.746 81.375C169.933 81.3094 170.086 81.2016 170.203 81.0516C170.325 80.9016 170.428 80.7 170.512 80.4469L171.061 78.9704ZM169.893 72.1922L171.7 77.8875L172.003 79.6735L170.829 79.9758L168.065 72.1922H169.893ZM184.026 69.5274V79.8H182.332V71.5383L179.821 72.3891V70.9899L183.822 69.5274H184.026ZM194.446 78.45V79.8H187.584V78.6399L190.917 75.0047C191.282 74.5922 191.571 74.236 191.782 73.936C191.993 73.636 192.14 73.3665 192.225 73.1274C192.314 72.8836 192.358 72.6469 192.358 72.4172C192.358 72.0938 192.297 71.8102 192.175 71.5665C192.058 71.318 191.885 71.1235 191.655 70.9829C191.425 70.8375 191.146 70.7649 190.818 70.7649C190.439 70.7649 190.12 70.8469 189.862 71.011C189.604 71.175 189.41 71.4024 189.279 71.693C189.147 71.979 189.082 72.3071 189.082 72.6774H187.387C187.387 72.0821 187.523 71.5383 187.795 71.0461C188.067 70.5493 188.461 70.1555 188.976 69.8649C189.492 69.5696 190.113 69.4219 190.839 69.4219C191.524 69.4219 192.105 69.5368 192.583 69.7665C193.061 69.9961 193.425 70.3219 193.673 70.7438C193.926 71.1657 194.053 71.6649 194.053 72.2415C194.053 72.5602 194.001 72.8766 193.898 73.1907C193.795 73.5047 193.647 73.8188 193.455 74.1329C193.268 74.4422 193.045 74.754 192.787 75.068C192.529 75.3774 192.246 75.6915 191.936 76.0102L189.721 78.45H194.446Z" fill="#3A3A3A"/>
<path d="M41.2918 98.2961V99.4H35.8707V98.2961H41.2918ZM36.1449 89.1625V99.4H34.7879V89.1625H36.1449ZM40.5746 93.5641V94.668H35.8707V93.5641H40.5746ZM41.2215 89.1625V90.2735H35.8707V89.1625H41.2215ZM44.1887 88.6V99.4H42.8809V88.6H44.1887ZM47.6902 88.6V99.4H46.3824V88.6H47.6902ZM52.9355 99.5406C52.4059 99.5406 51.9254 99.4516 51.4941 99.2735C51.0676 99.0906 50.6996 98.8352 50.3902 98.5071C50.0855 98.1789 49.8512 97.7899 49.6871 97.3399C49.523 96.8899 49.441 96.3977 49.441 95.8633V95.568C49.441 94.9492 49.5324 94.3985 49.7152 93.9156C49.898 93.4281 50.1465 93.0156 50.4605 92.6781C50.7746 92.3406 51.1309 92.0852 51.5293 91.9117C51.9277 91.7383 52.3402 91.6516 52.7668 91.6516C53.3105 91.6516 53.7793 91.7453 54.173 91.9328C54.5715 92.1203 54.8973 92.3828 55.1504 92.7203C55.4035 93.0531 55.591 93.4469 55.7129 93.9016C55.8348 94.3516 55.8957 94.8438 55.8957 95.3781V95.9617H50.2145V94.9H54.5949V94.8016C54.5762 94.4641 54.5059 94.136 54.384 93.8172C54.2668 93.4985 54.0793 93.236 53.8215 93.0297C53.5637 92.8235 53.2121 92.7203 52.7668 92.7203C52.4715 92.7203 52.1996 92.7836 51.9512 92.9102C51.7027 93.0321 51.4895 93.2149 51.3113 93.4586C51.1332 93.7024 50.9949 94 50.8965 94.3516C50.798 94.7031 50.7488 95.1086 50.7488 95.568V95.8633C50.7488 96.2242 50.798 96.5641 50.8965 96.8828C50.9996 97.1969 51.1473 97.4735 51.3395 97.7125C51.5363 97.9516 51.773 98.1391 52.0496 98.275C52.3309 98.411 52.6496 98.4789 53.0059 98.4789C53.4652 98.4789 53.8543 98.3852 54.173 98.1977C54.4918 98.0102 54.7707 97.7594 55.0098 97.4453L55.7973 98.0711C55.6332 98.3196 55.4246 98.5563 55.1715 98.7813C54.9184 99.0063 54.6066 99.1891 54.2363 99.3297C53.8707 99.4703 53.4371 99.5406 52.9355 99.5406ZM58.7152 92.9875V99.4H57.4145V91.7922H58.6801L58.7152 92.9875ZM61.0918 91.75L61.0848 92.9594C60.977 92.936 60.8738 92.9219 60.7754 92.9172C60.6816 92.9078 60.5738 92.9031 60.452 92.9031C60.152 92.9031 59.8871 92.95 59.6574 93.0438C59.4277 93.1375 59.2332 93.2688 59.0738 93.4375C58.9145 93.6063 58.7879 93.8078 58.6941 94.0422C58.6051 94.2719 58.5465 94.525 58.5184 94.8016L58.1527 95.0125C58.1527 94.5531 58.1973 94.1219 58.2863 93.7188C58.3801 93.3156 58.523 92.9594 58.7152 92.65C58.9074 92.336 59.1512 92.0922 59.4465 91.9188C59.7465 91.7406 60.1027 91.6516 60.5152 91.6516C60.609 91.6516 60.7168 91.6633 60.8387 91.6867C60.9605 91.7055 61.0449 91.7266 61.0918 91.75ZM66.7238 97.3821C66.7238 97.1946 66.6816 97.0211 66.5973 96.8617C66.5176 96.6977 66.3512 96.55 66.098 96.4188C65.8496 96.2828 65.4746 96.1656 64.973 96.0672C64.5512 95.9781 64.1691 95.8727 63.827 95.7508C63.4895 95.6289 63.2012 95.4813 62.9621 95.3078C62.7277 95.1344 62.5473 94.9305 62.4207 94.6961C62.2941 94.4617 62.2309 94.1875 62.2309 93.8735C62.2309 93.5735 62.2965 93.2899 62.4277 93.0227C62.5637 92.7555 62.7535 92.5188 62.9973 92.3125C63.2457 92.1063 63.5434 91.9446 63.8902 91.8274C64.2371 91.7102 64.6238 91.6516 65.0504 91.6516C65.6598 91.6516 66.1801 91.7594 66.6113 91.975C67.0426 92.1906 67.373 92.4789 67.6027 92.8399C67.8324 93.1961 67.9473 93.5922 67.9473 94.0281H66.6465C66.6465 93.8172 66.5832 93.6133 66.4566 93.4164C66.3348 93.2149 66.1543 93.0485 65.9152 92.9172C65.6809 92.786 65.3926 92.7203 65.0504 92.7203C64.6895 92.7203 64.3965 92.7766 64.1715 92.8891C63.9512 92.9969 63.7895 93.1352 63.6863 93.3039C63.5879 93.4727 63.5387 93.6508 63.5387 93.8383C63.5387 93.9789 63.5621 94.1055 63.609 94.218C63.6605 94.3258 63.7496 94.4266 63.8762 94.5203C64.0027 94.6094 64.1809 94.6938 64.4105 94.7735C64.6402 94.8531 64.9332 94.9328 65.2895 95.0125C65.9129 95.1531 66.4262 95.3219 66.8293 95.5188C67.2324 95.7156 67.5324 95.9571 67.7293 96.243C67.9262 96.5289 68.0246 96.8758 68.0246 97.2836C68.0246 97.6164 67.9543 97.9211 67.8137 98.1977C67.6777 98.4742 67.4785 98.7133 67.216 98.9149C66.9582 99.1117 66.6488 99.2664 66.2879 99.3789C65.9316 99.4867 65.5309 99.5406 65.0855 99.5406C64.4152 99.5406 63.848 99.4211 63.384 99.1821C62.9199 98.943 62.5684 98.6336 62.3293 98.2539C62.0902 97.8742 61.9707 97.4735 61.9707 97.0516H63.2785C63.2973 97.4078 63.4004 97.6914 63.5879 97.9024C63.7754 98.1086 64.0051 98.2563 64.277 98.3453C64.5488 98.4297 64.8184 98.4719 65.0855 98.4719C65.4418 98.4719 65.7395 98.425 65.9785 98.3313C66.2223 98.2375 66.4074 98.1086 66.534 97.9446C66.6605 97.7805 66.7238 97.593 66.7238 97.3821ZM71.1465 88.6V99.4H69.8387V88.6H71.1465ZM74.6481 91.7922V99.4H73.3402V91.7922H74.6481ZM73.2418 89.7742C73.2418 89.5633 73.3051 89.3852 73.4316 89.2399C73.5629 89.0946 73.7551 89.0219 74.0082 89.0219C74.2566 89.0219 74.4465 89.0946 74.5777 89.2399C74.7137 89.3852 74.7816 89.5633 74.7816 89.7742C74.7816 89.9758 74.7137 90.1492 74.5777 90.2946C74.4465 90.4352 74.2566 90.5055 74.0082 90.5055C73.7551 90.5055 73.5629 90.4352 73.4316 90.2946C73.3051 90.1492 73.2418 89.9758 73.2418 89.7742ZM79.8934 99.5406C79.3637 99.5406 78.8832 99.4516 78.452 99.2735C78.0254 99.0906 77.6574 98.8352 77.348 98.5071C77.0434 98.1789 76.809 97.7899 76.6449 97.3399C76.4809 96.8899 76.3988 96.3977 76.3988 95.8633V95.568C76.3988 94.9492 76.4902 94.3985 76.673 93.9156C76.8559 93.4281 77.1043 93.0156 77.4184 92.6781C77.7324 92.3406 78.0887 92.0852 78.4871 91.9117C78.8855 91.7383 79.298 91.6516 79.7246 91.6516C80.2684 91.6516 80.7371 91.7453 81.1309 91.9328C81.5293 92.1203 81.8551 92.3828 82.1082 92.7203C82.3613 93.0531 82.5488 93.4469 82.6707 93.9016C82.7926 94.3516 82.8535 94.8438 82.8535 95.3781V95.9617H77.1723V94.9H81.5527V94.8016C81.534 94.4641 81.4637 94.136 81.3418 93.8172C81.2246 93.4985 81.0371 93.236 80.7793 93.0297C80.5215 92.8235 80.1699 92.7203 79.7246 92.7203C79.4293 92.7203 79.1574 92.7836 78.909 92.9102C78.6605 93.0321 78.4473 93.2149 78.2691 93.4586C78.091 93.7024 77.9527 94 77.8543 94.3516C77.7559 94.7031 77.7066 95.1086 77.7066 95.568V95.8633C77.7066 96.2242 77.7559 96.5641 77.8543 96.8828C77.9574 97.1969 78.1051 97.4735 78.2973 97.7125C78.4941 97.9516 78.7309 98.1391 79.0074 98.275C79.2887 98.411 79.6074 98.4789 79.9637 98.4789C80.423 98.4789 80.8121 98.3852 81.1309 98.1977C81.4496 98.0102 81.7285 97.7594 81.9676 97.4453L82.7551 98.0711C82.591 98.3196 82.3824 98.5563 82.1293 98.7813C81.8762 99.0063 81.5645 99.1891 81.1941 99.3297C80.8285 99.4703 80.3949 99.5406 79.8934 99.5406ZM88.5699 89.1625H89.8848L93.2387 97.5086L96.5855 89.1625H97.9074L93.7449 99.4H92.7184L88.5699 89.1625ZM88.141 89.1625H89.3012L89.491 95.4063V99.4H88.141V89.1625ZM97.1691 89.1625H98.3293V99.4H96.9793V95.4063L97.1691 89.1625ZM103.673 99.5406C103.143 99.5406 102.663 99.4516 102.232 99.2735C101.805 99.0906 101.437 98.8352 101.128 98.5071C100.823 98.1789 100.589 97.7899 100.425 97.3399C100.261 96.8899 100.179 96.3977 100.179 95.8633V95.568C100.179 94.9492 100.27 94.3985 100.453 93.9156C100.636 93.4281 100.884 93.0156 101.198 92.6781C101.512 92.3406 101.868 92.0852 102.267 91.9117C102.665 91.7383 103.078 91.6516 103.504 91.6516C104.048 91.6516 104.517 91.7453 104.911 91.9328C105.309 92.1203 105.635 92.3828 105.888 92.7203C106.141 93.0531 106.329 93.4469 106.45 93.9016C106.572 94.3516 106.633 94.8438 106.633 95.3781V95.9617H100.952V94.9H105.332V94.8016C105.314 94.4641 105.243 94.136 105.121 93.8172C105.004 93.4985 104.817 93.236 104.559 93.0297C104.301 92.8235 103.95 92.7203 103.504 92.7203C103.209 92.7203 102.937 92.7836 102.689 92.9102C102.44 93.0321 102.227 93.2149 102.049 93.4586C101.871 93.7024 101.732 94 101.634 94.3516C101.536 94.7031 101.486 95.1086 101.486 95.568V95.8633C101.486 96.2242 101.536 96.5641 101.634 96.8828C101.737 97.1969 101.885 97.4735 102.077 97.7125C102.274 97.9516 102.511 98.1391 102.787 98.275C103.068 98.411 103.387 98.4789 103.743 98.4789C104.203 98.4789 104.592 98.3852 104.911 98.1977C105.229 98.0102 105.508 97.7594 105.747 97.4453L106.535 98.0711C106.371 98.3196 106.162 98.5563 105.909 98.7813C105.656 99.0063 105.344 99.1891 104.974 99.3297C104.608 99.4703 104.175 99.5406 103.673 99.5406ZM112.947 97.9235V88.6H114.255V99.4H113.06L112.947 97.9235ZM107.829 95.6805V95.5328C107.829 94.9516 107.899 94.4242 108.039 93.9508C108.185 93.4727 108.389 93.0625 108.651 92.7203C108.918 92.3781 109.235 92.1156 109.6 91.9328C109.971 91.7453 110.383 91.6516 110.838 91.6516C111.316 91.6516 111.733 91.736 112.089 91.9047C112.45 92.0688 112.755 92.3102 113.004 92.6289C113.257 92.943 113.456 93.3227 113.601 93.768C113.746 94.2133 113.847 94.7172 113.904 95.2797V95.9266C113.852 96.4844 113.751 96.986 113.601 97.4313C113.456 97.8766 113.257 98.2563 113.004 98.5703C112.755 98.8844 112.45 99.1258 112.089 99.2946C111.729 99.4586 111.307 99.5406 110.824 99.5406C110.379 99.5406 109.971 99.4446 109.6 99.2524C109.235 99.0602 108.918 98.7906 108.651 98.4438C108.389 98.0969 108.185 97.6891 108.039 97.2203C107.899 96.7469 107.829 96.2336 107.829 95.6805ZM109.136 95.5328V95.6805C109.136 96.0602 109.174 96.4164 109.249 96.7492C109.329 97.0821 109.45 97.375 109.614 97.6281C109.779 97.8813 109.987 98.0805 110.24 98.2258C110.493 98.3664 110.796 98.4367 111.147 98.4367C111.579 98.4367 111.932 98.3453 112.209 98.1625C112.49 97.9797 112.715 97.7383 112.884 97.4383C113.053 97.1383 113.184 96.8125 113.278 96.461V94.7664C113.221 94.5086 113.139 94.2602 113.032 94.0211C112.929 93.7774 112.793 93.5617 112.624 93.3742C112.46 93.1821 112.256 93.0297 112.012 92.9172C111.773 92.8047 111.489 92.7485 111.161 92.7485C110.805 92.7485 110.498 92.8235 110.24 92.9735C109.987 93.1188 109.779 93.3203 109.614 93.5781C109.45 93.8313 109.329 94.1266 109.249 94.4641C109.174 94.7969 109.136 95.1531 109.136 95.5328ZM117.693 91.7922V99.4H116.386V91.7922H117.693ZM116.287 89.7742C116.287 89.5633 116.35 89.3852 116.477 89.2399C116.608 89.0946 116.8 89.0219 117.054 89.0219C117.302 89.0219 117.492 89.0946 117.623 89.2399C117.759 89.3852 117.827 89.5633 117.827 89.7742C117.827 89.9758 117.759 90.1492 117.623 90.2946C117.492 90.4352 117.302 90.5055 117.054 90.5055C116.8 90.5055 116.608 90.4352 116.477 90.2946C116.35 90.1492 116.287 89.9758 116.287 89.7742ZM122.826 98.4719C123.136 98.4719 123.421 98.4086 123.684 98.2821C123.946 98.1555 124.162 97.9821 124.331 97.7617C124.5 97.5367 124.596 97.2813 124.619 96.9953H125.857C125.833 97.4453 125.681 97.8649 125.4 98.2539C125.123 98.6383 124.76 98.95 124.31 99.1891C123.86 99.4235 123.365 99.5406 122.826 99.5406C122.254 99.5406 121.755 99.4399 121.329 99.2383C120.907 99.0367 120.555 98.7602 120.274 98.4086C119.997 98.0571 119.789 97.6539 119.648 97.1992C119.512 96.7399 119.444 96.2547 119.444 95.7438V95.4485C119.444 94.9375 119.512 94.4547 119.648 94C119.789 93.5406 119.997 93.1352 120.274 92.7836C120.555 92.4321 120.907 92.1555 121.329 91.9539C121.755 91.7524 122.254 91.6516 122.826 91.6516C123.421 91.6516 123.942 91.7735 124.387 92.0172C124.832 92.2563 125.182 92.5844 125.435 93.0016C125.693 93.4141 125.833 93.8828 125.857 94.4078H124.619C124.596 94.0938 124.507 93.8102 124.352 93.5571C124.202 93.3039 123.996 93.1024 123.733 92.9524C123.475 92.7977 123.173 92.7203 122.826 92.7203C122.428 92.7203 122.093 92.8 121.821 92.9594C121.554 93.1141 121.34 93.325 121.181 93.5922C121.026 93.8547 120.914 94.1477 120.843 94.4711C120.778 94.7899 120.745 95.1156 120.745 95.4485V95.7438C120.745 96.0766 120.778 96.4047 120.843 96.7281C120.909 97.0516 121.019 97.3446 121.174 97.6071C121.333 97.8696 121.546 98.0805 121.814 98.2399C122.086 98.3946 122.423 98.4719 122.826 98.4719ZM131.805 98.0992V94.1828C131.805 93.8828 131.744 93.6227 131.622 93.4024C131.505 93.1774 131.327 93.0039 131.088 92.8821C130.849 92.7602 130.554 92.6992 130.202 92.6992C129.874 92.6992 129.586 92.7555 129.337 92.868C129.093 92.9805 128.901 93.1281 128.761 93.311C128.625 93.4938 128.557 93.6906 128.557 93.9016H127.256C127.256 93.6297 127.326 93.3602 127.467 93.093C127.607 92.8258 127.809 92.5844 128.071 92.3688C128.339 92.1485 128.657 91.975 129.028 91.8485C129.403 91.7172 129.82 91.6516 130.279 91.6516C130.832 91.6516 131.32 91.7453 131.742 91.9328C132.168 92.1203 132.501 92.4039 132.74 92.7836C132.984 93.1586 133.106 93.6297 133.106 94.1969V97.7406C133.106 97.9938 133.127 98.2633 133.169 98.5492C133.216 98.8352 133.284 99.0813 133.373 99.2875V99.4H132.016C131.95 99.25 131.899 99.0508 131.861 98.8024C131.824 98.5492 131.805 98.3149 131.805 98.0992ZM132.03 94.7875L132.044 95.7016H130.729C130.359 95.7016 130.029 95.7321 129.738 95.793C129.447 95.8492 129.204 95.936 129.007 96.0531C128.81 96.1703 128.66 96.318 128.557 96.4961C128.454 96.6696 128.402 96.8735 128.402 97.1078C128.402 97.3469 128.456 97.5649 128.564 97.7617C128.671 97.9586 128.833 98.1156 129.049 98.2328C129.269 98.3453 129.539 98.4016 129.857 98.4016C130.256 98.4016 130.607 98.3172 130.912 98.1485C131.217 97.9797 131.458 97.7735 131.636 97.5297C131.819 97.286 131.918 97.0492 131.932 96.8196L132.487 97.4453C132.454 97.6422 132.365 97.8602 132.22 98.0992C132.075 98.3383 131.88 98.568 131.636 98.7883C131.397 99.0039 131.111 99.1844 130.779 99.3297C130.45 99.4703 130.08 99.5406 129.668 99.5406C129.152 99.5406 128.7 99.4399 128.311 99.2383C127.926 99.0367 127.626 98.7672 127.411 98.4297C127.2 98.0875 127.094 97.7055 127.094 97.2836C127.094 96.8758 127.174 96.5172 127.333 96.2078C127.493 95.8938 127.722 95.6336 128.022 95.4274C128.322 95.2164 128.683 95.0571 129.105 94.9492C129.527 94.8414 129.998 94.7875 130.518 94.7875H132.03ZM136.565 88.6V99.4H135.257V88.6H136.565ZM148.603 96.1446H149.953C149.882 96.7914 149.697 97.3703 149.397 97.8813C149.097 98.3922 148.673 98.7977 148.125 99.0977C147.576 99.393 146.892 99.5406 146.071 99.5406C145.471 99.5406 144.925 99.4281 144.433 99.2031C143.946 98.9781 143.526 98.6594 143.175 98.2469C142.823 97.8297 142.551 97.3305 142.359 96.7492C142.171 96.1633 142.078 95.5117 142.078 94.7946V93.775C142.078 93.0578 142.171 92.4086 142.359 91.8274C142.551 91.2414 142.825 90.7399 143.182 90.3227C143.543 89.9055 143.976 89.5844 144.482 89.3594C144.989 89.1344 145.558 89.0219 146.191 89.0219C146.964 89.0219 147.618 89.1672 148.153 89.4578C148.687 89.7485 149.102 90.1516 149.397 90.6672C149.697 91.1781 149.882 91.7711 149.953 92.4461H148.603C148.537 91.968 148.415 91.5578 148.237 91.2156C148.059 90.8688 147.806 90.6016 147.478 90.4141C147.15 90.2266 146.721 90.1328 146.191 90.1328C145.736 90.1328 145.336 90.2196 144.989 90.393C144.646 90.5664 144.358 90.8125 144.124 91.1313C143.894 91.45 143.721 91.8321 143.604 92.2774C143.486 92.7227 143.428 93.2172 143.428 93.761V94.7946C143.428 95.2961 143.479 95.7672 143.582 96.2078C143.69 96.6485 143.852 97.0352 144.068 97.368C144.283 97.7008 144.557 97.9633 144.89 98.1555C145.223 98.343 145.617 98.4367 146.071 98.4367C146.648 98.4367 147.107 98.3453 147.45 98.1625C147.792 97.9797 148.05 97.7172 148.223 97.375C148.401 97.0328 148.528 96.6227 148.603 96.1446ZM154.762 99.5406C154.232 99.5406 153.752 99.4516 153.321 99.2735C152.894 99.0906 152.526 98.8352 152.217 98.5071C151.912 98.1789 151.678 97.7899 151.514 97.3399C151.35 96.8899 151.268 96.3977 151.268 95.8633V95.568C151.268 94.9492 151.359 94.3985 151.542 93.9156C151.725 93.4281 151.973 93.0156 152.287 92.6781C152.601 92.3406 152.957 92.0852 153.356 91.9117C153.754 91.7383 154.167 91.6516 154.593 91.6516C155.137 91.6516 155.606 91.7453 156 91.9328C156.398 92.1203 156.724 92.3828 156.977 92.7203C157.23 93.0531 157.418 93.4469 157.539 93.9016C157.661 94.3516 157.722 94.8438 157.722 95.3781V95.9617H152.041V94.9H156.421V94.8016C156.403 94.4641 156.332 94.136 156.211 93.8172C156.093 93.4985 155.906 93.236 155.648 93.0297C155.39 92.8235 155.039 92.7203 154.593 92.7203C154.298 92.7203 154.026 92.7836 153.778 92.9102C153.529 93.0321 153.316 93.2149 153.138 93.4586C152.96 93.7024 152.821 94 152.723 94.3516C152.625 94.7031 152.575 95.1086 152.575 95.568V95.8633C152.575 96.2242 152.625 96.5641 152.723 96.8828C152.826 97.1969 152.974 97.4735 153.166 97.7125C153.363 97.9516 153.6 98.1391 153.876 98.275C154.157 98.411 154.476 98.4789 154.832 98.4789C155.292 98.4789 155.681 98.3852 156 98.1977C156.318 98.0102 156.597 97.7594 156.836 97.4453L157.624 98.0711C157.46 98.3196 157.251 98.5563 156.998 98.7813C156.745 99.0063 156.433 99.1891 156.063 99.3297C155.697 99.4703 155.264 99.5406 154.762 99.5406ZM160.542 93.4164V99.4H159.241V91.7922H160.471L160.542 93.4164ZM160.232 95.3078L159.691 95.2867C159.696 94.7664 159.773 94.286 159.923 93.8453C160.073 93.4 160.284 93.0133 160.556 92.6852C160.828 92.3571 161.151 92.1039 161.526 91.9258C161.906 91.743 162.325 91.6516 162.785 91.6516C163.16 91.6516 163.497 91.7031 163.797 91.8063C164.097 91.9047 164.353 92.0641 164.564 92.2844C164.779 92.5047 164.943 92.7906 165.056 93.1422C165.168 93.4891 165.225 93.9133 165.225 94.4149V99.4H163.917V94.4008C163.917 94.0024 163.858 93.6836 163.741 93.4446C163.624 93.2008 163.453 93.025 163.228 92.9172C163.003 92.8047 162.726 92.7485 162.398 92.7485C162.075 92.7485 161.779 92.8164 161.512 92.9524C161.25 93.0883 161.022 93.2758 160.83 93.5149C160.643 93.7539 160.495 94.0281 160.387 94.3375C160.284 94.6422 160.232 94.9656 160.232 95.3078ZM170.386 91.7922V92.7906H166.272V91.7922H170.386ZM167.664 89.943H168.965V97.5156C168.965 97.7735 169.005 97.968 169.085 98.0992C169.164 98.2305 169.268 98.3172 169.394 98.3594C169.521 98.4016 169.657 98.4227 169.802 98.4227C169.91 98.4227 170.022 98.4133 170.139 98.3946C170.261 98.3711 170.353 98.3524 170.414 98.3383L170.421 99.4C170.318 99.4328 170.182 99.4633 170.013 99.4914C169.849 99.5242 169.65 99.5406 169.415 99.5406C169.096 99.5406 168.804 99.4774 168.536 99.3508C168.269 99.2242 168.056 99.0133 167.896 98.718C167.742 98.418 167.664 98.0149 167.664 97.5086V89.943ZM173.212 92.9875V99.4H171.911V91.7922H173.177L173.212 92.9875ZM175.589 91.75L175.582 92.9594C175.474 92.936 175.371 92.9219 175.272 92.9172C175.179 92.9078 175.071 92.9031 174.949 92.9031C174.649 92.9031 174.384 92.95 174.154 93.0438C173.925 93.1375 173.73 93.2688 173.571 93.4375C173.411 93.6063 173.285 93.8078 173.191 94.0422C173.102 94.2719 173.043 94.525 173.015 94.8016L172.65 95.0125C172.65 94.5531 172.694 94.1219 172.783 93.7188C172.877 93.3156 173.02 92.9594 173.212 92.65C173.404 92.336 173.648 92.0922 173.943 91.9188C174.243 91.7406 174.6 91.6516 175.012 91.6516C175.106 91.6516 175.214 91.6633 175.336 91.6867C175.457 91.7055 175.542 91.7266 175.589 91.75ZM179.807 99.5406C179.278 99.5406 178.797 99.4516 178.366 99.2735C177.939 99.0906 177.571 98.8352 177.262 98.5071C176.957 98.1789 176.723 97.7899 176.559 97.3399C176.395 96.8899 176.313 96.3977 176.313 95.8633V95.568C176.313 94.9492 176.404 94.3985 176.587 93.9156C176.77 93.4281 177.018 93.0156 177.332 92.6781C177.646 92.3406 178.003 92.0852 178.401 91.9117C178.8 91.7383 179.212 91.6516 179.639 91.6516C180.182 91.6516 180.651 91.7453 181.045 91.9328C181.443 92.1203 181.769 92.3828 182.022 92.7203C182.275 93.0531 182.463 93.4469 182.585 93.9016C182.707 94.3516 182.768 94.8438 182.768 95.3781V95.9617H177.086V94.9H181.467V94.8016C181.448 94.4641 181.378 94.136 181.256 93.8172C181.139 93.4985 180.951 93.236 180.693 93.0297C180.436 92.8235 180.084 92.7203 179.639 92.7203C179.343 92.7203 179.071 92.7836 178.823 92.9102C178.575 93.0321 178.361 93.2149 178.183 93.4586C178.005 93.7024 177.867 94 177.768 94.3516C177.67 94.7031 177.621 95.1086 177.621 95.568V95.8633C177.621 96.2242 177.67 96.5641 177.768 96.8828C177.871 97.1969 178.019 97.4735 178.211 97.7125C178.408 97.9516 178.645 98.1391 178.921 98.275C179.203 98.411 179.521 98.4789 179.878 98.4789C180.337 98.4789 180.726 98.3852 181.045 98.1977C181.364 98.0102 181.643 97.7594 181.882 97.4453L182.669 98.0711C182.505 98.3196 182.296 98.5563 182.043 98.7813C181.79 99.0063 181.479 99.1891 181.108 99.3297C180.743 99.4703 180.309 99.5406 179.807 99.5406Z" fill="#676F78"/>
<path d="M37.5582 127H35.4207L35.4348 125.896H37.5582C38.2895 125.896 38.8988 125.744 39.3863 125.439C39.8738 125.13 40.2395 124.698 40.4832 124.145C40.7316 123.587 40.8559 122.936 40.8559 122.191V121.565C40.8559 120.979 40.7855 120.459 40.6449 120.004C40.5043 119.545 40.298 119.158 40.0262 118.844C39.7543 118.525 39.4215 118.284 39.0277 118.12C38.6387 117.955 38.191 117.873 37.6848 117.873H35.3785V116.762H37.6848C38.3551 116.762 38.9668 116.875 39.5199 117.1C40.073 117.32 40.5488 117.641 40.9473 118.063C41.3504 118.48 41.6598 118.987 41.8754 119.582C42.091 120.173 42.1988 120.838 42.1988 121.579V122.191C42.1988 122.931 42.091 123.599 41.8754 124.195C41.6598 124.785 41.348 125.289 40.9402 125.706C40.5371 126.123 40.0496 126.445 39.4777 126.67C38.9105 126.89 38.2707 127 37.5582 127ZM36.1449 116.762V127H34.7879V116.762H36.1449ZM45.3418 120.587V127H44.041V119.392H45.3066L45.3418 120.587ZM47.7184 119.35L47.7113 120.559C47.6035 120.536 47.5004 120.522 47.402 120.517C47.3082 120.508 47.2004 120.503 47.0785 120.503C46.7785 120.503 46.5137 120.55 46.284 120.644C46.0543 120.737 45.8598 120.869 45.7004 121.037C45.541 121.206 45.4145 121.408 45.3207 121.642C45.2316 121.872 45.173 122.125 45.1449 122.402L44.7793 122.612C44.7793 122.153 44.8238 121.722 44.9129 121.319C45.0066 120.916 45.1496 120.559 45.3418 120.25C45.534 119.936 45.7777 119.692 46.073 119.519C46.373 119.341 46.7293 119.252 47.1418 119.252C47.2355 119.252 47.3434 119.263 47.4652 119.287C47.5871 119.305 47.6715 119.327 47.7184 119.35ZM55.4598 127H53.3223L53.3363 125.896H55.4598C56.191 125.896 56.8004 125.744 57.2879 125.439C57.7754 125.13 58.141 124.698 58.3848 124.145C58.6332 123.587 58.7574 122.936 58.7574 122.191V121.565C58.7574 120.979 58.6871 120.459 58.5465 120.004C58.4059 119.545 58.1996 119.158 57.9277 118.844C57.6559 118.525 57.323 118.284 56.9293 118.12C56.5402 117.955 56.0926 117.873 55.5863 117.873H53.2801V116.762H55.5863C56.2566 116.762 56.8684 116.875 57.4215 117.1C57.9746 117.32 58.4504 117.641 58.8488 118.063C59.252 118.48 59.5613 118.987 59.777 119.582C59.9926 120.173 60.1004 120.838 60.1004 121.579V122.191C60.1004 122.931 59.9926 123.599 59.777 124.195C59.5613 124.785 59.2496 125.289 58.8418 125.706C58.4387 126.123 57.9512 126.445 57.3793 126.67C56.8121 126.89 56.1723 127 55.4598 127ZM54.0465 116.762V127H52.6895V116.762H54.0465ZM61.598 123.28V123.119C61.598 122.57 61.6777 122.062 61.8371 121.593C61.9965 121.12 62.2262 120.709 62.5262 120.362C62.8262 120.011 63.1895 119.739 63.616 119.547C64.0426 119.35 64.5207 119.252 65.0504 119.252C65.5848 119.252 66.0652 119.35 66.4918 119.547C66.923 119.739 67.2887 120.011 67.5887 120.362C67.8934 120.709 68.1254 121.12 68.2848 121.593C68.4441 122.062 68.5238 122.57 68.5238 123.119V123.28C68.5238 123.829 68.4441 124.337 68.2848 124.806C68.1254 125.275 67.8934 125.685 67.5887 126.037C67.2887 126.384 66.9254 126.655 66.4988 126.852C66.077 127.045 65.5988 127.141 65.0645 127.141C64.5301 127.141 64.0496 127.045 63.623 126.852C63.1965 126.655 62.8309 126.384 62.5262 126.037C62.2262 125.685 61.9965 125.275 61.8371 124.806C61.6777 124.337 61.598 123.829 61.598 123.28ZM62.8988 123.119V123.28C62.8988 123.66 62.9434 124.019 63.0324 124.356C63.1215 124.689 63.2551 124.984 63.4332 125.242C63.616 125.5 63.8434 125.704 64.1152 125.854C64.3871 125.999 64.7035 126.072 65.0645 126.072C65.4207 126.072 65.7324 125.999 65.9996 125.854C66.2715 125.704 66.4965 125.5 66.6746 125.242C66.8527 124.984 66.9863 124.689 67.0754 124.356C67.1691 124.019 67.216 123.66 67.216 123.28V123.119C67.216 122.744 67.1691 122.39 67.0754 122.057C66.9863 121.72 66.8504 121.422 66.6676 121.164C66.4895 120.902 66.2645 120.695 65.9926 120.545C65.7254 120.395 65.4113 120.32 65.0504 120.32C64.6941 120.32 64.3801 120.395 64.1082 120.545C63.841 120.695 63.616 120.902 63.4332 121.164C63.2551 121.422 63.1215 121.72 63.0324 122.057C62.9434 122.39 62.8988 122.744 62.8988 123.119ZM73.1996 126.072C73.509 126.072 73.7949 126.009 74.0574 125.882C74.3199 125.755 74.5355 125.582 74.7043 125.362C74.873 125.137 74.9691 124.881 74.9926 124.595H76.2301C76.2066 125.045 76.0543 125.465 75.773 125.854C75.4965 126.238 75.1332 126.55 74.6832 126.789C74.2332 127.023 73.7387 127.141 73.1996 127.141C72.6277 127.141 72.1285 127.04 71.702 126.838C71.2801 126.637 70.9285 126.36 70.6473 126.009C70.3707 125.657 70.1621 125.254 70.0215 124.799C69.8855 124.34 69.8176 123.855 69.8176 123.344V123.048C69.8176 122.537 69.8855 122.055 70.0215 121.6C70.1621 121.141 70.3707 120.735 70.6473 120.384C70.9285 120.032 71.2801 119.755 71.702 119.554C72.1285 119.352 72.6277 119.252 73.1996 119.252C73.7949 119.252 74.3152 119.373 74.7605 119.617C75.2059 119.856 75.5551 120.184 75.8082 120.602C76.066 121.014 76.2066 121.483 76.2301 122.008H74.9926C74.9691 121.694 74.8801 121.41 74.7254 121.157C74.5754 120.904 74.3691 120.702 74.1066 120.552C73.8488 120.398 73.5465 120.32 73.1996 120.32C72.8012 120.32 72.466 120.4 72.1941 120.559C71.927 120.714 71.7137 120.925 71.5543 121.192C71.3996 121.455 71.2871 121.748 71.2168 122.071C71.1512 122.39 71.1184 122.716 71.1184 123.048V123.344C71.1184 123.677 71.1512 124.005 71.2168 124.328C71.2824 124.652 71.3926 124.945 71.5473 125.207C71.7066 125.47 71.9199 125.68 72.1871 125.84C72.459 125.995 72.7965 126.072 73.1996 126.072ZM80.8777 119.392V120.391H76.7645V119.392H80.8777ZM78.1566 117.543H79.4574V125.116C79.4574 125.373 79.4973 125.568 79.577 125.699C79.6566 125.83 79.7598 125.917 79.8863 125.959C80.0129 126.002 80.1488 126.023 80.2941 126.023C80.402 126.023 80.5145 126.013 80.6316 125.995C80.7535 125.971 80.8449 125.952 80.9059 125.938L80.9129 127C80.8098 127.033 80.6738 127.063 80.5051 127.091C80.341 127.124 80.1418 127.141 79.9074 127.141C79.5887 127.141 79.2957 127.077 79.0285 126.951C78.7613 126.824 78.5481 126.613 78.3887 126.318C78.234 126.018 78.1566 125.615 78.1566 125.109V117.543ZM81.9184 123.28V123.119C81.9184 122.57 81.9981 122.062 82.1574 121.593C82.3168 121.12 82.5465 120.709 82.8465 120.362C83.1465 120.011 83.5098 119.739 83.9363 119.547C84.3629 119.35 84.841 119.252 85.3707 119.252C85.9051 119.252 86.3856 119.35 86.8121 119.547C87.2434 119.739 87.609 120.011 87.909 120.362C88.2137 120.709 88.4457 121.12 88.6051 121.593C88.7645 122.062 88.8441 122.57 88.8441 123.119V123.28C88.8441 123.829 88.7645 124.337 88.6051 124.806C88.4457 125.275 88.2137 125.685 87.909 126.037C87.609 126.384 87.2457 126.655 86.8191 126.852C86.3973 127.045 85.9191 127.141 85.3848 127.141C84.8504 127.141 84.3699 127.045 83.9434 126.852C83.5168 126.655 83.1512 126.384 82.8465 126.037C82.5465 125.685 82.3168 125.275 82.1574 124.806C81.9981 124.337 81.9184 123.829 81.9184 123.28ZM83.2191 123.119V123.28C83.2191 123.66 83.2637 124.019 83.3527 124.356C83.4418 124.689 83.5754 124.984 83.7535 125.242C83.9363 125.5 84.1637 125.704 84.4356 125.854C84.7074 125.999 85.0238 126.072 85.3848 126.072C85.741 126.072 86.0527 125.999 86.3199 125.854C86.5918 125.704 86.8168 125.5 86.9949 125.242C87.1731 124.984 87.3066 124.689 87.3957 124.356C87.4895 124.019 87.5363 123.66 87.5363 123.28V123.119C87.5363 122.744 87.4895 122.39 87.3957 122.057C87.3066 121.72 87.1707 121.422 86.9879 121.164C86.8098 120.902 86.5848 120.695 86.3129 120.545C86.0457 120.395 85.7316 120.32 85.3707 120.32C85.0145 120.32 84.7004 120.395 84.4285 120.545C84.1613 120.695 83.9363 120.902 83.7535 121.164C83.5754 121.422 83.4418 121.72 83.3527 122.057C83.2637 122.39 83.2191 122.744 83.2191 123.119ZM91.7762 120.587V127H90.4754V119.392H91.741L91.7762 120.587ZM94.1527 119.35L94.1457 120.559C94.0379 120.536 93.9348 120.522 93.8363 120.517C93.7426 120.508 93.6348 120.503 93.5129 120.503C93.2129 120.503 92.948 120.55 92.7184 120.644C92.4887 120.737 92.2941 120.869 92.1348 121.037C91.9754 121.206 91.8488 121.408 91.7551 121.642C91.666 121.872 91.6074 122.125 91.5793 122.402L91.2137 122.612C91.2137 122.153 91.2582 121.722 91.3473 121.319C91.441 120.916 91.584 120.559 91.7762 120.25C91.9684 119.936 92.2121 119.692 92.5074 119.519C92.8074 119.341 93.1637 119.252 93.5762 119.252C93.6699 119.252 93.7777 119.263 93.8996 119.287C94.0215 119.305 94.1059 119.327 94.1527 119.35ZM106.999 116.762V127H105.635L100.481 119.104V127H99.1238V116.762H100.481L105.656 124.68V116.762H106.999ZM113.693 125.699V121.783C113.693 121.483 113.632 121.223 113.51 121.002C113.393 120.777 113.214 120.604 112.975 120.482C112.736 120.36 112.441 120.299 112.089 120.299C111.761 120.299 111.473 120.355 111.225 120.468C110.981 120.58 110.789 120.728 110.648 120.911C110.512 121.094 110.444 121.291 110.444 121.502H109.143C109.143 121.23 109.214 120.96 109.354 120.693C109.495 120.426 109.696 120.184 109.959 119.969C110.226 119.748 110.545 119.575 110.915 119.448C111.29 119.317 111.707 119.252 112.167 119.252C112.72 119.252 113.207 119.345 113.629 119.533C114.056 119.72 114.389 120.004 114.628 120.384C114.871 120.759 114.993 121.23 114.993 121.797V125.341C114.993 125.594 115.014 125.863 115.057 126.149C115.104 126.435 115.171 126.681 115.261 126.887V127H113.904C113.838 126.85 113.786 126.651 113.749 126.402C113.711 126.149 113.693 125.915 113.693 125.699ZM113.918 122.387L113.932 123.302H112.617C112.246 123.302 111.916 123.332 111.625 123.393C111.335 123.449 111.091 123.536 110.894 123.653C110.697 123.77 110.547 123.918 110.444 124.096C110.341 124.27 110.289 124.473 110.289 124.708C110.289 124.947 110.343 125.165 110.451 125.362C110.559 125.559 110.721 125.716 110.936 125.833C111.157 125.945 111.426 126.002 111.745 126.002C112.143 126.002 112.495 125.917 112.8 125.748C113.104 125.58 113.346 125.373 113.524 125.13C113.707 124.886 113.805 124.649 113.819 124.42L114.375 125.045C114.342 125.242 114.253 125.46 114.107 125.699C113.962 125.938 113.768 126.168 113.524 126.388C113.285 126.604 112.999 126.784 112.666 126.93C112.338 127.07 111.968 127.141 111.555 127.141C111.039 127.141 110.587 127.04 110.198 126.838C109.814 126.637 109.514 126.367 109.298 126.03C109.087 125.687 108.982 125.305 108.982 124.884C108.982 124.476 109.061 124.117 109.221 123.808C109.38 123.494 109.61 123.234 109.91 123.027C110.21 122.816 110.571 122.657 110.993 122.549C111.414 122.441 111.886 122.387 112.406 122.387H113.918ZM118.333 120.904V127H117.025V119.392H118.263L118.333 120.904ZM118.066 122.908L117.461 122.887C117.466 122.366 117.534 121.886 117.665 121.445C117.796 121 117.991 120.613 118.249 120.285C118.507 119.957 118.828 119.704 119.212 119.526C119.596 119.343 120.042 119.252 120.548 119.252C120.904 119.252 121.232 119.303 121.532 119.406C121.832 119.505 122.093 119.662 122.313 119.877C122.533 120.093 122.704 120.37 122.826 120.707C122.948 121.045 123.009 121.452 123.009 121.93V127H121.708V121.994C121.708 121.595 121.64 121.277 121.504 121.037C121.373 120.798 121.186 120.625 120.942 120.517C120.698 120.405 120.412 120.348 120.084 120.348C119.7 120.348 119.379 120.416 119.121 120.552C118.863 120.688 118.657 120.876 118.502 121.115C118.347 121.354 118.235 121.628 118.164 121.937C118.099 122.242 118.066 122.566 118.066 122.908ZM122.995 122.191L122.123 122.458C122.128 122.041 122.196 121.64 122.327 121.255C122.463 120.871 122.657 120.529 122.911 120.229C123.168 119.929 123.485 119.692 123.86 119.519C124.235 119.341 124.664 119.252 125.146 119.252C125.554 119.252 125.915 119.305 126.229 119.413C126.548 119.521 126.815 119.687 127.031 119.912C127.251 120.133 127.418 120.416 127.53 120.763C127.643 121.11 127.699 121.523 127.699 122.001V127H126.391V121.987C126.391 121.56 126.323 121.23 126.187 120.995C126.056 120.756 125.868 120.59 125.625 120.496C125.386 120.398 125.1 120.348 124.767 120.348C124.481 120.348 124.228 120.398 124.007 120.496C123.787 120.595 123.602 120.73 123.452 120.904C123.302 121.073 123.187 121.267 123.107 121.487C123.032 121.708 122.995 121.942 122.995 122.191ZM132.825 127.141C132.295 127.141 131.814 127.052 131.383 126.873C130.957 126.691 130.589 126.435 130.279 126.107C129.975 125.779 129.74 125.39 129.576 124.94C129.412 124.49 129.33 123.998 129.33 123.463V123.168C129.33 122.549 129.421 121.998 129.604 121.516C129.787 121.028 130.036 120.616 130.35 120.278C130.664 119.941 131.02 119.685 131.418 119.512C131.817 119.338 132.229 119.252 132.656 119.252C133.2 119.252 133.668 119.345 134.062 119.533C134.461 119.72 134.786 119.983 135.039 120.32C135.293 120.653 135.48 121.047 135.602 121.502C135.724 121.952 135.785 122.444 135.785 122.978V123.562H130.104V122.5H134.484V122.402C134.465 122.064 134.395 121.736 134.273 121.417C134.156 121.098 133.968 120.836 133.711 120.63C133.453 120.423 133.101 120.32 132.656 120.32C132.361 120.32 132.089 120.384 131.84 120.51C131.592 120.632 131.379 120.815 131.2 121.059C131.022 121.302 130.884 121.6 130.786 121.952C130.687 122.303 130.638 122.709 130.638 123.168V123.463C130.638 123.824 130.687 124.164 130.786 124.483C130.889 124.797 131.036 125.073 131.229 125.312C131.425 125.552 131.662 125.739 131.939 125.875C132.22 126.011 132.539 126.079 132.895 126.079C133.354 126.079 133.743 125.985 134.062 125.798C134.381 125.61 134.66 125.359 134.899 125.045L135.686 125.671C135.522 125.92 135.314 126.156 135.061 126.381C134.807 126.606 134.496 126.789 134.125 126.93C133.76 127.07 133.326 127.141 132.825 127.141Z" fill="#8D9098"/>
<path d="M23.8652 41.4476L20.2969 51.8H18.1395L22.6348 39.8562H24.0129L23.8652 41.4476ZM26.8512 51.8L23.2746 41.4476L23.1188 39.8562H24.5051L29.0168 51.8H26.8512ZM26.6789 47.3703V49.0027H20.182V47.3703H26.6789ZM32.2945 44.6305V55.2125H30.3176V42.9242H32.1387L32.2945 44.6305ZM38.0777 47.2801V47.4523C38.0777 48.0976 38.0012 48.6965 37.848 49.2488C37.7004 49.7957 37.4789 50.2742 37.1836 50.6844C36.8938 51.0891 36.5355 51.4035 36.109 51.6277C35.6824 51.8519 35.1902 51.9641 34.6324 51.9641C34.0801 51.9641 33.5961 51.8629 33.1805 51.6605C32.7703 51.4527 32.423 51.1601 32.1387 50.7828C31.8543 50.4055 31.6246 49.9625 31.4496 49.4539C31.2801 48.9398 31.1598 48.3766 31.0887 47.7641V47.0996C31.1598 46.4488 31.2801 45.8582 31.4496 45.3277C31.6246 44.7973 31.8543 44.3406 32.1387 43.9578C32.423 43.575 32.7703 43.2797 33.1805 43.0719C33.5906 42.864 34.0691 42.7601 34.616 42.7601C35.1738 42.7601 35.6688 42.8695 36.1008 43.0883C36.5328 43.3015 36.8965 43.6078 37.1918 44.007C37.4871 44.4008 37.7086 44.8765 37.8563 45.4344C38.0039 45.9867 38.0777 46.6019 38.0777 47.2801ZM36.1008 47.4523V47.2801C36.1008 46.8699 36.0625 46.4898 35.9859 46.1398C35.9094 45.7844 35.7891 45.4726 35.625 45.2047C35.4609 44.9367 35.2504 44.7289 34.9934 44.5812C34.7418 44.4281 34.4383 44.3515 34.0828 44.3515C33.7328 44.3515 33.432 44.4117 33.1805 44.532C32.9289 44.6469 32.7184 44.8082 32.5488 45.016C32.3793 45.2238 32.248 45.4672 32.1551 45.7461C32.0621 46.0195 31.9965 46.3176 31.9582 46.6402V48.2316C32.0238 48.6254 32.1359 48.9863 32.2945 49.3144C32.4531 49.6426 32.6773 49.9051 32.9672 50.1019C33.2625 50.2933 33.6398 50.3891 34.0992 50.3891C34.4547 50.3891 34.7582 50.3125 35.0098 50.1594C35.2613 50.0062 35.4664 49.7957 35.625 49.5277C35.7891 49.2543 35.9094 48.9398 35.9859 48.5844C36.0625 48.2289 36.1008 47.8516 36.1008 47.4523ZM42.0445 44.6305V55.2125H40.0676V42.9242H41.8887L42.0445 44.6305ZM47.8277 47.2801V47.4523C47.8277 48.0976 47.7512 48.6965 47.598 49.2488C47.4504 49.7957 47.2289 50.2742 46.9336 50.6844C46.6438 51.0891 46.2855 51.4035 45.859 51.6277C45.4324 51.8519 44.9402 51.9641 44.3824 51.9641C43.8301 51.9641 43.3461 51.8629 42.9305 51.6605C42.5203 51.4527 42.173 51.1601 41.8887 50.7828C41.6043 50.4055 41.3746 49.9625 41.1996 49.4539C41.0301 48.9398 40.9098 48.3766 40.8387 47.7641V47.0996C40.9098 46.4488 41.0301 45.8582 41.1996 45.3277C41.3746 44.7973 41.6043 44.3406 41.8887 43.9578C42.173 43.575 42.5203 43.2797 42.9305 43.0719C43.3406 42.864 43.8191 42.7601 44.366 42.7601C44.9238 42.7601 45.4188 42.8695 45.8508 43.0883C46.2828 43.3015 46.6465 43.6078 46.9418 44.007C47.2371 44.4008 47.4586 44.8765 47.6063 45.4344C47.7539 45.9867 47.8277 46.6019 47.8277 47.2801ZM45.8508 47.4523V47.2801C45.8508 46.8699 45.8125 46.4898 45.7359 46.1398C45.6594 45.7844 45.5391 45.4726 45.375 45.2047C45.2109 44.9367 45.0004 44.7289 44.7434 44.5812C44.4918 44.4281 44.1883 44.3515 43.8328 44.3515C43.4828 44.3515 43.182 44.4117 42.9305 44.532C42.6789 44.6469 42.4684 44.8082 42.2988 45.016C42.1293 45.2238 41.998 45.4672 41.9051 45.7461C41.8121 46.0195 41.7465 46.3176 41.7082 46.6402V48.2316C41.7738 48.6254 41.8859 48.9863 42.0445 49.3144C42.2031 49.6426 42.4273 49.9051 42.7172 50.1019C43.0125 50.2933 43.3898 50.3891 43.8492 50.3891C44.2047 50.3891 44.5082 50.3125 44.7598 50.1594C45.0113 50.0062 45.2164 49.7957 45.375 49.5277C45.5391 49.2543 45.6594 48.9398 45.7359 48.5844C45.8125 48.2289 45.8508 47.8516 45.8508 47.4523ZM49.432 47.4605V47.2719C49.432 46.632 49.525 46.0387 49.7109 45.4918C49.8969 44.9394 50.1648 44.4609 50.5148 44.0562C50.8703 43.6461 51.3023 43.3289 51.8109 43.1047C52.325 42.875 52.9047 42.7601 53.55 42.7601C54.2008 42.7601 54.7805 42.875 55.2891 43.1047C55.8031 43.3289 56.2379 43.6461 56.5934 44.0562C56.9488 44.4609 57.2195 44.9394 57.4055 45.4918C57.5914 46.0387 57.6844 46.632 57.6844 47.2719V47.4605C57.6844 48.1004 57.5914 48.6937 57.4055 49.2406C57.2195 49.7875 56.9488 50.266 56.5934 50.6762C56.2379 51.0808 55.8059 51.398 55.2973 51.6277C54.7887 51.8519 54.2117 51.9641 53.5664 51.9641C52.9156 51.9641 52.3332 51.8519 51.8191 51.6277C51.3106 51.398 50.8785 51.0808 50.5231 50.6762C50.1676 50.266 49.8969 49.7875 49.7109 49.2406C49.525 48.6937 49.432 48.1004 49.432 47.4605ZM51.409 47.2719V47.4605C51.409 47.8598 51.45 48.2371 51.532 48.5926C51.6141 48.948 51.7426 49.2598 51.9176 49.5277C52.0926 49.7957 52.3168 50.0062 52.5902 50.1594C52.8637 50.3125 53.1891 50.3891 53.5664 50.3891C53.9328 50.3891 54.25 50.3125 54.518 50.1594C54.7914 50.0062 55.0156 49.7957 55.1906 49.5277C55.3656 49.2598 55.4941 48.948 55.5762 48.5926C55.6637 48.2371 55.7074 47.8598 55.7074 47.4605V47.2719C55.7074 46.8781 55.6637 46.5062 55.5762 46.1562C55.4941 45.8008 55.3629 45.4863 55.1824 45.2129C55.0074 44.9394 54.7832 44.7262 54.5098 44.573C54.2418 44.4144 53.9219 44.3351 53.55 44.3351C53.1781 44.3351 52.8555 44.4144 52.582 44.573C52.3141 44.7262 52.0926 44.9394 51.9176 45.2129C51.7426 45.4863 51.6141 45.8008 51.532 46.1562C51.45 46.5062 51.409 46.8781 51.409 47.2719ZM61.7578 42.9242V51.8H59.7727V42.9242H61.7578ZM59.6414 40.5945C59.6414 40.2937 59.7398 40.0449 59.9367 39.848C60.1391 39.6457 60.418 39.5445 60.7734 39.5445C61.1234 39.5445 61.3996 39.6457 61.602 39.848C61.8043 40.0449 61.9055 40.2937 61.9055 40.5945C61.9055 40.8898 61.8043 41.1359 61.602 41.3328C61.3996 41.5297 61.1234 41.6281 60.7734 41.6281C60.418 41.6281 60.1391 41.5297 59.9367 41.3328C59.7398 41.1359 59.6414 40.8898 59.6414 40.5945ZM66.184 44.8191V51.8H64.207V42.9242H66.0691L66.184 44.8191ZM65.8313 47.034L65.1914 47.0258C65.1969 46.3969 65.2844 45.8199 65.4539 45.2949C65.6289 44.7699 65.8695 44.3187 66.1758 43.9414C66.4875 43.564 66.8594 43.2742 67.2914 43.0719C67.7234 42.864 68.2047 42.7601 68.7352 42.7601C69.1617 42.7601 69.5473 42.8203 69.8918 42.9406C70.2418 43.0555 70.5398 43.2441 70.7859 43.5066C71.0375 43.7691 71.2289 44.1109 71.3602 44.532C71.4914 44.9476 71.557 45.459 71.557 46.066V51.8H69.5719V46.0578C69.5719 45.6312 69.509 45.2949 69.3832 45.0488C69.2629 44.7973 69.0852 44.6195 68.85 44.5156C68.6203 44.4062 68.3332 44.3515 67.9887 44.3515C67.6496 44.3515 67.3461 44.4226 67.0781 44.5648C66.8102 44.707 66.5832 44.9012 66.3973 45.1473C66.2168 45.3933 66.0773 45.6777 65.9789 46.0004C65.8805 46.323 65.8313 46.6676 65.8313 47.034ZM77.9438 42.9242V44.368H72.9398V42.9242H77.9438ZM74.3836 40.7504H76.3606V49.3473C76.3606 49.6207 76.3988 49.8312 76.4754 49.9789C76.5574 50.1211 76.6695 50.2168 76.8117 50.266C76.9539 50.3152 77.1207 50.3398 77.3121 50.3398C77.4488 50.3398 77.5801 50.3316 77.7059 50.3152C77.8316 50.2988 77.9328 50.2824 78.0094 50.266L78.0176 51.7754C77.8535 51.8246 77.6621 51.8683 77.4434 51.9066C77.2301 51.9449 76.984 51.9641 76.7051 51.9641C76.2512 51.9641 75.8492 51.8848 75.4992 51.7262C75.1492 51.5621 74.8758 51.2969 74.6789 50.9305C74.482 50.5641 74.3836 50.0773 74.3836 49.4703V40.7504ZM81.7465 44.7289V51.8H79.7695V42.9242H81.6316L81.7465 44.7289ZM81.4266 47.034L80.7539 47.0258C80.7539 46.4133 80.8305 45.8473 80.9836 45.3277C81.1367 44.8082 81.3609 44.357 81.6563 43.9742C81.9516 43.5859 82.318 43.2879 82.7555 43.0801C83.1984 42.8668 83.7098 42.7601 84.2895 42.7601C84.6941 42.7601 85.0633 42.8203 85.3969 42.9406C85.7359 43.0555 86.0285 43.2387 86.2746 43.4902C86.5262 43.7418 86.7176 44.0644 86.8488 44.4582C86.9856 44.8519 87.0539 45.3277 87.0539 45.8855V51.8H85.077V46.0578C85.077 45.6258 85.0113 45.2867 84.8801 45.0406C84.7543 44.7945 84.5711 44.6195 84.3305 44.5156C84.0953 44.4062 83.8137 44.3515 83.4856 44.3515C83.1137 44.3515 82.7965 44.4226 82.534 44.5648C82.277 44.707 82.0664 44.9012 81.9024 45.1473C81.7383 45.3933 81.618 45.6777 81.5414 46.0004C81.4649 46.323 81.4266 46.6676 81.4266 47.034ZM86.9309 46.509L86.0039 46.714C86.0039 46.1781 86.0777 45.6723 86.2254 45.1965C86.3785 44.7152 86.6 44.2941 86.8899 43.9332C87.1852 43.5668 87.5488 43.2797 87.9809 43.0719C88.4129 42.864 88.9078 42.7601 89.4656 42.7601C89.9195 42.7601 90.3242 42.823 90.6797 42.9488C91.0406 43.0691 91.3469 43.2605 91.5984 43.523C91.85 43.7855 92.0414 44.1273 92.1727 44.5484C92.3039 44.964 92.3695 45.4672 92.3695 46.0578V51.8H90.3844V46.0496C90.3844 45.6012 90.3188 45.2539 90.1875 45.0078C90.0617 44.7617 89.8813 44.5922 89.6461 44.4992C89.4109 44.4008 89.1293 44.3515 88.8012 44.3515C88.4949 44.3515 88.2242 44.409 87.9891 44.5238C87.7594 44.6332 87.5652 44.789 87.4066 44.9914C87.2481 45.1883 87.1277 45.4152 87.0457 45.6723C86.9691 45.9293 86.9309 46.2082 86.9309 46.509ZM98.6168 51.9641C97.9606 51.9641 97.3672 51.8574 96.8367 51.6441C96.3117 51.4254 95.8633 51.1219 95.4914 50.7336C95.125 50.3453 94.8434 49.8887 94.6465 49.3637C94.4496 48.8387 94.3512 48.2726 94.3512 47.6656V47.3375C94.3512 46.643 94.4523 46.014 94.6547 45.4508C94.857 44.8875 95.1387 44.4062 95.4996 44.007C95.8606 43.6023 96.2871 43.2933 96.7793 43.0801C97.2715 42.8668 97.8047 42.7601 98.3789 42.7601C99.0133 42.7601 99.5684 42.8668 100.044 43.0801C100.52 43.2933 100.914 43.5941 101.225 43.9824C101.543 44.3652 101.778 44.8219 101.931 45.3523C102.089 45.8828 102.169 46.468 102.169 47.1078V47.9527H95.3109V46.5336H100.216V46.3777C100.205 46.0223 100.134 45.6887 100.003 45.3769C99.8773 45.0652 99.6832 44.8137 99.4207 44.6223C99.1582 44.4308 98.8082 44.3351 98.3707 44.3351C98.0426 44.3351 97.75 44.4062 97.493 44.5484C97.2414 44.6851 97.0309 44.8848 96.8613 45.1473C96.6918 45.4098 96.5606 45.7269 96.4676 46.0988C96.3801 46.4652 96.3363 46.8781 96.3363 47.3375V47.6656C96.3363 48.0539 96.3883 48.4148 96.4922 48.7484C96.6016 49.0766 96.7602 49.3637 96.968 49.6098C97.1758 49.8558 97.4273 50.05 97.7227 50.1922C98.018 50.3289 98.3543 50.3973 98.7316 50.3973C99.2074 50.3973 99.6313 50.3016 100.003 50.1101C100.375 49.9187 100.698 49.648 100.971 49.298L102.013 50.307C101.821 50.5859 101.573 50.8539 101.266 51.1109C100.96 51.3625 100.586 51.5676 100.143 51.7262C99.7051 51.8848 99.1965 51.9641 98.6168 51.9641ZM105.971 44.8191V51.8H103.995V42.9242H105.857L105.971 44.8191ZM105.619 47.034L104.979 47.0258C104.984 46.3969 105.072 45.8199 105.241 45.2949C105.416 44.7699 105.657 44.3187 105.963 43.9414C106.275 43.564 106.647 43.2742 107.079 43.0719C107.511 42.864 107.992 42.7601 108.523 42.7601C108.949 42.7601 109.335 42.8203 109.679 42.9406C110.029 43.0555 110.327 43.2441 110.573 43.5066C110.825 43.7691 111.016 44.1109 111.148 44.532C111.279 44.9476 111.345 45.459 111.345 46.066V51.8H109.359V46.0578C109.359 45.6312 109.296 45.2949 109.171 45.0488C109.05 44.7973 108.873 44.6195 108.638 44.5156C108.408 44.4062 108.121 44.3515 107.776 44.3515C107.437 44.3515 107.134 44.4226 106.866 44.5648C106.598 44.707 106.371 44.9012 106.185 45.1473C106.004 45.3933 105.865 45.6777 105.766 46.0004C105.668 46.323 105.619 46.6676 105.619 47.034ZM117.731 42.9242V44.368H112.727V42.9242H117.731ZM114.171 40.7504H116.148V49.3473C116.148 49.6207 116.186 49.8312 116.263 49.9789C116.345 50.1211 116.457 50.2168 116.599 50.266C116.741 50.3152 116.908 50.3398 117.1 50.3398C117.236 50.3398 117.368 50.3316 117.493 50.3152C117.619 50.2988 117.72 50.2824 117.797 50.266L117.805 51.7754C117.641 51.8246 117.45 51.8683 117.231 51.9066C117.018 51.9449 116.771 51.9641 116.493 51.9641C116.039 51.9641 115.637 51.8848 115.287 51.7262C114.937 51.5621 114.663 51.2969 114.466 50.9305C114.27 50.5641 114.171 50.0773 114.171 49.4703V40.7504Z" fill="#3A3A3A"/>
<rect x="18" y="68.4" width="2.4" height="60" rx="1.2" fill="#21C489"/>
<rect x="245" y="18" width="69.6" height="24" rx="12" fill="#F6F5FF"/>
<path d="M300.996 34.499C300.796 34.7291 300.801 35.0904 301.009 35.3135C301.225 35.546 301.576 35.5385 301.783 35.2991L305.803 30.6647C305.998 30.4399 305.998 30.0891 305.803 29.8645L301.783 25.2341C301.575 24.9948 301.225 24.9875 301.009 25.22C300.801 25.4432 300.796 25.8046 300.996 26.0345L304.669 30.2648L300.996 34.499Z" fill="#6C63FF" stroke="#6C63FF" stroke-width="0.3"/>
<path d="M256.064 25.2688H257.377L259.844 31.8489L262.305 25.2688H263.617L260.359 33.8H259.316L256.064 25.2688ZM255.467 25.2688H256.715L256.932 30.9641V33.8H255.467V25.2688ZM262.967 25.2688H264.221V33.8H262.75V30.9641L262.967 25.2688ZM272.77 29.3V29.7688C272.77 30.4133 272.686 30.9915 272.518 31.5032C272.35 32.0149 272.109 32.4504 271.797 32.8098C271.488 33.1692 271.117 33.4446 270.684 33.636C270.25 33.8235 269.77 33.9172 269.242 33.9172C268.719 33.9172 268.24 33.8235 267.807 33.636C267.377 33.4446 267.004 33.1692 266.688 32.8098C266.371 32.4504 266.125 32.0149 265.949 31.5032C265.777 30.9915 265.691 30.4133 265.691 29.7688V29.3C265.691 28.6555 265.777 28.0793 265.949 27.5715C266.121 27.0598 266.363 26.6243 266.676 26.2649C266.992 25.9016 267.365 25.6262 267.795 25.4387C268.229 25.2473 268.707 25.1516 269.23 25.1516C269.758 25.1516 270.238 25.2473 270.672 25.4387C271.105 25.6262 271.479 25.9016 271.791 26.2649C272.104 26.6243 272.344 27.0598 272.512 27.5715C272.684 28.0793 272.77 28.6555 272.77 29.3ZM271.299 29.7688V29.2883C271.299 28.8118 271.252 28.3918 271.158 28.0286C271.068 27.6614 270.934 27.3547 270.754 27.1086C270.578 26.8586 270.361 26.6711 270.104 26.5461C269.846 26.4172 269.555 26.3528 269.23 26.3528C268.906 26.3528 268.617 26.4172 268.363 26.5461C268.109 26.6711 267.893 26.8586 267.713 27.1086C267.537 27.3547 267.402 27.6614 267.309 28.0286C267.215 28.3918 267.168 28.8118 267.168 29.2883V29.7688C267.168 30.2454 267.215 30.6672 267.309 31.0344C267.402 31.4016 267.539 31.7122 267.719 31.9661C267.902 32.2161 268.121 32.4055 268.375 32.5344C268.629 32.6594 268.918 32.7219 269.242 32.7219C269.57 32.7219 269.861 32.6594 270.115 32.5344C270.369 32.4055 270.584 32.2161 270.76 31.9661C270.936 31.7122 271.068 31.4016 271.158 31.0344C271.252 30.6672 271.299 30.2454 271.299 29.7688ZM274.24 25.2688H277.258C277.906 25.2688 278.459 25.3665 278.916 25.5618C279.373 25.7571 279.723 26.0461 279.965 26.429C280.211 26.8079 280.334 27.2766 280.334 27.8352C280.334 28.261 280.256 28.636 280.1 28.9602C279.943 29.2844 279.723 29.5579 279.438 29.7805C279.152 29.9993 278.812 30.1692 278.418 30.2903L277.973 30.5071H275.26L275.248 29.3411H277.281C277.633 29.3411 277.926 29.2786 278.16 29.1536C278.395 29.0286 278.57 28.8586 278.688 28.6438C278.809 28.425 278.869 28.179 278.869 27.9055C278.869 27.6086 278.811 27.3508 278.693 27.1321C278.58 26.9094 278.404 26.7395 278.166 26.6223C277.928 26.5012 277.625 26.4407 277.258 26.4407H275.711V33.8H274.24V25.2688ZM279.109 33.8L277.105 29.968L278.646 29.9622L280.68 33.7239V33.8H279.109ZM287.383 32.634V33.8H282.854V32.634H287.383ZM283.27 25.2688V33.8H281.799V25.2688H283.27ZM286.791 28.8313V29.9797H282.854V28.8313H286.791ZM287.354 25.2688V26.4407H282.854V25.2688H287.354Z" fill="#6C63FF"/>
</svg>
