<svg width="302" height="179" viewBox="0 0 302 179" fill="none" xmlns="http://www.w3.org/2000/svg">
<g filter="url(#filter0_d_5869_18713)">
<g filter="url(#filter1_d_5869_18713)">
<path d="M16 24C16 17.3726 21.3726 12 28 12H274C280.627 12 286 17.3726 286 24V146.4C286 153.027 280.627 158.4 274 158.4H18.4C17.0745 158.4 16 157.325 16 156V24Z" fill="white"/>
<path d="M16.6 24C16.6 17.704 21.704 12.6 28 12.6H274C280.296 12.6 285.4 17.704 285.4 24V146.4C285.4 152.696 280.296 157.8 274 157.8H18.4C17.4059 157.8 16.6 156.994 16.6 156V24Z" stroke="black" stroke-opacity="0.05" stroke-width="1.2"/>
</g>
<path d="M40.7852 32.3625H42.543V39.2039C42.543 39.982 42.3742 40.6336 42.0367 41.1586C41.6992 41.6836 41.2398 42.0797 40.6586 42.3469C40.082 42.6094 39.4375 42.7406 38.725 42.7406C37.9891 42.7406 37.3328 42.6094 36.7563 42.3469C36.1797 42.0797 35.725 41.6836 35.3922 41.1586C35.0641 40.6336 34.9 39.982 34.9 39.2039V32.3625H36.6578V39.2039C36.6578 39.6961 36.7422 40.1016 36.9109 40.4203C37.0797 40.7344 37.3188 40.9664 37.6281 41.1164C37.9375 41.2664 38.3031 41.3414 38.725 41.3414C39.1469 41.3414 39.5102 41.2664 39.8148 41.1164C40.1242 40.9664 40.3633 40.7344 40.532 40.4203C40.7008 40.1016 40.7852 39.6961 40.7852 39.2039V32.3625ZM45.9953 36.4547V45.525H44.3008V34.9922H45.8617L45.9953 36.4547ZM50.9523 38.7258V38.8734C50.9523 39.4266 50.8867 39.9398 50.7555 40.4133C50.6289 40.882 50.4391 41.2922 50.1859 41.6438C49.9375 41.9906 49.6305 42.2602 49.2648 42.4523C48.8992 42.6445 48.4773 42.7406 47.9992 42.7406C47.5258 42.7406 47.1109 42.6539 46.7547 42.4805C46.4031 42.3023 46.1055 42.0516 45.8617 41.7281C45.618 41.4047 45.4211 41.025 45.2711 40.5891C45.1258 40.1484 45.0227 39.6656 44.9617 39.1406V38.5711C45.0227 38.0133 45.1258 37.507 45.2711 37.0523C45.4211 36.5977 45.618 36.2063 45.8617 35.8781C46.1055 35.55 46.4031 35.2969 46.7547 35.1188C47.1063 34.9406 47.5164 34.8516 47.9852 34.8516C48.4633 34.8516 48.8875 34.9453 49.2578 35.1328C49.6281 35.3156 49.9398 35.5781 50.193 35.9203C50.4461 36.2578 50.6359 36.6656 50.7625 37.1438C50.8891 37.6172 50.9523 38.1445 50.9523 38.7258ZM49.2578 38.8734V38.7258C49.2578 38.3742 49.225 38.0484 49.1594 37.7484C49.0938 37.4438 48.9906 37.1766 48.85 36.9469C48.7094 36.7172 48.5289 36.5391 48.3086 36.4125C48.093 36.2813 47.8328 36.2156 47.5281 36.2156C47.2281 36.2156 46.9703 36.2672 46.7547 36.3703C46.5391 36.4688 46.3586 36.607 46.2133 36.7852C46.068 36.9633 45.9555 37.1719 45.8758 37.4109C45.7961 37.6453 45.7398 37.9008 45.707 38.1773V39.5414C45.7633 39.8789 45.8594 40.1883 45.9953 40.4695C46.1313 40.7508 46.3234 40.9758 46.5719 41.1445C46.825 41.3086 47.1484 41.3906 47.5422 41.3906C47.8469 41.3906 48.107 41.325 48.3227 41.1938C48.5383 41.0625 48.7141 40.882 48.85 40.6523C48.9906 40.418 49.0938 40.1484 49.1594 39.8438C49.225 39.5391 49.2578 39.2156 49.2578 38.8734ZM55.5016 41.3906C55.7781 41.3906 56.0266 41.3367 56.2469 41.2289C56.4719 41.1164 56.6523 40.9617 56.7883 40.7648C56.9289 40.568 57.0063 40.3406 57.0203 40.0828H58.6164C58.607 40.575 58.4617 41.0227 58.1805 41.4258C57.8992 41.8289 57.5266 42.15 57.0625 42.3891C56.5984 42.6234 56.0852 42.7406 55.5227 42.7406C54.9414 42.7406 54.4352 42.6422 54.0039 42.4453C53.5727 42.2438 53.2141 41.9672 52.9281 41.6156C52.6422 41.2641 52.4266 40.8586 52.2813 40.3992C52.1406 39.9398 52.0703 39.4477 52.0703 38.9227V38.6766C52.0703 38.1516 52.1406 37.6594 52.2813 37.2C52.4266 36.7359 52.6422 36.3281 52.9281 35.9766C53.2141 35.625 53.5727 35.3508 54.0039 35.1539C54.4352 34.9523 54.9391 34.8516 55.5156 34.8516C56.125 34.8516 56.6594 34.9734 57.1188 35.2172C57.5781 35.4563 57.9391 35.7914 58.2016 36.2227C58.4688 36.6492 58.607 37.1461 58.6164 37.7133H57.0203C57.0063 37.432 56.9359 37.1789 56.8094 36.9539C56.6875 36.7242 56.5141 36.5414 56.2891 36.4055C56.0688 36.2695 55.8039 36.2016 55.4945 36.2016C55.1523 36.2016 54.8688 36.2719 54.6438 36.4125C54.4188 36.5484 54.243 36.7359 54.1164 36.975C53.9898 37.2094 53.8984 37.4742 53.8422 37.7695C53.7906 38.0602 53.7648 38.3625 53.7648 38.6766V38.9227C53.7648 39.2367 53.7906 39.5414 53.8422 39.8367C53.8938 40.132 53.9828 40.3969 54.1094 40.6313C54.2406 40.8609 54.4188 41.0461 54.6438 41.1867C54.8688 41.3227 55.1547 41.3906 55.5016 41.3906ZM59.5938 38.8805V38.7188C59.5938 38.1703 59.6734 37.6617 59.8328 37.193C59.9922 36.7195 60.2219 36.3094 60.5219 35.9625C60.8266 35.6109 61.1969 35.3391 61.6328 35.1469C62.0734 34.95 62.5703 34.8516 63.1234 34.8516C63.6813 34.8516 64.1781 34.95 64.6141 35.1469C65.0547 35.3391 65.4273 35.6109 65.732 35.9625C66.0367 36.3094 66.2688 36.7195 66.4281 37.193C66.5875 37.6617 66.6672 38.1703 66.6672 38.7188V38.8805C66.6672 39.4289 66.5875 39.9375 66.4281 40.4063C66.2688 40.875 66.0367 41.2852 65.732 41.6367C65.4273 41.9836 65.057 42.2555 64.6211 42.4523C64.1852 42.6445 63.6906 42.7406 63.1375 42.7406C62.5797 42.7406 62.0805 42.6445 61.6398 42.4523C61.2039 42.2555 60.8336 41.9836 60.5289 41.6367C60.2242 41.2852 59.9922 40.875 59.8328 40.4063C59.6734 39.9375 59.5938 39.4289 59.5938 38.8805ZM61.2883 38.7188V38.8805C61.2883 39.2227 61.3234 39.5461 61.3938 39.8508C61.4641 40.1555 61.5742 40.4227 61.7242 40.6523C61.8742 40.882 62.0664 41.0625 62.3008 41.1938C62.5352 41.325 62.8141 41.3906 63.1375 41.3906C63.4516 41.3906 63.7234 41.325 63.9531 41.1938C64.1875 41.0625 64.3797 40.882 64.5297 40.6523C64.6797 40.4227 64.7898 40.1555 64.8602 39.8508C64.9352 39.5461 64.9727 39.2227 64.9727 38.8805V38.7188C64.9727 38.3813 64.9352 38.0625 64.8602 37.7625C64.7898 37.4578 64.6773 37.1883 64.5227 36.9539C64.3727 36.7195 64.1805 36.5367 63.9461 36.4055C63.7164 36.2695 63.4422 36.2016 63.1234 36.2016C62.8047 36.2016 62.5281 36.2695 62.2938 36.4055C62.0641 36.5367 61.8742 36.7195 61.7242 36.9539C61.5742 37.1883 61.4641 37.4578 61.3938 37.7625C61.3234 38.0625 61.2883 38.3813 61.2883 38.7188ZM69.782 36.5391V42.6H68.0875V34.9922H69.6836L69.782 36.5391ZM69.5078 38.5148L68.9313 38.5078C68.9313 37.9828 68.9969 37.4977 69.1281 37.0523C69.2594 36.607 69.4516 36.2203 69.7047 35.8922C69.9578 35.5594 70.2719 35.3039 70.6469 35.1258C71.0266 34.943 71.4648 34.8516 71.9617 34.8516C72.3086 34.8516 72.625 34.9031 72.9109 35.0063C73.2016 35.1047 73.4523 35.2617 73.6633 35.4773C73.8789 35.693 74.043 35.9695 74.1555 36.307C74.2727 36.6445 74.3313 37.0523 74.3313 37.5305V42.6H72.6367V37.6781C72.6367 37.3078 72.5805 37.0172 72.468 36.8063C72.3602 36.5953 72.2031 36.4453 71.9969 36.3563C71.7953 36.2625 71.5539 36.2156 71.2727 36.2156C70.9539 36.2156 70.682 36.2766 70.457 36.3984C70.2367 36.5203 70.0563 36.6867 69.9156 36.8977C69.775 37.1086 69.6719 37.3523 69.6063 37.6289C69.5406 37.9055 69.5078 38.2008 69.5078 38.5148ZM74.2258 38.0648L73.4313 38.2406C73.4313 37.7813 73.4945 37.3477 73.6211 36.9398C73.7523 36.5273 73.9422 36.1664 74.1906 35.857C74.4438 35.543 74.7555 35.2969 75.1258 35.1188C75.4961 34.9406 75.9203 34.8516 76.3984 34.8516C76.7875 34.8516 77.1344 34.9055 77.4391 35.0133C77.7484 35.1164 78.0109 35.2805 78.2266 35.5055C78.4422 35.7305 78.6063 36.0234 78.7188 36.3844C78.8313 36.7406 78.8875 37.1719 78.8875 37.6781V42.6H77.1859V37.6711C77.1859 37.2867 77.1297 36.9891 77.0172 36.7781C76.9094 36.5672 76.7547 36.4219 76.5531 36.3422C76.3516 36.2578 76.1102 36.2156 75.8289 36.2156C75.5664 36.2156 75.3344 36.2648 75.1328 36.3633C74.9359 36.457 74.7695 36.5906 74.6336 36.7641C74.4977 36.9328 74.3945 37.1273 74.3242 37.3477C74.2586 37.568 74.2258 37.807 74.2258 38.0648ZM82.4453 34.9922V42.6H80.7438V34.9922H82.4453ZM80.6313 32.9953C80.6313 32.7375 80.7156 32.5242 80.8844 32.3555C81.0578 32.182 81.2969 32.0953 81.6016 32.0953C81.9016 32.0953 82.1383 32.182 82.3117 32.3555C82.4852 32.5242 82.5719 32.7375 82.5719 32.9953C82.5719 33.2484 82.4852 33.4594 82.3117 33.6281C82.1383 33.7969 81.9016 33.8813 81.6016 33.8813C81.2969 33.8813 81.0578 33.7969 80.8844 33.6281C80.7156 33.4594 80.6313 33.2484 80.6313 32.9953ZM85.982 36.6164V42.6H84.2875V34.9922H85.8836L85.982 36.6164ZM85.6797 38.5148L85.1313 38.5078C85.1359 37.9688 85.2109 37.4742 85.3563 37.0242C85.5063 36.5742 85.7125 36.1875 85.975 35.8641C86.2422 35.5406 86.5609 35.2922 86.9313 35.1188C87.3016 34.9406 87.7141 34.8516 88.1688 34.8516C88.5344 34.8516 88.8648 34.9031 89.1602 35.0063C89.4602 35.1047 89.7156 35.2664 89.9266 35.4914C90.1422 35.7164 90.3063 36.0094 90.4188 36.3703C90.5313 36.7266 90.5875 37.1648 90.5875 37.6852V42.6H88.8859V37.6781C88.8859 37.3125 88.832 37.0242 88.7242 36.8133C88.6211 36.5977 88.4688 36.4453 88.2672 36.3563C88.0703 36.2625 87.8242 36.2156 87.5289 36.2156C87.2383 36.2156 86.9781 36.2766 86.7484 36.3984C86.5188 36.5203 86.3242 36.6867 86.1648 36.8977C86.0102 37.1086 85.8906 37.3523 85.8063 37.6289C85.7219 37.9055 85.6797 38.2008 85.6797 38.5148ZM97.1898 34.9922H98.7297V42.3891C98.7297 43.0734 98.5844 43.6547 98.2938 44.1328C98.0031 44.6109 97.5977 44.9742 97.0773 45.2227C96.557 45.4758 95.9547 45.6023 95.2703 45.6023C94.9797 45.6023 94.6563 45.5602 94.3 45.4758C93.9484 45.3914 93.6063 45.2555 93.2734 45.068C92.9453 44.8852 92.6711 44.6438 92.4508 44.3438L93.2453 43.3453C93.5172 43.6688 93.8172 43.9055 94.1453 44.0555C94.4734 44.2055 94.818 44.2805 95.1789 44.2805C95.568 44.2805 95.8984 44.2078 96.1703 44.0625C96.4469 43.9219 96.6602 43.7133 96.8102 43.4367C96.9602 43.1602 97.0352 42.8227 97.0352 42.4242V36.7148L97.1898 34.9922ZM92.0219 38.8805V38.7328C92.0219 38.1563 92.0922 37.6313 92.2328 37.1578C92.3734 36.6797 92.575 36.2695 92.8375 35.9273C93.1 35.5805 93.4188 35.3156 93.7938 35.1328C94.1688 34.9453 94.593 34.8516 95.0664 34.8516C95.5586 34.8516 95.9781 34.9406 96.325 35.1188C96.6766 35.2969 96.9695 35.5523 97.2039 35.8852C97.4383 36.2133 97.6211 36.607 97.7523 37.0664C97.8883 37.5211 97.9891 38.0273 98.0547 38.5852V39.0563C97.9938 39.6 97.8906 40.0969 97.7453 40.5469C97.6 40.9969 97.4078 41.3859 97.1688 41.7141C96.9297 42.0422 96.6344 42.2953 96.2828 42.4734C95.9359 42.6516 95.5258 42.7406 95.0523 42.7406C94.5883 42.7406 94.1688 42.6445 93.7938 42.4523C93.4234 42.2602 93.1047 41.9906 92.8375 41.6438C92.575 41.2969 92.3734 40.8891 92.2328 40.4203C92.0922 39.9469 92.0219 39.4336 92.0219 38.8805ZM93.7164 38.7328V38.8805C93.7164 39.2273 93.7492 39.5508 93.8148 39.8508C93.8852 40.1508 93.9906 40.4156 94.1313 40.6453C94.2766 40.8703 94.4594 41.0484 94.6797 41.1797C94.9047 41.3063 95.1695 41.3695 95.4742 41.3695C95.8727 41.3695 96.1984 41.2852 96.4516 41.1164C96.7094 40.9477 96.9063 40.7203 97.0422 40.4344C97.1828 40.1438 97.2813 39.8203 97.3375 39.4641V38.1914C97.3094 37.9148 97.2508 37.657 97.1617 37.418C97.0773 37.1789 96.9625 36.9703 96.8172 36.7922C96.6719 36.6094 96.4891 36.4688 96.2688 36.3703C96.0484 36.2672 95.7883 36.2156 95.4883 36.2156C95.1836 36.2156 94.9188 36.2813 94.6938 36.4125C94.4688 36.5438 94.2836 36.7242 94.1383 36.9539C93.9977 37.1836 93.8922 37.4508 93.8219 37.7555C93.7516 38.0602 93.7164 38.3859 93.7164 38.7328Z" fill="#21C489"/>
<path d="M54.9996 81.5274V91.8H53.3051V83.5383L50.7949 84.3891V82.9899L54.7957 81.5274H54.9996ZM65.2301 85.8235V87.4969C65.2301 88.2985 65.1504 88.9829 64.991 89.55C64.8363 90.1125 64.6113 90.5696 64.316 90.9211C64.0207 91.2727 63.6668 91.5305 63.2543 91.6946C62.8465 91.8586 62.3895 91.9407 61.8832 91.9407C61.4801 91.9407 61.1051 91.8891 60.7582 91.786C60.416 91.6829 60.1066 91.5211 59.8301 91.3008C59.5535 91.0805 59.3168 90.7969 59.1199 90.45C58.9277 90.0985 58.7777 89.679 58.6699 89.1915C58.5668 88.704 58.5152 88.1391 58.5152 87.4969V85.8235C58.5152 85.0172 58.5949 84.3375 58.7543 83.7844C58.9137 83.2266 59.141 82.7743 59.4363 82.4274C59.7316 82.0758 60.0832 81.8204 60.491 81.661C60.9035 81.5016 61.3629 81.4219 61.8691 81.4219C62.277 81.4219 62.652 81.4735 62.9941 81.5766C63.341 81.675 63.6504 81.8321 63.9223 82.0477C64.1988 82.2633 64.4332 82.5446 64.6254 82.8915C64.8223 83.2336 64.9723 83.6485 65.0754 84.136C65.1785 84.6188 65.2301 85.1813 65.2301 85.8235ZM63.5355 87.736V85.5704C63.5355 85.1625 63.5121 84.804 63.4652 84.4946C63.4184 84.1805 63.348 83.9157 63.2543 83.7C63.1652 83.4797 63.0527 83.3016 62.9168 83.1657C62.7809 83.025 62.6262 82.9243 62.4527 82.8633C62.2793 82.7977 62.0848 82.7649 61.8691 82.7649C61.6066 82.7649 61.3723 82.8165 61.166 82.9196C60.9598 83.018 60.7863 83.1774 60.6457 83.3977C60.5051 83.618 60.3973 83.9086 60.3223 84.2696C60.252 84.6258 60.2168 85.0594 60.2168 85.5704V87.736C60.2168 88.1485 60.2402 88.5118 60.2871 88.8258C60.334 89.1399 60.4043 89.4094 60.498 89.6344C60.5918 89.8547 60.7043 90.0375 60.8355 90.1829C60.9715 90.3235 61.1262 90.4266 61.2996 90.4922C61.4777 90.5579 61.6723 90.5907 61.8832 90.5907C62.1504 90.5907 62.3871 90.5391 62.5934 90.436C62.7996 90.3329 62.973 90.1688 63.1137 89.9438C63.2543 89.7141 63.3598 89.4165 63.4301 89.0508C63.5004 88.6852 63.5355 88.2469 63.5355 87.736ZM66.8613 90.9563C66.8613 90.6938 66.9504 90.4735 67.1285 90.2954C67.3066 90.1125 67.548 90.0211 67.8527 90.0211C68.1621 90.0211 68.4035 90.1125 68.577 90.2954C68.7551 90.4735 68.8441 90.6938 68.8441 90.9563C68.8441 91.2188 68.7551 91.4391 68.577 91.6172C68.4035 91.7954 68.1621 91.8844 67.8527 91.8844C67.548 91.8844 67.3066 91.7954 67.1285 91.6172C66.9504 91.4391 66.8613 91.2188 66.8613 90.9563ZM66.8684 84.9657C66.8684 84.7032 66.9574 84.4829 67.1355 84.3047C67.3137 84.1219 67.5551 84.0305 67.8598 84.0305C68.1691 84.0305 68.4105 84.1219 68.584 84.3047C68.7621 84.4829 68.8512 84.7032 68.8512 84.9657C68.8512 85.2282 68.7621 85.4485 68.584 85.6266C68.4105 85.8047 68.1691 85.8938 67.8598 85.8938C67.5551 85.8938 67.3137 85.8047 67.1355 85.6266C66.9574 85.4485 66.8684 85.2282 66.8684 84.9657ZM72.5285 85.9149H73.541C73.9348 85.9149 74.2605 85.8469 74.5184 85.711C74.7809 85.575 74.9754 85.3875 75.102 85.1485C75.2285 84.9094 75.2918 84.6352 75.2918 84.3258C75.2918 84.0024 75.2332 83.7258 75.116 83.4961C75.0035 83.2618 74.8301 83.0813 74.5957 82.9547C74.366 82.8282 74.073 82.7649 73.7168 82.7649C73.4168 82.7649 73.1449 82.8258 72.9012 82.9477C72.6621 83.0649 72.4723 83.2336 72.3316 83.454C72.191 83.6696 72.1207 83.9274 72.1207 84.2274H70.4191C70.4191 83.6836 70.5621 83.2008 70.848 82.779C71.134 82.3571 71.523 82.0266 72.0152 81.7875C72.5121 81.5438 73.0699 81.4219 73.6887 81.4219C74.3496 81.4219 74.9262 81.5321 75.4184 81.7524C75.9152 81.968 76.302 82.2915 76.5785 82.7227C76.8551 83.154 76.9934 83.6883 76.9934 84.3258C76.9934 84.6165 76.9254 84.9118 76.7895 85.2118C76.6535 85.5118 76.452 85.786 76.1848 86.0344C75.9176 86.2782 75.5848 86.4774 75.1863 86.6321C74.7879 86.7821 74.3262 86.8571 73.8012 86.8571H72.5285V85.9149ZM72.5285 87.2368V86.3086H73.8012C74.4012 86.3086 74.9121 86.379 75.334 86.5196C75.7605 86.6602 76.1074 86.8547 76.3746 87.1032C76.6418 87.3469 76.8363 87.6258 76.9582 87.9399C77.0848 88.254 77.148 88.5868 77.148 88.9383C77.148 89.4165 77.0613 89.843 76.8879 90.218C76.7191 90.5883 76.4777 90.9024 76.1637 91.1602C75.8496 91.418 75.4816 91.6125 75.0598 91.7438C74.6426 91.875 74.1879 91.9407 73.6957 91.9407C73.2551 91.9407 72.8332 91.8797 72.4301 91.7579C72.027 91.636 71.666 91.4555 71.3473 91.2165C71.0285 90.9727 70.7754 90.6704 70.5879 90.3094C70.4051 89.9438 70.3137 89.5219 70.3137 89.0438H72.0082C72.0082 89.3485 72.0785 89.618 72.2191 89.8524C72.3645 90.0821 72.566 90.2625 72.8238 90.3938C73.0863 90.525 73.3863 90.5907 73.7238 90.5907C74.0801 90.5907 74.3871 90.5274 74.6449 90.4008C74.9027 90.2743 75.0996 90.0868 75.2355 89.8383C75.3762 89.5899 75.4465 89.2899 75.4465 88.9383C75.4465 88.5399 75.3691 88.2165 75.2145 87.968C75.0598 87.7196 74.8395 87.5368 74.5535 87.4196C74.2676 87.2977 73.9301 87.2368 73.541 87.2368H72.5285ZM85.3957 85.8235V87.4969C85.3957 88.2985 85.316 88.9829 85.1566 89.55C85.002 90.1125 84.777 90.5696 84.4816 90.9211C84.1863 91.2727 83.8324 91.5305 83.4199 91.6946C83.0121 91.8586 82.5551 91.9407 82.0488 91.9407C81.6457 91.9407 81.2707 91.8891 80.9238 91.786C80.5816 91.6829 80.2723 91.5211 79.9957 91.3008C79.7191 91.0805 79.4824 90.7969 79.2855 90.45C79.0934 90.0985 78.9434 89.679 78.8355 89.1915C78.7324 88.704 78.6809 88.1391 78.6809 87.4969V85.8235C78.6809 85.0172 78.7605 84.3375 78.9199 83.7844C79.0793 83.2266 79.3066 82.7743 79.602 82.4274C79.8973 82.0758 80.2488 81.8204 80.6566 81.661C81.0691 81.5016 81.5285 81.4219 82.0348 81.4219C82.4426 81.4219 82.8176 81.4735 83.1598 81.5766C83.5066 81.675 83.816 81.8321 84.0879 82.0477C84.3645 82.2633 84.5988 82.5446 84.791 82.8915C84.9879 83.2336 85.1379 83.6485 85.241 84.136C85.3441 84.6188 85.3957 85.1813 85.3957 85.8235ZM83.7012 87.736V85.5704C83.7012 85.1625 83.6777 84.804 83.6309 84.4946C83.584 84.1805 83.5137 83.9157 83.4199 83.7C83.3309 83.4797 83.2184 83.3016 83.0824 83.1657C82.9465 83.025 82.7918 82.9243 82.6184 82.8633C82.4449 82.7977 82.2504 82.7649 82.0348 82.7649C81.7723 82.7649 81.5379 82.8165 81.3316 82.9196C81.1254 83.018 80.952 83.1774 80.8113 83.3977C80.6707 83.618 80.5629 83.9086 80.4879 84.2696C80.4176 84.6258 80.3824 85.0594 80.3824 85.5704V87.736C80.3824 88.1485 80.4059 88.5118 80.4527 88.8258C80.4996 89.1399 80.5699 89.4094 80.6637 89.6344C80.7574 89.8547 80.8699 90.0375 81.0012 90.1829C81.1371 90.3235 81.2918 90.4266 81.4652 90.4922C81.6434 90.5579 81.8379 90.5907 82.0488 90.5907C82.316 90.5907 82.5527 90.5391 82.759 90.436C82.9652 90.3329 83.1387 90.1688 83.2793 89.9438C83.4199 89.7141 83.5254 89.4165 83.5957 89.0508C83.666 88.6852 83.7012 88.2469 83.7012 87.736ZM91.2949 90.2743V86.6461C91.2949 86.3743 91.2457 86.1399 91.1473 85.943C91.0488 85.7461 90.8988 85.5938 90.6973 85.486C90.5004 85.3782 90.252 85.3243 89.952 85.3243C89.6754 85.3243 89.4363 85.3711 89.2348 85.4649C89.0332 85.5586 88.8762 85.6852 88.7637 85.8446C88.6512 86.004 88.5949 86.1844 88.5949 86.386H86.9074C86.9074 86.086 86.9801 85.7954 87.1254 85.5141C87.2707 85.2329 87.4816 84.9821 87.7582 84.7618C88.0348 84.5415 88.3652 84.368 88.7496 84.2415C89.134 84.1149 89.5652 84.0516 90.0434 84.0516C90.6152 84.0516 91.1215 84.1477 91.5621 84.3399C92.0074 84.5321 92.3566 84.8227 92.6098 85.2118C92.8676 85.5961 92.9965 86.079 92.9965 86.6602V90.0422C92.9965 90.3891 93.0199 90.7008 93.0668 90.9774C93.1184 91.2493 93.191 91.486 93.2848 91.6875V91.8H91.5481C91.4684 91.6172 91.4051 91.3852 91.3582 91.104C91.316 90.818 91.2949 90.5415 91.2949 90.2743ZM91.541 87.1735L91.5551 88.2211H90.3387C90.0246 88.2211 89.7481 88.2516 89.509 88.3125C89.2699 88.3688 89.0707 88.4532 88.9113 88.5657C88.752 88.6782 88.6324 88.8141 88.5527 88.9735C88.4731 89.1329 88.4332 89.3133 88.4332 89.5149C88.4332 89.7165 88.4801 89.9016 88.5738 90.0704C88.6676 90.2344 88.8035 90.3633 88.9816 90.4571C89.1645 90.5508 89.3848 90.5977 89.6426 90.5977C89.9895 90.5977 90.2918 90.5274 90.5496 90.3868C90.8121 90.2415 91.0184 90.0657 91.1684 89.8594C91.3184 89.6485 91.3981 89.4493 91.4074 89.2618L91.9559 90.0141C91.8996 90.2063 91.8035 90.4125 91.6676 90.6329C91.5316 90.8532 91.3535 91.0641 91.1332 91.2657C90.9176 91.4625 90.6574 91.6243 90.3527 91.7508C90.0527 91.8774 89.7059 91.9407 89.3121 91.9407C88.8152 91.9407 88.3723 91.8422 87.9832 91.6454C87.5941 91.4438 87.2895 91.1743 87.0691 90.8368C86.8488 90.4946 86.7387 90.1079 86.7387 89.6766C86.7387 89.2735 86.8137 88.9172 86.9637 88.6079C87.1184 88.2938 87.3434 88.0313 87.6387 87.8204C87.9387 87.6094 88.3043 87.45 88.7356 87.3422C89.1668 87.2297 89.659 87.1735 90.2121 87.1735H91.541ZM96.4629 85.7391V91.8H94.7684V84.1922H96.3645L96.4629 85.7391ZM96.1887 87.7149L95.6121 87.7079C95.6121 87.1829 95.6777 86.6977 95.809 86.2524C95.9402 85.8071 96.1324 85.4204 96.3856 85.0922C96.6387 84.7594 96.9527 84.504 97.3277 84.3258C97.7074 84.143 98.1457 84.0516 98.6426 84.0516C98.9895 84.0516 99.3059 84.1032 99.5918 84.2063C99.8824 84.3047 100.133 84.4618 100.344 84.6774C100.56 84.893 100.724 85.1696 100.836 85.5071C100.954 85.8446 101.012 86.2524 101.012 86.7305V91.8H99.3176V86.8782C99.3176 86.5079 99.2613 86.2172 99.1488 86.0063C99.041 85.7954 98.884 85.6454 98.6777 85.5563C98.4762 85.4625 98.2348 85.4157 97.9535 85.4157C97.6348 85.4157 97.3629 85.4766 97.1379 85.5985C96.9176 85.7204 96.7371 85.8868 96.5965 86.0977C96.4559 86.3086 96.3527 86.5524 96.2871 86.829C96.2215 87.1055 96.1887 87.4008 96.1887 87.7149ZM100.907 87.2649L100.112 87.4407C100.112 86.9813 100.175 86.5477 100.302 86.1399C100.433 85.7274 100.623 85.3665 100.871 85.0571C101.125 84.743 101.436 84.4969 101.807 84.3188C102.177 84.1407 102.601 84.0516 103.079 84.0516C103.468 84.0516 103.815 84.1055 104.12 84.2133C104.429 84.3165 104.692 84.4805 104.907 84.7055C105.123 84.9305 105.287 85.2235 105.4 85.5844C105.512 85.9407 105.568 86.3719 105.568 86.8782V91.8H103.867V86.8711C103.867 86.4868 103.811 86.1891 103.698 85.9782C103.59 85.7672 103.436 85.6219 103.234 85.5422C103.032 85.4579 102.791 85.4157 102.51 85.4157C102.247 85.4157 102.015 85.4649 101.814 85.5633C101.617 85.6571 101.45 85.7907 101.314 85.9641C101.179 86.1329 101.075 86.3274 101.005 86.5477C100.939 86.768 100.907 87.0071 100.907 87.2649ZM114.308 86.7516V88.1016H110.589V86.7516H114.308ZM121.311 81.5625V91.8H119.546V81.5625H121.311ZM125.488 86.0415V87.4407H120.861V86.0415H125.488ZM126.071 81.5625V82.9688H120.861V81.5625H126.071ZM128.828 85.6407V91.8H127.133V84.1922H128.75L128.828 85.6407ZM131.155 84.143L131.141 85.718C131.038 85.6993 130.925 85.6852 130.804 85.6758C130.686 85.6665 130.569 85.6618 130.452 85.6618C130.161 85.6618 129.906 85.704 129.686 85.7883C129.465 85.868 129.28 85.9852 129.13 86.1399C128.985 86.2899 128.872 86.4727 128.793 86.6883C128.713 86.904 128.666 87.1454 128.652 87.4125L128.265 87.4407C128.265 86.9625 128.312 86.5196 128.406 86.1118C128.5 85.704 128.64 85.3454 128.828 85.036C129.02 84.7266 129.259 84.4852 129.545 84.3118C129.836 84.1383 130.171 84.0516 130.55 84.0516C130.654 84.0516 130.764 84.061 130.881 84.0797C131.003 84.0985 131.094 84.1196 131.155 84.143ZM134.031 84.1922V91.8H132.329V84.1922H134.031ZM132.217 82.1954C132.217 81.9375 132.301 81.7243 132.47 81.5555C132.643 81.3821 132.882 81.2954 133.187 81.2954C133.487 81.2954 133.724 81.3821 133.897 81.5555C134.071 81.7243 134.157 81.9375 134.157 82.1954C134.157 82.4485 134.071 82.6594 133.897 82.8282C133.724 82.9969 133.487 83.0813 133.187 83.0813C132.882 83.0813 132.643 82.9969 132.47 82.8282C132.301 82.6594 132.217 82.4485 132.217 82.1954ZM140.528 90.225V81H142.229V91.8H140.689L140.528 90.225ZM135.578 88.0805V87.9329C135.578 87.3563 135.646 86.8313 135.782 86.3579C135.918 85.8797 136.114 85.4696 136.372 85.1274C136.63 84.7805 136.944 84.5157 137.314 84.3329C137.685 84.1454 138.102 84.0516 138.566 84.0516C139.025 84.0516 139.429 84.1407 139.775 84.3188C140.122 84.4969 140.418 84.7524 140.661 85.0852C140.905 85.4133 141.1 85.8071 141.245 86.2665C141.39 86.7211 141.493 87.2274 141.554 87.7852V88.2563C141.493 88.8 141.39 89.2969 141.245 89.7469C141.1 90.1969 140.905 90.586 140.661 90.9141C140.418 91.2422 140.12 91.4954 139.768 91.6735C139.421 91.8516 139.016 91.9407 138.552 91.9407C138.093 91.9407 137.678 91.8446 137.307 91.6524C136.942 91.4602 136.63 91.1907 136.372 90.8438C136.114 90.4969 135.918 90.0891 135.782 89.6204C135.646 89.1469 135.578 88.6336 135.578 88.0805ZM137.272 87.9329V88.0805C137.272 88.4274 137.303 88.7508 137.364 89.0508C137.429 89.3508 137.53 89.6157 137.666 89.8454C137.802 90.0704 137.978 90.2485 138.193 90.3797C138.414 90.5063 138.676 90.5696 138.981 90.5696C139.365 90.5696 139.682 90.4852 139.93 90.3165C140.179 90.1477 140.373 89.9204 140.514 89.6344C140.659 89.3438 140.757 89.0204 140.809 88.6641V87.3915C140.781 87.1149 140.722 86.8571 140.633 86.618C140.549 86.379 140.434 86.1704 140.289 85.9922C140.143 85.8094 139.963 85.6688 139.747 85.5704C139.536 85.4672 139.286 85.4157 138.995 85.4157C138.686 85.4157 138.423 85.4813 138.207 85.6125C137.992 85.7438 137.814 85.9243 137.673 86.154C137.537 86.3836 137.436 86.6508 137.371 86.9555C137.305 87.2602 137.272 87.586 137.272 87.9329ZM148.29 90.2743V86.6461C148.29 86.3743 148.241 86.1399 148.143 85.943C148.044 85.7461 147.894 85.5938 147.693 85.486C147.496 85.3782 147.247 85.3243 146.947 85.3243C146.671 85.3243 146.432 85.3711 146.23 85.4649C146.029 85.5586 145.871 85.6852 145.759 85.8446C145.646 86.004 145.59 86.1844 145.59 86.386H143.903C143.903 86.086 143.975 85.7954 144.121 85.5141C144.266 85.2329 144.477 84.9821 144.754 84.7618C145.03 84.5415 145.361 84.368 145.745 84.2415C146.129 84.1149 146.561 84.0516 147.039 84.0516C147.611 84.0516 148.117 84.1477 148.557 84.3399C149.003 84.5321 149.352 84.8227 149.605 85.2118C149.863 85.5961 149.992 86.079 149.992 86.6602V90.0422C149.992 90.3891 150.015 90.7008 150.062 90.9774C150.114 91.2493 150.186 91.486 150.28 91.6875V91.8H148.543C148.464 91.6172 148.4 91.3852 148.354 91.104C148.311 90.818 148.29 90.5415 148.29 90.2743ZM148.536 87.1735L148.55 88.2211H147.334C147.02 88.2211 146.743 88.2516 146.504 88.3125C146.265 88.3688 146.066 88.4532 145.907 88.5657C145.747 88.6782 145.628 88.8141 145.548 88.9735C145.468 89.1329 145.429 89.3133 145.429 89.5149C145.429 89.7165 145.475 89.9016 145.569 90.0704C145.663 90.2344 145.799 90.3633 145.977 90.4571C146.16 90.5508 146.38 90.5977 146.638 90.5977C146.985 90.5977 147.287 90.5274 147.545 90.3868C147.807 90.2415 148.014 90.0657 148.164 89.8594C148.314 89.6485 148.393 89.4493 148.403 89.2618L148.951 90.0141C148.895 90.2063 148.799 90.4125 148.663 90.6329C148.527 90.8532 148.349 91.0641 148.129 91.2657C147.913 91.4625 147.653 91.6243 147.348 91.7508C147.048 91.8774 146.701 91.9407 146.307 91.9407C145.811 91.9407 145.368 91.8422 144.979 91.6454C144.589 91.4438 144.285 91.1743 144.064 90.8368C143.844 90.4946 143.734 90.1079 143.734 89.6766C143.734 89.2735 143.809 88.9172 143.959 88.6079C144.114 88.2938 144.339 88.0313 144.634 87.8204C144.934 87.6094 145.3 87.45 145.731 87.3422C146.162 87.2297 146.654 87.1735 147.207 87.1735H148.536ZM153.859 90.9704L155.926 84.1922H157.74L154.689 92.9602C154.618 93.1477 154.527 93.3516 154.414 93.5719C154.302 93.7922 154.154 94.0008 153.971 94.1977C153.793 94.3993 153.571 94.561 153.304 94.6829C153.036 94.8094 152.713 94.8727 152.333 94.8727C152.183 94.8727 152.038 94.8586 151.897 94.8305C151.761 94.8071 151.632 94.7813 151.511 94.7532L151.504 93.4594C151.55 93.4641 151.607 93.4688 151.672 93.4735C151.743 93.4782 151.799 93.4805 151.841 93.4805C152.122 93.4805 152.357 93.4454 152.544 93.375C152.732 93.3094 152.884 93.2016 153.001 93.0516C153.123 92.9016 153.226 92.7 153.311 92.4469L153.859 90.9704ZM152.692 84.1922L154.499 89.8875L154.801 91.6735L153.627 91.9758L150.864 84.1922H152.692ZM159.386 90.1688L159.379 91.3782C159.379 91.8563 159.259 92.3485 159.02 92.8547C158.781 93.361 158.464 93.7782 158.071 94.1063L157.164 93.579C157.295 93.368 157.414 93.1547 157.522 92.9391C157.63 92.7235 157.717 92.4938 157.782 92.25C157.848 92.0063 157.881 91.7368 157.881 91.4415V90.1688H159.386ZM165.489 81.5625H167.064L170.024 89.4586L172.977 81.5625H174.552L170.643 91.8H169.391L165.489 81.5625ZM164.771 81.5625H166.269L166.529 88.3969V91.8H164.771V81.5625ZM173.771 81.5625H175.276V91.8H173.511V88.3969L173.771 81.5625ZM181.492 90.2743V86.6461C181.492 86.3743 181.443 86.1399 181.344 85.943C181.246 85.7461 181.096 85.5938 180.894 85.486C180.697 85.3782 180.449 85.3243 180.149 85.3243C179.872 85.3243 179.633 85.3711 179.432 85.4649C179.23 85.5586 179.073 85.6852 178.961 85.8446C178.848 86.004 178.792 86.1844 178.792 86.386H177.104C177.104 86.086 177.177 85.7954 177.322 85.5141C177.468 85.2329 177.679 84.9821 177.955 84.7618C178.232 84.5415 178.562 84.368 178.946 84.2415C179.331 84.1149 179.762 84.0516 180.24 84.0516C180.812 84.0516 181.318 84.1477 181.759 84.3399C182.204 84.5321 182.554 84.8227 182.807 85.2118C183.064 85.5961 183.193 86.079 183.193 86.6602V90.0422C183.193 90.3891 183.217 90.7008 183.264 90.9774C183.315 91.2493 183.388 91.486 183.482 91.6875V91.8H181.745C181.665 91.6172 181.602 91.3852 181.555 91.104C181.513 90.818 181.492 90.5415 181.492 90.2743ZM181.738 87.1735L181.752 88.2211H180.536C180.221 88.2211 179.945 88.2516 179.706 88.3125C179.467 88.3688 179.268 88.4532 179.108 88.5657C178.949 88.6782 178.829 88.8141 178.75 88.9735C178.67 89.1329 178.63 89.3133 178.63 89.5149C178.63 89.7165 178.677 89.9016 178.771 90.0704C178.864 90.2344 179 90.3633 179.179 90.4571C179.361 90.5508 179.582 90.5977 179.839 90.5977C180.186 90.5977 180.489 90.5274 180.746 90.3868C181.009 90.2415 181.215 90.0657 181.365 89.8594C181.515 89.6485 181.595 89.4493 181.604 89.2618L182.153 90.0141C182.096 90.2063 182 90.4125 181.864 90.6329C181.729 90.8532 181.55 91.0641 181.33 91.2657C181.114 91.4625 180.854 91.6243 180.55 91.7508C180.25 91.8774 179.903 91.9407 179.509 91.9407C179.012 91.9407 178.569 91.8422 178.18 91.6454C177.791 91.4438 177.486 91.1743 177.266 90.8368C177.046 90.4946 176.936 90.1079 176.936 89.6766C176.936 89.2735 177.011 88.9172 177.161 88.6079C177.315 88.2938 177.54 88.0313 177.836 87.8204C178.136 87.6094 178.501 87.45 178.932 87.3422C179.364 87.2297 179.856 87.1735 180.409 87.1735H181.738ZM187.061 90.9704L189.128 84.1922H190.942L187.89 92.9602C187.82 93.1477 187.729 93.3516 187.616 93.5719C187.504 93.7922 187.356 94.0008 187.173 94.1977C186.995 94.3993 186.772 94.561 186.505 94.6829C186.238 94.8094 185.914 94.8727 185.535 94.8727C185.385 94.8727 185.239 94.8586 185.099 94.8305C184.963 94.8071 184.834 94.7813 184.712 94.7532L184.705 93.4594C184.752 93.4641 184.808 93.4688 184.874 93.4735C184.944 93.4782 185 93.4805 185.043 93.4805C185.324 93.4805 185.558 93.4454 185.746 93.375C185.933 93.3094 186.086 93.2016 186.203 93.0516C186.325 92.9016 186.428 92.7 186.512 92.4469L187.061 90.9704ZM185.893 84.1922L187.7 89.8875L188.003 91.6735L186.829 91.9758L184.065 84.1922H185.893ZM200.026 81.5274V91.8H198.332V83.5383L195.821 84.3891V82.9899L199.822 81.5274H200.026ZM210.446 90.45V91.8H203.584V90.6399L206.917 87.0047C207.282 86.5922 207.571 86.236 207.782 85.936C207.993 85.636 208.14 85.3665 208.225 85.1274C208.314 84.8836 208.358 84.6469 208.358 84.4172C208.358 84.0938 208.297 83.8102 208.175 83.5665C208.058 83.318 207.885 83.1235 207.655 82.9829C207.425 82.8375 207.146 82.7649 206.818 82.7649C206.439 82.7649 206.12 82.8469 205.862 83.011C205.604 83.175 205.41 83.4024 205.279 83.693C205.147 83.979 205.082 84.3071 205.082 84.6774H203.387C203.387 84.0821 203.523 83.5383 203.795 83.0461C204.067 82.5493 204.461 82.1555 204.976 81.8649C205.492 81.5696 206.113 81.4219 206.839 81.4219C207.524 81.4219 208.105 81.5368 208.583 81.7665C209.061 81.9961 209.425 82.3219 209.673 82.7438C209.926 83.1657 210.053 83.6649 210.053 84.2415C210.053 84.5602 210.001 84.8766 209.898 85.1907C209.795 85.5047 209.647 85.8188 209.455 86.1329C209.268 86.4422 209.045 86.754 208.787 87.068C208.529 87.3774 208.246 87.6915 207.936 88.0102L205.721 90.45H210.446Z" fill="#3A3A3A"/>
<path d="M57.2918 110.296V111.4H51.8707V110.296H57.2918ZM52.1449 101.163V111.4H50.7879V101.163H52.1449ZM56.5746 105.564V106.668H51.8707V105.564H56.5746ZM57.2215 101.163V102.273H51.8707V101.163H57.2215ZM60.1887 100.6V111.4H58.8809V100.6H60.1887ZM63.6902 100.6V111.4H62.3824V100.6H63.6902ZM68.9355 111.541C68.4059 111.541 67.9254 111.452 67.4941 111.273C67.0676 111.091 66.6996 110.835 66.3902 110.507C66.0855 110.179 65.8512 109.79 65.6871 109.34C65.523 108.89 65.441 108.398 65.441 107.863V107.568C65.441 106.949 65.5324 106.398 65.7152 105.916C65.898 105.428 66.1465 105.016 66.4605 104.678C66.7746 104.341 67.1309 104.085 67.5293 103.912C67.9277 103.738 68.3402 103.652 68.7668 103.652C69.3105 103.652 69.7793 103.745 70.173 103.933C70.5715 104.12 70.8973 104.383 71.1504 104.72C71.4035 105.053 71.591 105.447 71.7129 105.902C71.8348 106.352 71.8957 106.844 71.8957 107.378V107.962H66.2145V106.9H70.5949V106.802C70.5762 106.464 70.5059 106.136 70.384 105.817C70.2668 105.498 70.0793 105.236 69.8215 105.03C69.5637 104.823 69.2121 104.72 68.7668 104.72C68.4715 104.72 68.1996 104.784 67.9512 104.91C67.7027 105.032 67.4895 105.215 67.3113 105.459C67.1332 105.702 66.9949 106 66.8965 106.352C66.798 106.703 66.7488 107.109 66.7488 107.568V107.863C66.7488 108.224 66.798 108.564 66.8965 108.883C66.9996 109.197 67.1473 109.473 67.3395 109.713C67.5363 109.952 67.773 110.139 68.0496 110.275C68.3309 110.411 68.6496 110.479 69.0059 110.479C69.4652 110.479 69.8543 110.385 70.173 110.198C70.4918 110.01 70.7707 109.759 71.0098 109.445L71.7973 110.071C71.6332 110.32 71.4246 110.556 71.1715 110.781C70.9184 111.006 70.6066 111.189 70.2363 111.33C69.8707 111.47 69.4371 111.541 68.9355 111.541ZM74.7152 104.988V111.4H73.4145V103.792H74.6801L74.7152 104.988ZM77.0918 103.75L77.0848 104.959C76.977 104.936 76.8738 104.922 76.7754 104.917C76.6816 104.908 76.5738 104.903 76.452 104.903C76.152 104.903 75.8871 104.95 75.6574 105.044C75.4277 105.138 75.2332 105.269 75.0738 105.438C74.9145 105.606 74.7879 105.808 74.6941 106.042C74.6051 106.272 74.5465 106.525 74.5184 106.802L74.1527 107.013C74.1527 106.553 74.1973 106.122 74.2863 105.719C74.3801 105.316 74.523 104.959 74.7152 104.65C74.9074 104.336 75.1512 104.092 75.4465 103.919C75.7465 103.741 76.1027 103.652 76.5152 103.652C76.609 103.652 76.7168 103.663 76.8387 103.687C76.9605 103.705 77.0449 103.727 77.0918 103.75ZM82.7238 109.382C82.7238 109.195 82.6816 109.021 82.5973 108.862C82.5176 108.698 82.3512 108.55 82.098 108.419C81.8496 108.283 81.4746 108.166 80.973 108.067C80.5512 107.978 80.1691 107.873 79.827 107.751C79.4895 107.629 79.2012 107.481 78.9621 107.308C78.7277 107.134 78.5473 106.93 78.4207 106.696C78.2941 106.462 78.2309 106.188 78.2309 105.873C78.2309 105.573 78.2965 105.29 78.4277 105.023C78.5637 104.755 78.7535 104.519 78.9973 104.313C79.2457 104.106 79.5434 103.945 79.8902 103.827C80.2371 103.71 80.6238 103.652 81.0504 103.652C81.6598 103.652 82.1801 103.759 82.6113 103.975C83.0426 104.191 83.373 104.479 83.6027 104.84C83.8324 105.196 83.9473 105.592 83.9473 106.028H82.6465C82.6465 105.817 82.5832 105.613 82.4566 105.416C82.3348 105.215 82.1543 105.048 81.9152 104.917C81.6809 104.786 81.3926 104.72 81.0504 104.72C80.6895 104.72 80.3965 104.777 80.1715 104.889C79.9512 104.997 79.7895 105.135 79.6863 105.304C79.5879 105.473 79.5387 105.651 79.5387 105.838C79.5387 105.979 79.5621 106.105 79.609 106.218C79.6605 106.326 79.7496 106.427 79.8762 106.52C80.0027 106.609 80.1809 106.694 80.4105 106.773C80.6402 106.853 80.9332 106.933 81.2895 107.013C81.9129 107.153 82.4262 107.322 82.8293 107.519C83.2324 107.716 83.5324 107.957 83.7293 108.243C83.9262 108.529 84.0246 108.876 84.0246 109.284C84.0246 109.616 83.9543 109.921 83.8137 110.198C83.6777 110.474 83.4785 110.713 83.216 110.915C82.9582 111.112 82.6488 111.266 82.2879 111.379C81.9316 111.487 81.5309 111.541 81.0855 111.541C80.4152 111.541 79.848 111.421 79.384 111.182C78.9199 110.943 78.5684 110.634 78.3293 110.254C78.0902 109.874 77.9707 109.473 77.9707 109.052H79.2785C79.2973 109.408 79.4004 109.691 79.5879 109.902C79.7754 110.109 80.0051 110.256 80.277 110.345C80.5488 110.43 80.8184 110.472 81.0855 110.472C81.4418 110.472 81.7395 110.425 81.9785 110.331C82.2223 110.238 82.4074 110.109 82.534 109.945C82.6605 109.78 82.7238 109.593 82.7238 109.382ZM87.1465 100.6V111.4H85.8387V100.6H87.1465ZM90.6481 103.792V111.4H89.3402V103.792H90.6481ZM89.2418 101.774C89.2418 101.563 89.3051 101.385 89.4316 101.24C89.5629 101.095 89.7551 101.022 90.0082 101.022C90.2566 101.022 90.4465 101.095 90.5777 101.24C90.7137 101.385 90.7816 101.563 90.7816 101.774C90.7816 101.976 90.7137 102.149 90.5777 102.295C90.4465 102.435 90.2566 102.505 90.0082 102.505C89.7551 102.505 89.5629 102.435 89.4316 102.295C89.3051 102.149 89.2418 101.976 89.2418 101.774ZM95.8934 111.541C95.3637 111.541 94.8832 111.452 94.452 111.273C94.0254 111.091 93.6574 110.835 93.348 110.507C93.0434 110.179 92.809 109.79 92.6449 109.34C92.4809 108.89 92.3988 108.398 92.3988 107.863V107.568C92.3988 106.949 92.4902 106.398 92.673 105.916C92.8559 105.428 93.1043 105.016 93.4184 104.678C93.7324 104.341 94.0887 104.085 94.4871 103.912C94.8855 103.738 95.298 103.652 95.7246 103.652C96.2684 103.652 96.7371 103.745 97.1309 103.933C97.5293 104.12 97.8551 104.383 98.1082 104.72C98.3613 105.053 98.5488 105.447 98.6707 105.902C98.7926 106.352 98.8535 106.844 98.8535 107.378V107.962H93.1723V106.9H97.5527V106.802C97.534 106.464 97.4637 106.136 97.3418 105.817C97.2246 105.498 97.0371 105.236 96.7793 105.03C96.5215 104.823 96.1699 104.72 95.7246 104.72C95.4293 104.72 95.1574 104.784 94.909 104.91C94.6605 105.032 94.4473 105.215 94.2691 105.459C94.091 105.702 93.9527 106 93.8543 106.352C93.7559 106.703 93.7066 107.109 93.7066 107.568V107.863C93.7066 108.224 93.7559 108.564 93.8543 108.883C93.9574 109.197 94.1051 109.473 94.2973 109.713C94.4941 109.952 94.7309 110.139 95.0074 110.275C95.2887 110.411 95.6074 110.479 95.9637 110.479C96.423 110.479 96.8121 110.385 97.1309 110.198C97.4496 110.01 97.7285 109.759 97.9676 109.445L98.7551 110.071C98.591 110.32 98.3824 110.556 98.1293 110.781C97.8762 111.006 97.5645 111.189 97.1941 111.33C96.8285 111.47 96.3949 111.541 95.8934 111.541ZM104.57 101.163H105.885L109.239 109.509L112.586 101.163H113.907L109.745 111.4H108.718L104.57 101.163ZM104.141 101.163H105.301L105.491 107.406V111.4H104.141V101.163ZM113.169 101.163H114.329V111.4H112.979V107.406L113.169 101.163ZM119.673 111.541C119.143 111.541 118.663 111.452 118.232 111.273C117.805 111.091 117.437 110.835 117.128 110.507C116.823 110.179 116.589 109.79 116.425 109.34C116.261 108.89 116.179 108.398 116.179 107.863V107.568C116.179 106.949 116.27 106.398 116.453 105.916C116.636 105.428 116.884 105.016 117.198 104.678C117.512 104.341 117.868 104.085 118.267 103.912C118.665 103.738 119.078 103.652 119.504 103.652C120.048 103.652 120.517 103.745 120.911 103.933C121.309 104.12 121.635 104.383 121.888 104.72C122.141 105.053 122.329 105.447 122.45 105.902C122.572 106.352 122.633 106.844 122.633 107.378V107.962H116.952V106.9H121.332V106.802C121.314 106.464 121.243 106.136 121.121 105.817C121.004 105.498 120.817 105.236 120.559 105.03C120.301 104.823 119.95 104.72 119.504 104.72C119.209 104.72 118.937 104.784 118.689 104.91C118.44 105.032 118.227 105.215 118.049 105.459C117.871 105.702 117.732 106 117.634 106.352C117.536 106.703 117.486 107.109 117.486 107.568V107.863C117.486 108.224 117.536 108.564 117.634 108.883C117.737 109.197 117.885 109.473 118.077 109.713C118.274 109.952 118.511 110.139 118.787 110.275C119.068 110.411 119.387 110.479 119.743 110.479C120.203 110.479 120.592 110.385 120.911 110.198C121.229 110.01 121.508 109.759 121.747 109.445L122.535 110.071C122.371 110.32 122.162 110.556 121.909 110.781C121.656 111.006 121.344 111.189 120.974 111.33C120.608 111.47 120.175 111.541 119.673 111.541ZM128.947 109.923V100.6H130.255V111.4H129.06L128.947 109.923ZM123.829 107.68V107.533C123.829 106.952 123.899 106.424 124.039 105.951C124.185 105.473 124.389 105.063 124.651 104.72C124.918 104.378 125.235 104.116 125.6 103.933C125.971 103.745 126.383 103.652 126.838 103.652C127.316 103.652 127.733 103.736 128.089 103.905C128.45 104.069 128.755 104.31 129.004 104.629C129.257 104.943 129.456 105.323 129.601 105.768C129.746 106.213 129.847 106.717 129.904 107.28V107.927C129.852 108.484 129.751 108.986 129.601 109.431C129.456 109.877 129.257 110.256 129.004 110.57C128.755 110.884 128.45 111.126 128.089 111.295C127.729 111.459 127.307 111.541 126.824 111.541C126.379 111.541 125.971 111.445 125.6 111.252C125.235 111.06 124.918 110.791 124.651 110.444C124.389 110.097 124.185 109.689 124.039 109.22C123.899 108.747 123.829 108.234 123.829 107.68ZM125.136 107.533V107.68C125.136 108.06 125.174 108.416 125.249 108.749C125.329 109.082 125.45 109.375 125.614 109.628C125.779 109.881 125.987 110.08 126.24 110.226C126.493 110.366 126.796 110.437 127.147 110.437C127.579 110.437 127.932 110.345 128.209 110.163C128.49 109.98 128.715 109.738 128.884 109.438C129.053 109.138 129.184 108.813 129.278 108.461V106.766C129.221 106.509 129.139 106.26 129.032 106.021C128.929 105.777 128.793 105.562 128.624 105.374C128.46 105.182 128.256 105.03 128.012 104.917C127.773 104.805 127.489 104.748 127.161 104.748C126.805 104.748 126.498 104.823 126.24 104.973C125.987 105.119 125.779 105.32 125.614 105.578C125.45 105.831 125.329 106.127 125.249 106.464C125.174 106.797 125.136 107.153 125.136 107.533ZM133.693 103.792V111.4H132.386V103.792H133.693ZM132.287 101.774C132.287 101.563 132.35 101.385 132.477 101.24C132.608 101.095 132.8 101.022 133.054 101.022C133.302 101.022 133.492 101.095 133.623 101.24C133.759 101.385 133.827 101.563 133.827 101.774C133.827 101.976 133.759 102.149 133.623 102.295C133.492 102.435 133.302 102.505 133.054 102.505C132.8 102.505 132.608 102.435 132.477 102.295C132.35 102.149 132.287 101.976 132.287 101.774ZM138.826 110.472C139.136 110.472 139.421 110.409 139.684 110.282C139.946 110.155 140.162 109.982 140.331 109.762C140.5 109.537 140.596 109.281 140.619 108.995H141.857C141.833 109.445 141.681 109.865 141.4 110.254C141.123 110.638 140.76 110.95 140.31 111.189C139.86 111.423 139.365 111.541 138.826 111.541C138.254 111.541 137.755 111.44 137.329 111.238C136.907 111.037 136.555 110.76 136.274 110.409C135.997 110.057 135.789 109.654 135.648 109.199C135.512 108.74 135.444 108.255 135.444 107.744V107.448C135.444 106.938 135.512 106.455 135.648 106C135.789 105.541 135.997 105.135 136.274 104.784C136.555 104.432 136.907 104.155 137.329 103.954C137.755 103.752 138.254 103.652 138.826 103.652C139.421 103.652 139.942 103.773 140.387 104.017C140.832 104.256 141.182 104.584 141.435 105.002C141.693 105.414 141.833 105.883 141.857 106.408H140.619C140.596 106.094 140.507 105.81 140.352 105.557C140.202 105.304 139.996 105.102 139.733 104.952C139.475 104.798 139.173 104.72 138.826 104.72C138.428 104.72 138.093 104.8 137.821 104.959C137.554 105.114 137.34 105.325 137.181 105.592C137.026 105.855 136.914 106.148 136.843 106.471C136.778 106.79 136.745 107.116 136.745 107.448V107.744C136.745 108.077 136.778 108.405 136.843 108.728C136.909 109.052 137.019 109.345 137.174 109.607C137.333 109.87 137.546 110.08 137.814 110.24C138.086 110.395 138.423 110.472 138.826 110.472ZM147.805 110.099V106.183C147.805 105.883 147.744 105.623 147.622 105.402C147.505 105.177 147.327 105.004 147.088 104.882C146.849 104.76 146.554 104.699 146.202 104.699C145.874 104.699 145.586 104.755 145.337 104.868C145.093 104.98 144.901 105.128 144.761 105.311C144.625 105.494 144.557 105.691 144.557 105.902H143.256C143.256 105.63 143.326 105.36 143.467 105.093C143.607 104.826 143.809 104.584 144.071 104.369C144.339 104.148 144.657 103.975 145.028 103.848C145.403 103.717 145.82 103.652 146.279 103.652C146.832 103.652 147.32 103.745 147.742 103.933C148.168 104.12 148.501 104.404 148.74 104.784C148.984 105.159 149.106 105.63 149.106 106.197V109.741C149.106 109.994 149.127 110.263 149.169 110.549C149.216 110.835 149.284 111.081 149.373 111.288V111.4H148.016C147.95 111.25 147.899 111.051 147.861 110.802C147.824 110.549 147.805 110.315 147.805 110.099ZM148.03 106.788L148.044 107.702H146.729C146.359 107.702 146.029 107.732 145.738 107.793C145.447 107.849 145.204 107.936 145.007 108.053C144.81 108.17 144.66 108.318 144.557 108.496C144.454 108.67 144.402 108.873 144.402 109.108C144.402 109.347 144.456 109.565 144.564 109.762C144.671 109.959 144.833 110.116 145.049 110.233C145.269 110.345 145.539 110.402 145.857 110.402C146.256 110.402 146.607 110.317 146.912 110.148C147.217 109.98 147.458 109.773 147.636 109.53C147.819 109.286 147.918 109.049 147.932 108.82L148.487 109.445C148.454 109.642 148.365 109.86 148.22 110.099C148.075 110.338 147.88 110.568 147.636 110.788C147.397 111.004 147.111 111.184 146.779 111.33C146.45 111.47 146.08 111.541 145.668 111.541C145.152 111.541 144.7 111.44 144.311 111.238C143.926 111.037 143.626 110.767 143.411 110.43C143.2 110.088 143.094 109.705 143.094 109.284C143.094 108.876 143.174 108.517 143.333 108.208C143.493 107.894 143.722 107.634 144.022 107.427C144.322 107.216 144.683 107.057 145.105 106.949C145.527 106.841 145.998 106.788 146.518 106.788H148.03ZM152.565 100.6V111.4H151.257V100.6H152.565ZM164.603 108.145H165.953C165.882 108.791 165.697 109.37 165.397 109.881C165.097 110.392 164.673 110.798 164.125 111.098C163.576 111.393 162.892 111.541 162.071 111.541C161.471 111.541 160.925 111.428 160.433 111.203C159.946 110.978 159.526 110.659 159.175 110.247C158.823 109.83 158.551 109.33 158.359 108.749C158.171 108.163 158.078 107.512 158.078 106.795V105.775C158.078 105.058 158.171 104.409 158.359 103.827C158.551 103.241 158.825 102.74 159.182 102.323C159.543 101.905 159.976 101.584 160.482 101.359C160.989 101.134 161.558 101.022 162.191 101.022C162.964 101.022 163.618 101.167 164.153 101.458C164.687 101.748 165.102 102.152 165.397 102.667C165.697 103.178 165.882 103.771 165.953 104.446H164.603C164.537 103.968 164.415 103.558 164.237 103.216C164.059 102.869 163.806 102.602 163.478 102.414C163.15 102.227 162.721 102.133 162.191 102.133C161.736 102.133 161.336 102.22 160.989 102.393C160.646 102.566 160.358 102.813 160.124 103.131C159.894 103.45 159.721 103.832 159.604 104.277C159.486 104.723 159.428 105.217 159.428 105.761V106.795C159.428 107.296 159.479 107.767 159.582 108.208C159.69 108.648 159.852 109.035 160.068 109.368C160.283 109.701 160.557 109.963 160.89 110.155C161.223 110.343 161.617 110.437 162.071 110.437C162.648 110.437 163.107 110.345 163.45 110.163C163.792 109.98 164.05 109.717 164.223 109.375C164.401 109.033 164.528 108.623 164.603 108.145ZM170.762 111.541C170.232 111.541 169.752 111.452 169.321 111.273C168.894 111.091 168.526 110.835 168.217 110.507C167.912 110.179 167.678 109.79 167.514 109.34C167.35 108.89 167.268 108.398 167.268 107.863V107.568C167.268 106.949 167.359 106.398 167.542 105.916C167.725 105.428 167.973 105.016 168.287 104.678C168.601 104.341 168.957 104.085 169.356 103.912C169.754 103.738 170.167 103.652 170.593 103.652C171.137 103.652 171.606 103.745 172 103.933C172.398 104.12 172.724 104.383 172.977 104.72C173.23 105.053 173.418 105.447 173.539 105.902C173.661 106.352 173.722 106.844 173.722 107.378V107.962H168.041V106.9H172.421V106.802C172.403 106.464 172.332 106.136 172.211 105.817C172.093 105.498 171.906 105.236 171.648 105.03C171.39 104.823 171.039 104.72 170.593 104.72C170.298 104.72 170.026 104.784 169.778 104.91C169.529 105.032 169.316 105.215 169.138 105.459C168.96 105.702 168.821 106 168.723 106.352C168.625 106.703 168.575 107.109 168.575 107.568V107.863C168.575 108.224 168.625 108.564 168.723 108.883C168.826 109.197 168.974 109.473 169.166 109.713C169.363 109.952 169.6 110.139 169.876 110.275C170.157 110.411 170.476 110.479 170.832 110.479C171.292 110.479 171.681 110.385 172 110.198C172.318 110.01 172.597 109.759 172.836 109.445L173.624 110.071C173.46 110.32 173.251 110.556 172.998 110.781C172.745 111.006 172.433 111.189 172.063 111.33C171.697 111.47 171.264 111.541 170.762 111.541ZM176.542 105.416V111.4H175.241V103.792H176.471L176.542 105.416ZM176.232 107.308L175.691 107.287C175.696 106.766 175.773 106.286 175.923 105.845C176.073 105.4 176.284 105.013 176.556 104.685C176.828 104.357 177.151 104.104 177.526 103.926C177.906 103.743 178.325 103.652 178.785 103.652C179.16 103.652 179.497 103.703 179.797 103.806C180.097 103.905 180.353 104.064 180.564 104.284C180.779 104.505 180.943 104.791 181.056 105.142C181.168 105.489 181.225 105.913 181.225 106.415V111.4H179.917V106.401C179.917 106.002 179.858 105.684 179.741 105.445C179.624 105.201 179.453 105.025 179.228 104.917C179.003 104.805 178.726 104.748 178.398 104.748C178.075 104.748 177.779 104.816 177.512 104.952C177.25 105.088 177.022 105.276 176.83 105.515C176.643 105.754 176.495 106.028 176.387 106.338C176.284 106.642 176.232 106.966 176.232 107.308ZM186.386 103.792V104.791H182.272V103.792H186.386ZM183.664 101.943H184.965V109.516C184.965 109.773 185.005 109.968 185.085 110.099C185.164 110.23 185.268 110.317 185.394 110.359C185.521 110.402 185.657 110.423 185.802 110.423C185.91 110.423 186.022 110.413 186.139 110.395C186.261 110.371 186.353 110.352 186.414 110.338L186.421 111.4C186.318 111.433 186.182 111.463 186.013 111.491C185.849 111.524 185.65 111.541 185.415 111.541C185.096 111.541 184.804 111.477 184.536 111.351C184.269 111.224 184.056 111.013 183.896 110.718C183.742 110.418 183.664 110.015 183.664 109.509V101.943ZM189.212 104.988V111.4H187.911V103.792H189.177L189.212 104.988ZM191.589 103.75L191.582 104.959C191.474 104.936 191.371 104.922 191.272 104.917C191.179 104.908 191.071 104.903 190.949 104.903C190.649 104.903 190.384 104.95 190.154 105.044C189.925 105.138 189.73 105.269 189.571 105.438C189.411 105.606 189.285 105.808 189.191 106.042C189.102 106.272 189.043 106.525 189.015 106.802L188.65 107.013C188.65 106.553 188.694 106.122 188.783 105.719C188.877 105.316 189.02 104.959 189.212 104.65C189.404 104.336 189.648 104.092 189.943 103.919C190.243 103.741 190.6 103.652 191.012 103.652C191.106 103.652 191.214 103.663 191.336 103.687C191.457 103.705 191.542 103.727 191.589 103.75ZM195.807 111.541C195.278 111.541 194.797 111.452 194.366 111.273C193.939 111.091 193.571 110.835 193.262 110.507C192.957 110.179 192.723 109.79 192.559 109.34C192.395 108.89 192.313 108.398 192.313 107.863V107.568C192.313 106.949 192.404 106.398 192.587 105.916C192.77 105.428 193.018 105.016 193.332 104.678C193.646 104.341 194.003 104.085 194.401 103.912C194.8 103.738 195.212 103.652 195.639 103.652C196.182 103.652 196.651 103.745 197.045 103.933C197.443 104.12 197.769 104.383 198.022 104.72C198.275 105.053 198.463 105.447 198.585 105.902C198.707 106.352 198.768 106.844 198.768 107.378V107.962H193.086V106.9H197.467V106.802C197.448 106.464 197.378 106.136 197.256 105.817C197.139 105.498 196.951 105.236 196.693 105.03C196.436 104.823 196.084 104.72 195.639 104.72C195.343 104.72 195.071 104.784 194.823 104.91C194.575 105.032 194.361 105.215 194.183 105.459C194.005 105.702 193.867 106 193.768 106.352C193.67 106.703 193.621 107.109 193.621 107.568V107.863C193.621 108.224 193.67 108.564 193.768 108.883C193.871 109.197 194.019 109.473 194.211 109.713C194.408 109.952 194.645 110.139 194.921 110.275C195.203 110.411 195.521 110.479 195.878 110.479C196.337 110.479 196.726 110.385 197.045 110.198C197.364 110.01 197.643 109.759 197.882 109.445L198.669 110.071C198.505 110.32 198.296 110.556 198.043 110.781C197.79 111.006 197.479 111.189 197.108 111.33C196.743 111.47 196.309 111.541 195.807 111.541Z" fill="#676F78"/>
<path d="M53.5582 139H51.4207L51.4348 137.896H53.5582C54.2895 137.896 54.8988 137.744 55.3863 137.439C55.8738 137.13 56.2395 136.698 56.4832 136.145C56.7316 135.587 56.8559 134.936 56.8559 134.191V133.565C56.8559 132.979 56.7855 132.459 56.6449 132.004C56.5043 131.545 56.298 131.158 56.0262 130.844C55.7543 130.525 55.4215 130.284 55.0277 130.12C54.6387 129.955 54.191 129.873 53.6848 129.873H51.3785V128.762H53.6848C54.3551 128.762 54.9668 128.875 55.5199 129.1C56.073 129.32 56.5488 129.641 56.9473 130.063C57.3504 130.48 57.6598 130.987 57.8754 131.582C58.091 132.173 58.1988 132.838 58.1988 133.579V134.191C58.1988 134.931 58.091 135.599 57.8754 136.195C57.6598 136.785 57.348 137.289 56.9402 137.706C56.5371 138.123 56.0496 138.445 55.4777 138.67C54.9105 138.89 54.2707 139 53.5582 139ZM52.1449 128.762V139H50.7879V128.762H52.1449ZM61.3418 132.587V139H60.041V131.392H61.3066L61.3418 132.587ZM63.7184 131.35L63.7113 132.559C63.6035 132.536 63.5004 132.522 63.402 132.517C63.3082 132.508 63.2004 132.503 63.0785 132.503C62.7785 132.503 62.5137 132.55 62.284 132.644C62.0543 132.737 61.8598 132.869 61.7004 133.037C61.541 133.206 61.4145 133.408 61.3207 133.642C61.2316 133.872 61.173 134.125 61.1449 134.402L60.7793 134.612C60.7793 134.153 60.8238 133.722 60.9129 133.319C61.0066 132.916 61.1496 132.559 61.3418 132.25C61.534 131.936 61.7777 131.692 62.073 131.519C62.373 131.341 62.7293 131.252 63.1418 131.252C63.2355 131.252 63.3434 131.263 63.4652 131.287C63.5871 131.305 63.6715 131.327 63.7184 131.35ZM71.4598 139H69.3223L69.3363 137.896H71.4598C72.191 137.896 72.8004 137.744 73.2879 137.439C73.7754 137.13 74.141 136.698 74.3848 136.145C74.6332 135.587 74.7574 134.936 74.7574 134.191V133.565C74.7574 132.979 74.6871 132.459 74.5465 132.004C74.4059 131.545 74.1996 131.158 73.9277 130.844C73.6559 130.525 73.323 130.284 72.9293 130.12C72.5402 129.955 72.0926 129.873 71.5863 129.873H69.2801V128.762H71.5863C72.2566 128.762 72.8684 128.875 73.4215 129.1C73.9746 129.32 74.4504 129.641 74.8488 130.063C75.252 130.48 75.5613 130.987 75.777 131.582C75.9926 132.173 76.1004 132.838 76.1004 133.579V134.191C76.1004 134.931 75.9926 135.599 75.777 136.195C75.5613 136.785 75.2496 137.289 74.8418 137.706C74.4387 138.123 73.9512 138.445 73.3793 138.67C72.8121 138.89 72.1723 139 71.4598 139ZM70.0465 128.762V139H68.6895V128.762H70.0465ZM77.598 135.28V135.119C77.598 134.57 77.6777 134.062 77.8371 133.593C77.9965 133.12 78.2262 132.709 78.5262 132.362C78.8262 132.011 79.1895 131.739 79.616 131.547C80.0426 131.35 80.5207 131.252 81.0504 131.252C81.5848 131.252 82.0652 131.35 82.4918 131.547C82.923 131.739 83.2887 132.011 83.5887 132.362C83.8934 132.709 84.1254 133.12 84.2848 133.593C84.4441 134.062 84.5238 134.57 84.5238 135.119V135.28C84.5238 135.829 84.4441 136.337 84.2848 136.806C84.1254 137.275 83.8934 137.685 83.5887 138.037C83.2887 138.384 82.9254 138.655 82.4988 138.852C82.077 139.045 81.5988 139.141 81.0645 139.141C80.5301 139.141 80.0496 139.045 79.623 138.852C79.1965 138.655 78.8309 138.384 78.5262 138.037C78.2262 137.685 77.9965 137.275 77.8371 136.806C77.6777 136.337 77.598 135.829 77.598 135.28ZM78.8988 135.119V135.28C78.8988 135.66 78.9434 136.019 79.0324 136.356C79.1215 136.689 79.2551 136.984 79.4332 137.242C79.616 137.5 79.8434 137.704 80.1152 137.854C80.3871 137.999 80.7035 138.072 81.0645 138.072C81.4207 138.072 81.7324 137.999 81.9996 137.854C82.2715 137.704 82.4965 137.5 82.6746 137.242C82.8527 136.984 82.9863 136.689 83.0754 136.356C83.1691 136.019 83.216 135.66 83.216 135.28V135.119C83.216 134.744 83.1691 134.39 83.0754 134.057C82.9863 133.72 82.8504 133.422 82.6676 133.164C82.4895 132.902 82.2645 132.695 81.9926 132.545C81.7254 132.395 81.4113 132.32 81.0504 132.32C80.6941 132.32 80.3801 132.395 80.1082 132.545C79.841 132.695 79.616 132.902 79.4332 133.164C79.2551 133.422 79.1215 133.72 79.0324 134.057C78.9434 134.39 78.8988 134.744 78.8988 135.119ZM89.1996 138.072C89.509 138.072 89.7949 138.009 90.0574 137.882C90.3199 137.755 90.5355 137.582 90.7043 137.362C90.873 137.137 90.9691 136.881 90.9926 136.595H92.2301C92.2066 137.045 92.0543 137.465 91.773 137.854C91.4965 138.238 91.1332 138.55 90.6832 138.789C90.2332 139.023 89.7387 139.141 89.1996 139.141C88.6277 139.141 88.1285 139.04 87.702 138.838C87.2801 138.637 86.9285 138.36 86.6473 138.009C86.3707 137.657 86.1621 137.254 86.0215 136.799C85.8855 136.34 85.8176 135.855 85.8176 135.344V135.048C85.8176 134.537 85.8855 134.055 86.0215 133.6C86.1621 133.141 86.3707 132.735 86.6473 132.384C86.9285 132.032 87.2801 131.755 87.702 131.554C88.1285 131.352 88.6277 131.252 89.1996 131.252C89.7949 131.252 90.3152 131.373 90.7605 131.617C91.2059 131.856 91.5551 132.184 91.8082 132.602C92.066 133.014 92.2066 133.483 92.2301 134.008H90.9926C90.9691 133.694 90.8801 133.41 90.7254 133.157C90.5754 132.904 90.3691 132.702 90.1066 132.552C89.8488 132.398 89.5465 132.32 89.1996 132.32C88.8012 132.32 88.466 132.4 88.1941 132.559C87.927 132.714 87.7137 132.925 87.5543 133.192C87.3996 133.455 87.2871 133.748 87.2168 134.071C87.1512 134.39 87.1184 134.716 87.1184 135.048V135.344C87.1184 135.677 87.1512 136.005 87.2168 136.328C87.2824 136.652 87.3926 136.945 87.5473 137.207C87.7066 137.47 87.9199 137.68 88.1871 137.84C88.459 137.995 88.7965 138.072 89.1996 138.072ZM96.8777 131.392V132.391H92.7645V131.392H96.8777ZM94.1566 129.543H95.4574V137.116C95.4574 137.373 95.4973 137.568 95.577 137.699C95.6566 137.83 95.7598 137.917 95.8863 137.959C96.0129 138.002 96.1488 138.023 96.2941 138.023C96.402 138.023 96.5145 138.013 96.6316 137.995C96.7535 137.971 96.8449 137.952 96.9059 137.938L96.9129 139C96.8098 139.033 96.6738 139.063 96.5051 139.091C96.341 139.124 96.1418 139.141 95.9074 139.141C95.5887 139.141 95.2957 139.077 95.0285 138.951C94.7613 138.824 94.5481 138.613 94.3887 138.318C94.234 138.018 94.1566 137.615 94.1566 137.109V129.543ZM97.9184 135.28V135.119C97.9184 134.57 97.9981 134.062 98.1574 133.593C98.3168 133.12 98.5465 132.709 98.8465 132.362C99.1465 132.011 99.5098 131.739 99.9363 131.547C100.363 131.35 100.841 131.252 101.371 131.252C101.905 131.252 102.386 131.35 102.812 131.547C103.243 131.739 103.609 132.011 103.909 132.362C104.214 132.709 104.446 133.12 104.605 133.593C104.764 134.062 104.844 134.57 104.844 135.119V135.28C104.844 135.829 104.764 136.337 104.605 136.806C104.446 137.275 104.214 137.685 103.909 138.037C103.609 138.384 103.246 138.655 102.819 138.852C102.397 139.045 101.919 139.141 101.385 139.141C100.85 139.141 100.37 139.045 99.9434 138.852C99.5168 138.655 99.1512 138.384 98.8465 138.037C98.5465 137.685 98.3168 137.275 98.1574 136.806C97.9981 136.337 97.9184 135.829 97.9184 135.28ZM99.2191 135.119V135.28C99.2191 135.66 99.2637 136.019 99.3527 136.356C99.4418 136.689 99.5754 136.984 99.7535 137.242C99.9363 137.5 100.164 137.704 100.436 137.854C100.707 137.999 101.024 138.072 101.385 138.072C101.741 138.072 102.053 137.999 102.32 137.854C102.592 137.704 102.817 137.5 102.995 137.242C103.173 136.984 103.307 136.689 103.396 136.356C103.489 136.019 103.536 135.66 103.536 135.28V135.119C103.536 134.744 103.489 134.39 103.396 134.057C103.307 133.72 103.171 133.422 102.988 133.164C102.81 132.902 102.585 132.695 102.313 132.545C102.046 132.395 101.732 132.32 101.371 132.32C101.014 132.32 100.7 132.395 100.429 132.545C100.161 132.695 99.9363 132.902 99.7535 133.164C99.5754 133.422 99.4418 133.72 99.3527 134.057C99.2637 134.39 99.2191 134.744 99.2191 135.119ZM107.776 132.587V139H106.475V131.392H107.741L107.776 132.587ZM110.153 131.35L110.146 132.559C110.038 132.536 109.935 132.522 109.836 132.517C109.743 132.508 109.635 132.503 109.513 132.503C109.213 132.503 108.948 132.55 108.718 132.644C108.489 132.737 108.294 132.869 108.135 133.037C107.975 133.206 107.849 133.408 107.755 133.642C107.666 133.872 107.607 134.125 107.579 134.402L107.214 134.612C107.214 134.153 107.258 133.722 107.347 133.319C107.441 132.916 107.584 132.559 107.776 132.25C107.968 131.936 108.212 131.692 108.507 131.519C108.807 131.341 109.164 131.252 109.576 131.252C109.67 131.252 109.778 131.263 109.9 131.287C110.021 131.305 110.106 131.327 110.153 131.35ZM122.999 128.762V139H121.635L116.481 131.104V139H115.124V128.762H116.481L121.656 136.68V128.762H122.999ZM129.693 137.699V133.783C129.693 133.483 129.632 133.223 129.51 133.002C129.393 132.777 129.214 132.604 128.975 132.482C128.736 132.36 128.441 132.299 128.089 132.299C127.761 132.299 127.473 132.355 127.225 132.468C126.981 132.58 126.789 132.728 126.648 132.911C126.512 133.094 126.444 133.291 126.444 133.502H125.143C125.143 133.23 125.214 132.96 125.354 132.693C125.495 132.426 125.696 132.184 125.959 131.969C126.226 131.748 126.545 131.575 126.915 131.448C127.29 131.317 127.707 131.252 128.167 131.252C128.72 131.252 129.207 131.345 129.629 131.533C130.056 131.72 130.389 132.004 130.628 132.384C130.871 132.759 130.993 133.23 130.993 133.797V137.341C130.993 137.594 131.014 137.863 131.057 138.149C131.104 138.435 131.171 138.681 131.261 138.887V139H129.904C129.838 138.85 129.786 138.651 129.749 138.402C129.711 138.149 129.693 137.915 129.693 137.699ZM129.918 134.387L129.932 135.302H128.617C128.246 135.302 127.916 135.332 127.625 135.393C127.335 135.449 127.091 135.536 126.894 135.653C126.697 135.77 126.547 135.918 126.444 136.096C126.341 136.27 126.289 136.473 126.289 136.708C126.289 136.947 126.343 137.165 126.451 137.362C126.559 137.559 126.721 137.716 126.936 137.833C127.157 137.945 127.426 138.002 127.745 138.002C128.143 138.002 128.495 137.917 128.8 137.748C129.104 137.58 129.346 137.373 129.524 137.13C129.707 136.886 129.805 136.649 129.819 136.42L130.375 137.045C130.342 137.242 130.253 137.46 130.107 137.699C129.962 137.938 129.768 138.168 129.524 138.388C129.285 138.604 128.999 138.784 128.666 138.93C128.338 139.07 127.968 139.141 127.555 139.141C127.039 139.141 126.587 139.04 126.198 138.838C125.814 138.637 125.514 138.367 125.298 138.03C125.087 137.687 124.982 137.305 124.982 136.884C124.982 136.476 125.061 136.117 125.221 135.808C125.38 135.494 125.61 135.234 125.91 135.027C126.21 134.816 126.571 134.657 126.993 134.549C127.414 134.441 127.886 134.387 128.406 134.387H129.918ZM134.333 132.904V139H133.025V131.392H134.263L134.333 132.904ZM134.066 134.908L133.461 134.887C133.466 134.366 133.534 133.886 133.665 133.445C133.796 133 133.991 132.613 134.249 132.285C134.507 131.957 134.828 131.704 135.212 131.526C135.596 131.343 136.042 131.252 136.548 131.252C136.904 131.252 137.232 131.303 137.532 131.406C137.832 131.505 138.093 131.662 138.313 131.877C138.533 132.093 138.704 132.37 138.826 132.707C138.948 133.045 139.009 133.452 139.009 133.93V139H137.708V133.994C137.708 133.595 137.64 133.277 137.504 133.037C137.373 132.798 137.186 132.625 136.942 132.517C136.698 132.405 136.412 132.348 136.084 132.348C135.7 132.348 135.379 132.416 135.121 132.552C134.863 132.688 134.657 132.876 134.502 133.115C134.347 133.354 134.235 133.628 134.164 133.937C134.099 134.242 134.066 134.566 134.066 134.908ZM138.995 134.191L138.123 134.458C138.128 134.041 138.196 133.64 138.327 133.255C138.463 132.871 138.657 132.529 138.911 132.229C139.168 131.929 139.485 131.692 139.86 131.519C140.235 131.341 140.664 131.252 141.146 131.252C141.554 131.252 141.915 131.305 142.229 131.413C142.548 131.521 142.815 131.687 143.031 131.912C143.251 132.133 143.418 132.416 143.53 132.763C143.643 133.11 143.699 133.523 143.699 134.001V139H142.391V133.987C142.391 133.56 142.323 133.23 142.187 132.995C142.056 132.756 141.868 132.59 141.625 132.496C141.386 132.398 141.1 132.348 140.767 132.348C140.481 132.348 140.228 132.398 140.007 132.496C139.787 132.595 139.602 132.73 139.452 132.904C139.302 133.073 139.187 133.267 139.107 133.487C139.032 133.708 138.995 133.942 138.995 134.191ZM148.825 139.141C148.295 139.141 147.814 139.052 147.383 138.873C146.957 138.691 146.589 138.435 146.279 138.107C145.975 137.779 145.74 137.39 145.576 136.94C145.412 136.49 145.33 135.998 145.33 135.463V135.168C145.33 134.549 145.421 133.998 145.604 133.516C145.787 133.028 146.036 132.616 146.35 132.278C146.664 131.941 147.02 131.685 147.418 131.512C147.817 131.338 148.229 131.252 148.656 131.252C149.2 131.252 149.668 131.345 150.062 131.533C150.461 131.72 150.786 131.983 151.039 132.32C151.293 132.653 151.48 133.047 151.602 133.502C151.724 133.952 151.785 134.444 151.785 134.978V135.562H146.104V134.5H150.484V134.402C150.465 134.064 150.395 133.736 150.273 133.417C150.156 133.098 149.968 132.836 149.711 132.63C149.453 132.423 149.101 132.32 148.656 132.32C148.361 132.32 148.089 132.384 147.84 132.51C147.592 132.632 147.379 132.815 147.2 133.059C147.022 133.302 146.884 133.6 146.786 133.952C146.687 134.303 146.638 134.709 146.638 135.168V135.463C146.638 135.824 146.687 136.164 146.786 136.483C146.889 136.797 147.036 137.073 147.229 137.312C147.425 137.552 147.662 137.739 147.939 137.875C148.22 138.011 148.539 138.079 148.895 138.079C149.354 138.079 149.743 137.985 150.062 137.798C150.381 137.61 150.66 137.359 150.899 137.045L151.686 137.671C151.522 137.92 151.314 138.156 151.061 138.381C150.807 138.606 150.496 138.789 150.125 138.93C149.76 139.07 149.326 139.141 148.825 139.141Z" fill="#8D9098"/>
<path d="M39.8652 53.4476L36.2969 63.8H34.1395L38.6348 51.8562H40.0129L39.8652 53.4476ZM42.8512 63.8L39.2746 53.4476L39.1188 51.8562H40.5051L45.0168 63.8H42.8512ZM42.6789 59.3703V61.0027H36.182V59.3703H42.6789ZM48.2945 56.6305V67.2125H46.3176V54.9242H48.1387L48.2945 56.6305ZM54.0777 59.2801V59.4523C54.0777 60.0976 54.0012 60.6965 53.848 61.2488C53.7004 61.7957 53.4789 62.2742 53.1836 62.6844C52.8938 63.0891 52.5355 63.4035 52.109 63.6277C51.6824 63.8519 51.1902 63.9641 50.6324 63.9641C50.0801 63.9641 49.5961 63.8629 49.1805 63.6605C48.7703 63.4527 48.423 63.1601 48.1387 62.7828C47.8543 62.4055 47.6246 61.9625 47.4496 61.4539C47.2801 60.9398 47.1598 60.3766 47.0887 59.7641V59.0996C47.1598 58.4488 47.2801 57.8582 47.4496 57.3277C47.6246 56.7973 47.8543 56.3406 48.1387 55.9578C48.423 55.575 48.7703 55.2797 49.1805 55.0719C49.5906 54.864 50.0691 54.7601 50.616 54.7601C51.1738 54.7601 51.6688 54.8695 52.1008 55.0883C52.5328 55.3015 52.8965 55.6078 53.1918 56.007C53.4871 56.4008 53.7086 56.8765 53.8563 57.4344C54.0039 57.9867 54.0777 58.6019 54.0777 59.2801ZM52.1008 59.4523V59.2801C52.1008 58.8699 52.0625 58.4898 51.9859 58.1398C51.9094 57.7844 51.7891 57.4726 51.625 57.2047C51.4609 56.9367 51.2504 56.7289 50.9934 56.5812C50.7418 56.4281 50.4383 56.3515 50.0828 56.3515C49.7328 56.3515 49.432 56.4117 49.1805 56.532C48.9289 56.6469 48.7184 56.8082 48.5488 57.016C48.3793 57.2238 48.248 57.4672 48.1551 57.7461C48.0621 58.0195 47.9965 58.3176 47.9582 58.6402V60.2316C48.0238 60.6254 48.1359 60.9863 48.2945 61.3144C48.4531 61.6426 48.6773 61.9051 48.9672 62.1019C49.2625 62.2933 49.6398 62.3891 50.0992 62.3891C50.4547 62.3891 50.7582 62.3125 51.0098 62.1594C51.2613 62.0062 51.4664 61.7957 51.625 61.5277C51.7891 61.2543 51.9094 60.9398 51.9859 60.5844C52.0625 60.2289 52.1008 59.8516 52.1008 59.4523ZM58.0445 56.6305V67.2125H56.0676V54.9242H57.8887L58.0445 56.6305ZM63.8277 59.2801V59.4523C63.8277 60.0976 63.7512 60.6965 63.598 61.2488C63.4504 61.7957 63.2289 62.2742 62.9336 62.6844C62.6438 63.0891 62.2855 63.4035 61.859 63.6277C61.4324 63.8519 60.9402 63.9641 60.3824 63.9641C59.8301 63.9641 59.3461 63.8629 58.9305 63.6605C58.5203 63.4527 58.173 63.1601 57.8887 62.7828C57.6043 62.4055 57.3746 61.9625 57.1996 61.4539C57.0301 60.9398 56.9098 60.3766 56.8387 59.7641V59.0996C56.9098 58.4488 57.0301 57.8582 57.1996 57.3277C57.3746 56.7973 57.6043 56.3406 57.8887 55.9578C58.173 55.575 58.5203 55.2797 58.9305 55.0719C59.3406 54.864 59.8191 54.7601 60.366 54.7601C60.9238 54.7601 61.4188 54.8695 61.8508 55.0883C62.2828 55.3015 62.6465 55.6078 62.9418 56.007C63.2371 56.4008 63.4586 56.8765 63.6063 57.4344C63.7539 57.9867 63.8277 58.6019 63.8277 59.2801ZM61.8508 59.4523V59.2801C61.8508 58.8699 61.8125 58.4898 61.7359 58.1398C61.6594 57.7844 61.5391 57.4726 61.375 57.2047C61.2109 56.9367 61.0004 56.7289 60.7434 56.5812C60.4918 56.4281 60.1883 56.3515 59.8328 56.3515C59.4828 56.3515 59.182 56.4117 58.9305 56.532C58.6789 56.6469 58.4684 56.8082 58.2988 57.016C58.1293 57.2238 57.998 57.4672 57.9051 57.7461C57.8121 58.0195 57.7465 58.3176 57.7082 58.6402V60.2316C57.7738 60.6254 57.8859 60.9863 58.0445 61.3144C58.2031 61.6426 58.4273 61.9051 58.7172 62.1019C59.0125 62.2933 59.3898 62.3891 59.8492 62.3891C60.2047 62.3891 60.5082 62.3125 60.7598 62.1594C61.0113 62.0062 61.2164 61.7957 61.375 61.5277C61.5391 61.2543 61.6594 60.9398 61.7359 60.5844C61.8125 60.2289 61.8508 59.8516 61.8508 59.4523ZM65.432 59.4605V59.2719C65.432 58.632 65.525 58.0387 65.7109 57.4918C65.8969 56.9394 66.1648 56.4609 66.5148 56.0562C66.8703 55.6461 67.3023 55.3289 67.8109 55.1047C68.325 54.875 68.9047 54.7601 69.55 54.7601C70.2008 54.7601 70.7805 54.875 71.2891 55.1047C71.8031 55.3289 72.2379 55.6461 72.5934 56.0562C72.9488 56.4609 73.2195 56.9394 73.4055 57.4918C73.5914 58.0387 73.6844 58.632 73.6844 59.2719V59.4605C73.6844 60.1004 73.5914 60.6937 73.4055 61.2406C73.2195 61.7875 72.9488 62.266 72.5934 62.6762C72.2379 63.0808 71.8059 63.398 71.2973 63.6277C70.7887 63.8519 70.2117 63.9641 69.5664 63.9641C68.9156 63.9641 68.3332 63.8519 67.8191 63.6277C67.3106 63.398 66.8785 63.0808 66.5231 62.6762C66.1676 62.266 65.8969 61.7875 65.7109 61.2406C65.525 60.6937 65.432 60.1004 65.432 59.4605ZM67.409 59.2719V59.4605C67.409 59.8598 67.45 60.2371 67.532 60.5926C67.6141 60.948 67.7426 61.2598 67.9176 61.5277C68.0926 61.7957 68.3168 62.0062 68.5902 62.1594C68.8637 62.3125 69.1891 62.3891 69.5664 62.3891C69.9328 62.3891 70.25 62.3125 70.518 62.1594C70.7914 62.0062 71.0156 61.7957 71.1906 61.5277C71.3656 61.2598 71.4941 60.948 71.5762 60.5926C71.6637 60.2371 71.7074 59.8598 71.7074 59.4605V59.2719C71.7074 58.8781 71.6637 58.5062 71.5762 58.1562C71.4941 57.8008 71.3629 57.4863 71.1824 57.2129C71.0074 56.9394 70.7832 56.7262 70.5098 56.573C70.2418 56.4144 69.9219 56.3351 69.55 56.3351C69.1781 56.3351 68.8555 56.4144 68.582 56.573C68.3141 56.7262 68.0926 56.9394 67.9176 57.2129C67.7426 57.4863 67.6141 57.8008 67.532 58.1562C67.45 58.5062 67.409 58.8781 67.409 59.2719ZM77.7578 54.9242V63.8H75.7727V54.9242H77.7578ZM75.6414 52.5945C75.6414 52.2937 75.7398 52.0449 75.9367 51.848C76.1391 51.6457 76.418 51.5445 76.7734 51.5445C77.1234 51.5445 77.3996 51.6457 77.602 51.848C77.8043 52.0449 77.9055 52.2937 77.9055 52.5945C77.9055 52.8898 77.8043 53.1359 77.602 53.3328C77.3996 53.5297 77.1234 53.6281 76.7734 53.6281C76.418 53.6281 76.1391 53.5297 75.9367 53.3328C75.7398 53.1359 75.6414 52.8898 75.6414 52.5945ZM82.184 56.8191V63.8H80.207V54.9242H82.0691L82.184 56.8191ZM81.8313 59.034L81.1914 59.0258C81.1969 58.3969 81.2844 57.8199 81.4539 57.2949C81.6289 56.7699 81.8695 56.3187 82.1758 55.9414C82.4875 55.564 82.8594 55.2742 83.2914 55.0719C83.7234 54.864 84.2047 54.7601 84.7352 54.7601C85.1617 54.7601 85.5473 54.8203 85.8918 54.9406C86.2418 55.0555 86.5398 55.2441 86.7859 55.5066C87.0375 55.7691 87.2289 56.1109 87.3602 56.532C87.4914 56.9476 87.557 57.459 87.557 58.066V63.8H85.5719V58.0578C85.5719 57.6312 85.509 57.2949 85.3832 57.0488C85.2629 56.7973 85.0852 56.6195 84.85 56.5156C84.6203 56.4062 84.3332 56.3515 83.9887 56.3515C83.6496 56.3515 83.3461 56.4226 83.0781 56.5648C82.8102 56.707 82.5832 56.9012 82.3973 57.1473C82.2168 57.3933 82.0773 57.6777 81.9789 58.0004C81.8805 58.323 81.8313 58.6676 81.8313 59.034ZM93.9438 54.9242V56.368H88.9398V54.9242H93.9438ZM90.3836 52.7504H92.3606V61.3473C92.3606 61.6207 92.3988 61.8312 92.4754 61.9789C92.5574 62.1211 92.6695 62.2168 92.8117 62.266C92.9539 62.3152 93.1207 62.3398 93.3121 62.3398C93.4488 62.3398 93.5801 62.3316 93.7059 62.3152C93.8316 62.2988 93.9328 62.2824 94.0094 62.266L94.0176 63.7754C93.8535 63.8246 93.6621 63.8683 93.4434 63.9066C93.2301 63.9449 92.984 63.9641 92.7051 63.9641C92.2512 63.9641 91.8492 63.8848 91.4992 63.7262C91.1492 63.5621 90.8758 63.2969 90.6789 62.9305C90.482 62.5641 90.3836 62.0773 90.3836 61.4703V52.7504ZM97.7465 56.7289V63.8H95.7695V54.9242H97.6316L97.7465 56.7289ZM97.4266 59.034L96.7539 59.0258C96.7539 58.4133 96.8305 57.8473 96.9836 57.3277C97.1367 56.8082 97.3609 56.357 97.6563 55.9742C97.9516 55.5859 98.318 55.2879 98.7555 55.0801C99.1984 54.8668 99.7098 54.7601 100.289 54.7601C100.694 54.7601 101.063 54.8203 101.397 54.9406C101.736 55.0555 102.029 55.2387 102.275 55.4902C102.526 55.7418 102.718 56.0644 102.849 56.4582C102.986 56.8519 103.054 57.3277 103.054 57.8855V63.8H101.077V58.0578C101.077 57.6258 101.011 57.2867 100.88 57.0406C100.754 56.7945 100.571 56.6195 100.33 56.5156C100.095 56.4062 99.8137 56.3515 99.4856 56.3515C99.1137 56.3515 98.7965 56.4226 98.534 56.5648C98.277 56.707 98.0664 56.9012 97.9024 57.1473C97.7383 57.3933 97.618 57.6777 97.5414 58.0004C97.4649 58.323 97.4266 58.6676 97.4266 59.034ZM102.931 58.509L102.004 58.714C102.004 58.1781 102.078 57.6723 102.225 57.1965C102.379 56.7152 102.6 56.2941 102.89 55.9332C103.185 55.5668 103.549 55.2797 103.981 55.0719C104.413 54.864 104.908 54.7601 105.466 54.7601C105.92 54.7601 106.324 54.823 106.68 54.9488C107.041 55.0691 107.347 55.2605 107.598 55.523C107.85 55.7855 108.041 56.1273 108.173 56.5484C108.304 56.964 108.37 57.4672 108.37 58.0578V63.8H106.384V58.0496C106.384 57.6012 106.319 57.2539 106.188 57.0078C106.062 56.7617 105.881 56.5922 105.646 56.4992C105.411 56.4008 105.129 56.3515 104.801 56.3515C104.495 56.3515 104.224 56.409 103.989 56.5238C103.759 56.6332 103.565 56.789 103.407 56.9914C103.248 57.1883 103.128 57.4152 103.046 57.6723C102.969 57.9293 102.931 58.2082 102.931 58.509ZM114.617 63.9641C113.961 63.9641 113.367 63.8574 112.837 63.6441C112.312 63.4254 111.863 63.1219 111.491 62.7336C111.125 62.3453 110.843 61.8887 110.646 61.3637C110.45 60.8387 110.351 60.2726 110.351 59.6656V59.3375C110.351 58.643 110.452 58.014 110.655 57.4508C110.857 56.8875 111.139 56.4062 111.5 56.007C111.861 55.6023 112.287 55.2933 112.779 55.0801C113.271 54.8668 113.805 54.7601 114.379 54.7601C115.013 54.7601 115.568 54.8668 116.044 55.0801C116.52 55.2933 116.914 55.5941 117.225 55.9824C117.543 56.3652 117.778 56.8219 117.931 57.3523C118.089 57.8828 118.169 58.468 118.169 59.1078V59.9527H111.311V58.5336H116.216V58.3777C116.205 58.0223 116.134 57.6887 116.003 57.3769C115.877 57.0652 115.683 56.8137 115.421 56.6223C115.158 56.4308 114.808 56.3351 114.371 56.3351C114.043 56.3351 113.75 56.4062 113.493 56.5484C113.241 56.6851 113.031 56.8848 112.861 57.1473C112.692 57.4098 112.561 57.7269 112.468 58.0988C112.38 58.4652 112.336 58.8781 112.336 59.3375V59.6656C112.336 60.0539 112.388 60.4148 112.492 60.7484C112.602 61.0766 112.76 61.3637 112.968 61.6098C113.176 61.8558 113.427 62.05 113.723 62.1922C114.018 62.3289 114.354 62.3973 114.732 62.3973C115.207 62.3973 115.631 62.3016 116.003 62.1101C116.375 61.9187 116.698 61.648 116.971 61.298L118.013 62.307C117.821 62.5859 117.573 62.8539 117.266 63.1109C116.96 63.3625 116.586 63.5676 116.143 63.7262C115.705 63.8848 115.196 63.9641 114.617 63.9641ZM121.971 56.8191V63.8H119.995V54.9242H121.857L121.971 56.8191ZM121.619 59.034L120.979 59.0258C120.984 58.3969 121.072 57.8199 121.241 57.2949C121.416 56.7699 121.657 56.3187 121.963 55.9414C122.275 55.564 122.647 55.2742 123.079 55.0719C123.511 54.864 123.992 54.7601 124.523 54.7601C124.949 54.7601 125.335 54.8203 125.679 54.9406C126.029 55.0555 126.327 55.2441 126.573 55.5066C126.825 55.7691 127.016 56.1109 127.148 56.532C127.279 56.9476 127.345 57.459 127.345 58.066V63.8H125.359V58.0578C125.359 57.6312 125.296 57.2949 125.171 57.0488C125.05 56.7973 124.873 56.6195 124.638 56.5156C124.408 56.4062 124.121 56.3515 123.776 56.3515C123.437 56.3515 123.134 56.4226 122.866 56.5648C122.598 56.707 122.371 56.9012 122.185 57.1473C122.004 57.3933 121.865 57.6777 121.766 58.0004C121.668 58.323 121.619 58.6676 121.619 59.034ZM133.731 54.9242V56.368H128.727V54.9242H133.731ZM130.171 52.7504H132.148V61.3473C132.148 61.6207 132.186 61.8312 132.263 61.9789C132.345 62.1211 132.457 62.2168 132.599 62.266C132.741 62.3152 132.908 62.3398 133.1 62.3398C133.236 62.3398 133.368 62.3316 133.493 62.3152C133.619 62.2988 133.72 62.2824 133.797 62.266L133.805 63.7754C133.641 63.8246 133.45 63.8683 133.231 63.9066C133.018 63.9449 132.771 63.9641 132.493 63.9641C132.039 63.9641 131.637 63.8848 131.287 63.7262C130.937 63.5621 130.663 63.2969 130.466 62.9305C130.27 62.5641 130.171 62.0773 130.171 61.4703V52.7504Z" fill="#3A3A3A"/>
<rect x="34" y="80.4" width="2.4" height="60" rx="1.2" fill="#21C489"/>
<rect x="198.4" y="30" width="69.6" height="24" rx="12" fill="#F6F5FF"/>
<path d="M254.396 46.499C254.196 46.7291 254.201 47.0904 254.409 47.3135C254.625 47.546 254.976 47.5385 255.183 47.2991L259.204 42.6647C259.398 42.4399 259.398 42.0891 259.203 41.8644L255.183 37.2341C254.975 36.9947 254.625 36.9875 254.409 37.22C254.201 37.4432 254.196 37.8046 254.396 38.0345L258.069 42.2648L254.396 46.499Z" fill="#6C63FF" stroke="#6C63FF" stroke-width="0.3"/>
<path d="M209.465 37.2688H210.777L213.244 43.8489L215.705 37.2688H217.018L213.76 45.8H212.717L209.465 37.2688ZM208.867 37.2688H210.115L210.332 42.9641V45.8H208.867V37.2688ZM216.367 37.2688H217.621V45.8H216.15V42.9641L216.367 37.2688ZM226.17 41.3V41.7688C226.17 42.4133 226.086 42.9915 225.918 43.5032C225.75 44.0149 225.51 44.4504 225.197 44.8098C224.889 45.1692 224.518 45.4446 224.084 45.636C223.65 45.8235 223.17 45.9172 222.643 45.9172C222.119 45.9172 221.641 45.8235 221.207 45.636C220.777 45.4446 220.404 45.1692 220.088 44.8098C219.771 44.4504 219.525 44.0149 219.35 43.5032C219.178 42.9915 219.092 42.4133 219.092 41.7688V41.3C219.092 40.6555 219.178 40.0793 219.35 39.5715C219.521 39.0598 219.764 38.6243 220.076 38.2649C220.393 37.9016 220.766 37.6262 221.195 37.4387C221.629 37.2473 222.107 37.1516 222.631 37.1516C223.158 37.1516 223.639 37.2473 224.072 37.4387C224.506 37.6262 224.879 37.9016 225.191 38.2649C225.504 38.6243 225.744 39.0598 225.912 39.5715C226.084 40.0793 226.17 40.6555 226.17 41.3ZM224.699 41.7688V41.2883C224.699 40.8118 224.652 40.3918 224.559 40.0286C224.469 39.6614 224.334 39.3547 224.154 39.1086C223.979 38.8586 223.762 38.6711 223.504 38.5461C223.246 38.4172 222.955 38.3528 222.631 38.3528C222.307 38.3528 222.018 38.4172 221.764 38.5461C221.51 38.6711 221.293 38.8586 221.113 39.1086C220.938 39.3547 220.803 39.6614 220.709 40.0286C220.615 40.3918 220.568 40.8118 220.568 41.2883V41.7688C220.568 42.2454 220.615 42.6672 220.709 43.0344C220.803 43.4016 220.939 43.7122 221.119 43.9661C221.303 44.2161 221.521 44.4055 221.775 44.5344C222.029 44.6594 222.318 44.7219 222.643 44.7219C222.971 44.7219 223.262 44.6594 223.516 44.5344C223.77 44.4055 223.984 44.2161 224.16 43.9661C224.336 43.7122 224.469 43.4016 224.559 43.0344C224.652 42.6672 224.699 42.2454 224.699 41.7688ZM227.641 37.2688H230.658C231.307 37.2688 231.859 37.3665 232.316 37.5618C232.773 37.7571 233.123 38.0461 233.365 38.429C233.611 38.8079 233.734 39.2766 233.734 39.8352C233.734 40.261 233.656 40.636 233.5 40.9602C233.344 41.2844 233.123 41.5579 232.838 41.7805C232.553 41.9993 232.213 42.1692 231.818 42.2903L231.373 42.5071H228.66L228.648 41.3411H230.682C231.033 41.3411 231.326 41.2786 231.561 41.1536C231.795 41.0286 231.971 40.8586 232.088 40.6438C232.209 40.425 232.27 40.179 232.27 39.9055C232.27 39.6086 232.211 39.3508 232.094 39.1321C231.98 38.9094 231.805 38.7395 231.566 38.6223C231.328 38.5012 231.025 38.4407 230.658 38.4407H229.111V45.8H227.641V37.2688ZM232.51 45.8L230.506 41.968L232.047 41.9622L234.08 45.7239V45.8H232.51ZM240.783 44.634V45.8H236.254V44.634H240.783ZM236.67 37.2688V45.8H235.199V37.2688H236.67ZM240.191 40.8313V41.9797H236.254V40.8313H240.191ZM240.754 37.2688V38.4407H236.254V37.2688H240.754Z" fill="#6C63FF"/>
</g>
<defs>
<filter id="filter0_d_5869_18713" x="0" y="0" width="302" height="178.4" filterUnits="userSpaceOnUse" color-interpolation-filters="sRGB">
<feFlood flood-opacity="0" result="BackgroundImageFix"/>
<feColorMatrix in="SourceAlpha" type="matrix" values="0 0 0 0 0 0 0 0 0 0 0 0 0 0 0 0 0 0 127 0" result="hardAlpha"/>
<feOffset dy="4"/>
<feGaussianBlur stdDeviation="8"/>
<feComposite in2="hardAlpha" operator="out"/>
<feColorMatrix type="matrix" values="0 0 0 0 0 0 0 0 0 0 0 0 0 0 0 0 0 0 0.2 0"/>
<feBlend mode="darken" in2="BackgroundImageFix" result="effect1_dropShadow_5869_18713"/>
<feBlend mode="normal" in="SourceGraphic" in2="effect1_dropShadow_5869_18713" result="shape"/>
</filter>
<filter id="filter1_d_5869_18713" x="6.4" y="6" width="289.2" height="165.6" filterUnits="userSpaceOnUse" color-interpolation-filters="sRGB">
<feFlood flood-opacity="0" result="BackgroundImageFix"/>
<feColorMatrix in="SourceAlpha" type="matrix" values="0 0 0 0 0 0 0 0 0 0 0 0 0 0 0 0 0 0 127 0" result="hardAlpha"/>
<feOffset dy="3.6"/>
<feGaussianBlur stdDeviation="4.8"/>
<feComposite in2="hardAlpha" operator="out"/>
<feColorMatrix type="matrix" values="0 0 0 0 0.274392 0 0 0 0 0.364331 0 0 0 0 0.604167 0 0 0 0.06 0"/>
<feBlend mode="normal" in2="BackgroundImageFix" result="effect1_dropShadow_5869_18713"/>
<feBlend mode="normal" in="SourceGraphic" in2="effect1_dropShadow_5869_18713" result="shape"/>
</filter>
</defs>
</svg>
