<svg width="36" height="36" viewBox="0 0 36 36" fill="#fff" stroke="#fff" xmlns="http://www.w3.org/2000/svg">
<path d="M16.7217 26.889V26.389H16.2217H14.4439C14.105 26.389 13.78 26.2543 13.5404 26.0147C13.3007 25.7751 13.1661 25.4501 13.1661 25.1112C13.1661 24.7723 13.3007 24.4473 13.5404 24.2077C13.78 23.968 14.105 23.8334 14.4439 23.8334H16.2217H16.7217V23.3334V21.5556C16.7217 21.2167 16.8563 20.8917 17.0959 20.6521C17.3356 20.4125 17.6606 20.2778 17.9995 20.2778C18.3383 20.2778 18.6634 20.4125 18.903 20.6521C19.1426 20.8917 19.2772 21.2167 19.2772 21.5556V23.3334V23.8334H19.7772H21.555C21.8939 23.8334 22.2189 23.968 22.4585 24.2077C22.6982 24.4473 22.8328 24.7723 22.8328 25.1112C22.8328 25.4501 22.6982 25.7751 22.4585 26.0147C22.2189 26.2543 21.8939 26.389 21.555 26.389H19.7772H19.2772V26.889V28.6667C19.2772 29.0056 19.1426 29.3306 18.903 29.5703C18.6634 29.8099 18.3383 29.9445 17.9995 29.9445C17.6606 29.9445 17.3356 29.8099 17.0959 29.5703C16.8563 29.3306 16.7217 29.0056 16.7217 28.6667V26.889ZM26.3883 7.3334V7.8334H26.8883H30.4439C31.7258 7.8334 32.9552 8.34263 33.8616 9.24905C34.768 10.1555 35.2772 11.3849 35.2772 12.6667V30.4445C35.2772 31.7264 34.768 32.9558 33.8616 33.8622C32.9552 34.7686 31.7258 35.2778 30.4439 35.2778H5.55501C4.27313 35.2778 3.04376 34.7686 2.13733 33.8622C1.2309 32.9558 0.72168 31.7264 0.72168 30.4445V12.6667C0.72168 11.3849 1.2309 10.1555 2.13733 9.24905C3.04376 8.34263 4.27313 7.8334 5.55501 7.8334H9.11057H9.61057V7.3334V5.55562C9.61057 4.27374 10.1198 3.04437 11.0262 2.13794C11.9326 1.23151 13.162 0.72229 14.4439 0.72229H21.555C22.8369 0.72229 24.0663 1.23151 24.9727 2.13794C25.8791 3.04437 26.3883 4.27374 26.3883 5.55562V7.3334ZM23.3328 7.8334H23.8328V7.3334V5.55562C23.8328 4.95152 23.5928 4.37216 23.1656 3.94499C22.7385 3.51783 22.1591 3.27785 21.555 3.27785H14.4439C13.8398 3.27785 13.2604 3.51783 12.8333 3.94499C12.4061 4.37216 12.1661 4.95152 12.1661 5.55562V7.3334V7.8334H12.6661H23.3328ZM3.77724 17.5001H3.27724V18.0001V30.4445C3.27724 31.0486 3.51722 31.628 3.94438 32.0551C4.37155 32.4823 4.95091 32.7223 5.55501 32.7223H30.4439C31.048 32.7223 31.6274 32.4823 32.0545 32.0551C32.4817 31.628 32.7217 31.0486 32.7217 30.4445V18.0001V17.5001H32.2217H3.77724ZM32.2217 14.9445H32.7217V14.4445V12.6667C32.7217 12.0626 32.4817 11.4833 32.0545 11.0561C31.6274 10.6289 31.048 10.389 30.4439 10.389H5.55501C4.95091 10.389 4.37155 10.6289 3.94438 11.0561L4.29794 11.4097L3.94438 11.0561C3.51722 11.4833 3.27724 12.0626 3.27724 12.6667V14.4445V14.9445H3.77724H32.2217Z"/>
</svg>
