<svg width="42" height="42" viewBox="0 0 42 42" fill="#fff" xmlns="http://www.w3.org/2000/svg">
<path d="M21.4303 22.8837H19.3169V20.7703C19.3169 20.3966 19.1685 20.0383 18.9042 19.774C18.64 19.5098 18.2817 19.3614 17.908 19.3614C17.5343 19.3614 17.176 19.5098 16.9117 19.774C16.6475 20.0383 16.4991 20.3966 16.4991 20.7703V22.8837H14.3857C14.012 22.8837 13.6537 23.0321 13.3895 23.2963C13.1252 23.5605 12.9768 23.9189 12.9768 24.2926C12.9768 24.6662 13.1252 25.0246 13.3895 25.2888C13.6537 25.553 14.012 25.7015 14.3857 25.7015H16.4991V27.8148C16.4991 28.1885 16.6475 28.5469 16.9117 28.8111C17.176 29.0753 17.5343 29.2238 17.908 29.2238C18.2817 29.2238 18.64 29.0753 18.9042 28.8111C19.1685 28.5469 19.3169 28.1885 19.3169 27.8148V25.7015H21.4303C21.8039 25.7015 22.1623 25.553 22.4265 25.2888C22.6907 25.0246 22.8392 24.6662 22.8392 24.2926C22.8392 23.9189 22.6907 23.5605 22.4265 23.2963C22.1623 23.0321 21.8039 22.8837 21.4303 22.8837Z"/>
<path d="M25.6569 1.75H16.499C15.7517 1.75 15.0349 2.04688 14.5065 2.57532C13.9781 3.10376 13.6812 3.82049 13.6812 4.56782V9.54831C12.3202 9.71978 11.0684 10.3818 10.1606 11.4102C9.25278 12.4386 8.75124 13.7629 8.75 15.1346V34.8594C8.75 36.354 9.34375 37.7875 10.4006 38.8444C11.4575 39.9012 12.891 40.495 14.3856 40.495H27.7703C29.2649 40.495 30.6984 39.9012 31.7553 38.8444C32.8122 37.7875 33.4059 36.354 33.4059 34.8594V15.1346C33.4047 13.7629 32.9031 12.4386 31.9953 11.4102C31.0875 10.3818 29.8357 9.71978 28.4747 9.54831V4.56782C28.4747 3.82049 28.1779 3.10376 27.6494 2.57532C27.121 2.04688 26.4042 1.75 25.6569 1.75ZM16.499 4.56782H25.6569V9.499H16.499V4.56782ZM11.5678 17.9525H24.9525V30.6326H11.5678V17.9525ZM30.5881 15.1346V34.8594C30.5881 35.6067 30.2912 36.3234 29.7628 36.8519C29.2343 37.3803 28.5176 37.6772 27.7703 37.6772H14.3856C13.6383 37.6772 12.9216 37.3803 12.3931 36.8519C11.8647 36.3234 11.5678 35.6067 11.5678 34.8594V33.4505H24.9525C25.6998 33.4505 26.4165 33.1536 26.945 32.6251C27.4734 32.0967 27.7703 31.38 27.7703 30.6326V17.9525C27.7703 17.2051 27.4734 16.4884 26.945 15.96C26.4165 15.4315 25.6998 15.1346 24.9525 15.1346H11.5678C11.5678 14.3873 11.8647 13.6706 12.3931 13.1421C12.9216 12.6137 13.6383 12.3168 14.3856 12.3168H27.7703C28.5176 12.3168 29.2343 12.6137 29.7628 13.1421C30.2912 13.6706 30.5881 14.3873 30.5881 15.1346Z"/>
</svg>
