<svg width="44" height="44" viewBox="0 0 44 44" fill="#fff" stroke="#fff" xmlns="http://www.w3.org/2000/svg">
<path d="M35.7217 36.2223V36.7223H36.2217H37.9995C38.3383 36.7223 38.6634 36.8569 38.903 37.0965C39.1426 37.3362 39.2772 37.6612 39.2772 38.0001C39.2772 38.339 39.1426 38.664 38.903 38.9036C38.6634 39.1432 38.3383 39.2778 37.9995 39.2778H5.99946C5.66057 39.2778 5.33556 39.1432 5.09593 38.9036C4.8563 38.664 4.72168 38.339 4.72168 38.0001V6.00007C4.72168 5.66118 4.8563 5.33617 5.09593 5.09654C5.33556 4.85691 5.66057 4.72229 5.99946 4.72229C6.33835 4.72229 6.66335 4.85691 6.90298 5.09654C7.14261 5.33617 7.27724 5.66118 7.27724 6.00007V36.2223V36.7223H7.77724H11.3328H11.8328V36.2223V30.889C11.8328 30.5501 11.9674 30.2251 12.207 29.9854C12.4467 29.7458 12.7717 29.6112 13.1106 29.6112C13.4495 29.6112 13.7745 29.7458 14.0141 29.9854C14.2537 30.2251 14.3883 30.5501 14.3883 30.889V36.2223V36.7223H14.8883H18.4439H18.9439V36.2223V23.7778C18.9439 23.439 19.0785 23.114 19.3182 22.8743C19.5578 22.6347 19.8828 22.5001 20.2217 22.5001C20.5606 22.5001 20.8856 22.6347 21.1252 22.8743C21.3648 23.114 21.4995 23.439 21.4995 23.7778V36.2223V36.7223H21.9995H25.555H26.055V36.2223V16.6667C26.055 16.3278 26.1896 16.0028 26.4293 15.7632C26.6689 15.5236 26.9939 15.389 27.3328 15.389C27.6717 15.389 27.9967 15.5236 28.2363 15.7632C28.4759 16.0028 28.6106 16.3278 28.6106 16.6667V36.2223V36.7223H29.1106H32.6661H33.1661V36.2223V9.55562C33.1661 9.21674 33.3007 8.89173 33.5404 8.6521C33.78 8.41247 34.105 8.27785 34.4439 8.27785C34.7828 8.27785 35.1078 8.41247 35.3474 8.6521C35.5871 8.89173 35.7217 9.21674 35.7217 9.55562V36.2223Z"/>
</svg>
