<svg width="439" height="523" viewBox="0 0 439 523" fill="none" xmlns="http://www.w3.org/2000/svg">
<g clip-path="url(#clip0_5869_21359)">
<path d="M170.029 429.258C161.294 420.253 148.635 415.088 135.299 415.088L134.785 415.089C126.001 415.092 117.373 412.763 109.785 408.34L108.995 407.88L109.631 407.225C113.074 403.664 115.949 399.595 118.156 395.16C116.589 396.62 114.72 397.719 112.681 398.377C110.643 399.035 108.485 399.238 106.359 398.97C104.115 398.702 101.961 397.93 100.058 396.712C98.1554 395.493 96.5533 393.86 95.372 391.934C90.7109 384.374 85.1548 373.646 85.1548 365.474C85.162 358.566 86.6088 351.736 89.403 345.418C92.1971 339.101 96.2772 333.434 101.383 328.78C104.616 325.866 107.198 322.304 108.961 318.326C110.724 314.347 111.629 310.042 111.616 305.691L111.613 305.072C111.612 299.343 112.313 293.636 113.698 288.077L113.839 287.516L114.417 287.536C118.142 287.663 121.87 287.351 125.522 286.606C122.096 286.186 118.745 285.295 115.563 283.958L114.941 283.706L115.152 283.07C129.691 274.07 162.511 278.731 181.56 235.161C197.007 199.831 251.507 266.523 251.507 305.072C251.507 309.005 247.613 314.203 250.528 316.803C282.04 344.908 260.297 362.954 253.442 381.114C251.815 385.423 255.342 390.153 255.342 394.814C255.342 395.605 255.322 396.421 255.282 397.241L255.221 398.5L254.171 397.801C252.092 396.44 250.165 394.86 248.424 393.089C250.231 397.246 251.082 401.756 250.916 406.285C250.749 410.815 249.569 415.25 247.462 419.264C244.159 425.495 240.964 429.956 237.966 432.521C228.36 440.739 215.977 444.978 203.349 444.371C190.721 443.765 178.802 438.359 170.029 429.258H170.029Z" fill="#E6E6E6"/>
<path d="M222.786 523C223.001 523 223.208 522.922 223.371 522.781C223.533 522.641 223.639 522.446 223.669 522.233C223.707 521.967 227.421 495.188 224.085 459.597C221.004 426.729 211.111 379.386 181.475 340.504C181.404 340.411 181.315 340.332 181.214 340.273C181.113 340.214 181.001 340.176 180.885 340.16C180.768 340.144 180.65 340.151 180.537 340.181C180.423 340.211 180.317 340.263 180.224 340.334C180.13 340.406 180.052 340.494 179.993 340.596C179.934 340.697 179.896 340.809 179.88 340.925C179.864 341.041 179.872 341.16 179.902 341.273C179.932 341.386 179.984 341.493 180.055 341.586C209.435 380.132 219.249 427.127 222.308 459.764C225.624 495.147 221.939 521.718 221.901 521.982C221.884 522.109 221.893 522.237 221.929 522.36C221.966 522.483 222.028 522.596 222.112 522.693C222.196 522.789 222.299 522.867 222.416 522.92C222.532 522.973 222.658 523 222.786 523V523Z" fill="#3F3D56"/>
<path d="M198.602 395.349C198.79 395.349 198.974 395.289 199.127 395.179C199.279 395.068 199.393 394.912 199.451 394.733C199.509 394.553 199.509 394.36 199.451 394.181C199.393 394.002 199.28 393.845 199.127 393.735C190.683 388.02 181.56 383.378 171.97 379.914C156.986 374.431 134.202 369.459 110.746 376.922C110.634 376.957 110.53 377.014 110.44 377.09C110.35 377.165 110.276 377.258 110.222 377.362C110.168 377.466 110.135 377.58 110.125 377.697C110.115 377.814 110.128 377.932 110.164 378.043C110.2 378.155 110.257 378.259 110.333 378.349C110.408 378.438 110.501 378.512 110.605 378.566C110.71 378.62 110.824 378.652 110.941 378.662C111.058 378.672 111.175 378.658 111.287 378.622C134.263 371.313 156.634 376.202 171.356 381.59C180.792 384.995 189.768 389.559 198.078 395.178C198.23 395.289 198.413 395.349 198.602 395.349Z" fill="#3F3D56"/>
<path d="M239.452 293.638C239.466 293.45 239.42 293.262 239.32 293.102C239.221 292.942 239.073 292.818 238.899 292.747C238.724 292.675 238.531 292.661 238.348 292.707C238.165 292.752 238.001 292.854 237.88 292.998C231.57 301.006 226.282 309.768 222.135 319.081C215.585 333.626 208.984 355.986 214.741 379.911C214.768 380.025 214.817 380.133 214.886 380.227C214.955 380.322 215.042 380.403 215.142 380.464C215.242 380.525 215.353 380.566 215.469 380.585C215.585 380.603 215.703 380.598 215.817 380.571C215.931 380.544 216.039 380.494 216.134 380.425C216.229 380.356 216.309 380.269 216.37 380.169C216.431 380.069 216.472 379.958 216.49 379.842C216.508 379.726 216.504 379.608 216.476 379.494C210.838 356.059 217.327 334.105 223.763 319.814C227.839 310.65 233.039 302.029 239.244 294.148C239.366 294.004 239.439 293.826 239.452 293.638Z" fill="#3F3D56"/>
<path d="M411.61 522.055H340.557L340.252 521.501C339.344 519.854 338.467 518.109 337.647 516.316C330.328 500.652 327.235 482.737 324.505 466.931L322.45 455.017C322.201 453.574 322.388 452.09 322.988 450.754C323.588 449.418 324.573 448.292 325.817 447.519C327.061 446.746 328.507 446.362 329.971 446.416C331.435 446.47 332.849 446.959 334.033 447.821C344.831 455.676 355.633 463.523 366.44 471.362C370.532 474.339 375.205 477.783 379.68 481.506C380.112 479.409 380.563 477.307 381.015 475.233C381.326 473.802 382.058 472.495 383.116 471.482C384.175 470.468 385.512 469.794 386.956 469.544C388.4 469.294 389.886 469.481 391.223 470.081C392.56 470.68 393.688 471.665 394.462 472.909L402.775 486.261C408.839 496.012 414.19 505.62 413.1 515.983C413.105 516.109 413.096 516.236 413.072 516.36C412.854 518.062 412.449 519.735 411.865 521.349L411.61 522.055Z" fill="#F0F0F0"/>
<path d="M378.507 242.808L364.795 192.069C364.207 189.921 362.799 188.09 360.873 186.971C358.947 185.853 356.659 185.535 354.501 186.089C353.385 186.375 352.339 186.885 351.426 187.589C350.514 188.292 349.754 189.174 349.194 190.181C348.634 191.187 348.284 192.297 348.167 193.443C348.05 194.589 348.167 195.747 348.512 196.846L364.373 249.115L372.671 281.281C371.462 282.203 370.567 283.476 370.107 284.924C369.647 286.373 369.644 287.929 370.099 289.379C370.554 290.83 371.444 292.105 372.649 293.032C373.854 293.959 375.316 294.493 376.835 294.56C378.354 294.628 379.857 294.227 381.14 293.411C382.423 292.595 383.424 291.404 384.006 289.999C384.588 288.595 384.724 287.046 384.395 285.562C384.065 284.078 383.287 282.731 382.165 281.704L378.507 242.808Z" fill="#A0616A"/>
<path d="M263.118 231.88L304.783 199.825C306.544 198.462 307.698 196.461 307.997 194.255C308.295 192.048 307.714 189.813 306.378 188.031C305.687 187.109 304.816 186.337 303.817 185.763C302.818 185.189 301.712 184.824 300.568 184.691C299.423 184.558 298.263 184.66 297.159 184.989C296.055 185.319 295.03 185.87 294.146 186.608L251.888 221.232L225.323 241.188C224.008 240.424 222.49 240.083 220.975 240.211C219.46 240.34 218.021 240.932 216.854 241.906C215.687 242.88 214.848 244.19 214.452 245.658C214.055 247.125 214.121 248.679 214.638 250.109C215.156 251.538 216.101 252.773 217.346 253.647C218.59 254.52 220.074 254.989 221.594 254.991C223.115 254.992 224.599 254.526 225.845 253.654C227.091 252.783 228.039 251.55 228.559 250.121L263.118 231.88Z" fill="#A0616A"/>
<path d="M297.077 239.249L295.24 280.252L352.905 267.724C347.997 251.247 344.659 248.437 348.347 236.971L297.077 239.249Z" fill="#A0616A"/>
<path d="M332.534 164.078H313.319L305.068 178.193L301.136 177.976C299.213 177.87 297.289 178.157 295.481 178.82C293.672 179.482 292.018 180.507 290.619 181.83C289.22 183.153 288.106 184.748 287.345 186.516C286.583 188.285 286.19 190.19 286.19 192.115L291.035 199.622C291.035 199.622 282.371 214.716 294.851 222.142C294.851 222.142 292.625 236.133 294.851 235.982C297.077 235.832 302.204 232.984 297.077 235.832C291.95 238.679 292.332 239.062 292.996 239.725L293.659 240.388L347.57 249.437C347.57 249.437 349.147 238.99 349.317 237.126C349.487 235.262 348.348 239.818 349.487 235.262C350.626 230.706 352.335 232.415 350.626 230.706C348.917 228.998 361.7 207.832 356.448 199.621L364.868 191.411C364.868 183.536 352.215 177.151 344.337 177.151H343.328L332.534 164.078Z" fill="#E6E6E6"/>
<path d="M286.24 506.248H278.462L274.763 476.26L286.24 476.261L286.24 506.248Z" fill="#A0616A"/>
<path d="M262.767 517.719C262.771 518.59 263.118 519.424 263.733 520.04C264.349 520.657 265.183 521.006 266.054 521.011H280.693L281.147 520.071L283.218 515.8L284.02 520.071L284.197 521.011H289.719L289.64 520.065L288.168 502.413L286.242 502.295L277.919 501.802L275.875 501.677V506.948C274.323 508.597 262.149 514.834 262.767 517.719Z" fill="#2F2E41"/>
<path d="M401.818 485.884L395.277 490.09L375.937 466.872L385.59 460.665L401.818 485.884Z" fill="#A0616A"/>
<path d="M388.286 508.226C388.76 508.957 389.504 509.471 390.355 509.656C391.206 509.842 392.096 509.684 392.832 509.218L405.144 501.3L405.017 500.264L404.446 495.552L407.433 498.71L408.09 499.404L412.734 496.418L412.156 495.665L401.364 481.616L399.681 482.558L392.415 486.645L390.628 487.646L393.48 492.078C393.068 494.305 386.204 506.134 388.286 508.226Z" fill="#2F2E41"/>
<path d="M438.096 522.603L197.286 522.838C197.046 522.837 196.816 522.74 196.647 522.57C196.477 522.4 196.382 522.169 196.382 521.929C196.382 521.689 196.477 521.458 196.647 521.288C196.816 521.118 197.046 521.021 197.286 521.02L438.096 520.785C438.336 520.787 438.566 520.883 438.736 521.053C438.905 521.224 439 521.454 439 521.694C439 521.935 438.905 522.165 438.736 522.335C438.566 522.506 438.336 522.602 438.096 522.603Z" fill="#CACACA"/>
<path d="M352.001 263.092C352.001 263.092 315.141 282.583 295.645 269.285C295.645 269.285 291.38 289.934 289.671 291.642C287.962 293.351 285.239 294.095 287.17 296.001C289.101 297.907 290.176 300.481 286.506 303.75C282.835 307.019 279.175 305.981 282.714 309.347C286.253 312.714 272.011 395.29 272.011 395.29C272.011 395.29 274.29 472.083 272.011 474.406C269.732 476.728 266.687 477.248 269.634 480.12C272.581 482.992 272.581 480.765 272.581 484.726V488.687L273.929 492.625H292.426C292.426 492.625 296.89 487.441 292.426 482.939C287.962 478.437 293.784 477.205 295.146 472.98C296.507 468.755 298.786 473.311 296.507 468.755C294.228 464.199 293.134 465.066 293.111 462.07C293.089 459.074 326.7 341.758 326.7 341.758L330.771 406.691L379.737 477.803L394.15 466.997C394.15 466.997 383.656 452.229 386.11 450.199C388.564 448.168 378.878 445.622 381.932 443.332C384.987 441.042 377.634 438.734 380.405 435.699C383.176 432.663 376.587 425.011 372.769 425.011C368.951 425.011 363.593 412.257 363.593 412.257L371.592 311.498L352.001 263.092Z" fill="#2F2E41"/>
<path d="M312.933 122.631C312.672 122.974 310.594 122.789 308.094 122.424C303.153 121.703 302.48 122.56 298.786 125.919C293.435 130.785 296.477 160.464 293.848 166.894L292.998 167.52C294.683 167.198 296.338 166.735 297.945 166.136C298.853 163.272 299.763 160.399 300.68 157.538C301.545 159.764 302.089 162.102 302.295 164.482C303.567 163.981 304.832 162.755 310.147 161.111C312.823 159.296 332.186 157.471 334.675 156.672C340.993 135.184 330.812 126.495 312.933 122.631Z" fill="#2F2E41"/>
<path d="M319.47 155.766C329.689 155.766 337.974 147.484 337.974 137.269C337.974 127.053 329.689 118.771 319.47 118.771C309.251 118.771 300.967 127.053 300.967 137.269C300.967 147.484 309.251 155.766 319.47 155.766Z" fill="#A0616A"/>
<path d="M331.12 121.001C330.077 120.847 329.073 120.495 328.163 119.965C327.711 119.692 327.346 119.298 327.108 118.828C326.87 118.358 326.769 117.83 326.816 117.305C327.044 115.99 328.531 115.206 329.862 115.286C331.189 115.477 332.448 115.986 333.534 116.771C333.415 115.501 332.872 114.308 331.993 113.383C331.114 112.459 329.949 111.856 328.686 111.673C330.438 111.578 332.259 111.495 333.879 112.169C335.499 112.842 336.849 114.51 336.557 116.239C339.28 115.888 341.966 117.785 343.09 120.29C344.214 122.794 343.991 125.735 343.093 128.329C343.004 128.726 342.831 129.1 342.586 129.424C342.34 129.749 342.028 130.017 341.669 130.21C340.753 130.558 339.767 129.974 338.972 129.4C334.824 126.397 331.048 122.911 327.725 119.016" fill="#2F2E41"/>
<path d="M339.187 156.934C338.403 157.303 338.811 158.677 338.201 159.292C337.937 159.552 337.618 159.751 337.267 159.873C337.175 158.726 336.908 157.601 336.475 156.535C336.396 156.342 336.265 156.125 336.059 156.143C335.82 156.171 335.758 156.484 335.752 156.718C335.704 157.876 335.447 159.016 334.994 160.083C334.988 160.095 334.983 160.112 334.977 160.123C334.8 160.118 334.618 160.112 334.447 160.106C333.126 160.055 330.197 156.661 329.548 157.811C331.838 153.751 334.63 147.646 335.057 143.004C335.205 142.033 335.133 141.04 334.846 140.1C334.696 139.632 334.415 139.217 334.037 138.904C333.658 138.591 333.197 138.394 332.71 138.334C332.469 138.323 332.229 138.366 332.007 138.458C331.784 138.551 331.585 138.692 331.424 138.87C331.262 139.048 331.142 139.26 331.072 139.491C331.002 139.721 330.983 139.964 331.018 140.202L330.687 140.157C327.623 137.662 330.266 133.329 326.7 131.614C325.492 131.033 318.098 132.975 316.793 132.634C316.765 131.26 316.485 129.903 315.967 128.63C315.887 128.437 315.756 128.22 315.551 128.237C315.312 128.266 315.249 128.579 315.244 128.812C315.195 129.971 314.939 131.111 314.486 132.178C312.679 131.922 310.839 132.019 309.068 132.463C307.507 132.873 306.026 133.579 304.46 133.955C303.685 134.192 302.871 134.269 302.065 134.181C301.26 134.093 300.482 133.842 299.777 133.442C297.789 132.11 297.441 129.16 298.432 126.984C299.15 125.588 300.119 124.337 301.292 123.294C302.187 122.428 303.115 121.597 304.044 120.766C304.876 120.019 305.707 119.273 306.539 118.527C307.586 117.542 308.702 116.633 309.877 115.805C311.754 114.575 313.863 113.742 316.074 113.356C318.285 112.97 320.552 113.04 322.735 113.561C325.355 114.188 328.859 113.305 331.257 114.53C332.51 115.173 335.285 117.639 336.384 118.516C339.198 120.754 337.294 118.93 340.372 120.224C347.711 123.31 344.466 154.45 339.187 156.934Z" fill="#2F2E41"/>
<path d="M134.316 291.944C197.69 291.944 249.065 240.585 249.065 177.231C249.065 113.877 197.69 62.5178 134.316 62.5178C70.9418 62.5178 19.5669 113.877 19.5669 177.231C19.5669 240.585 70.9418 291.944 134.316 291.944Z" fill="white"/>
<path d="M134.316 293.089C70.4115 293.089 18.4214 241.115 18.4214 177.231C18.4214 113.346 70.4115 61.3727 134.316 61.3727C198.22 61.3727 250.21 113.346 250.21 177.231C250.21 241.115 198.22 293.089 134.316 293.089ZM134.316 63.6628C71.6747 63.6628 20.7122 114.609 20.7122 177.231C20.7122 239.852 71.6747 290.798 134.316 290.798C196.957 290.798 247.919 239.852 247.919 177.231C247.919 114.609 196.957 63.6628 134.316 63.6628Z" fill="#6C63FF"/>
<path d="M118.661 236.934C116.68 236.934 114.726 236.472 112.953 235.586C111.181 234.7 109.64 233.413 108.451 231.828L77.1458 190.1C76.1401 188.76 75.4084 187.234 74.9925 185.611C74.5766 183.988 74.4845 182.299 74.7216 180.64C74.9587 178.981 75.5203 177.385 76.3744 175.943C77.2284 174.502 78.3582 173.242 79.6992 172.237C81.0402 171.231 82.5661 170.5 84.1899 170.084C85.8136 169.668 87.5034 169.576 89.1628 169.813C90.8221 170.05 92.4185 170.612 93.8608 171.465C95.303 172.319 96.563 173.449 97.5687 174.789L118.05 202.087L170.652 123.208C172.531 120.395 175.451 118.442 178.769 117.78C182.088 117.117 185.534 117.799 188.349 119.676C191.165 121.552 193.12 124.47 193.785 127.787C194.449 131.104 193.769 134.549 191.894 137.365L129.283 231.251C128.151 232.949 126.627 234.351 124.841 235.339C123.055 236.327 121.057 236.872 119.017 236.929C118.898 236.931 118.78 236.934 118.661 236.934Z" fill="#6C63FF"/>
<path d="M252.541 69.6851C252.86 67.492 250.562 65.3423 247.409 64.8836C244.255 64.4249 241.44 65.8309 241.12 68.024C240.801 70.2172 243.099 72.367 246.253 72.8257C249.406 73.2844 252.222 71.8783 252.541 69.6851Z" fill="#E6E6E6"/>
<path d="M290.088 66.0226C290.407 63.8294 288.11 61.6797 284.956 61.221C281.802 60.7623 278.987 62.1683 278.668 64.3615C278.349 66.5546 280.646 68.7044 283.8 69.1631C286.954 69.6218 289.769 68.2157 290.088 66.0226Z" fill="#3F3D56"/>
<path d="M242.259 39.2971C242.578 37.1039 240.28 34.9542 237.127 34.4955C233.973 34.0368 231.158 35.4428 230.839 37.636C230.52 39.8291 232.817 41.9789 235.971 42.4376C239.125 42.8963 241.94 41.4902 242.259 39.2971Z" fill="#FF6584"/>
<path d="M225.944 26.8494C225.959 24.836 224.836 23.1952 223.435 23.1847C222.034 23.1741 220.886 24.7977 220.87 26.8111C220.855 28.8245 221.979 30.4653 223.38 30.4758C224.781 30.4864 225.929 28.8628 225.944 26.8494Z" fill="#E6E6E6"/>
<path d="M220.411 3.66486C220.426 1.65145 219.303 0.0106765 217.902 8.52933e-05C216.501 -0.0105059 215.352 1.6131 215.337 3.6265C215.322 5.6399 216.445 7.28068 217.846 7.29127C219.247 7.30186 220.396 5.67826 220.411 3.66486Z" fill="#3F3D56"/>
<path d="M263.436 44.4682C263.452 42.4548 262.328 40.814 260.927 40.8034C259.526 40.7928 258.378 42.4164 258.363 44.4298C258.347 46.4432 259.471 48.084 260.872 48.0946C262.273 48.1052 263.421 46.4816 263.436 44.4682Z" fill="#E6E6E6"/>
<path d="M245.292 53.5248C245.307 51.5114 244.183 49.8706 242.782 49.86C241.381 49.8494 240.233 51.473 240.218 53.4864C240.203 55.4998 241.326 57.1405 242.727 57.1511C244.128 57.1617 245.276 55.5382 245.292 53.5248Z" fill="#FF6584"/>
<path d="M270.55 70.2637C270.565 68.2503 269.442 66.6095 268.041 66.5989C266.64 66.5883 265.492 68.2119 265.476 70.2253C265.461 72.2387 266.585 73.8794 267.986 73.89C269.387 73.9006 270.535 72.2771 270.55 70.2637Z" fill="#3F3D56"/>
<path d="M37.2039 341.443C37.5231 339.25 35.2253 337.101 32.0717 336.642C28.918 336.183 26.1027 337.589 25.7835 339.782C25.4643 341.976 27.7621 344.125 30.9157 344.584C34.0694 345.043 36.8847 343.637 37.2039 341.443Z" fill="#E6E6E6"/>
<path d="M74.7517 337.781C75.0709 335.588 72.7732 333.438 69.6195 332.979C66.4659 332.521 63.6506 333.927 63.3314 336.12C63.0122 338.313 65.3099 340.463 68.4636 340.921C71.6173 341.38 74.4325 339.974 74.7517 337.781Z" fill="#3F3D56"/>
<path d="M26.9222 311.055C27.2414 308.862 24.9436 306.712 21.7899 306.254C18.6363 305.795 15.821 307.201 15.5018 309.394C15.1826 311.587 17.4804 313.737 20.634 314.196C23.7877 314.654 26.603 313.248 26.9222 311.055Z" fill="#FF6584"/>
<path d="M10.6067 298.608C10.6219 296.594 9.49847 294.954 8.0974 294.943C6.69633 294.933 5.54818 296.556 5.53295 298.57C5.51772 300.583 6.64118 302.224 8.04225 302.234C9.44332 302.245 10.5914 300.621 10.6067 298.608Z" fill="#E6E6E6"/>
<path d="M5.07394 275.423C5.08917 273.41 3.96573 271.769 2.56466 271.758C1.16359 271.748 0.0154618 273.371 0.00023212 275.385C-0.0149976 277.398 1.10844 279.039 2.50951 279.049C3.91058 279.06 5.05871 277.436 5.07394 275.423Z" fill="#3F3D56"/>
<path d="M48.0993 316.226C48.1146 314.213 46.9911 312.572 45.59 312.562C44.189 312.551 43.0409 314.175 43.0256 316.188C43.0104 318.202 44.1338 319.842 45.5349 319.853C46.9359 319.864 48.0841 318.24 48.0993 316.226Z" fill="#E6E6E6"/>
<path d="M29.9548 325.283C29.9701 323.27 28.8466 321.629 27.4455 321.618C26.0445 321.608 24.8963 323.231 24.8811 325.245C24.8659 327.258 25.9893 328.899 27.3904 328.91C28.7915 328.92 29.9396 327.297 29.9548 325.283Z" fill="#FF6584"/>
<path d="M55.2126 342.022C55.2278 340.008 54.1044 338.368 52.7033 338.357C51.3022 338.347 50.1541 339.97 50.1389 341.984C50.1237 343.997 51.2471 345.638 52.6482 345.648C54.0492 345.659 55.1974 344.035 55.2126 342.022Z" fill="#3F3D56"/>
</g>
<defs>
<clipPath id="clip0_5869_21359">
<rect width="439" height="523" fill="white"/>
</clipPath>
</defs>
</svg>
