<svg width="26" height="34" viewBox="0 0 26 34" fill="#fff" xmlns="http://www.w3.org/2000/svg">
<path d="M12.9848 0.680064C12.8873 0.682339 12.7914 0.705578 12.7036 0.748202C12.6158 0.790827 12.5383 0.851838 12.4762 0.927095C12.4762 0.927095 9.73271 4.23875 6.98836 8.46952C4.24401 12.7003 1.43945 17.7923 1.43945 21.7587C1.43945 28.1359 6.6222 33.3201 12.9995 33.3201C19.3767 33.3201 24.5595 28.1366 24.5595 21.7601C24.5595 17.7933 21.7549 12.7004 19.0105 8.46952C16.2662 4.23867 13.5227 0.927095 13.5227 0.927095C13.4575 0.848046 13.3752 0.784768 13.2821 0.741991C13.1889 0.699213 13.0873 0.678044 12.9848 0.680064ZM12.9995 2.46108C13.6522 3.26838 15.5914 5.70026 17.8684 9.21061C20.564 13.3664 23.1995 18.4733 23.1995 21.7601C23.1995 27.4018 18.6419 31.9601 12.9995 31.9601C7.35703 31.9601 2.79945 27.4012 2.79945 21.7587C2.79945 18.4723 5.4349 13.3663 8.13055 9.21061C10.4075 5.70033 12.3467 3.26838 12.9995 2.46108Z" stroke-width="2"/>
</svg>
