<svg width="356" height="143" viewBox="0 0 356 143" fill="none" xmlns="http://www.w3.org/2000/svg">
<g filter="url(#filter0_d_5869_18621)">
<g filter="url(#filter1_d_5869_18621)">
<path d="M16 23.7109C16 17.2431 21.2431 12 27.7108 12H328.289C334.757 12 340 17.2431 340 23.7108V111.542C340 118.01 334.757 123.253 328.289 123.253H18.3422C17.0486 123.253 16 122.204 16 120.911V23.7109Z" fill="white"/>
<path d="M27.7108 12.5855H328.289C334.434 12.5855 339.414 17.5665 339.414 23.7108V111.542C339.414 117.686 334.434 122.667 328.289 122.667H18.3422C17.372 122.667 16.5855 121.881 16.5855 120.911V23.7109C16.5855 17.5665 21.5665 12.5855 27.7108 12.5855Z" stroke="black" stroke-opacity="0.05" stroke-width="1.17108"/>
</g>
<path d="M82.2044 39.892L78.722 49.9949H76.6166L81.0036 38.3389H82.3485L82.2044 39.892ZM85.1184 49.9949L81.628 39.892L81.4759 38.3389H82.8288L87.2318 49.9949H85.1184ZM84.9502 45.6719V47.265H78.6099V45.6719H84.9502ZM90.4226 43.0942V49.9949H88.4932V41.333H90.3105L90.4226 43.0942ZM90.1103 45.3437L89.4539 45.3357C89.4539 44.738 89.5286 44.1856 89.678 43.6786C89.8275 43.1716 90.0463 42.7313 90.3345 42.3577C90.6227 41.9787 90.9803 41.6879 91.4072 41.4851C91.8395 41.2769 92.3385 41.1729 92.9042 41.1729C93.2992 41.1729 93.6594 41.2316 93.985 41.349C94.3159 41.4611 94.6014 41.6398 94.8416 41.8853C95.0871 42.1308 95.2739 42.4457 95.4019 42.83C95.5354 43.2142 95.6021 43.6786 95.6021 44.2229V49.9949H93.6728V44.3911C93.6728 43.9694 93.6087 43.6385 93.4806 43.3984C93.3579 43.1582 93.1791 42.9874 92.9443 42.886C92.7148 42.7793 92.4399 42.7259 92.1197 42.7259C91.7568 42.7259 91.4473 42.7953 91.1911 42.9341C90.9402 43.0728 90.7348 43.2623 90.5747 43.5024C90.4145 43.7426 90.2971 44.0201 90.2224 44.335C90.1477 44.6499 90.1103 44.9861 90.1103 45.3437ZM95.482 44.8314L94.5774 45.0315C94.5774 44.5085 94.6494 44.0148 94.7935 43.5505C94.943 43.0808 95.1591 42.6699 95.442 42.3176C95.7302 41.9601 96.0851 41.6799 96.5067 41.4771C96.9283 41.2743 97.4113 41.1729 97.9557 41.1729C98.3987 41.1729 98.7936 41.2342 99.1405 41.357C99.4927 41.4744 99.7916 41.6612 100.037 41.9174C100.283 42.1735 100.469 42.5071 100.597 42.918C100.726 43.3237 100.79 43.8147 100.79 44.3911V49.9949H98.8523V44.383C98.8523 43.9454 98.7883 43.6065 98.6602 43.3664C98.5374 43.1262 98.3613 42.9607 98.1318 42.87C97.9023 42.7739 97.6275 42.7259 97.3072 42.7259C97.0084 42.7259 96.7442 42.782 96.5147 42.894C96.2906 43.0008 96.1011 43.1529 95.9463 43.3503C95.7915 43.5425 95.6741 43.764 95.5941 44.0148C95.5194 44.2656 95.482 44.5378 95.482 44.8314ZM102.699 45.76V45.5759C102.699 44.9514 102.79 44.3724 102.972 43.8387C103.153 43.2996 103.415 42.8327 103.756 42.4377C104.103 42.0374 104.525 41.7279 105.021 41.5091C105.523 41.2849 106.088 41.1729 106.718 41.1729C107.353 41.1729 107.919 41.2849 108.415 41.5091C108.917 41.7279 109.341 42.0374 109.688 42.4377C110.035 42.8327 110.299 43.2996 110.481 43.8387C110.662 44.3724 110.753 44.9514 110.753 45.5759V45.76C110.753 46.3844 110.662 46.9635 110.481 47.4972C110.299 48.0309 110.035 48.4979 109.688 48.8981C109.341 49.2931 108.92 49.6026 108.423 49.8268C107.927 50.0456 107.364 50.155 106.734 50.155C106.099 50.155 105.531 50.0456 105.029 49.8268C104.533 49.6026 104.111 49.2931 103.764 48.8981C103.417 48.4979 103.153 48.0309 102.972 47.4972C102.79 46.9635 102.699 46.3844 102.699 45.76ZM104.629 45.5759V45.76C104.629 46.1496 104.669 46.5178 104.749 46.8647C104.829 47.2116 104.954 47.5158 105.125 47.7774C105.296 48.0389 105.515 48.2443 105.782 48.3938C106.048 48.5432 106.366 48.6179 106.734 48.6179C107.092 48.6179 107.401 48.5432 107.663 48.3938C107.93 48.2443 108.149 48.0389 108.319 47.7774C108.49 47.5158 108.616 47.2116 108.696 46.8647C108.781 46.5178 108.824 46.1496 108.824 45.76V45.5759C108.824 45.1916 108.781 44.8287 108.696 44.4871C108.616 44.1402 108.487 43.8333 108.311 43.5665C108.141 43.2996 107.922 43.0915 107.655 42.9421C107.393 42.7873 107.081 42.7099 106.718 42.7099C106.355 42.7099 106.04 42.7873 105.774 42.9421C105.512 43.0915 105.296 43.2996 105.125 43.5665C104.954 43.8333 104.829 44.1402 104.749 44.4871C104.669 44.8287 104.629 45.1916 104.629 45.5759ZM113.96 41.333L115.609 44.2069L117.29 41.333H119.411L116.786 45.5839L119.516 49.9949H117.394L115.633 47.0008L113.872 49.9949H111.742L114.464 45.5839L111.846 41.333H113.96ZM123.091 41.333V49.9949H121.153V41.333H123.091ZM121.025 39.0594C121.025 38.7659 121.121 38.523 121.313 38.3309C121.511 38.1334 121.783 38.0347 122.13 38.0347C122.471 38.0347 122.741 38.1334 122.938 38.3309C123.136 38.523 123.235 38.7659 123.235 39.0594C123.235 39.3476 123.136 39.5878 122.938 39.7799C122.741 39.972 122.471 40.0681 122.13 40.0681C121.783 40.0681 121.511 39.972 121.313 39.7799C121.121 39.5878 121.025 39.3476 121.025 39.0594ZM129.035 48.6179C129.35 48.6179 129.633 48.5566 129.884 48.4338C130.14 48.3057 130.345 48.1296 130.5 47.9054C130.66 47.6813 130.748 47.4225 130.764 47.1289H132.582C132.571 47.6893 132.405 48.199 132.085 48.658C131.765 49.1169 131.341 49.4825 130.812 49.7547C130.284 50.0216 129.7 50.155 129.059 50.155C128.397 50.155 127.821 50.0429 127.33 49.8188C126.839 49.5893 126.431 49.2744 126.105 48.8741C125.78 48.4738 125.534 48.0122 125.369 47.4892C125.209 46.9661 125.129 46.4058 125.129 45.808V45.5278C125.129 44.9301 125.209 44.3697 125.369 43.8467C125.534 43.3183 125.78 42.854 126.105 42.4537C126.431 42.0535 126.839 41.7412 127.33 41.5171C127.821 41.2876 128.395 41.1729 129.051 41.1729C129.745 41.1729 130.353 41.3116 130.876 41.5891C131.399 41.8613 131.81 42.2429 132.109 42.7339C132.413 43.2196 132.571 43.7853 132.582 44.4311H130.764C130.748 44.1109 130.668 43.8227 130.524 43.5665C130.385 43.305 130.188 43.0968 129.932 42.9421C129.681 42.7873 129.379 42.7099 129.027 42.7099C128.638 42.7099 128.315 42.79 128.059 42.9501C127.802 43.1048 127.602 43.3183 127.458 43.5905C127.314 43.8574 127.21 44.1589 127.146 44.4951C127.087 44.826 127.058 45.1702 127.058 45.5278V45.808C127.058 46.1656 127.087 46.5125 127.146 46.8487C127.205 47.185 127.306 47.4865 127.45 47.7533C127.6 48.0149 127.802 48.2257 128.059 48.3858C128.315 48.5405 128.64 48.6179 129.035 48.6179ZM136.421 41.333V49.9949H134.483V41.333H136.421ZM134.355 39.0594C134.355 38.7659 134.451 38.523 134.644 38.3309C134.841 38.1334 135.113 38.0347 135.46 38.0347C135.802 38.0347 136.071 38.1334 136.269 38.3309C136.466 38.523 136.565 38.7659 136.565 39.0594C136.565 39.3476 136.466 39.5878 136.269 39.7799C136.071 39.972 135.802 40.0681 135.46 40.0681C135.113 40.0681 134.841 39.972 134.644 39.7799C134.451 39.5878 134.355 39.3476 134.355 39.0594ZM140.892 37.6985V49.9949H138.955V37.6985H140.892ZM145.364 37.6985V49.9949H143.427V37.6985H145.364ZM149.836 41.333V49.9949H147.898V41.333H149.836ZM147.77 39.0594C147.77 38.7659 147.866 38.523 148.058 38.3309C148.256 38.1334 148.528 38.0347 148.875 38.0347C149.217 38.0347 149.486 38.1334 149.684 38.3309C149.881 38.523 149.98 38.7659 149.98 39.0594C149.98 39.3476 149.881 39.5878 149.684 39.7799C149.486 39.972 149.217 40.0681 148.875 40.0681C148.528 40.0681 148.256 39.972 148.058 39.7799C147.866 39.5878 147.77 39.3476 147.77 39.0594ZM154.155 43.1822V49.9949H152.226V41.333H154.043L154.155 43.1822ZM153.811 45.3437L153.187 45.3357C153.192 44.7219 153.277 44.1589 153.443 43.6465C153.613 43.1342 153.848 42.6939 154.147 42.3256C154.451 41.9574 154.814 41.6745 155.236 41.4771C155.658 41.2743 156.127 41.1729 156.645 41.1729C157.061 41.1729 157.437 41.2316 157.774 41.349C158.115 41.4611 158.406 41.6452 158.646 41.9014C158.892 42.1575 159.079 42.4911 159.207 42.902C159.335 43.3076 159.399 43.8067 159.399 44.3991V49.9949H157.461V44.3911C157.461 43.9748 157.4 43.6465 157.277 43.4064C157.16 43.1609 156.986 42.9874 156.757 42.886C156.533 42.7793 156.253 42.7259 155.916 42.7259C155.585 42.7259 155.289 42.7953 155.028 42.9341C154.766 43.0728 154.545 43.2623 154.363 43.5024C154.187 43.7426 154.051 44.0201 153.955 44.335C153.859 44.6499 153.811 44.9861 153.811 45.3437Z" fill="#3A3A3A"/>
<rect x="37.5996" y="30.5248" width="28.8" height="24.6999" rx="2.34217" fill="#2E67FF" fill-opacity="0.1"/>
<path d="M45.0515 78.7872V80.1047H38.3544V78.9725L41.6069 75.4249C41.9637 75.0224 42.2451 74.6747 42.4509 74.3819C42.6568 74.0891 42.8009 73.8261 42.8832 73.5928C42.9701 73.3549 43.0136 73.1239 43.0136 72.8998C43.0136 72.5841 42.9541 72.3074 42.8352 72.0695C42.7208 71.827 42.5516 71.6372 42.3274 71.4999C42.1033 71.3581 41.8311 71.2872 41.5108 71.2872C41.1403 71.2872 40.8292 71.3673 40.5776 71.5274C40.326 71.6875 40.1362 71.9094 40.0081 72.193C39.88 72.472 39.816 72.7923 39.816 73.1536H38.1623C38.1623 72.5727 38.2949 72.042 38.5603 71.5617C38.8256 71.0768 39.2099 70.6925 39.7131 70.4089C40.2163 70.1207 40.8224 69.9766 41.5314 69.9766C42.1993 69.9766 42.7666 70.0887 43.2332 70.3129C43.6998 70.537 44.0543 70.8549 44.2967 71.2666C44.5438 71.6784 44.6673 72.1655 44.6673 72.7282C44.6673 73.0393 44.617 73.3481 44.5163 73.6546C44.4157 73.9611 44.2716 74.2676 44.084 74.574C43.9011 74.876 43.6838 75.1802 43.4322 75.4867C43.1806 75.7886 42.9038 76.0951 42.6019 76.4062L40.4404 78.7872H45.0515ZM48.0776 75.4592L46.7601 75.1367L47.3022 70.1139H52.6888V71.5137H48.6746L48.4001 73.9633C48.5557 73.8719 48.7707 73.7826 49.0451 73.6957C49.3196 73.6042 49.633 73.5585 49.9852 73.5585C50.4564 73.5585 50.8772 73.6363 51.2478 73.7918C51.6229 73.9428 51.9408 74.1646 52.2016 74.4574C52.4623 74.7456 52.6613 75.0978 52.7985 75.5141C52.9358 75.9258 53.0044 76.3901 53.0044 76.9071C53.0044 77.3691 52.9358 77.8014 52.7985 78.204C52.6659 78.6065 52.4646 78.961 52.1947 79.2675C51.9248 79.574 51.584 79.8142 51.1723 79.988C50.7652 80.1573 50.2825 80.2419 49.7245 80.2419C49.3082 80.2419 48.9079 80.1824 48.5236 80.0635C48.1439 79.94 47.8031 79.7593 47.5012 79.5214C47.1993 79.279 46.9568 78.9816 46.7739 78.6294C46.5909 78.2726 46.4857 77.8631 46.4582 77.4011H48.0776C48.1188 77.7259 48.208 78.0027 48.3452 78.2314C48.487 78.4556 48.6746 78.6271 48.9079 78.746C49.1412 78.865 49.4111 78.9244 49.7176 78.9244C49.9966 78.9244 50.2368 78.8764 50.4381 78.7803C50.6394 78.6797 50.8063 78.5379 50.939 78.3549C51.0762 78.1674 51.1769 77.9478 51.2409 77.6962C51.3095 77.4446 51.3438 77.1655 51.3438 76.859C51.3438 76.5663 51.305 76.2987 51.2272 76.0562C51.154 75.8137 51.0419 75.6033 50.891 75.4249C50.7446 75.2465 50.5593 75.1093 50.3352 75.0132C50.111 74.9126 49.8525 74.8622 49.5598 74.8622C49.1664 74.8622 48.8644 74.9194 48.654 75.0338C48.4482 75.1482 48.256 75.29 48.0776 75.4592ZM60.8406 74.2721V75.9052C60.8406 76.6875 60.7628 77.3554 60.6073 77.9089C60.4563 78.4578 60.2368 78.9039 59.9486 79.2469C59.6604 79.59 59.315 79.8416 58.9124 80.0017C58.5144 80.1619 58.0684 80.2419 57.5744 80.2419C57.181 80.2419 56.815 80.1916 56.4765 80.091C56.1425 79.9903 55.8406 79.8325 55.5707 79.6175C55.3008 79.4025 55.0698 79.1257 54.8777 78.7872C54.6901 78.4441 54.5437 78.0347 54.4385 77.5589C54.3379 77.0832 54.2876 76.532 54.2876 75.9052V74.2721C54.2876 73.4853 54.3653 72.822 54.5209 72.2822C54.6764 71.7378 54.8983 71.2964 55.1865 70.9579C55.4747 70.6148 55.8177 70.3655 56.2157 70.2099C56.6183 70.0544 57.0666 69.9766 57.5607 69.9766C57.9586 69.9766 58.3246 70.0269 58.6585 70.1276C58.9971 70.2236 59.299 70.3769 59.5643 70.5873C59.8342 70.7978 60.0629 71.0722 60.2505 71.4107C60.4426 71.7447 60.589 72.1495 60.6896 72.6253C60.7903 73.0965 60.8406 73.6454 60.8406 74.2721ZM59.1869 76.1385V74.0251C59.1869 73.6271 59.164 73.2772 59.1183 72.9752C59.0725 72.6687 59.0039 72.4103 58.9124 72.1999C58.8255 71.9849 58.7157 71.811 58.5831 71.6784C58.4504 71.5411 58.2994 71.4428 58.1302 71.3833C57.9609 71.3193 57.7711 71.2872 57.5607 71.2872C57.3045 71.2872 57.0758 71.3376 56.8745 71.4382C56.6732 71.5343 56.5039 71.6898 56.3667 71.9048C56.2295 72.1198 56.1242 72.4034 56.0511 72.7557C55.9824 73.1033 55.9481 73.5265 55.9481 74.0251V76.1385C55.9481 76.5411 55.971 76.8956 56.0167 77.2021C56.0625 77.5086 56.1311 77.7717 56.2226 77.9912C56.3141 78.2062 56.4239 78.3846 56.552 78.5265C56.6846 78.6637 56.8356 78.7643 57.0048 78.8284C57.1787 78.8924 57.3685 78.9244 57.5744 78.9244C57.8351 78.9244 58.0661 78.8741 58.2674 78.7735C58.4687 78.6728 58.638 78.5127 58.7752 78.2932C58.9124 78.069 59.0154 77.7785 59.084 77.4217C59.1526 77.0649 59.1869 76.6372 59.1869 76.1385ZM64.0657 74.1898V80.1047H62.412V72.6802H63.9696L64.0657 74.1898ZM63.7981 76.118L63.2354 76.1111C63.2354 75.5987 63.2994 75.1253 63.4275 74.6907C63.5556 74.2561 63.7432 73.8787 63.9902 73.5585C64.2372 73.2337 64.5437 72.9844 64.9097 72.8106C65.2802 72.6321 65.7079 72.5429 66.1928 72.5429C66.5313 72.5429 66.8401 72.5933 67.1192 72.6939C67.4028 72.79 67.6475 72.9432 67.8534 73.1536C68.0638 73.3641 68.2239 73.634 68.3337 73.9633C68.4481 74.2927 68.5053 74.6907 68.5053 75.1573V80.1047H66.8516V75.3014C66.8516 74.94 66.7967 74.6564 66.6869 74.4505C66.5817 74.2447 66.4284 74.0983 66.2271 74.0114C66.0304 73.9199 65.7948 73.8741 65.5204 73.8741C65.2093 73.8741 64.944 73.9336 64.7244 74.0525C64.5094 74.1715 64.3333 74.3339 64.196 74.5397C64.0588 74.7456 63.9582 74.9835 63.8941 75.2534C63.8301 75.5233 63.7981 75.8115 63.7981 76.118ZM68.4023 75.6788L67.6269 75.8503C67.6269 75.402 67.6887 74.9789 67.8122 74.5809C67.9403 74.1783 68.1256 73.8261 68.368 73.5242C68.6151 73.2177 68.9193 72.9775 69.2806 72.8037C69.642 72.6299 70.056 72.5429 70.5226 72.5429C70.9023 72.5429 71.2408 72.5956 71.5382 72.7008C71.8401 72.8014 72.0963 72.9615 72.3067 73.1811C72.5171 73.4007 72.6772 73.6866 72.787 74.0388C72.8968 74.3865 72.9517 74.8073 72.9517 75.3014V80.1047H71.2912V75.2945C71.2912 74.9194 71.2363 74.6289 71.1265 74.4231C71.0213 74.2172 70.8703 74.0754 70.6736 73.9977C70.4769 73.9153 70.2413 73.8741 69.9668 73.8741C69.7107 73.8741 69.4842 73.9222 69.2875 74.0182C69.0954 74.1097 68.933 74.2401 68.8003 74.4094C68.6677 74.574 68.567 74.7639 68.4984 74.9789C68.4344 75.1939 68.4023 75.4272 68.4023 75.6788ZM79.4087 72.6802H80.9114V79.8988C80.9114 80.5667 80.7696 81.1339 80.486 81.6006C80.2024 82.0672 79.8067 82.4217 79.2989 82.6641C78.7911 82.9112 78.2033 83.0347 77.5354 83.0347C77.2518 83.0347 76.9362 82.9935 76.5885 82.9112C76.2454 82.8288 75.9115 82.6962 75.5867 82.5132C75.2664 82.3348 74.9988 82.0992 74.7838 81.8064L75.5592 80.832C75.8245 81.1477 76.1173 81.3787 76.4375 81.5251C76.7577 81.6715 77.094 81.7447 77.4462 81.7447C77.8259 81.7447 78.1484 81.6737 78.4137 81.5319C78.6836 81.3947 78.8918 81.1911 79.0382 80.9212C79.1845 80.6513 79.2577 80.322 79.2577 79.9331V74.3613L79.4087 72.6802ZM74.3653 76.4748V76.3307C74.3653 75.768 74.4339 75.2557 74.5711 74.7936C74.7084 74.327 74.9051 73.9267 75.1612 73.5928C75.4174 73.2543 75.7285 72.9958 76.0944 72.8174C76.4604 72.6344 76.8744 72.5429 77.3364 72.5429C77.8168 72.5429 78.2262 72.6299 78.5647 72.8037C78.9078 72.9775 79.1937 73.2268 79.4224 73.5516C79.6512 73.8719 79.8296 74.2561 79.9576 74.7044C80.0903 75.1482 80.1887 75.6422 80.2527 76.1866V76.6463C80.1932 77.177 80.0926 77.6619 79.9508 78.101C79.809 78.5402 79.6214 78.9199 79.3881 79.2401C79.1548 79.5603 78.8666 79.8073 78.5235 79.9812C78.185 80.155 77.7847 80.2419 77.3227 80.2419C76.8698 80.2419 76.4604 80.1481 76.0944 79.9606C75.733 79.773 75.422 79.51 75.1612 79.1715C74.9051 78.833 74.7084 78.435 74.5711 77.9775C74.4339 77.5155 74.3653 77.0146 74.3653 76.4748ZM76.019 76.3307V76.4748C76.019 76.8133 76.051 77.1289 76.115 77.4217C76.1836 77.7145 76.2866 77.9729 76.4238 78.1971C76.5656 78.4167 76.744 78.5905 76.959 78.7186C77.1786 78.8421 77.4371 78.9039 77.7344 78.9039C78.1233 78.9039 78.4412 78.8215 78.6882 78.6568C78.9398 78.4921 79.1319 78.2703 79.2646 77.9912C79.4018 77.7076 79.4979 77.392 79.5528 77.0443V75.8023C79.5253 75.5324 79.4682 75.2808 79.3813 75.0475C79.2989 74.8142 79.1868 74.6106 79.045 74.4368C78.9032 74.2584 78.7248 74.1212 78.5098 74.0251C78.2948 73.9245 78.0409 73.8741 77.7481 73.8741C77.4508 73.8741 77.1923 73.9382 76.9728 74.0663C76.7532 74.1944 76.5725 74.3705 76.4307 74.5946C76.2934 74.8188 76.1905 75.0795 76.1219 75.3769C76.0533 75.6742 76.019 75.9922 76.019 76.3307ZM92.1923 76.8522H93.9077C93.8528 77.5063 93.6699 78.0896 93.3588 78.6019C93.0477 79.1097 92.6108 79.51 92.0482 79.8028C91.4855 80.0955 90.8016 80.2419 89.9965 80.2419C89.3789 80.2419 88.8231 80.1321 88.3291 79.9125C87.835 79.6884 87.4119 79.3727 87.0596 78.9656C86.7074 78.5539 86.4375 78.0576 86.2499 77.4766C86.067 76.8956 85.9755 76.246 85.9755 75.5278V74.6976C85.9755 73.9794 86.0692 73.3298 86.2568 72.7488C86.4489 72.1678 86.7234 71.6715 87.0802 71.2598C87.437 70.8435 87.8647 70.5256 88.3634 70.306C88.8666 70.0864 89.4315 69.9766 90.0582 69.9766C90.8542 69.9766 91.5267 70.123 92.0756 70.4158C92.6246 70.7086 93.05 71.1134 93.3519 71.6303C93.6584 72.1472 93.846 72.7397 93.9146 73.4075H92.1991C92.1534 72.9775 92.0527 72.6093 91.8972 72.3028C91.7463 71.9963 91.5221 71.763 91.2248 71.6029C90.9274 71.4382 90.5386 71.3559 90.0582 71.3559C89.6648 71.3559 89.3217 71.429 89.029 71.5754C88.7362 71.7218 88.4915 71.9368 88.2948 72.2204C88.0981 72.5041 87.9494 72.854 87.8487 73.2703C87.7527 73.682 87.7046 74.1532 87.7046 74.6838V75.5278C87.7046 76.031 87.7481 76.4885 87.835 76.9002C87.9265 77.3073 88.0637 77.6573 88.2467 77.9501C88.4343 78.2428 88.6722 78.4693 88.9604 78.6294C89.2486 78.7895 89.5939 78.8695 89.9965 78.8695C90.486 78.8695 90.8817 78.7918 91.1836 78.6362C91.4901 78.4807 91.7211 78.2543 91.8766 77.9569C92.0367 77.655 92.142 77.2868 92.1923 76.8522ZM99.4933 78.6157V75.075C99.4933 74.8096 99.4452 74.5809 99.3492 74.3888C99.2531 74.1966 99.1067 74.048 98.91 73.9428C98.7179 73.8375 98.4754 73.7849 98.1826 73.7849C97.9127 73.7849 97.6794 73.8307 97.4827 73.9222C97.286 74.0137 97.1328 74.1372 97.023 74.2927C96.9132 74.4482 96.8583 74.6244 96.8583 74.8211H95.2115C95.2115 74.5283 95.2824 74.2447 95.4242 73.9702C95.566 73.6957 95.7719 73.451 96.0418 73.236C96.3117 73.021 96.6342 72.8517 97.0093 72.7282C97.3844 72.6047 97.8052 72.5429 98.2719 72.5429C98.8299 72.5429 99.324 72.6367 99.754 72.8243C100.189 73.0118 100.529 73.2955 100.776 73.6751C101.028 74.0503 101.154 74.5214 101.154 75.0887V78.3892C101.154 78.7277 101.177 79.0319 101.222 79.3018C101.273 79.5672 101.344 79.7982 101.435 79.9949V80.1047H99.7403C99.6625 79.9263 99.6008 79.6998 99.555 79.4254C99.5138 79.1463 99.4933 78.8764 99.4933 78.6157ZM99.7334 75.5896L99.7471 76.612H98.56C98.2536 76.612 97.9837 76.6417 97.7504 76.7012C97.517 76.7561 97.3226 76.8384 97.1671 76.9482C97.0116 77.058 96.8949 77.1907 96.8171 77.3462C96.7394 77.5018 96.7005 77.6779 96.7005 77.8746C96.7005 78.0713 96.7462 78.252 96.8377 78.4167C96.9292 78.5768 97.0619 78.7026 97.2357 78.7941C97.4141 78.8856 97.6291 78.9313 97.8807 78.9313C98.2192 78.9313 98.5143 78.8627 98.7659 78.7254C99.0221 78.5836 99.2234 78.4121 99.3697 78.2108C99.5161 78.005 99.5939 77.8105 99.603 77.6276L100.138 78.3618C100.083 78.5493 99.9896 78.7506 99.8569 78.9656C99.7243 79.1806 99.5504 79.3865 99.3354 79.5832C99.125 79.7753 98.8711 79.9331 98.5738 80.0566C98.281 80.1802 97.9425 80.2419 97.5582 80.2419C97.0733 80.2419 96.641 80.1458 96.2613 79.9537C95.8816 79.757 95.5843 79.494 95.3693 79.1646C95.1543 78.8307 95.0468 78.4533 95.0468 78.0324C95.0468 77.639 95.12 77.2913 95.2664 76.9894C95.4173 76.6829 95.6369 76.4267 95.9251 76.2209C96.2179 76.015 96.5747 75.8595 96.9956 75.7543C97.4164 75.6445 97.8967 75.5896 98.4365 75.5896H99.7334ZM104.544 74.1074V82.9592H102.89V72.6802H104.413L104.544 74.1074ZM109.381 76.3238V76.4679C109.381 77.0077 109.317 77.5086 109.189 77.9706C109.065 78.4281 108.88 78.8284 108.633 79.1715C108.391 79.51 108.091 79.773 107.734 79.9606C107.377 80.1481 106.966 80.2419 106.499 80.2419C106.037 80.2419 105.632 80.1573 105.285 79.988C104.942 79.8142 104.651 79.5695 104.413 79.2538C104.175 78.9382 103.983 78.5676 103.837 78.1422C103.695 77.7122 103.594 77.241 103.535 76.7287V76.1729C103.594 75.6285 103.695 75.1344 103.837 74.6907C103.983 74.247 104.175 73.865 104.413 73.5448C104.651 73.2246 104.942 72.9775 105.285 72.8037C105.628 72.6299 106.028 72.5429 106.485 72.5429C106.952 72.5429 107.366 72.6344 107.727 72.8174C108.089 72.9958 108.393 73.252 108.64 73.5859C108.887 73.9153 109.072 74.3133 109.196 74.7799C109.319 75.2419 109.381 75.7566 109.381 76.3238ZM107.727 76.4679V76.3238C107.727 75.9807 107.695 75.6628 107.631 75.37C107.567 75.0727 107.467 74.8119 107.329 74.5878C107.192 74.3636 107.016 74.1898 106.801 74.0663C106.591 73.9382 106.337 73.8741 106.039 73.8741C105.747 73.8741 105.495 73.9245 105.285 74.0251C105.074 74.1212 104.898 74.2561 104.756 74.4299C104.614 74.6038 104.505 74.8073 104.427 75.0406C104.349 75.2694 104.294 75.5187 104.262 75.7886V77.1198C104.317 77.4491 104.411 77.7511 104.544 78.0255C104.676 78.3 104.864 78.5196 105.106 78.6843C105.353 78.8444 105.669 78.9244 106.053 78.9244C106.351 78.9244 106.604 78.8604 106.815 78.7323C107.025 78.6042 107.197 78.4281 107.329 78.204C107.467 77.9752 107.567 77.7122 107.631 77.4148C107.695 77.1175 107.727 76.8019 107.727 76.4679ZM114.953 78.0942C114.953 77.9295 114.912 77.7808 114.829 77.6481C114.747 77.5109 114.589 77.3874 114.356 77.2776C114.127 77.1678 113.789 77.0672 113.34 76.9757C112.947 76.8888 112.586 76.7858 112.256 76.6669C111.931 76.5434 111.652 76.3947 111.419 76.2209C111.186 76.0471 111.005 75.8412 110.877 75.6033C110.749 75.3654 110.685 75.091 110.685 74.7799C110.685 74.478 110.751 74.1921 110.884 73.9222C111.017 73.6523 111.206 73.4144 111.453 73.2085C111.7 73.0027 112 72.8403 112.352 72.7214C112.709 72.6024 113.107 72.5429 113.546 72.5429C114.168 72.5429 114.701 72.6482 115.145 72.8586C115.593 73.0644 115.936 73.3458 116.174 73.7026C116.412 74.0548 116.531 74.4528 116.531 74.8966H114.877C114.877 74.6998 114.827 74.5169 114.727 74.3476C114.63 74.1738 114.484 74.0342 114.287 73.929C114.091 73.8192 113.844 73.7644 113.546 73.7644C113.263 73.7644 113.027 73.8101 112.84 73.9016C112.657 73.9885 112.519 74.1029 112.428 74.2447C112.341 74.3865 112.297 74.542 112.297 74.7113C112.297 74.8348 112.32 74.9469 112.366 75.0475C112.416 75.1436 112.499 75.2328 112.613 75.3151C112.727 75.3929 112.883 75.4661 113.08 75.5347C113.281 75.6033 113.533 75.6697 113.834 75.7337C114.402 75.8526 114.889 76.0059 115.296 76.1934C115.708 76.3764 116.023 76.6143 116.243 76.9071C116.463 77.1953 116.572 77.5612 116.572 78.005C116.572 78.3343 116.501 78.6362 116.36 78.9107C116.222 79.1806 116.021 79.4162 115.756 79.6175C115.49 79.8142 115.173 79.9674 114.802 80.0772C114.436 80.187 114.024 80.2419 113.567 80.2419C112.894 80.2419 112.325 80.123 111.858 79.8851C111.392 79.6426 111.037 79.3339 110.795 78.9588C110.557 78.5791 110.438 78.1857 110.438 77.7785H112.037C112.055 78.085 112.14 78.3298 112.291 78.5127C112.446 78.6911 112.638 78.8215 112.867 78.9039C113.1 78.9816 113.34 79.0205 113.587 79.0205C113.885 79.0205 114.134 78.9816 114.335 78.9039C114.537 78.8215 114.69 78.7117 114.795 78.5745C114.9 78.4327 114.953 78.2726 114.953 78.0942ZM122.487 78.3549V72.6802H124.148V80.1047H122.583L122.487 78.3549ZM122.721 76.811L123.276 76.7973C123.276 77.2959 123.221 77.7556 123.112 78.1765C123.002 78.5928 122.833 78.9565 122.604 79.2675C122.375 79.574 122.082 79.8142 121.726 79.988C121.369 80.1573 120.941 80.2419 120.442 80.2419C120.081 80.2419 119.749 80.1893 119.447 80.0841C119.146 79.9789 118.885 79.8165 118.665 79.5969C118.45 79.3773 118.283 79.0914 118.164 78.7392C118.045 78.3869 117.986 77.9661 117.986 77.4766V72.6802H119.64V77.4903C119.64 77.7602 119.672 77.9867 119.736 78.1696C119.8 78.348 119.887 78.4921 119.996 78.6019C120.106 78.7117 120.234 78.7895 120.381 78.8352C120.527 78.881 120.683 78.9039 120.847 78.9039C121.318 78.9039 121.689 78.8124 121.959 78.6294C122.233 78.4418 122.428 78.1902 122.542 77.8746C122.661 77.5589 122.721 77.2044 122.721 76.811ZM127.613 69.5649V80.1047H125.952V69.5649H127.613ZM132.698 80.2419C132.149 80.2419 131.652 80.1527 131.209 79.9743C130.769 79.7913 130.394 79.5374 130.083 79.2126C129.777 78.8878 129.541 78.5059 129.376 78.0667C129.212 77.6276 129.129 77.1541 129.129 76.6463V76.3718C129.129 75.7909 129.214 75.2648 129.383 74.7936C129.553 74.3224 129.788 73.9199 130.09 73.5859C130.392 73.2474 130.749 72.989 131.161 72.8106C131.572 72.6321 132.018 72.5429 132.499 72.5429C133.029 72.5429 133.494 72.6321 133.892 72.8106C134.29 72.989 134.619 73.2406 134.88 73.5654C135.145 73.8856 135.342 74.2676 135.47 74.7113C135.602 75.155 135.669 75.6445 135.669 76.1797V76.8865H129.932V75.6994H134.036V75.569C134.027 75.2717 133.967 74.9926 133.857 74.7319C133.752 74.4711 133.59 74.2607 133.37 74.1006C133.15 73.9405 132.858 73.8604 132.492 73.8604C132.217 73.8604 131.973 73.9199 131.758 74.0388C131.547 74.1532 131.371 74.3202 131.229 74.5397C131.087 74.7593 130.978 75.0246 130.9 75.3357C130.827 75.6422 130.79 75.9876 130.79 76.3718V76.6463C130.79 76.9711 130.833 77.273 130.92 77.5521C131.012 77.8266 131.145 78.0667 131.318 78.2726C131.492 78.4784 131.703 78.6408 131.95 78.7598C132.197 78.8741 132.478 78.9313 132.794 78.9313C133.192 78.9313 133.546 78.8512 133.857 78.6911C134.168 78.531 134.438 78.3046 134.667 78.0118L135.538 78.8558C135.378 79.0891 135.17 79.3133 134.914 79.5283C134.658 79.7387 134.344 79.9103 133.974 80.0429C133.608 80.1756 133.183 80.2419 132.698 80.2419ZM141.124 78.0942C141.124 77.9295 141.083 77.7808 141 77.6481C140.918 77.5109 140.76 77.3874 140.527 77.2776C140.298 77.1678 139.96 77.0672 139.511 76.9757C139.118 76.8888 138.757 76.7858 138.427 76.6669C138.102 76.5434 137.823 76.3947 137.59 76.2209C137.357 76.0471 137.176 75.8412 137.048 75.6033C136.92 75.3654 136.856 75.091 136.856 74.7799C136.856 74.478 136.922 74.1921 137.055 73.9222C137.188 73.6523 137.377 73.4144 137.624 73.2085C137.871 73.0027 138.171 72.8403 138.523 72.7214C138.88 72.6024 139.278 72.5429 139.717 72.5429C140.339 72.5429 140.872 72.6482 141.316 72.8586C141.764 73.0644 142.107 73.3458 142.345 73.7026C142.583 74.0548 142.702 74.4528 142.702 74.8966H141.048C141.048 74.6998 140.998 74.5169 140.897 74.3476C140.801 74.1738 140.655 74.0342 140.458 73.929C140.262 73.8192 140.015 73.7644 139.717 73.7644C139.434 73.7644 139.198 73.8101 139.01 73.9016C138.828 73.9885 138.69 74.1029 138.599 74.2447C138.512 74.3865 138.468 74.542 138.468 74.7113C138.468 74.8348 138.491 74.9469 138.537 75.0475C138.587 75.1436 138.67 75.2328 138.784 75.3151C138.898 75.3929 139.054 75.4661 139.251 75.5347C139.452 75.6033 139.704 75.6697 140.005 75.7337C140.573 75.8526 141.06 76.0059 141.467 76.1934C141.879 76.3764 142.194 76.6143 142.414 76.9071C142.634 77.1953 142.743 77.5612 142.743 78.005C142.743 78.3343 142.672 78.6362 142.531 78.9107C142.393 79.1806 142.192 79.4162 141.927 79.6175C141.661 79.8142 141.344 79.9674 140.973 80.0772C140.607 80.187 140.195 80.2419 139.738 80.2419C139.065 80.2419 138.496 80.123 138.029 79.8851C137.563 79.6426 137.208 79.3339 136.966 78.9588C136.728 78.5791 136.609 78.1857 136.609 77.7785H138.208C138.226 78.085 138.311 78.3298 138.462 78.5127C138.617 78.6911 138.809 78.8215 139.038 78.9039C139.271 78.9816 139.511 79.0205 139.758 79.0205C140.056 79.0205 140.305 78.9816 140.506 78.9039C140.708 78.8215 140.861 78.7117 140.966 78.5745C141.071 78.4327 141.124 78.2726 141.124 78.0942Z" fill="#3A3A3A"/>
<path d="M42.4509 94.0575V104.048H41.1472V94.0575H42.4509ZM45.6623 94.0575V95.1416H37.9427V94.0575H45.6623ZM50.5479 102.779V98.9568C50.5479 98.664 50.4884 98.4101 50.3695 98.1951C50.2551 97.9756 50.0813 97.8063 49.848 97.6874C49.6147 97.5684 49.3265 97.509 48.9834 97.509C48.6632 97.509 48.3818 97.5639 48.1394 97.6736C47.9015 97.7834 47.7139 97.9275 47.5767 98.1059C47.444 98.2843 47.3777 98.4765 47.3777 98.6823H46.1083C46.1083 98.417 46.1769 98.154 46.3141 97.8932C46.4514 97.6325 46.6481 97.3969 46.9042 97.1865C47.165 96.9715 47.4761 96.8022 47.8374 96.6787C48.2034 96.5506 48.6105 96.4865 49.0589 96.4865C49.5987 96.4865 50.0744 96.578 50.4861 96.761C50.9024 96.944 51.2272 97.2208 51.4605 97.5913C51.6984 97.9573 51.8173 98.417 51.8173 98.9705V102.429C51.8173 102.676 51.8379 102.939 51.8791 103.218C51.9248 103.497 51.9911 103.737 52.0781 103.938V104.048H50.7537C50.6897 103.902 50.6394 103.707 50.6028 103.465C50.5662 103.218 50.5479 102.989 50.5479 102.779ZM50.7674 99.5469L50.7812 100.439H49.498C49.1366 100.439 48.8141 100.469 48.5305 100.528C48.2469 100.583 48.009 100.668 47.8169 100.782C47.6247 100.896 47.4783 101.041 47.3777 101.214C47.2771 101.384 47.2267 101.583 47.2267 101.811C47.2267 102.045 47.2794 102.257 47.3846 102.449C47.4898 102.642 47.6476 102.795 47.858 102.909C48.073 103.019 48.3361 103.074 48.6471 103.074C49.036 103.074 49.3791 102.992 49.6764 102.827C49.9738 102.662 50.2094 102.461 50.3832 102.223C50.5616 101.985 50.6577 101.754 50.6714 101.53L51.2135 102.141C51.1814 102.333 51.0945 102.546 50.9527 102.779C50.8109 103.012 50.6211 103.236 50.3832 103.451C50.1499 103.662 49.8708 103.838 49.546 103.98C49.2258 104.117 48.8644 104.186 48.4619 104.186C47.9587 104.186 47.5172 104.087 47.1375 103.89C46.7624 103.694 46.4697 103.431 46.2592 103.101C46.0534 102.767 45.9504 102.395 45.9504 101.983C45.9504 101.585 46.0282 101.235 46.1838 100.933C46.3393 100.627 46.5634 100.373 46.8562 100.171C47.149 99.9655 47.5012 99.81 47.9129 99.7047C48.3246 99.5995 48.7844 99.5469 49.2922 99.5469H50.7674ZM55.0904 93.5085V104.048H53.8141V93.5085H55.0904ZM59.6261 96.6238L56.3873 100.089L54.5758 101.969L54.4728 100.617L55.7697 99.0666L58.0753 96.6238H59.6261ZM58.4664 104.048L55.8177 100.508L56.4765 99.3754L59.9623 104.048H58.4664ZM63.8804 104.186C63.3635 104.186 62.8946 104.099 62.4737 103.925C62.0574 103.746 61.6983 103.497 61.3964 103.177C61.0991 102.857 60.8703 102.477 60.7102 102.038C60.5501 101.599 60.4701 101.118 60.4701 100.597V100.309C60.4701 99.7047 60.5593 99.1672 60.7377 98.6961C60.9161 98.2203 61.1585 97.8177 61.465 97.4884C61.7715 97.159 62.1192 96.9097 62.508 96.7404C62.8969 96.5712 63.2994 96.4865 63.7157 96.4865C64.2464 96.4865 64.7038 96.578 65.0881 96.761C65.4769 96.944 65.7948 97.2002 66.0419 97.5295C66.2889 97.8543 66.4719 98.2386 66.5908 98.6823C66.7098 99.1215 66.7692 99.6018 66.7692 100.123V100.693H61.2249V99.6567H65.4998V99.5606C65.4815 99.2313 65.4129 98.9111 65.2939 98.6C65.1796 98.2889 64.9966 98.0327 64.745 97.8315C64.4934 97.6302 64.1503 97.5295 63.7157 97.5295C63.4275 97.5295 63.1622 97.5913 62.9197 97.7148C62.6773 97.8338 62.4691 98.0122 62.2953 98.25C62.1215 98.4879 61.9865 98.7784 61.8905 99.1215C61.7944 99.4646 61.7464 99.8603 61.7464 100.309V100.597C61.7464 100.949 61.7944 101.281 61.8905 101.592C61.9911 101.898 62.1352 102.168 62.3228 102.401C62.5149 102.635 62.7459 102.818 63.0158 102.95C63.2903 103.083 63.6013 103.149 63.949 103.149C64.3973 103.149 64.777 103.058 65.0881 102.875C65.3991 102.692 65.6713 102.447 65.9046 102.141L66.6732 102.751C66.513 102.994 66.3095 103.225 66.0625 103.444C65.8154 103.664 65.5112 103.842 65.1498 103.98C64.793 104.117 64.3699 104.186 63.8804 104.186ZM71.4009 100.418V100.261C71.4009 99.7253 71.4787 99.229 71.6343 98.7715C71.7898 98.3095 72.0139 97.9092 72.3067 97.5707C72.5995 97.2276 72.954 96.9623 73.3703 96.7747C73.7866 96.5826 74.2532 96.4865 74.7701 96.4865C75.2916 96.4865 75.7605 96.5826 76.1768 96.7747C76.5976 96.9623 76.9545 97.2276 77.2472 97.5707C77.5446 97.9092 77.771 98.3095 77.9265 98.7715C78.0821 99.229 78.1598 99.7253 78.1598 100.261V100.418C78.1598 100.954 78.0821 101.45 77.9265 101.907C77.771 102.365 77.5446 102.765 77.2472 103.108C76.9545 103.447 76.5999 103.712 76.1836 103.904C75.7719 104.092 75.3053 104.186 74.7838 104.186C74.2623 104.186 73.7934 104.092 73.3772 103.904C72.9609 103.712 72.6041 103.447 72.3067 103.108C72.0139 102.765 71.7898 102.365 71.6343 101.907C71.4787 101.45 71.4009 100.954 71.4009 100.418ZM72.6704 100.261V100.418C72.6704 100.789 72.7138 101.139 72.8008 101.468C72.8877 101.793 73.0181 102.081 73.1919 102.333C73.3703 102.584 73.5922 102.783 73.8575 102.93C74.1228 103.072 74.4316 103.143 74.7838 103.143C75.1315 103.143 75.4357 103.072 75.6964 102.93C75.9618 102.783 76.1814 102.584 76.3552 102.333C76.529 102.081 76.6594 101.793 76.7463 101.468C76.8378 101.139 76.8835 100.789 76.8835 100.418V100.261C76.8835 99.8946 76.8378 99.5492 76.7463 99.2244C76.6594 98.895 76.5267 98.6046 76.3483 98.353C76.1745 98.0968 75.9549 97.8955 75.6896 97.7491C75.4288 97.6027 75.1223 97.5295 74.7701 97.5295C74.4224 97.5295 74.1159 97.6027 73.8506 97.7491C73.5899 97.8955 73.3703 98.0968 73.1919 98.353C73.0181 98.6046 72.8877 98.895 72.8008 99.2244C72.7138 99.5492 72.6704 99.8946 72.6704 100.261ZM81.0212 98.2089V104.048H79.7518V96.6238H80.9526L81.0212 98.2089ZM80.7193 100.055L80.1909 100.034C80.1955 99.5263 80.271 99.0574 80.4174 98.6274C80.5638 98.1929 80.7696 97.8155 81.0349 97.4952C81.3003 97.175 81.6159 96.928 81.9819 96.7542C82.3524 96.5758 82.7618 96.4865 83.2101 96.4865C83.5761 96.4865 83.9055 96.5369 84.1982 96.6375C84.491 96.7336 84.7403 96.8891 84.9462 97.1041C85.1566 97.3191 85.3167 97.5982 85.4265 97.9413C85.5363 98.2798 85.5912 98.6938 85.5912 99.1832V104.048H84.3149V99.1695C84.3149 98.7807 84.2577 98.4696 84.1434 98.2363C84.029 97.9984 83.862 97.8269 83.6424 97.7217C83.4229 97.6119 83.153 97.557 82.8327 97.557C82.5171 97.557 82.2289 97.6233 81.9682 97.756C81.712 97.8886 81.4901 98.0716 81.3026 98.3049C81.1196 98.5382 80.9755 98.8058 80.8703 99.1078C80.7696 99.4051 80.7193 99.7208 80.7193 100.055ZM90.4905 103.143C90.7925 103.143 91.0715 103.081 91.3277 102.957C91.5839 102.834 91.7943 102.664 91.959 102.449C92.1237 102.23 92.2174 101.981 92.2403 101.702H93.448C93.4251 102.141 93.2764 102.55 93.002 102.93C92.7321 103.305 92.3775 103.609 91.9384 103.842C91.4992 104.071 91.0166 104.186 90.4905 104.186C89.9324 104.186 89.4453 104.087 89.029 103.89C88.6173 103.694 88.2742 103.424 87.9997 103.081C87.7298 102.738 87.5262 102.344 87.389 101.901C87.2563 101.452 87.19 100.979 87.19 100.48V100.192C87.19 99.6933 87.2563 99.2221 87.389 98.7784C87.5262 98.3301 87.7298 97.9344 87.9997 97.5913C88.2742 97.2482 88.6173 96.9783 89.029 96.7816C89.4453 96.5849 89.9324 96.4865 90.4905 96.4865C91.0715 96.4865 91.5793 96.6055 92.0139 96.8434C92.4485 97.0767 92.7893 97.3969 93.0363 97.804C93.2879 98.2066 93.4251 98.664 93.448 99.1764H92.2403C92.2174 98.8699 92.1305 98.5931 91.9796 98.3461C91.8332 98.0991 91.6319 97.9024 91.3757 97.756C91.1241 97.605 90.8291 97.5295 90.4905 97.5295C90.1017 97.5295 89.7746 97.6073 89.5093 97.7628C89.2486 97.9138 89.0404 98.1197 88.8849 98.3804C88.7339 98.6366 88.6241 98.9225 88.5555 99.2381C88.4915 99.5492 88.4594 99.8671 88.4594 100.192V100.48C88.4594 100.805 88.4915 101.125 88.5555 101.441C88.6196 101.756 88.7271 102.042 88.878 102.299C89.0335 102.555 89.2417 102.761 89.5024 102.916C89.7678 103.067 90.0971 103.143 90.4905 103.143ZM97.9562 104.186C97.4393 104.186 96.9704 104.099 96.5495 103.925C96.1332 103.746 95.7741 103.497 95.4722 103.177C95.1749 102.857 94.9462 102.477 94.786 102.038C94.6259 101.599 94.5459 101.118 94.5459 100.597V100.309C94.5459 99.7047 94.6351 99.1672 94.8135 98.6961C94.9919 98.2203 95.2343 97.8177 95.5408 97.4884C95.8473 97.159 96.195 96.9097 96.5838 96.7404C96.9727 96.5712 97.3752 96.4865 97.7915 96.4865C98.3222 96.4865 98.7796 96.578 99.1639 96.761C99.5527 96.944 99.8707 97.2002 100.118 97.5295C100.365 97.8543 100.548 98.2386 100.667 98.6823C100.786 99.1215 100.845 99.6018 100.845 100.123V100.693H95.3007V99.6567H99.5756V99.5606C99.5573 99.2313 99.4887 98.9111 99.3697 98.6C99.2554 98.2889 99.0724 98.0327 98.8208 97.8315C98.5692 97.6302 98.2261 97.5295 97.7915 97.5295C97.5033 97.5295 97.238 97.5913 96.9956 97.7148C96.7531 97.8338 96.545 98.0122 96.3711 98.25C96.1973 98.4879 96.0623 98.7784 95.9663 99.1215C95.8702 99.4646 95.8222 99.8603 95.8222 100.309V100.597C95.8222 100.949 95.8702 101.281 95.9663 101.592C96.0669 101.898 96.211 102.168 96.3986 102.401C96.5907 102.635 96.8217 102.818 97.0916 102.95C97.3661 103.083 97.6772 103.149 98.0248 103.149C98.4731 103.149 98.8528 103.058 99.1639 102.875C99.475 102.692 99.7471 102.447 99.9804 102.141L100.749 102.751C100.589 102.994 100.385 103.225 100.138 103.444C99.8912 103.664 99.587 103.842 99.2256 103.98C98.8688 104.117 98.4457 104.186 97.9562 104.186ZM108.784 103.143C109.086 103.143 109.365 103.081 109.621 102.957C109.877 102.834 110.088 102.664 110.253 102.449C110.417 102.23 110.511 101.981 110.534 101.702H111.742C111.719 102.141 111.57 102.55 111.296 102.93C111.026 103.305 110.671 103.609 110.232 103.842C109.793 104.071 109.31 104.186 108.784 104.186C108.226 104.186 107.739 104.087 107.323 103.89C106.911 103.694 106.568 103.424 106.293 103.081C106.023 102.738 105.82 102.344 105.683 101.901C105.55 101.452 105.484 100.979 105.484 100.48V100.192C105.484 99.6933 105.55 99.2221 105.683 98.7784C105.82 98.3301 106.023 97.9344 106.293 97.5913C106.568 97.2482 106.911 96.9783 107.323 96.7816C107.739 96.5849 108.226 96.4865 108.784 96.4865C109.365 96.4865 109.873 96.6055 110.307 96.8434C110.742 97.0767 111.083 97.3969 111.33 97.804C111.581 98.2066 111.719 98.664 111.742 99.1764H110.534C110.511 98.8699 110.424 98.5931 110.273 98.3461C110.127 98.0991 109.926 97.9024 109.669 97.756C109.418 97.605 109.123 97.5295 108.784 97.5295C108.395 97.5295 108.068 97.6073 107.803 97.7628C107.542 97.9138 107.334 98.1197 107.178 98.3804C107.028 98.6366 106.918 98.9225 106.849 99.2381C106.785 99.5492 106.753 99.8671 106.753 100.192V100.48C106.753 100.805 106.785 101.125 106.849 101.441C106.913 101.756 107.021 102.042 107.172 102.299C107.327 102.555 107.535 102.761 107.796 102.916C108.061 103.067 108.391 103.143 108.784 103.143ZM117.547 102.779V98.9568C117.547 98.664 117.487 98.4101 117.368 98.1951C117.254 97.9756 117.08 97.8063 116.847 97.6874C116.614 97.5684 116.325 97.509 115.982 97.509C115.662 97.509 115.381 97.5639 115.138 97.6736C114.9 97.7834 114.713 97.9275 114.576 98.1059C114.443 98.2843 114.377 98.4765 114.377 98.6823H113.107C113.107 98.417 113.176 98.154 113.313 97.8932C113.45 97.6325 113.647 97.3969 113.903 97.1865C114.164 96.9715 114.475 96.8022 114.836 96.6787C115.202 96.5506 115.609 96.4865 116.058 96.4865C116.597 96.4865 117.073 96.578 117.485 96.761C117.901 96.944 118.226 97.2208 118.459 97.5913C118.697 97.9573 118.816 98.417 118.816 98.9705V102.429C118.816 102.676 118.837 102.939 118.878 103.218C118.924 103.497 118.99 103.737 119.077 103.938V104.048H117.753C117.689 103.902 117.638 103.707 117.602 103.465C117.565 103.218 117.547 102.989 117.547 102.779ZM117.766 99.5469L117.78 100.439H116.497C116.135 100.439 115.813 100.469 115.529 100.528C115.246 100.583 115.008 100.668 114.816 100.782C114.624 100.896 114.477 101.041 114.377 101.214C114.276 101.384 114.226 101.583 114.226 101.811C114.226 102.045 114.278 102.257 114.383 102.449C114.489 102.642 114.646 102.795 114.857 102.909C115.072 103.019 115.335 103.074 115.646 103.074C116.035 103.074 116.378 102.992 116.675 102.827C116.973 102.662 117.208 102.461 117.382 102.223C117.56 101.985 117.657 101.754 117.67 101.53L118.212 102.141C118.18 102.333 118.093 102.546 117.952 102.779C117.81 103.012 117.62 103.236 117.382 103.451C117.149 103.662 116.87 103.838 116.545 103.98C116.225 104.117 115.863 104.186 115.461 104.186C114.958 104.186 114.516 104.087 114.136 103.89C113.761 103.694 113.469 103.431 113.258 103.101C113.052 102.767 112.949 102.395 112.949 101.983C112.949 101.585 113.027 101.235 113.183 100.933C113.338 100.627 113.562 100.373 113.855 100.171C114.148 99.9655 114.5 99.81 114.912 99.7047C115.323 99.5995 115.783 99.5469 116.291 99.5469H117.766ZM122.082 98.051V106.903H120.806V96.6238H121.973L122.082 98.051ZM127.085 100.274V100.418C127.085 100.958 127.021 101.459 126.893 101.921C126.764 102.379 126.577 102.777 126.33 103.115C126.087 103.454 125.788 103.717 125.431 103.904C125.074 104.092 124.665 104.186 124.203 104.186C123.732 104.186 123.315 104.108 122.954 103.952C122.592 103.797 122.286 103.57 122.034 103.273C121.783 102.976 121.581 102.619 121.431 102.202C121.284 101.786 121.183 101.317 121.129 100.796V100.027C121.183 99.4783 121.286 98.9865 121.437 98.552C121.588 98.1174 121.787 97.7468 122.034 97.4403C122.286 97.1293 122.59 96.8937 122.947 96.7336C123.304 96.5689 123.715 96.4865 124.182 96.4865C124.649 96.4865 125.063 96.578 125.424 96.761C125.785 96.9394 126.09 97.1956 126.337 97.5295C126.584 97.8635 126.769 98.2638 126.893 98.7304C127.021 99.1924 127.085 99.707 127.085 100.274ZM125.808 100.418V100.274C125.808 99.9037 125.769 99.5561 125.692 99.2313C125.614 98.9019 125.493 98.6137 125.328 98.3667C125.168 98.1151 124.962 97.9184 124.71 97.7766C124.459 97.6302 124.159 97.557 123.812 97.557C123.491 97.557 123.212 97.6119 122.974 97.7217C122.741 97.8315 122.542 97.9801 122.377 98.1677C122.213 98.3507 122.078 98.5611 121.973 98.799C121.872 99.0323 121.796 99.2747 121.746 99.5263V101.304C121.838 101.624 121.966 101.926 122.13 102.209C122.295 102.488 122.515 102.715 122.789 102.889C123.064 103.058 123.409 103.143 123.825 103.143C124.168 103.143 124.463 103.072 124.71 102.93C124.962 102.783 125.168 102.584 125.328 102.333C125.493 102.081 125.614 101.793 125.692 101.468C125.769 101.139 125.808 100.789 125.808 100.418ZM133.027 102.079C133.027 101.896 132.986 101.727 132.903 101.571C132.826 101.411 132.663 101.267 132.416 101.139C132.174 101.006 131.808 100.892 131.318 100.796C130.907 100.709 130.534 100.606 130.2 100.487C129.871 100.368 129.589 100.224 129.356 100.055C129.127 99.8854 128.951 99.6864 128.828 99.4577C128.704 99.229 128.642 98.9614 128.642 98.6549C128.642 98.3621 128.706 98.0854 128.834 97.8246C128.967 97.5639 129.152 97.3328 129.39 97.1316C129.633 96.9303 129.923 96.7725 130.262 96.6581C130.6 96.5437 130.978 96.4865 131.394 96.4865C131.989 96.4865 132.496 96.5918 132.917 96.8022C133.338 97.0126 133.661 97.294 133.885 97.6462C134.109 97.9939 134.221 98.3804 134.221 98.8058H132.952C132.952 98.6 132.89 98.401 132.766 98.2089C132.647 98.0122 132.471 97.8498 132.238 97.7217C132.009 97.5936 131.728 97.5295 131.394 97.5295C131.042 97.5295 130.756 97.5844 130.536 97.6942C130.321 97.7994 130.163 97.9344 130.063 98.0991C129.967 98.2638 129.919 98.4376 129.919 98.6206C129.919 98.7578 129.941 98.8813 129.987 98.9911C130.038 99.0963 130.124 99.1947 130.248 99.2862C130.371 99.3731 130.545 99.4554 130.769 99.5332C130.994 99.611 131.28 99.6887 131.627 99.7665C132.236 99.9037 132.737 100.068 133.13 100.261C133.523 100.453 133.816 100.688 134.008 100.967C134.2 101.246 134.296 101.585 134.296 101.983C134.296 102.308 134.228 102.605 134.091 102.875C133.958 103.145 133.763 103.378 133.507 103.575C133.256 103.767 132.954 103.918 132.602 104.028C132.254 104.133 131.863 104.186 131.428 104.186C130.774 104.186 130.22 104.069 129.768 103.836C129.315 103.602 128.972 103.3 128.738 102.93C128.505 102.559 128.388 102.168 128.388 101.756H129.665C129.683 102.104 129.784 102.381 129.967 102.587C130.15 102.788 130.374 102.932 130.639 103.019C130.904 103.101 131.167 103.143 131.428 103.143C131.776 103.143 132.066 103.097 132.3 103.005C132.538 102.914 132.718 102.788 132.842 102.628C132.965 102.468 133.027 102.285 133.027 102.079ZM140.506 102.333V96.6238H141.783V104.048H140.568L140.506 102.333ZM140.747 100.768L141.275 100.755C141.275 101.249 141.222 101.706 141.117 102.127C141.016 102.543 140.852 102.905 140.623 103.211C140.394 103.518 140.095 103.758 139.724 103.932C139.354 104.101 138.903 104.186 138.372 104.186C138.011 104.186 137.679 104.133 137.377 104.028C137.08 103.922 136.824 103.76 136.609 103.541C136.394 103.321 136.227 103.035 136.108 102.683C135.994 102.331 135.936 101.907 135.936 101.413V96.6238H137.206V101.427C137.206 101.761 137.242 102.038 137.316 102.257C137.393 102.472 137.496 102.644 137.624 102.772C137.757 102.895 137.903 102.982 138.064 103.033C138.228 103.083 138.398 103.108 138.571 103.108C139.111 103.108 139.539 103.005 139.855 102.799C140.17 102.589 140.397 102.308 140.534 101.955C140.676 101.599 140.747 101.203 140.747 100.768ZM145.097 93.5085V104.048H143.821V93.5085H145.097ZM150.216 104.186C149.699 104.186 149.23 104.099 148.809 103.925C148.393 103.746 148.034 103.497 147.732 103.177C147.435 102.857 147.206 102.477 147.046 102.038C146.886 101.599 146.806 101.118 146.806 100.597V100.309C146.806 99.7047 146.895 99.1672 147.073 98.6961C147.252 98.2203 147.494 97.8177 147.8 97.4884C148.107 97.159 148.455 96.9097 148.843 96.7404C149.232 96.5712 149.635 96.4865 150.051 96.4865C150.582 96.4865 151.039 96.578 151.424 96.761C151.812 96.944 152.13 97.2002 152.377 97.5295C152.624 97.8543 152.807 98.2386 152.926 98.6823C153.045 99.1215 153.105 99.6018 153.105 100.123V100.693H147.56V99.6567H151.835V99.5606C151.817 99.2313 151.748 98.9111 151.629 98.6C151.515 98.2889 151.332 98.0327 151.08 97.8315C150.829 97.6302 150.486 97.5295 150.051 97.5295C149.763 97.5295 149.498 97.5913 149.255 97.7148C149.013 97.8338 148.805 98.0122 148.631 98.25C148.457 98.4879 148.322 98.7784 148.226 99.1215C148.13 99.4646 148.082 99.8603 148.082 100.309V100.597C148.082 100.949 148.13 101.281 148.226 101.592C148.327 101.898 148.471 102.168 148.658 102.401C148.85 102.635 149.081 102.818 149.351 102.95C149.626 103.083 149.937 103.149 150.284 103.149C150.733 103.149 151.112 103.058 151.424 102.875C151.735 102.692 152.007 102.447 152.24 102.141L153.009 102.751C152.849 102.994 152.645 103.225 152.398 103.444C152.151 103.664 151.847 103.842 151.485 103.98C151.128 104.117 150.705 104.186 150.216 104.186ZM159.788 98.4284H160.694C161.138 98.4284 161.504 98.3553 161.792 98.2089C162.085 98.0579 162.302 97.8543 162.444 97.5982C162.59 97.3374 162.663 97.0446 162.663 96.7199C162.663 96.3356 162.599 96.0131 162.471 95.7523C162.343 95.4916 162.151 95.2949 161.895 95.1622C161.639 95.0296 161.314 94.9632 160.92 94.9632C160.563 94.9632 160.248 95.0341 159.973 95.1759C159.703 95.3132 159.491 95.5099 159.335 95.7661C159.184 96.0222 159.109 96.3242 159.109 96.6718H157.839C157.839 96.164 157.967 95.702 158.224 95.2857C158.48 94.8694 158.839 94.5378 159.301 94.2908C159.768 94.0437 160.307 93.9202 160.92 93.9202C161.524 93.9202 162.052 94.0277 162.505 94.2427C162.958 94.4532 163.311 94.7688 163.562 95.1897C163.814 95.6059 163.94 96.1252 163.94 96.7473C163.94 96.9989 163.88 97.2688 163.761 97.557C163.647 97.8406 163.466 98.1059 163.219 98.353C162.977 98.6 162.661 98.8036 162.272 98.9637C161.883 99.1192 161.417 99.197 160.872 99.197H159.788V98.4284ZM159.788 99.4714V98.7098H160.872C161.508 98.7098 162.034 98.7853 162.45 98.9362C162.867 99.0872 163.194 99.2885 163.432 99.5401C163.674 99.7917 163.843 100.068 163.94 100.37C164.04 100.668 164.09 100.965 164.09 101.262C164.09 101.729 164.01 102.143 163.85 102.504C163.695 102.866 163.473 103.172 163.185 103.424C162.901 103.675 162.567 103.865 162.183 103.993C161.799 104.121 161.38 104.186 160.927 104.186C160.493 104.186 160.083 104.124 159.699 104C159.319 103.877 158.983 103.698 158.69 103.465C158.397 103.227 158.169 102.937 158.004 102.594C157.839 102.246 157.757 101.85 157.757 101.406H159.026C159.026 101.754 159.102 102.058 159.253 102.319C159.408 102.58 159.628 102.783 159.912 102.93C160.2 103.072 160.538 103.143 160.927 103.143C161.316 103.143 161.65 103.076 161.929 102.944C162.213 102.806 162.43 102.6 162.581 102.326C162.736 102.051 162.814 101.706 162.814 101.29C162.814 100.874 162.727 100.533 162.553 100.267C162.38 99.9975 162.133 99.7985 161.812 99.6704C161.497 99.5378 161.124 99.4714 160.694 99.4714H159.788ZM172.572 96.6238V97.5982H168.557V96.6238H172.572ZM169.916 94.8191H171.186V102.209C171.186 102.461 171.224 102.651 171.302 102.779C171.38 102.907 171.481 102.992 171.604 103.033C171.728 103.074 171.86 103.094 172.002 103.094C172.107 103.094 172.217 103.085 172.332 103.067C172.45 103.044 172.54 103.026 172.599 103.012L172.606 104.048C172.505 104.08 172.373 104.11 172.208 104.137C172.048 104.17 171.853 104.186 171.625 104.186C171.314 104.186 171.028 104.124 170.767 104C170.506 103.877 170.298 103.671 170.143 103.383C169.992 103.09 169.916 102.696 169.916 102.202V94.8191ZM175.44 96.6238V104.048H174.164V96.6238H175.44ZM174.068 94.6544C174.068 94.4486 174.129 94.2748 174.253 94.1329C174.381 93.9911 174.568 93.9202 174.815 93.9202C175.058 93.9202 175.243 93.9911 175.371 94.1329C175.504 94.2748 175.57 94.4486 175.57 94.6544C175.57 94.8511 175.504 95.0204 175.371 95.1622C175.243 95.2995 175.058 95.3681 174.815 95.3681C174.568 95.3681 174.381 95.2995 174.253 95.1622C174.129 95.0204 174.068 94.8511 174.068 94.6544ZM178.74 98.0991V104.048H177.464V96.6238H178.672L178.74 98.0991ZM178.48 100.055L177.89 100.034C177.894 99.5263 177.96 99.0574 178.089 98.6274C178.217 98.1929 178.407 97.8155 178.658 97.4952C178.91 97.175 179.223 96.928 179.598 96.7542C179.973 96.5758 180.408 96.4865 180.902 96.4865C181.25 96.4865 181.57 96.5369 181.863 96.6375C182.155 96.7336 182.409 96.8868 182.624 97.0973C182.839 97.3077 183.006 97.5776 183.125 97.9069C183.244 98.2363 183.304 98.6343 183.304 99.1009V104.048H182.034V99.1627C182.034 98.7738 181.968 98.4628 181.835 98.2295C181.707 97.9962 181.524 97.8269 181.286 97.7217C181.048 97.6119 180.769 97.557 180.449 97.557C180.074 97.557 179.761 97.6233 179.509 97.756C179.257 97.8886 179.056 98.0716 178.905 98.3049C178.754 98.5382 178.644 98.8058 178.576 99.1078C178.512 99.4051 178.48 99.7208 178.48 100.055ZM183.29 99.3548L182.439 99.6155C182.444 99.2084 182.51 98.8173 182.638 98.4422C182.771 98.0671 182.96 97.7331 183.208 97.4403C183.459 97.1476 183.768 96.9166 184.134 96.7473C184.5 96.5735 184.918 96.4865 185.39 96.4865C185.788 96.4865 186.14 96.5392 186.446 96.6444C186.757 96.7496 187.018 96.912 187.229 97.1316C187.444 97.3466 187.606 97.6233 187.716 97.9618C187.826 98.3004 187.88 98.7029 187.88 99.1695V104.048H186.604V99.1558C186.604 98.7395 186.538 98.417 186.405 98.1883C186.277 97.955 186.094 97.7926 185.856 97.7011C185.623 97.605 185.344 97.557 185.019 97.557C184.74 97.557 184.493 97.605 184.278 97.7011C184.063 97.7972 183.882 97.9298 183.736 98.0991C183.589 98.2638 183.477 98.4536 183.4 98.6686C183.326 98.8836 183.29 99.1123 183.29 99.3548ZM192.883 104.186C192.366 104.186 191.897 104.099 191.476 103.925C191.06 103.746 190.701 103.497 190.399 103.177C190.101 102.857 189.873 102.477 189.713 102.038C189.552 101.599 189.472 101.118 189.472 100.597V100.309C189.472 99.7047 189.562 99.1672 189.74 98.6961C189.918 98.2203 190.161 97.8177 190.467 97.4884C190.774 97.159 191.121 96.9097 191.51 96.7404C191.899 96.5712 192.302 96.4865 192.718 96.4865C193.249 96.4865 193.706 96.578 194.09 96.761C194.479 96.944 194.797 97.2002 195.044 97.5295C195.291 97.8543 195.474 98.2386 195.593 98.6823C195.712 99.1215 195.772 99.6018 195.772 100.123V100.693H190.227V99.6567H194.502V99.5606C194.484 99.2313 194.415 98.9111 194.296 98.6C194.182 98.2889 193.999 98.0327 193.747 97.8315C193.496 97.6302 193.153 97.5295 192.718 97.5295C192.43 97.5295 192.164 97.5913 191.922 97.7148C191.68 97.8338 191.471 98.0122 191.298 98.25C191.124 98.4879 190.989 98.7784 190.893 99.1215C190.797 99.4646 190.749 99.8603 190.749 100.309V100.597C190.749 100.949 190.797 101.281 190.893 101.592C190.993 101.898 191.137 102.168 191.325 102.401C191.517 102.635 191.748 102.818 192.018 102.95C192.293 103.083 192.604 103.149 192.951 103.149C193.4 103.149 193.779 103.058 194.09 102.875C194.401 102.692 194.674 102.447 194.907 102.141L195.675 102.751C195.515 102.994 195.312 103.225 195.065 103.444C194.818 103.664 194.514 103.842 194.152 103.98C193.795 104.117 193.372 104.186 192.883 104.186ZM201.577 102.079C201.577 101.896 201.535 101.727 201.453 101.571C201.375 101.411 201.213 101.267 200.966 101.139C200.723 101.006 200.357 100.892 199.868 100.796C199.456 100.709 199.083 100.606 198.75 100.487C198.42 100.368 198.139 100.224 197.906 100.055C197.677 99.8854 197.501 99.6864 197.377 99.4577C197.254 99.229 197.192 98.9614 197.192 98.6549C197.192 98.3621 197.256 98.0854 197.384 97.8246C197.517 97.5639 197.702 97.3328 197.94 97.1316C198.182 96.9303 198.473 96.7725 198.811 96.6581C199.15 96.5437 199.527 96.4865 199.943 96.4865C200.538 96.4865 201.046 96.5918 201.467 96.8022C201.888 97.0126 202.21 97.294 202.434 97.6462C202.658 97.9939 202.771 98.3804 202.771 98.8058H201.501C201.501 98.6 201.439 98.401 201.316 98.2089C201.197 98.0122 201.021 97.8498 200.787 97.7217C200.559 97.5936 200.277 97.5295 199.943 97.5295C199.591 97.5295 199.305 97.5844 199.086 97.6942C198.871 97.7994 198.713 97.9344 198.612 98.0991C198.516 98.2638 198.468 98.4376 198.468 98.6206C198.468 98.7578 198.491 98.8813 198.537 98.9911C198.587 99.0963 198.674 99.1947 198.798 99.2862C198.921 99.3731 199.095 99.4554 199.319 99.5332C199.543 99.611 199.829 99.6887 200.177 99.7665C200.785 99.9037 201.286 100.068 201.68 100.261C202.073 100.453 202.366 100.688 202.558 100.967C202.75 101.246 202.846 101.585 202.846 101.983C202.846 102.308 202.777 102.605 202.64 102.875C202.508 103.145 202.313 103.378 202.057 103.575C201.805 103.767 201.503 103.918 201.151 104.028C200.803 104.133 200.412 104.186 199.978 104.186C199.324 104.186 198.77 104.069 198.317 103.836C197.864 103.602 197.521 103.3 197.288 102.93C197.055 102.559 196.938 102.168 196.938 101.756H198.214C198.233 102.104 198.333 102.381 198.516 102.587C198.699 102.788 198.923 102.932 199.189 103.019C199.454 103.101 199.717 103.143 199.978 103.143C200.325 103.143 200.616 103.097 200.849 103.005C201.087 102.914 201.268 102.788 201.391 102.628C201.515 102.468 201.577 102.285 201.577 102.079ZM212.377 102.779V98.9568C212.377 98.664 212.318 98.4101 212.199 98.1951C212.084 97.9756 211.911 97.8063 211.677 97.6874C211.444 97.5684 211.156 97.509 210.813 97.509C210.492 97.509 210.211 97.5639 209.969 97.6736C209.731 97.7834 209.543 97.9275 209.406 98.1059C209.273 98.2843 209.207 98.4765 209.207 98.6823H207.938C207.938 98.417 208.006 98.154 208.143 97.8932C208.281 97.6325 208.477 97.3969 208.733 97.1865C208.994 96.9715 209.305 96.8022 209.667 96.6787C210.033 96.5506 210.44 96.4865 210.888 96.4865C211.428 96.4865 211.904 96.578 212.315 96.761C212.732 96.944 213.056 97.2208 213.29 97.5913C213.528 97.9573 213.647 98.417 213.647 98.9705V102.429C213.647 102.676 213.667 102.939 213.708 103.218C213.754 103.497 213.82 103.737 213.907 103.938V104.048H212.583C212.519 103.902 212.469 103.707 212.432 103.465C212.395 103.218 212.377 102.989 212.377 102.779ZM212.597 99.5469L212.61 100.439H211.327C210.966 100.439 210.643 100.469 210.36 100.528C210.076 100.583 209.838 100.668 209.646 100.782C209.454 100.896 209.308 101.041 209.207 101.214C209.106 101.384 209.056 101.583 209.056 101.811C209.056 102.045 209.109 102.257 209.214 102.449C209.319 102.642 209.477 102.795 209.687 102.909C209.902 103.019 210.165 103.074 210.476 103.074C210.865 103.074 211.208 102.992 211.506 102.827C211.803 102.662 212.039 102.461 212.212 102.223C212.391 101.985 212.487 101.754 212.501 101.53L213.043 102.141C213.011 102.333 212.924 102.546 212.782 102.779C212.64 103.012 212.45 103.236 212.212 103.451C211.979 103.662 211.7 103.838 211.375 103.98C211.055 104.117 210.694 104.186 210.291 104.186C209.788 104.186 209.346 104.087 208.967 103.89C208.592 103.694 208.299 103.431 208.088 103.101C207.883 102.767 207.78 102.395 207.78 101.983C207.78 101.585 207.857 101.235 208.013 100.933C208.169 100.627 208.393 100.373 208.685 100.171C208.978 99.9655 209.33 99.81 209.742 99.7047C210.154 99.5995 210.614 99.5469 211.121 99.5469H212.597ZM223.809 102.607V93.5085H225.085V104.048H223.919L223.809 102.607ZM218.813 100.418V100.274C218.813 99.707 218.882 99.1924 219.019 98.7304C219.161 98.2638 219.36 97.8635 219.616 97.5295C219.877 97.1956 220.186 96.9394 220.543 96.761C220.904 96.578 221.307 96.4865 221.75 96.4865C222.217 96.4865 222.624 96.5689 222.972 96.7336C223.324 96.8937 223.621 97.1293 223.864 97.4403C224.111 97.7468 224.305 98.1174 224.447 98.552C224.589 98.9865 224.687 99.4783 224.742 100.027V100.659C224.692 101.203 224.593 101.692 224.447 102.127C224.305 102.562 224.111 102.932 223.864 103.239C223.621 103.545 223.324 103.781 222.972 103.945C222.62 104.105 222.208 104.186 221.737 104.186C221.302 104.186 220.904 104.092 220.543 103.904C220.186 103.717 219.877 103.454 219.616 103.115C219.36 102.777 219.161 102.379 219.019 101.921C218.882 101.459 218.813 100.958 218.813 100.418ZM220.09 100.274V100.418C220.09 100.789 220.126 101.137 220.2 101.461C220.277 101.786 220.396 102.072 220.556 102.319C220.717 102.566 220.92 102.761 221.167 102.902C221.414 103.04 221.709 103.108 222.052 103.108C222.473 103.108 222.819 103.019 223.088 102.841C223.363 102.662 223.582 102.427 223.747 102.134C223.912 101.841 224.04 101.523 224.131 101.18V99.5263C224.077 99.2747 223.996 99.0323 223.891 98.799C223.791 98.5611 223.658 98.3507 223.493 98.1677C223.333 97.9801 223.134 97.8315 222.896 97.7217C222.663 97.6119 222.386 97.557 222.066 97.557C221.718 97.557 221.419 97.6302 221.167 97.7766C220.92 97.9184 220.717 98.1151 220.556 98.3667C220.396 98.6137 220.277 98.9019 220.2 99.2313C220.126 99.5561 220.09 99.9037 220.09 100.274ZM231.439 102.779V98.9568C231.439 98.664 231.38 98.4101 231.261 98.1951C231.146 97.9756 230.973 97.8063 230.739 97.6874C230.506 97.5684 230.218 97.509 229.875 97.509C229.555 97.509 229.273 97.5639 229.031 97.6736C228.793 97.7834 228.605 97.9275 228.468 98.1059C228.335 98.2843 228.269 98.4765 228.269 98.6823H227C227 98.417 227.068 98.154 227.206 97.8932C227.343 97.6325 227.539 97.3969 227.796 97.1865C228.056 96.9715 228.367 96.8022 228.729 96.6787C229.095 96.5506 229.502 96.4865 229.95 96.4865C230.49 96.4865 230.966 96.578 231.377 96.761C231.794 96.944 232.119 97.2208 232.352 97.5913C232.59 97.9573 232.709 98.417 232.709 98.9705V102.429C232.709 102.676 232.729 102.939 232.77 103.218C232.816 103.497 232.883 103.737 232.969 103.938V104.048H231.645C231.581 103.902 231.531 103.707 231.494 103.465C231.458 103.218 231.439 102.989 231.439 102.779ZM231.659 99.5469L231.673 100.439H230.389C230.028 100.439 229.705 100.469 229.422 100.528C229.138 100.583 228.9 100.668 228.708 100.782C228.516 100.896 228.37 101.041 228.269 101.214C228.168 101.384 228.118 101.583 228.118 101.811C228.118 102.045 228.171 102.257 228.276 102.449C228.381 102.642 228.539 102.795 228.749 102.909C228.964 103.019 229.227 103.074 229.539 103.074C229.927 103.074 230.27 102.992 230.568 102.827C230.865 102.662 231.101 102.461 231.275 102.223C231.453 101.985 231.549 101.754 231.563 101.53L232.105 102.141C232.073 102.333 231.986 102.546 231.844 102.779C231.702 103.012 231.512 103.236 231.275 103.451C231.041 103.662 230.762 103.838 230.437 103.98C230.117 104.117 229.756 104.186 229.353 104.186C228.85 104.186 228.409 104.087 228.029 103.89C227.654 103.694 227.361 103.431 227.151 103.101C226.945 102.767 226.842 102.395 226.842 101.983C226.842 101.585 226.92 101.235 227.075 100.933C227.231 100.627 227.455 100.373 227.748 100.171C228.04 99.9655 228.393 99.81 228.804 99.7047C229.216 99.5995 229.676 99.5469 230.184 99.5469H231.659ZM236.682 103.28L238.747 96.6238H240.106L237.128 105.194C237.059 105.377 236.968 105.574 236.853 105.784C236.743 105.999 236.602 106.203 236.428 106.395C236.254 106.587 236.044 106.743 235.797 106.862C235.554 106.985 235.264 107.047 234.925 107.047C234.824 107.047 234.696 107.033 234.541 107.006C234.385 106.978 234.275 106.955 234.211 106.937L234.205 105.908C234.241 105.912 234.298 105.917 234.376 105.922C234.458 105.931 234.516 105.935 234.548 105.935C234.836 105.935 235.081 105.896 235.282 105.819C235.483 105.745 235.652 105.62 235.79 105.441C235.931 105.267 236.053 105.027 236.153 104.721L236.682 103.28ZM235.165 96.6238L237.093 102.388L237.423 103.726L236.51 104.192L233.779 96.6238H235.165Z" fill="#8D9098"/>
<g clip-path="url(#clip0_5869_18621)">
<path d="M52.2081 43.6501H51.1936V42.7801C51.1936 42.6263 51.1224 42.4788 50.9956 42.37C50.8687 42.2612 50.6967 42.2001 50.5174 42.2001C50.338 42.2001 50.166 42.2612 50.0392 42.37C49.9123 42.4788 49.8411 42.6263 49.8411 42.7801V43.6501H48.8267C48.6473 43.6501 48.4753 43.7112 48.3485 43.82C48.2216 43.9288 48.1504 44.0763 48.1504 44.2301C48.1504 44.384 48.2216 44.5315 48.3485 44.6402C48.4753 44.749 48.6473 44.8101 48.8267 44.8101H49.8411V45.6801C49.8411 45.8339 49.9123 45.9815 50.0392 46.0902C50.166 46.199 50.338 46.2601 50.5174 46.2601C50.6967 46.2601 50.8687 46.199 50.9956 46.0902C51.1224 45.9815 51.1936 45.8339 51.1936 45.6801V44.8101H52.2081C52.3874 44.8101 52.5594 44.749 52.6863 44.6402C52.8131 44.5315 52.8843 44.384 52.8843 44.2301C52.8843 44.0763 52.8131 43.9288 52.6863 43.82C52.5594 43.7112 52.3874 43.6501 52.2081 43.6501Z" fill="#2E67FF"/>
<path d="M54.2369 34.9501H49.8411C49.4824 34.9501 49.1384 35.0723 48.8847 35.2899C48.6311 35.5074 48.4886 35.8025 48.4886 36.1101V38.1604C47.8353 38.231 47.2344 38.5035 46.7987 38.9269C46.3629 39.3503 46.1222 39.8954 46.1216 40.4601V48.5801C46.1216 49.1954 46.4066 49.7855 46.9139 50.2206C47.4212 50.6556 48.1092 50.9001 48.8267 50.9001H55.2513C55.9688 50.9001 56.6568 50.6556 57.1641 50.2206C57.6714 49.7855 57.9564 49.1954 57.9564 48.5801V40.4601C57.9558 39.8954 57.7151 39.3503 57.2793 38.9269C56.8436 38.5035 56.2427 38.231 55.5895 38.1604V36.1101C55.5895 35.8025 55.447 35.5074 55.1933 35.2899C54.9396 35.0723 54.5956 34.9501 54.2369 34.9501ZM49.8411 36.1101H54.2369V38.1401H49.8411V36.1101ZM47.4741 41.6201H53.8988V46.8401H47.4741V41.6201ZM56.6039 40.4601V48.5801C56.6039 48.8877 56.4614 49.1828 56.2077 49.4003C55.9541 49.6179 55.61 49.7401 55.2513 49.7401H48.8267C48.468 49.7401 48.1239 49.6179 47.8703 49.4003C47.6166 49.1828 47.4741 48.8877 47.4741 48.5801V48.0001H53.8988C54.2575 48.0001 54.6015 47.8779 54.8552 47.6603C55.1088 47.4428 55.2513 47.1477 55.2513 46.8401V41.6201C55.2513 41.3125 55.1088 41.0174 54.8552 40.7999C54.6015 40.5823 54.2575 40.4601 53.8988 40.4601H47.4741C47.4741 40.1525 47.6166 39.8574 47.8703 39.6399C48.1239 39.4223 48.468 39.3001 48.8267 39.3001H55.2513C55.61 39.3001 55.9541 39.4223 56.2077 39.6399C56.4614 39.8574 56.6039 40.1525 56.6039 40.4601Z" fill="#2E67FF"/>
</g>
<rect x="234.883" y="30.525" width="83.52" height="24.6999" rx="12.3499" fill="#F6F5FF"/>
<path d="M302.112 47.5022C301.873 47.7386 301.88 48.1179 302.127 48.3459C302.37 48.5703 302.756 48.5641 302.991 48.3315L307.815 43.5619C308.048 43.3313 308.048 42.9629 307.815 42.7325L302.991 37.9671C302.755 37.7345 302.37 37.7285 302.127 37.953C301.88 38.1811 301.873 38.5604 302.112 38.7967L306.517 43.1475L302.112 47.5022Z" fill="#6C63FF" stroke="#6C63FF" stroke-width="0.292771"/>
<path d="M247.832 38.1393H249.113L251.52 44.5608L253.922 38.1393H255.203L252.023 46.465H251.005L247.832 38.1393ZM247.249 38.1393H248.467L248.678 43.6974V46.465H247.249V38.1393ZM254.568 38.1393H255.792V46.465H254.356V43.6974L254.568 38.1393ZM264.134 42.0734V42.5309C264.134 43.1599 264.052 43.724 263.889 44.2234C263.725 44.7228 263.49 45.1479 263.185 45.4986C262.884 45.8493 262.522 46.1181 262.099 46.3049C261.676 46.4878 261.207 46.5793 260.692 46.5793C260.181 46.5793 259.714 46.4878 259.291 46.3049C258.872 46.1181 258.508 45.8493 258.199 45.4986C257.89 45.1479 257.65 44.7228 257.478 44.2234C257.311 43.724 257.227 43.1599 257.227 42.5309V42.0734C257.227 41.4444 257.311 40.8821 257.478 40.3865C257.646 39.8871 257.883 39.4621 258.188 39.1114C258.496 38.7569 258.86 38.4881 259.28 38.3051C259.703 38.1183 260.17 38.0249 260.681 38.0249C261.195 38.0249 261.664 38.1183 262.087 38.3051C262.51 38.4881 262.875 38.7569 263.18 39.1114C263.484 39.4621 263.719 39.8871 263.883 40.3865C264.051 40.8821 264.134 41.4444 264.134 42.0734ZM262.699 42.5309V42.062C262.699 41.5969 262.653 41.1871 262.562 40.8326C262.474 40.4742 262.343 40.175 262.167 39.9348C261.996 39.6908 261.784 39.5078 261.533 39.3859C261.281 39.2601 260.997 39.1972 260.681 39.1972C260.364 39.1972 260.082 39.2601 259.834 39.3859C259.587 39.5078 259.375 39.6908 259.2 39.9348C259.028 40.175 258.897 40.4742 258.805 40.8326C258.714 41.1871 258.668 41.5969 258.668 42.062V42.5309C258.668 42.9959 258.714 43.4076 258.805 43.766C258.897 44.1243 259.03 44.4274 259.205 44.6752C259.385 44.9191 259.598 45.104 259.846 45.2298C260.094 45.3518 260.376 45.4128 260.692 45.4128C261.012 45.4128 261.296 45.3518 261.544 45.2298C261.792 45.104 262.002 44.9191 262.173 44.6752C262.345 44.4274 262.474 44.1243 262.562 43.766C262.653 43.4076 262.699 42.9959 262.699 42.5309ZM265.57 38.1393H268.515C269.147 38.1393 269.687 38.2346 270.133 38.4252C270.579 38.6158 270.92 38.8979 271.156 39.2715C271.397 39.6413 271.517 40.0987 271.517 40.6439C271.517 41.0594 271.44 41.4253 271.288 41.7417C271.135 42.0582 270.92 42.325 270.642 42.5423C270.363 42.7558 270.032 42.9216 269.647 43.0398L269.212 43.2513H266.565L266.553 42.1134H268.537C268.881 42.1134 269.166 42.0524 269.395 41.9304C269.624 41.8085 269.795 41.6426 269.91 41.433C270.028 41.2195 270.087 40.9793 270.087 40.7125C270.087 40.4227 270.03 40.1711 269.916 39.9577C269.805 39.7404 269.633 39.5746 269.401 39.4602C269.168 39.342 268.873 39.2829 268.515 39.2829H267.005V46.465H265.57V38.1393ZM270.322 46.465L268.366 42.7253L269.87 42.7196L271.854 46.3906V46.465H270.322ZM278.396 45.327V46.465H273.975V45.327H278.396ZM274.381 38.1393V46.465H272.946V38.1393H274.381ZM277.818 41.6159V42.7367H273.975V41.6159H277.818ZM278.367 38.1393V39.2829H273.975V38.1393H278.367Z" fill="#6C63FF"/>
</g>
<defs>
<filter id="filter0_d_5869_18621" x="0.385541" y="0.289156" width="355.229" height="142.482" filterUnits="userSpaceOnUse" color-interpolation-filters="sRGB">
<feFlood flood-opacity="0" result="BackgroundImageFix"/>
<feColorMatrix in="SourceAlpha" type="matrix" values="0 0 0 0 0 0 0 0 0 0 0 0 0 0 0 0 0 0 127 0" result="hardAlpha"/>
<feOffset dy="3.90361"/>
<feGaussianBlur stdDeviation="7.80723"/>
<feComposite in2="hardAlpha" operator="out"/>
<feColorMatrix type="matrix" values="0 0 0 0 0 0 0 0 0 0 0 0 0 0 0 0 0 0 0.2 0"/>
<feBlend mode="darken" in2="BackgroundImageFix" result="effect1_dropShadow_5869_18621"/>
<feBlend mode="normal" in="SourceGraphic" in2="effect1_dropShadow_5869_18621" result="shape"/>
</filter>
<filter id="filter1_d_5869_18621" x="6.63132" y="6.14458" width="342.737" height="129.99" filterUnits="userSpaceOnUse" color-interpolation-filters="sRGB">
<feFlood flood-opacity="0" result="BackgroundImageFix"/>
<feColorMatrix in="SourceAlpha" type="matrix" values="0 0 0 0 0 0 0 0 0 0 0 0 0 0 0 0 0 0 127 0" result="hardAlpha"/>
<feOffset dy="3.51325"/>
<feGaussianBlur stdDeviation="4.68434"/>
<feComposite in2="hardAlpha" operator="out"/>
<feColorMatrix type="matrix" values="0 0 0 0 0.274392 0 0 0 0 0.364331 0 0 0 0 0.604167 0 0 0 0.06 0"/>
<feBlend mode="normal" in2="BackgroundImageFix" result="effect1_dropShadow_5869_18621"/>
<feBlend mode="normal" in="SourceGraphic" in2="effect1_dropShadow_5869_18621" result="shape"/>
</filter>
<clipPath id="clip0_5869_18621">
<rect width="20.16" height="17.2899" fill="white" transform="translate(41.9219 34.2297)"/>
</clipPath>
</defs>
</svg>
