<svg width="36" height="33" viewBox="0 0 36 33" stroke="#fff" fill="#fff" xmlns="http://www.w3.org/2000/svg">
<path d="M25.875 0.25C20.8088 0.25 18 3.9075 18 3.9075C18 3.9075 15.1912 0.25 10.125 0.25C4.8085 0.25 0.5 4.5585 0.5 9.875C0.5 17.1742 9.096 24.2477 11.4918 26.4825C14.2515 29.055 18 32.3625 18 32.3625C18 32.3625 21.7485 29.055 24.5082 26.4825C26.904 24.2477 35.5 17.1742 35.5 9.875C35.5 4.5585 31.1915 0.25 25.875 0.25ZM22.9193 23.1925C22.6095 23.4725 22.34 23.7157 22.1213 23.9205C20.807 25.1455 19.253 26.5507 18 27.6742C16.747 26.5507 15.1913 25.1437 13.8788 23.9205C13.6583 23.7157 13.3888 23.4707 13.0808 23.1925C10.5957 20.9473 4 14.9832 4 9.875C4 6.4975 6.7475 3.75 10.125 3.75C13.3223 3.75 15.1755 5.98125 15.2245 6.039L18 9L20.7755 6.039C20.793 6.01625 22.6777 3.75 25.875 3.75C29.2525 3.75 32 6.4975 32 9.875C32 14.9832 25.4042 20.9473 22.9193 23.1925Z" stroke-width="0"/>
</svg>
