<svg width="1404" height="676" viewBox="0 0 1404 676" fill="none" xmlns="http://www.w3.org/2000/svg">
<path d="M835.202 169.264L864.162 218.597H806.242L835.202 169.264Z" fill="white" fill-opacity="0.05"/>
<path d="M1148.8 590.164L1159.84 609.017H1137.76L1148.8 590.164Z" fill="white" fill-opacity="0.05"/>
<path d="M379.2 400.06L404.16 442.48H354.24L379.2 400.06Z" fill="white" fill-opacity="0.05"/>
<path d="M516.802 268.086L527.842 286.94H505.762L516.802 268.086Z" fill="white" fill-opacity="0.05"/>
<path d="M518.401 409.486L543.361 451.906H493.441L518.401 409.486Z" fill="white" fill-opacity="0.05"/>
<path d="M828.801 461.333L848.161 494.326H809.441L828.801 461.333Z" fill="white" fill-opacity="0.05"/>
<path d="M1012.8 572.882L1018.4 582.309H1007.2L1012.8 572.882Z" fill="white" fill-opacity="0.05"/>
<path d="M1376 555.6L1402.4 600.376H1349.6L1376 555.6Z" fill="white" fill-opacity="0.05"/>
<path d="M192.001 643.582L207.201 669.505H176.801L192.001 643.582Z" fill="white" fill-opacity="0.05"/>
<path d="M612.801 10.4243L626.721 33.991H598.881L612.801 10.4243Z" fill="white" fill-opacity="0.05"/>
<path d="M798.4 59.1287L801.12 63.842H795.68L798.4 59.1287Z" fill="white" fill-opacity="0.05"/>
<path d="M1280 139.255L1302.24 176.962H1257.76L1280 139.255Z" fill="white" fill-opacity="0.05"/>
<path d="M814.4 341.929L840.8 386.705H788L814.4 341.929Z" fill="white" fill-opacity="0.05"/>
<path d="M1059.2 87.4087L1070.24 106.262H1048.16L1059.2 87.4087Z" fill="white" fill-opacity="0.05"/>
<path d="M123.202 37.1331L146.722 77.1964H99.6816L123.202 37.1331Z" fill="white" fill-opacity="0.05"/>
<path d="M734.401 271.229L757.921 311.292H710.881L734.401 271.229Z" fill="white" fill-opacity="0.05"/>
<path d="M350.402 200.529L354.562 207.599H346.242L350.402 200.529Z" fill="white" fill-opacity="0.05"/>
<path d="M440 602.733L449.76 619.23H430.24L440 602.733Z" fill="white" fill-opacity="0.05"/>
<path d="M158.4 420.484L162.56 427.554H154.24L158.4 420.484Z" fill="white" fill-opacity="0.05"/>
<path d="M1121.6 123.544L1140.96 156.538H1102.24L1121.6 123.544Z" fill="white" fill-opacity="0.05"/>
<path d="M1121.6 385.92L1135.52 409.486H1107.68L1121.6 385.92Z" fill="white" fill-opacity="0.05"/>
<path d="M617.6 279.084L632.8 305.008H602.4L617.6 279.084Z" fill="white" fill-opacity="0.05"/>
<path d="M332.801 250.804L355.041 288.511H310.561L332.801 250.804Z" fill="white" fill-opacity="0.05"/>
<path d="M280.002 66.9844L289.762 83.481H270.242L280.002 66.9844Z" fill="white" fill-opacity="0.05"/>
<path d="M590.401 187.96L597.281 199.743H583.521L590.401 187.96Z" fill="white" fill-opacity="0.05"/>
<path d="M980.801 488.042L1000.16 521.035H961.441L980.801 488.042Z" fill="white" fill-opacity="0.05"/>
<path d="M840.001 85.8376L864.961 128.258H815.041L840.001 85.8376Z" fill="white" fill-opacity="0.05"/>
<path d="M667.202 186.389L686.562 219.382H647.842L667.202 186.389Z" fill="white" fill-opacity="0.05"/>
<path d="M136.002 192.673L158.242 230.38H113.762L136.002 192.673Z" fill="white" fill-opacity="0.05"/>
<path d="M822.402 275.942L830.722 290.082H814.082L822.402 275.942Z" fill="white" fill-opacity="0.05"/>
<path d="M548.801 539.889L571.04 577.595H526.561L548.801 539.889Z" fill="white" fill-opacity="0.05"/>
<path d="M952.001 21.4221L958.881 33.2055H945.121L952.001 21.4221Z" fill="white" fill-opacity="0.05"/>
<path d="M1262.4 533.604L1268 543.031H1256.8L1262.4 533.604Z" fill="white" fill-opacity="0.05"/>
<path d="M203.201 488.042L215.681 509.252H190.721L203.201 488.042Z" fill="white" fill-opacity="0.05"/>
<path d="M611.201 456.62L627.841 484.9H594.561L611.201 456.62Z" fill="white" fill-opacity="0.05"/>
<path d="M1321.6 616.873L1340.96 649.866H1302.24L1321.6 616.873Z" fill="white" fill-opacity="0.05"/>
<path d="M188.8 142.397L215.2 187.174H162.4L188.8 142.397Z" fill="white" fill-opacity="0.05"/>
<path d="M689.601 444.051L706.241 472.331H672.961L689.601 444.051Z" fill="white" fill-opacity="0.05"/>
<path d="M710.4 558.742L714.56 565.812H706.24L710.4 558.742Z" fill="white" fill-opacity="0.05"/>
<path d="M347.201 640.44L365.281 671.076H329.121L347.201 640.44Z" fill="white" fill-opacity="0.05"/>
<path d="M174.401 305.793L181.281 317.577H167.521L174.401 305.793Z" fill="white" fill-opacity="0.05"/>
<path d="M425.601 495.897L446.401 531.248H404.801L425.601 495.897Z" fill="white" fill-opacity="0.05"/>
<path d="M112.001 321.504L128.641 349.784H95.3613L112.001 321.504Z" fill="white" fill-opacity="0.05"/>
<path d="M406.402 291.653L414.722 305.793H398.082L406.402 291.653Z" fill="white" fill-opacity="0.05"/>
<path d="M1315.2 352.927L1317.92 357.64H1312.48L1315.2 352.927Z" fill="white" fill-opacity="0.05"/>
<path d="M428.802 120.402L431.522 125.115H426.082L428.802 120.402Z" fill="white" fill-opacity="0.05"/>
<path d="M560.002 343.5L568.322 357.64H551.682L560.002 343.5Z" fill="white" fill-opacity="0.05"/>
<path d="M1012.8 411.058L1025.28 432.268H1000.32L1012.8 411.058Z" fill="white" fill-opacity="0.05"/>
<path d="M1369.6 461.333L1376.48 473.116H1362.72L1369.6 461.333Z" fill="white" fill-opacity="0.05"/>
<path d="M1387.2 638.869L1403.84 667.149H1370.56L1387.2 638.869Z" fill="white" fill-opacity="0.05"/>
<path d="M1092.8 528.891L1108 554.814H1077.6L1092.8 528.891Z" fill="white" fill-opacity="0.05"/>
<path d="M792 657.722L796.16 664.792H787.84L792 657.722Z" fill="white" fill-opacity="0.05"/>
<path d="M332.8 345.071L353.6 380.421H312L332.8 345.071Z" fill="white" fill-opacity="0.05"/>
<path d="M641.601 390.633L652.641 409.486H630.561L641.601 390.633Z" fill="white" fill-opacity="0.05"/>
<path d="M660.802 632.584L685.762 675.004H635.842L660.802 632.584Z" fill="white" fill-opacity="0.05"/>
<path d="M1347.2 242.948L1354.08 254.732H1340.32L1347.2 242.948Z" fill="white" fill-opacity="0.05"/>
<path d="M1361.6 126.687L1386.56 169.107H1336.64L1361.6 126.687Z" fill="white" fill-opacity="0.05"/>
<path d="M1308.8 74.8398L1311.52 79.5532H1306.08L1308.8 74.8398Z" fill="white" fill-opacity="0.05"/>
<path d="M110.401 602.733L120.161 619.23H100.641L110.401 602.733Z" fill="white" fill-opacity="0.05"/>
<path d="M1252.8 18.2798L1268 44.2031H1237.6L1252.8 18.2798Z" fill="white" fill-opacity="0.05"/>
<path d="M995.201 299.509L997.921 304.222H992.48L995.201 299.509Z" fill="white" fill-opacity="0.05"/>
<path d="M254.402 334.073L266.882 355.283H241.922L254.402 334.073Z" fill="white" fill-opacity="0.05"/>
<path d="M1195.2 263.373L1207.68 284.583H1182.72L1195.2 263.373Z" fill="white" fill-opacity="0.05"/>
<path d="M769.601 161.251L773.761 168.321H765.441L769.601 161.251Z" fill="white" fill-opacity="0.05"/>
<path d="M494.402 508.467L497.122 513.18H491.682L494.402 508.467Z" fill="white" fill-opacity="0.05"/>
<path d="M30.4016 117.26L51.2016 152.61H9.60156L30.4016 117.26Z" fill="white" fill-opacity="0.05"/>
<path d="M515.202 129.829L520.802 139.255H509.602L515.202 129.829Z" fill="white" fill-opacity="0.05"/>
<path d="M198.4 43.4177L216.48 74.0544H180.32L198.4 43.4177Z" fill="white" fill-opacity="0.05"/>
<path d="M116.8 522.606L137.6 557.957H96L116.8 522.606Z" fill="white" fill-opacity="0.05"/>
<path d="M1158.4 448.764L1177.76 481.757H1139.04L1158.4 448.764Z" fill="white" fill-opacity="0.05"/>
<path d="M425.601 195.815L442.241 224.095H408.961L425.601 195.815Z" fill="white" fill-opacity="0.05"/>
<path d="M1057.6 180.104L1084 224.881H1031.2L1057.6 180.104Z" fill="white" fill-opacity="0.05"/>
<path d="M107.2 143.969L109.92 148.682H104.48L107.2 143.969Z" fill="white" fill-opacity="0.05"/>
<path d="M1081.6 286.94L1094.08 308.15H1069.12L1081.6 286.94Z" fill="white" fill-opacity="0.05"/>
<path d="M241.601 414.2L252.641 433.053H230.561L241.601 414.2Z" fill="white" fill-opacity="0.05"/>
<path d="M358.401 123.544L364.001 132.971H352.801L358.401 123.544Z" fill="white" fill-opacity="0.05"/>
<path d="M920 301.08L943.52 341.143H896.48L920 301.08Z" fill="white" fill-opacity="0.05"/>
<path d="M862.402 605.875L883.202 641.225H841.602L862.402 605.875Z" fill="white" fill-opacity="0.05"/>
<path d="M1291.2 450.335L1299.52 464.475H1282.88L1291.2 450.335Z" fill="white" fill-opacity="0.05"/>
<path d="M604.8 95.2642L631.2 140.041H578.4L604.8 95.2642Z" fill="white" fill-opacity="0.05"/>
<path d="M1195.2 346.642L1217.44 384.349H1172.96L1195.2 346.642Z" fill="white" fill-opacity="0.05"/>
<path d="M1140.8 43.4177L1163.04 81.1244H1118.56L1140.8 43.4177Z" fill="white" fill-opacity="0.05"/>
<path d="M1233.6 96.8352L1243.36 113.332H1223.84L1233.6 96.8352Z" fill="white" fill-opacity="0.05"/>
<path d="M940.802 420.484L956.002 446.407H925.602L940.802 420.484Z" fill="white" fill-opacity="0.05"/>
<path d="M1040 638.869L1051.04 657.722H1028.96L1040 638.869Z" fill="white" fill-opacity="0.05"/>
<path d="M1204.8 178.533L1208.96 185.603H1200.64L1204.8 178.533Z" fill="white" fill-opacity="0.05"/>
<path d="M88.0006 453.478L107.361 486.471H68.6406L88.0006 453.478Z" fill="white" fill-opacity="0.05"/>
<path d="M56.0005 635.726L79.5205 675.79H32.4805L56.0005 635.726Z" fill="white" fill-opacity="0.05"/>
<path d="M924.802 216.24L949.762 258.66H899.842L924.802 216.24Z" fill="white" fill-opacity="0.05"/>
<path d="M638.402 524.178L655.042 552.458H621.762L638.402 524.178Z" fill="white" fill-opacity="0.05"/>
<path d="M1040 13.5664L1053.92 37.1331H1026.08L1040 13.5664Z" fill="white" fill-opacity="0.05"/>
<path d="M196.8 216.24L223.2 261.016H170.4L196.8 216.24Z" fill="white" fill-opacity="0.05"/>
<path d="M1219.2 439.338L1221.92 444.051H1216.48L1219.2 439.338Z" fill="white" fill-opacity="0.05"/>
<path d="M22.4013 486.471L33.4413 505.324H11.3613L22.4013 486.471Z" fill="white" fill-opacity="0.05"/>
<path d="M436.8 348.213L463.2 392.99H410.4L436.8 348.213Z" fill="white" fill-opacity="0.05"/>
<path d="M510.402 637.298L527.042 665.578H493.762L510.402 637.298Z" fill="white" fill-opacity="0.05"/>
<path d="M185.601 574.453L203.681 605.09H167.521L185.601 574.453Z" fill="white" fill-opacity="0.05"/>
<path d="M974.4 159.68L988.32 183.246H960.48L974.4 159.68Z" fill="white" fill-opacity="0.05"/>
<path d="M761.601 503.753L764.321 508.466H758.881L761.601 503.753Z" fill="white" fill-opacity="0.05"/>
<path d="M713.601 19.8508L740.001 64.6275H687.201L713.601 19.8508Z" fill="white" fill-opacity="0.05"/>
<path d="M28.8005 552.458L51.0406 590.164H6.56055L28.8005 552.458Z" fill="white" fill-opacity="0.05"/>
<path d="M472.001 0.997559L492.801 36.3476H451.201L472.001 0.997559Z" fill="white" fill-opacity="0.05"/>
<path d="M1384 59.1287L1393.76 75.6253H1374.24L1384 59.1287Z" fill="white" fill-opacity="0.05"/>
<path d="M294.4 508.467L308.32 532.033H280.48L294.4 508.467Z" fill="white" fill-opacity="0.05"/>
<path d="M292.802 574.453L308.002 600.376H277.602L292.802 574.453Z" fill="white" fill-opacity="0.05"/>
<path d="M910.401 541.46L920.161 557.956H900.641L910.401 541.46Z" fill="white" fill-opacity="0.05"/>
<path d="M1230.4 588.593L1249.76 621.586H1211.04L1230.4 588.593Z" fill="white" fill-opacity="0.05"/>
<path d="M17.6009 396.917L34.2409 425.198H0.960938L17.6009 396.917Z" fill="white" fill-opacity="0.05"/>
<path d="M22.401 10.4243L41.761 43.4177H3.04102L22.401 10.4243Z" fill="white" fill-opacity="0.05"/>
<path d="M1164.8 506.895L1191.2 551.672H1138.4L1164.8 506.895Z" fill="white" fill-opacity="0.05"/>
<path d="M731.201 362.353L753.441 400.06H708.961L731.201 362.353Z" fill="white" fill-opacity="0.05"/>
<path d="M796.802 555.6L812.002 581.523H781.602L796.802 555.6Z" fill="white" fill-opacity="0.05"/>
<path d="M43.2013 194.244L57.1213 217.811H29.2812L43.2013 194.244Z" fill="white" fill-opacity="0.05"/>
<path d="M35.1998 264.944L54.5598 297.937H15.8398L35.1998 264.944Z" fill="white" fill-opacity="0.05"/>
<path d="M348.801 5.71094L371.041 43.4176H326.561L348.801 5.71094Z" fill="white" fill-opacity="0.05"/>
<path d="M896.002 38.7041L922.401 83.4808H869.602L896.002 38.7041Z" fill="white" fill-opacity="0.05"/>
<path d="M272.001 150.253L287.201 176.176H256.801L272.001 150.253Z" fill="white" fill-opacity="0.05"/>
<path d="M971.2 649.866L973.92 654.58H968.48L971.2 649.866Z" fill="white" fill-opacity="0.05"/>
<path d="M307.202 429.911L326.562 462.904H287.842L307.202 429.911Z" fill="white" fill-opacity="0.05"/>
<path d="M582.402 609.018L603.202 644.368H561.602L582.402 609.018Z" fill="white" fill-opacity="0.05"/>
<path d="M1120 231.951L1129.76 248.448H1110.24L1120 231.951Z" fill="white" fill-opacity="0.05"/>
<path d="M1276.8 275.942L1296.16 308.935H1257.44L1276.8 275.942Z" fill="white" fill-opacity="0.05"/>
<path d="M539.201 40.2754L553.121 63.8421H525.281L539.201 40.2754Z" fill="white" fill-opacity="0.05"/>
<path d="M1252.8 219.382L1265.28 240.592H1240.32L1252.8 219.382Z" fill="white" fill-opacity="0.05"/>
<path d="M1035.2 332.502L1056 367.852H1014.4L1035.2 332.502Z" fill="white" fill-opacity="0.05"/>
<path d="M771.201 222.524L785.121 246.091H757.281L771.201 222.524Z" fill="white" fill-opacity="0.05"/>
<path d="M502.402 197.386L514.882 218.596H489.922L502.402 197.386Z" fill="white" fill-opacity="0.05"/>
<path d="M361.6 536.746L376.8 562.67H346.4L361.6 536.746Z" fill="white" fill-opacity="0.05"/>
<path d="M1064 455.049L1080.64 483.329H1047.36L1064 455.049Z" fill="white" fill-opacity="0.05"/>
<path d="M1185.6 649.866L1196.64 668.72H1174.56L1185.6 649.866Z" fill="white" fill-opacity="0.05"/>
<path d="M697.601 134.542L700.321 139.255H694.881L697.601 134.542Z" fill="white" fill-opacity="0.05"/>
<path d="M1379.2 326.218L1387.52 340.358H1370.88L1379.2 326.218Z" fill="white" fill-opacity="0.05"/>
<path d="M910.4 129.829L928.48 160.465H892.32L910.4 129.829Z" fill="white" fill-opacity="0.05"/>
<path d="M264.001 645.153L270.881 656.936H257.121L264.001 645.153Z" fill="white" fill-opacity="0.05"/>
<path d="M865.601 398.489L890.561 440.909H840.641L865.601 398.489Z" fill="white" fill-opacity="0.05"/>
<path d="M980.801 79.5532L998.881 110.19H962.721L980.801 79.5532Z" fill="white" fill-opacity="0.05"/>
<path d="M270.401 230.38L277.281 242.163H263.521L270.401 230.38Z" fill="white" fill-opacity="0.05"/>
<path d="M89.6004 387.491L104.8 413.414H74.4004L89.6004 387.491Z" fill="white" fill-opacity="0.05"/>
<path d="M443.2 431.482L464 466.832H422.4L443.2 431.482Z" fill="white" fill-opacity="0.05"/>
<path d="M1107.2 654.58L1112.8 664.006H1101.6L1107.2 654.58Z" fill="white" fill-opacity="0.05"/>
<path d="M1376 393.775L1382.88 405.559H1369.12L1376 393.775Z" fill="white" fill-opacity="0.05"/>
<path d="M780.8 417.342L797.44 445.622H764.16L780.8 417.342Z" fill="white" fill-opacity="0.05"/>
</svg>
