<svg width="28" height="38" viewBox="0 0 28 38" stroke="#fff" fill="#fff" xmlns="http://www.w3.org/2000/svg">
<path d="M14 0C11.697 0 9.8 1.89699 9.8 4.2H4.2C1.89704 4.2 0 6.09704 0 8.4V33.6C0 35.903 1.89704 37.8 4.2 37.8H23.8C26.103 37.8 28 35.903 28 33.6V8.4C28 6.09704 26.103 4.2 23.8 4.2H18.2C18.2 1.89699 16.303 0 14 0ZM14 2.8C14.7898 2.8 15.4 3.41022 15.4 4.2C15.4 4.98978 14.7898 5.6 14 5.6C13.2102 5.6 12.6 4.98978 12.6 4.2C12.6 3.41022 13.2102 2.8 14 2.8ZM4.2 7H9.8V8.4C9.8 9.1728 10.4272 9.8 11.2 9.8H16.8C17.5728 9.8 18.2 9.1728 18.2 8.4V7H23.8C24.591 7 25.2 7.60896 25.2 8.4V33.6C25.2 34.391 24.591 35 23.8 35H4.2C3.40896 35 2.8 34.391 2.8 33.6V8.4C2.8 7.60896 3.40896 7 4.2 7ZM13.9781 15.3809C13.6073 15.3867 13.2539 15.5393 12.9956 15.8054C12.7372 16.0715 12.5949 16.4292 12.6 16.8V21H8.4C8.21448 20.9974 8.0303 21.0316 7.85814 21.1008C7.68598 21.17 7.52929 21.2727 7.39718 21.403C7.26506 21.5332 7.16015 21.6885 7.08854 21.8596C7.01694 22.0308 6.98006 22.2145 6.98006 22.4C6.98006 22.5855 7.01694 22.7692 7.08854 22.9404C7.16015 23.1115 7.26506 23.2668 7.39718 23.397C7.52929 23.5273 7.68598 23.63 7.85814 23.6992C8.0303 23.7683 8.21448 23.8026 8.4 23.8H12.6V28C12.5974 28.1855 12.6316 28.3697 12.7008 28.5419C12.77 28.714 12.8727 28.8707 13.003 29.0028C13.1332 29.1349 13.2885 29.2399 13.4596 29.3115C13.6308 29.3831 13.8145 29.4199 14 29.4199C14.1855 29.4199 14.3692 29.3831 14.5404 29.3115C14.7115 29.2399 14.8668 29.1349 14.997 29.0028C15.1273 28.8707 15.23 28.714 15.2992 28.5419C15.3684 28.3697 15.4026 28.1855 15.4 28V23.8H19.6C19.7855 23.8026 19.9697 23.7683 20.1419 23.6992C20.314 23.63 20.4707 23.5273 20.6028 23.397C20.7349 23.2668 20.8399 23.1115 20.9115 22.9404C20.9831 22.7692 21.0199 22.5855 21.0199 22.4C21.0199 22.2145 20.9831 22.0308 20.9115 21.8596C20.8399 21.6885 20.7349 21.5332 20.6028 21.403C20.4707 21.2727 20.314 21.17 20.1419 21.1008C19.9697 21.0316 19.7855 20.9974 19.6 21H15.4V16.8C15.4026 16.6127 15.3675 16.4268 15.2969 16.2533C15.2264 16.0797 15.1217 15.9222 14.9891 15.7898C14.8565 15.6575 14.6987 15.5531 14.5251 15.4829C14.3514 15.4126 14.1654 15.3779 13.9781 15.3809Z" stroke-width="0"/>
</svg>
