<svg width="38" height="36" viewBox="0 0 38 36" stroke="#fff" fill="#fff" xmlns="http://www.w3.org/2000/svg">
<path d="M18.9819 0.66662C18.7008 0.670274 18.4281 0.762646 18.2027 0.930544C17.9773 1.09844 17.8107 1.33328 17.7267 1.60152L12.1251 19.5286L10.573 15.9869V15.9843C9.48747 13.5063 5.80375 13.4109 4.59386 15.8307L4.17719 16.6666H1.66678C1.49009 16.6641 1.31468 16.6968 1.15072 16.7626C0.986761 16.8285 0.837533 16.9263 0.711707 17.0504C0.585881 17.1745 0.485966 17.3223 0.417769 17.4853C0.349572 17.6483 0.314453 17.8233 0.314453 18C0.314453 18.1767 0.349572 18.3516 0.417769 18.5146C0.485966 18.6776 0.585881 18.8254 0.711707 18.9495C0.837533 19.0736 0.986761 19.1714 1.15072 19.2373C1.31468 19.3031 1.49009 19.3358 1.66678 19.3333H5.00011C5.24774 19.3333 5.49048 19.2644 5.70114 19.1342C5.9118 19.004 6.08205 18.8178 6.19282 18.5963L6.97928 17.0234C7.2624 16.4571 7.87612 16.4733 8.13032 17.0546L11.1121 23.8671C11.2208 24.1162 11.403 24.3261 11.6344 24.4688C11.8657 24.6114 12.1351 24.6799 12.4065 24.6652C12.6778 24.6505 12.9382 24.5532 13.1528 24.3863C13.3673 24.2195 13.5258 23.9911 13.6069 23.7317L18.2397 8.91141L20.3386 34.1119C20.3636 34.4096 20.4878 34.6903 20.6913 34.909C20.8948 35.1277 21.1659 35.2717 21.4611 35.318C21.7562 35.3642 22.0583 35.31 22.319 35.164C22.5797 35.0181 22.7837 34.7888 22.8985 34.513L29.2215 19.3333H32.6954C32.9291 19.738 33.265 20.0742 33.6694 20.3082C34.0739 20.5422 34.5328 20.6658 35.0001 20.6666C35.7073 20.6666 36.3856 20.3857 36.8857 19.8856C37.3858 19.3855 37.6668 18.7072 37.6668 18C37.6668 17.2927 37.3858 16.6144 36.8857 16.1143C36.3856 15.6142 35.7073 15.3333 35.0001 15.3333C34.5324 15.3337 34.0729 15.457 33.668 15.6911C33.263 15.9251 32.9267 16.2615 32.6928 16.6666H28.3334C28.0701 16.6664 27.8125 16.7442 27.5933 16.8902C27.3741 17.0362 27.203 17.2438 27.1017 17.4869L22.5392 28.4349L20.3282 1.88797C20.2999 1.55186 20.1452 1.23897 19.8954 1.01233C19.6456 0.785702 19.3192 0.662168 18.9819 0.66662Z" stroke-width="0"/>
</svg>
