<svg width="498" height="460" viewBox="0 0 498 460" fill="none" xmlns="http://www.w3.org/2000/svg">
<g clip-path="url(#clip0_5869_19509)">
<path d="M453.701 368.533L413.275 308.514C413.275 308.514 474.497 329.876 467.549 368.533H453.701Z" fill="#E5E5E5"/>
<path d="M34.6558 368.931L33.1211 368.901C33.7146 351.846 35.5353 334.855 38.5689 318.06C45.2051 282.104 56.24 258.49 71.3672 247.873L72.2484 249.129C36.9113 273.928 34.6737 367.984 34.6558 368.931Z" fill="#E5E5E5"/>
<path d="M53.8394 368.564L52.3047 368.534C52.3377 366.835 53.2969 326.8 69.0654 315.734L69.9466 316.989C54.8143 327.609 53.8468 368.156 53.8394 368.564Z" fill="#E5E5E5"/>
<path d="M80.978 249.268C85.2159 249.268 88.6514 245.834 88.6514 241.598C88.6514 237.362 85.2159 233.928 80.978 233.928C76.7402 233.928 73.3047 237.362 73.3047 241.598C73.3047 245.834 76.7402 249.268 80.978 249.268Z" fill="#6C63FF"/>
<path d="M77.1773 315.228C81.4151 315.228 84.8506 311.794 84.8506 307.558C84.8506 303.322 81.4151 299.888 77.1773 299.888C72.9394 299.888 69.5039 303.322 69.5039 307.558C69.5039 311.794 72.9394 315.228 77.1773 315.228Z" fill="#6C63FF"/>
<path d="M50.261 253.866C51.7031 263.072 47.9445 271.307 47.9445 271.307C47.9445 271.307 41.8478 264.615 40.4057 255.408C38.9636 246.201 42.7222 237.966 42.7222 237.966C42.7222 237.966 48.8189 244.659 50.261 253.866Z" fill="#E5E5E5"/>
<path d="M75.3442 276.226C66.5252 279.249 57.7578 276.985 57.7578 276.985C57.7578 276.985 63.2887 269.818 72.1076 266.795C80.9266 263.771 89.694 266.036 89.694 266.036C89.694 266.036 84.1631 273.202 75.3442 276.226Z" fill="#E5E5E5"/>
<path d="M75.6274 334.64C71.636 335.893 67.3854 336.076 63.3008 335.172C65.8943 331.871 69.3873 329.391 73.3589 328.029C77.3305 326.667 81.6113 326.483 85.6855 327.497C83.0163 330.717 79.548 333.18 75.6274 334.64Z" fill="#E5E5E5"/>
<path d="M497.233 370.067H0.767334C0.563825 370.067 0.368661 369.986 0.224758 369.842C0.080855 369.698 0 369.503 0 369.3C0 369.096 0.080855 368.901 0.224758 368.757C0.368661 368.614 0.563825 368.533 0.767334 368.533H497.233C497.436 368.533 497.631 368.614 497.775 368.757C497.919 368.901 498 369.096 498 369.3C498 369.503 497.919 369.698 497.775 369.842C497.631 369.986 497.436 370.067 497.233 370.067Z" fill="#CBCBCB"/>
<path d="M314.447 405.424L308.169 421.756L242.16 405.325L251.425 381.221L314.447 405.424Z" fill="#FFB7B7"/>
<path d="M331.888 407.341L311.646 460L310.98 459.744C305.541 457.656 301.156 453.493 298.787 448.173C296.419 442.852 296.262 436.809 298.351 431.373L298.352 431.372L310.715 399.21L331.888 407.341Z" fill="#2F2E41"/>
<path d="M214.144 200.941L185.378 203.633L183.951 289.183C184.332 293.376 186.341 297.253 189.547 299.983C192.753 302.714 196.902 304.08 201.104 303.791L219.342 302.535L214.144 200.941Z" fill="#E5E5E5"/>
<path d="M315.556 196.73L295.873 196.477L294.707 298.129C299.056 298.274 303.389 297.521 307.435 295.919C311.48 294.316 315.152 291.897 318.221 288.813C321.29 285.729 323.691 282.046 325.273 277.994C326.855 273.942 327.584 269.607 327.416 265.261L315.556 196.73Z" fill="#E5E5E5"/>
<path d="M201.349 334.241C200.883 337.189 200.206 340.101 199.325 342.953C198.331 345.744 196.798 348.326 195.89 351.146C192.995 360.136 197.008 370.16 203.417 377.099C208.975 383.092 216.15 387.351 224.075 389.36C229.857 390.813 235.869 391.022 241.827 391.224C258.327 391.784 275.251 392.284 290.886 386.984C295.825 385.268 300.597 383.102 305.139 380.512C306.573 379.829 307.837 378.834 308.837 377.601C310.03 375.904 310.182 373.704 310.172 371.63C310.137 364.639 308.719 357.683 309.055 350.699C309.242 346.831 309.966 342.966 309.61 339.11C309.116 334.731 307.281 330.611 304.354 327.314C301.428 324.017 297.554 321.705 293.262 320.693C288.827 319.742 284.227 320.26 279.712 320.694C267.991 321.82 256.22 322.346 244.445 322.27C232.415 322.194 220.458 320.358 208.487 320.166C204.947 320.11 205.019 321.2 203.892 324.625C202.854 327.777 202.005 330.988 201.349 334.241Z" fill="#2F2E41"/>
<path d="M154.305 328.559C151.07 327.746 147.737 327.392 144.403 327.507C140.9 327.7 137.479 328.637 134.366 330.254C131.254 331.872 128.522 334.133 126.351 336.888C124.181 339.643 122.622 342.828 121.778 346.231C120.934 349.635 120.825 353.179 121.458 356.628C122.266 360.364 123.586 363.97 125.382 367.345C128.008 372.672 131.158 377.986 136.019 381.4C138.863 383.397 142.155 384.642 145.407 385.866L171.012 395.508C174.779 396.926 178.546 398.344 182.35 399.66C201.461 406.262 221.386 410.222 241.571 411.427C247.719 411.793 253.96 411.895 259.958 410.496C261.381 410.164 262.9 409.669 263.724 408.463C264.212 407.613 264.5 406.663 264.565 405.685L266.141 394.66C266.363 393.107 266.576 391.473 266.007 390.012C265.285 388.159 263.476 386.994 261.751 386.003C244.917 376.34 225.262 371.008 211.093 357.745C207.758 354.623 204.966 349.673 200.914 347.552C196.318 345.147 190.906 343.774 186.155 341.558C175.771 336.713 165.56 331.145 154.305 328.559Z" fill="#2F2E41"/>
<path opacity="0.1" d="M179.868 343.422C188.918 346.257 227.128 365.894 233.678 372.751C232.8 373.067 203.014 356.383 202.121 356.115C193.996 353.677 185.827 351.224 178.112 347.658C176.56 346.94 168.029 343.568 168.415 341.61C168.851 339.402 178.261 342.919 179.868 343.422Z" fill="black"/>
<path d="M234.486 172.187L210.119 190.68C210.119 190.68 184.407 191.484 185.275 207.913C186.144 224.342 196.435 302.126 196.435 302.126L198.668 328.89L241.019 340.952C263.902 347.469 288.078 347.987 311.22 342.456L306.187 315.606C306.187 315.606 326.566 193.663 314.289 188.294C302.012 182.925 294.338 184.459 294.338 184.459L278.949 171.037L234.486 172.187Z" fill="#E5E5E5"/>
<path d="M306.616 142.316C306.616 166.323 284.407 162.692 257.011 162.692C229.615 162.692 207.406 166.323 207.406 142.316C207.406 118.309 218.255 75.7546 257.011 75.7546C297.103 75.7546 306.616 118.309 306.616 142.316Z" fill="#2F2E41"/>
<path d="M282.797 150.452C295.832 137.423 295.832 116.298 282.797 103.269C269.761 90.2393 248.627 90.2393 235.591 103.269C222.556 116.298 222.556 137.423 235.591 150.452C248.626 163.481 269.761 163.481 282.797 150.452Z" fill="#FFB7B7"/>
<path d="M218.279 126.015H231.481L237.306 109.715L238.47 126.015H244.781L248.178 116.507L248.858 126.015H295.744C295.744 116.648 292.022 107.665 285.395 101.042C278.768 94.4181 269.781 90.697 260.409 90.697H253.614C244.243 90.697 235.255 94.4181 228.629 101.042C222.002 107.665 218.279 116.648 218.279 126.015Z" fill="#2F2E41"/>
<path d="M290.502 176.022H223.744V256.554H290.502V176.022Z" fill="#6C63FF"/>
<path d="M227.424 404.657L233.702 420.989L299.711 404.558L290.446 380.454L227.424 404.657Z" fill="#FFB7B7"/>
<path d="M231.157 398.443L243.52 430.605L243.521 430.606C245.61 436.042 245.453 442.085 243.085 447.406C240.716 452.726 236.331 456.888 230.892 458.977L230.226 459.233L209.984 406.574L231.157 398.443Z" fill="#2F2E41"/>
<path d="M359.37 322.308C364.673 320.978 370.17 320.603 375.604 321.199C379.944 321.677 384.416 322.884 387.585 325.886C391.442 329.541 392.681 335.193 392.784 340.504C392.954 351.082 389.444 361.391 382.854 369.67C381.244 371.764 379.331 373.605 377.176 375.133C374.852 376.586 372.375 377.779 369.789 378.691L312.448 401.297C297.363 407.245 282.224 413.209 266.49 417.13C265.634 417.543 264.65 417.599 263.753 417.286C262.856 416.973 262.12 416.317 261.707 415.462C261.694 415.436 261.682 415.41 261.67 415.383C256.646 408.21 252.431 400.504 249.102 392.405C248.945 392.212 248.836 391.985 248.785 391.741C248.734 391.498 248.742 391.245 248.809 391.006C248.877 390.766 249.001 390.547 249.171 390.365C249.341 390.184 249.552 390.046 249.787 389.963L290.345 366.671C293.25 365.002 296.188 363.31 298.6 360.986C300.353 359.288 301.788 357.291 302.838 355.088C303.679 353.333 303.757 349.191 304.831 347.894C305.882 346.624 309.479 346.522 311.14 346.023C313.483 345.305 315.777 344.439 318.009 343.427C327.081 339.371 335.16 333.476 343.857 328.726C348.735 325.938 353.948 323.782 359.37 322.308Z" fill="#2F2E41"/>
<path opacity="0.1" d="M336.377 339.702C329.409 344.933 320.387 349.742 313.481 355.111C311.124 356.943 271.833 379.022 271.277 381.955C277.72 383.04 318.762 354.341 324.634 351.478C330.506 348.614 335.712 344.576 340.87 340.567C342.184 339.545 347.755 336.474 343.982 335.333C341.856 334.69 337.946 338.656 336.377 339.702Z" fill="black"/>
<path d="M461.618 137.837C474.861 137.837 485.596 127.107 485.596 113.871C485.596 100.634 474.861 89.9044 461.618 89.9044C448.376 89.9044 437.641 100.634 437.641 113.871C437.641 127.107 448.376 137.837 461.618 137.837Z" fill="#F1F1F1"/>
<path d="M417.242 142.13C426.531 142.13 434.062 134.602 434.062 125.317C434.062 116.032 426.531 108.505 417.242 108.505C407.952 108.505 400.422 116.032 400.422 125.317C400.422 134.602 407.952 142.13 417.242 142.13Z" fill="#F1F1F1"/>
<path d="M109.125 131.163C116.574 131.163 122.612 125.127 122.612 117.682C122.612 110.237 116.574 104.202 109.125 104.202C101.677 104.202 95.6387 110.237 95.6387 117.682C95.6387 125.127 101.677 131.163 109.125 131.163Z" fill="#F1F1F1"/>
<path d="M131.33 140.227C136.555 140.227 140.791 135.994 140.791 130.771C140.791 125.548 136.555 121.315 131.33 121.315C126.105 121.315 121.869 125.548 121.869 130.771C121.869 135.994 126.105 140.227 131.33 140.227Z" fill="#F1F1F1"/>
<path d="M262.163 20.609C267.857 20.609 272.472 15.9955 272.472 10.3045C272.472 4.61349 267.857 0 262.163 0C256.469 0 251.854 4.61349 251.854 10.3045C251.854 15.9955 256.469 20.609 262.163 20.609Z" fill="#F1F1F1"/>
<path opacity="0.17" d="M200.725 227.409L201.646 220.299C201.646 220.299 236.022 222.808 230.651 231.244C225.279 239.681 212.235 240.448 212.235 240.448L200.725 227.409Z" fill="#2F2E41"/>
<path d="M226.672 196.495C228.642 196.711 230.538 197.361 232.226 198.397C233.915 199.433 235.352 200.83 236.437 202.487C237.424 203.999 238.096 205.696 238.412 207.474C238.728 209.252 238.68 211.076 238.273 212.836C237.866 214.595 237.107 216.254 236.042 217.713C234.977 219.172 233.628 220.401 232.076 221.326C231.507 221.662 230.913 221.954 230.299 222.199L209.17 286.8C208.557 288.074 207.699 289.215 206.644 290.157C205.589 291.1 204.358 291.824 203.022 292.289C201.686 292.754 200.272 292.95 198.86 292.867C197.447 292.784 196.066 292.422 194.794 291.803C193.522 291.184 192.385 290.32 191.448 289.26C190.511 288.201 189.794 286.967 189.336 285.629C188.878 284.291 188.689 282.876 188.78 281.465C188.871 280.054 189.241 278.675 189.867 277.407L212.337 213.524C211.725 211.41 211.644 209.178 212.1 207.025C212.557 204.873 213.537 202.866 214.954 201.182C216.372 199.498 218.183 198.19 220.226 197.372C222.27 196.555 224.484 196.253 226.672 196.495Z" fill="#FFB7B7"/>
<path d="M201.039 220.905C201.039 220.905 213.146 241.581 230.649 231.244L213.686 296.129H199.394L184.609 293.369L188.749 266.561L201.039 220.905Z" fill="#E5E5E5"/>
<path d="M287.487 235.037L277.457 221.274C277.457 221.274 282.278 206.998 300.969 212.218C300.969 212.218 312.863 238.829 287.487 235.037Z" fill="#E5E5E5"/>
<path opacity="0.17" d="M287.487 235.037L277.457 221.274C277.457 221.274 282.278 206.998 300.969 212.218C300.969 212.218 312.863 238.829 287.487 235.037Z" fill="#2F2E41"/>
<path d="M290.144 186.951C293.037 188.295 295.352 190.633 296.666 193.539C297.981 196.445 298.208 199.727 297.306 202.786L319.777 266.669C320.403 267.937 320.772 269.316 320.864 270.728C320.955 272.139 320.766 273.554 320.308 274.892C319.85 276.23 319.132 277.464 318.196 278.524C317.259 279.583 316.122 280.447 314.85 281.066C313.578 281.685 312.196 282.047 310.784 282.13C309.372 282.213 307.957 282.017 306.621 281.552C305.285 281.087 304.054 280.362 302.999 279.42C301.944 278.478 301.086 277.337 300.474 276.062L279.344 211.462C278.731 211.217 278.137 210.925 277.567 210.589C276.015 209.664 274.667 208.435 273.602 206.976C272.537 205.517 271.778 203.858 271.37 202.098C270.963 200.338 270.916 198.515 271.231 196.736C271.547 194.958 272.219 193.262 273.207 191.75C274.291 190.092 275.729 188.696 277.417 187.66C279.105 186.623 281.002 185.974 282.971 185.757C285.426 185.479 287.911 185.892 290.144 186.951Z" fill="#FFB7B7"/>
<path d="M277.457 221.274C277.457 221.274 294.005 231.31 300.969 212.218L324.287 273.587L317.358 285.699L316.356 285.783C312.223 286.127 308.067 285.464 304.247 283.849C300.427 282.235 297.055 279.717 294.423 276.513C289.054 269.978 285.399 262.208 283.788 253.907L277.457 221.274Z" fill="#E5E5E5"/>
</g>
<defs>
<clipPath id="clip0_5869_19509">
<rect width="498" height="460" fill="white"/>
</clipPath>
</defs>
</svg>
