<svg width="23" height="33" viewBox="0 0 23 33" stroke="#fff" fill="#fff" xmlns="http://www.w3.org/2000/svg">
<path d="M7.39974 0.100098C5.90589 0.100098 4.66641 1.33958 4.66641 2.83343V13.66C2.24025 15.6646 0.566406 18.5801 0.566406 21.9668C0.566406 27.9889 5.47761 32.9001 11.4997 32.9001C17.5219 32.9001 22.4331 27.9889 22.4331 21.9668C22.4331 18.5801 20.7592 15.6646 18.3331 13.66V2.83343C18.3331 1.33958 17.0936 0.100098 15.5997 0.100098H7.39974ZM7.39974 2.83343H15.5997V14.8345L16.1843 15.2429C18.3093 16.7264 19.6997 19.172 19.6997 21.9668C19.6997 26.5117 16.0447 30.1668 11.4997 30.1668C6.9548 30.1668 3.29974 26.5117 3.29974 21.9668C3.29974 19.172 4.69015 16.7264 6.81517 15.2429L7.39974 14.8345V2.83343ZM10.1331 6.93343V16.6789C8.96049 16.9817 7.92163 17.6653 7.17957 18.6223C6.4375 19.5794 6.03424 20.7557 6.03307 21.9668C6.03307 23.4166 6.60902 24.8071 7.63422 25.8323C8.65942 26.8575 10.0499 27.4334 11.4997 27.4334C12.9496 27.4334 14.3401 26.8575 15.3653 25.8323C16.3905 24.8071 16.9664 23.4166 16.9664 21.9668C16.9647 20.7562 16.5611 19.5804 15.8191 18.6239C15.0771 17.6674 14.0385 16.9843 12.8664 16.6816V6.93343H10.1331Z" stroke-width="0"/>
</svg>
