<svg width="10" height="21" viewBox="0 0 10 21" fill="none" xmlns="http://www.w3.org/2000/svg">
<path d="M6.01512 0.00569957C7.12244 -0.00425706 8.22933 0.00176549 9.33665 0.00220261C9.34102 1.17033 9.34136 2.3389 9.33621 3.50699C8.6206 3.50572 7.90445 3.50873 7.18888 3.50572C6.73505 3.47746 6.26913 3.82142 6.18661 4.27127C6.17578 5.05289 6.18273 5.83494 6.18317 6.61661C7.23269 6.62093 8.28231 6.6153 9.33184 6.61923C9.255 7.74997 9.11469 8.87555 8.95019 9.99677C8.0231 10.0055 7.09548 9.99589 6.1684 10.0016C6.16014 13.3366 6.17277 16.6715 6.16194 20.0065C4.78491 20.0122 3.40706 20.0039 2.03008 20.0104C2.004 16.675 2.03222 13.3379 2.01576 10.002C1.34395 9.99502 0.671757 10.0068 0 9.99638C0.00257415 8.87516 0.000874241 7.754 0.00126279 6.63317C0.672583 6.62497 1.34439 6.63492 2.01576 6.62841C2.03616 5.53843 1.99531 4.44718 2.03703 3.35812C2.10435 2.49563 2.43306 1.62669 3.07791 1.03094C3.85822 0.287934 4.96807 0.036978 6.01512 0.00569957Z" fill="white"/>
</svg>
