<svg width="20" height="20" viewBox="0 0 20 20" fill="none" xmlns="http://www.w3.org/2000/svg">
<path fill-rule="evenodd" clip-rule="evenodd" d="M5.86364 0.0995904C4.80166 0.148066 4.07644 0.316699 3.44182 0.563353C2.77612 0.813887 2.17303 1.2066 1.67469 1.71413C1.16705 2.21242 0.774218 2.81551 0.523604 3.48125C0.277149 4.11591 0.108515 4.84114 0.0602376 5.90312C0.0114851 6.96712 0 7.307 0 10.0166C0 12.7262 0.0114851 13.0661 0.0602376 14.1301C0.108713 15.1921 0.277347 15.9173 0.524 16.5519C0.774535 17.2176 1.16725 17.8207 1.67477 18.3191C2.17311 18.8266 2.7762 19.2193 3.4419 19.4698C4.07655 19.7165 4.80178 19.8851 5.86372 19.9336C6.92788 19.9822 7.26764 19.9937 9.97723 19.9937C12.6868 19.9937 13.0267 19.9822 14.0907 19.9336C15.1527 19.8851 15.8779 19.7165 16.5126 19.4698C17.8527 18.9515 18.9121 17.8921 19.4305 16.5519C19.6771 15.9173 19.8457 15.1921 19.8942 14.1301C19.9428 13.066 19.9543 12.7262 19.9543 10.0166C19.9543 7.30704 19.9428 6.96712 19.8942 5.90312C19.8457 4.84114 19.6771 4.11591 19.4305 3.48129C19.1799 2.81555 18.7872 2.2125 18.2797 1.71416C17.7813 1.20652 17.1782 0.813729 16.5124 0.563155C15.8778 0.316699 15.1526 0.148066 14.0906 0.0997884C13.0266 0.0510359 12.6867 0.0395508 9.97707 0.0395508C7.26752 0.0395508 6.92764 0.0510359 5.86364 0.0995904ZM14.0088 1.89543C14.9815 1.93983 15.5097 2.10232 15.8613 2.23896C16.2947 2.39888 16.6867 2.65393 17.0085 2.98529C17.3399 3.30712 17.5949 3.69912 17.7549 4.13246C17.8915 4.48403 18.054 5.0123 18.0984 5.98506C18.1464 7.03713 18.1566 7.35266 18.1566 10.0167C18.1566 12.6808 18.1464 12.9963 18.0984 14.0484C18.054 15.0212 17.8914 15.5494 17.7549 15.901C17.4192 16.7712 16.7315 17.4589 15.8613 17.7945C15.5098 17.9312 14.9815 18.0937 14.0088 18.138C12.9569 18.186 12.6413 18.1962 9.97707 18.1962C7.31279 18.1962 6.99739 18.186 5.94539 18.138C4.97263 18.0936 4.4444 17.9311 4.09279 17.7945C3.65945 17.6346 3.26745 17.3796 2.94562 17.0482C2.61426 16.7264 2.35921 16.3344 2.19929 15.901C2.06265 15.5495 1.90012 15.0212 1.85576 14.0484C1.80776 12.9964 1.79758 12.6808 1.79758 10.0167C1.79758 7.35266 1.80776 7.03721 1.85576 5.98506C1.90016 5.0123 2.06265 4.48407 2.19929 4.13246C2.35925 3.69908 2.6143 3.30708 2.9457 2.98525C3.26752 2.65389 3.65952 2.39884 4.09287 2.23892C4.44444 2.10228 4.97271 1.93975 5.94547 1.89539C6.99754 1.84739 7.31307 1.83721 9.97715 1.83721C12.6411 1.83725 12.9566 1.84743 14.0088 1.89543ZM6.65145 10.0166C6.65145 8.17985 8.14044 6.69094 9.97715 6.69094C11.8139 6.69098 13.3028 8.17993 13.3028 10.0166C13.3028 11.8533 11.8138 13.3423 9.97707 13.3423C8.14036 13.3423 6.65141 11.8533 6.65145 10.0166ZM4.8537 10.0166C4.8537 12.8462 7.14752 15.14 9.97707 15.14C12.8066 15.14 15.1004 12.8462 15.1004 10.0166C15.1004 7.18706 12.8066 4.89324 9.97707 4.89324C7.14752 4.89324 4.8537 7.18706 4.8537 10.0166ZM15.3028 5.88806C15.9641 5.88806 16.5001 5.35206 16.5001 4.69083C16.5001 4.02965 15.9641 3.49361 15.3028 3.49361C14.6416 3.49361 14.1056 4.02965 14.1056 4.69083C14.1056 5.35206 14.6416 5.88806 15.3028 5.88806Z" fill="white"/>
</svg>
